<svg width="90" height="91" viewBox="0 0 90 91" fill="none" xmlns="http://www.w3.org/2000/svg">
<rect x="1" y="1.18945" width="88" height="88" rx="44" stroke="#7ECA9D" strokeWidth="2" stroke-dasharray="6 4"/>
<g clipPath="url(#clip0_56_183)">
<path d="M48.5617 59.4754H66.4188V55.904H48.5617V59.4754ZM37.8474 45.1897H66.4188V41.6183H37.8474V45.1897ZM55.7045 30.904H66.4188V27.3326H55.7045V30.904ZM69.9902 54.1183V61.2612C69.9902 61.7448 69.8135 62.1633 69.4601 62.5167C69.1067 62.8702 68.6882 63.0469 68.2045 63.0469H21.7759C21.2923 63.0469 20.8738 62.8702 20.5204 62.5167C20.1669 62.1633 19.9902 61.7448 19.9902 61.2612V54.1183C19.9902 53.6347 20.1669 53.2161 20.5204 52.8627C20.8738 52.5093 21.2923 52.3326 21.7759 52.3326H68.2045C68.6882 52.3326 69.1067 52.5093 69.4601 52.8627C69.8135 53.2161 69.9902 53.6347 69.9902 54.1183ZM69.9902 39.8326V46.9754C69.9902 47.4591 69.8135 47.8776 69.4601 48.231C69.1067 48.5844 68.6882 48.7612 68.2045 48.7612H21.7759C21.2923 48.7612 20.8738 48.5844 20.5204 48.231C20.1669 47.8776 19.9902 47.4591 19.9902 46.9754V39.8326C19.9902 39.349 20.1669 38.9304 20.5204 38.577C20.8738 38.2236 21.2923 38.0469 21.7759 38.0469H68.2045C68.6882 38.0469 69.1067 38.2236 69.4601 38.577C69.8135 38.9304 69.9902 39.349 69.9902 39.8326ZM69.9902 25.5469V32.6897C69.9902 33.1734 69.8135 33.5919 69.4601 33.9453C69.1067 34.2987 68.6882 34.4754 68.2045 34.4754H21.7759C21.2923 34.4754 20.8738 34.2987 20.5204 33.9453C20.1669 33.5919 19.9902 33.1734 19.9902 32.6897V25.5469C19.9902 25.0632 20.1669 24.6447 20.5204 24.2913C20.8738 23.9379 21.2923 23.7612 21.7759 23.7612H68.2045C68.6882 23.7612 69.1067 23.9379 69.4601 24.2913C69.8135 24.6447 69.9902 25.0632 69.9902 25.5469Z" fill="#7ECA9D"/>
</g>
<defs>
<clipPath id="clip0_56_183">
<rect width="50.02" height="50" fill="white" transform="matrix(1 0 0 -1 19.9805 70.1895)"/>
</clipPath>
</defs>
</svg>
