<svg width="90" height="91" viewBox="0 0 90 91" fill="none" xmlns="http://www.w3.org/2000/svg">
<rect x="1" y="1.96973" width="88" height="88" rx="44" stroke="#7ECA9D" strokeWidth="2" stroke-dasharray="6 4"/>
<g clipPath="url(#clip0_56_210)">
<path d="M43.317 53.5871L42.8984 63.8549L42.8426 64.4688L31.1239 63.6596C30.4542 63.6038 29.8311 63.3108 29.2545 62.7807C28.6778 62.2506 28.2407 61.6414 27.9431 60.9531C27.7385 60.4509 27.6036 59.9394 27.5385 59.4185C27.4734 58.8977 27.5106 58.2932 27.6501 57.6049C27.7896 56.9167 27.9012 56.4051 27.9849 56.0703C28.0686 55.7355 28.2686 55.1403 28.5848 54.2846C28.901 53.4289 29.0778 52.936 29.115 52.8058C30.5658 53.029 35.2998 53.2894 43.317 53.5871ZM32.519 37.2366L37.5413 47.8114L33.4397 45.2444C32.2679 46.5837 31.2308 47.9276 30.3287 49.2762C29.4265 50.6248 28.7522 51.7874 28.3058 52.764C27.8594 53.7405 27.492 54.6194 27.2037 55.4007C26.9154 56.1819 26.7433 56.7679 26.6875 57.1585L26.5759 57.7444L21.2746 47.7835C20.9583 47.2999 20.7909 46.779 20.7723 46.221C20.7537 45.6629 20.8095 45.2258 20.9397 44.9096L21.1629 44.4074C21.814 43.2355 22.8743 41.487 24.3437 39.1618L20.4375 36.7623L32.519 37.2366ZM66.8661 51.6618L61.6205 61.6786C61.3973 62.218 61.0578 62.6505 60.6021 62.976C60.1464 63.3015 59.7418 63.4922 59.3884 63.548L58.8862 63.6596C57.5655 63.7898 55.5286 63.9014 52.7757 63.9944L52.9989 68.5703L46.5815 58.3304L52.4687 48.2299L52.6641 53.0569C55.8263 53.3545 58.4583 53.401 60.5603 53.1964C62.6622 52.9918 64.2433 52.6849 65.3036 52.2757L66.8661 51.6618ZM44.9632 25.8806C44.0889 27.0525 41.6243 31.0982 37.5692 38.0179L28.7243 32.8002L28.1942 32.4654L34.4721 22.5324C34.8441 21.9557 35.4022 21.5372 36.1462 21.2768C36.8903 21.0164 37.6343 20.9234 38.3783 20.9978C38.8248 21.035 39.2759 21.1466 39.7316 21.3326C40.1873 21.5186 40.5779 21.7139 40.9035 21.9185C41.229 22.1231 41.615 22.4301 42.0614 22.8393C42.5078 23.2485 42.8426 23.5694 43.0658 23.8019C43.2891 24.0344 43.6239 24.4018 44.0703 24.904C44.5167 25.4062 44.8144 25.7318 44.9632 25.8806ZM63.2388 34.4464L69.154 44.5748C69.4888 45.263 69.6051 45.9699 69.5028 46.6953C69.4005 47.4208 69.1447 48.109 68.7355 48.76C68.4937 49.1321 68.1868 49.4762 67.8147 49.7924C67.4427 50.1086 67.0893 50.369 66.7545 50.5737C66.4196 50.7783 65.9686 50.9829 65.4012 51.1875C64.8339 51.3921 64.3968 51.5409 64.0898 51.6339C63.7829 51.7269 63.3039 51.8571 62.6529 52.0246C62.0019 52.192 61.574 52.3036 61.3694 52.3594C60.737 51.0201 58.2723 46.965 53.9754 40.1942L62.7087 34.7533L63.2388 34.4464ZM59.2489 28.1406L63.2109 25.8248L57.0725 36.2321L45.3817 35.6741L49.5949 33.2746C48.9624 31.619 48.2649 30.0751 47.5022 28.6429C46.7396 27.2106 46.0374 26.0619 45.3956 25.197C44.7539 24.332 44.154 23.588 43.596 22.9648C43.0379 22.3417 42.6008 21.9092 42.2846 21.6674L41.8103 21.3047L53.1105 21.3326C53.6871 21.2768 54.2266 21.3744 54.7288 21.6256C55.231 21.8767 55.5937 22.1417 55.817 22.4208L56.1239 22.8393C56.8493 23.974 57.891 25.7411 59.2489 28.1406Z" fill="#7ECA9D"/>
</g>
<defs>
<clipPath id="clip0_56_210">
<rect width="50.02" height="50" fill="white" transform="matrix(1 0 0 -1 19.9805 70.9697)"/>
</clipPath>
</defs>
</svg>
