<svg width="90" height="91" viewBox="0 0 90 91" fill="none" xmlns="http://www.w3.org/2000/svg">
<rect x="1" y="1.18945" width="88" height="88" rx="44" stroke="#5F2DED" stroke-width="2" stroke-dasharray="6 4"/>
<g clip-path="url(#clip0_56_170)">
<path d="M37.9319 45.6081V49.1795H30.9007V45.6081H37.9319ZM37.9319 38.4932V42.0367H30.9007V38.4932H37.9319ZM59.0815 52.751V56.3224H49.567V52.751H59.0815ZM59.0815 45.6081V49.1795H40.3315V45.6081H59.0815ZM59.0815 38.4932V42.0367H40.3315V38.4932H59.0815ZM62.8482 62.4887V27.8905C62.8482 27.7417 62.7924 27.6115 62.6808 27.4999C62.5692 27.3883 62.439 27.3325 62.2902 27.3325H61.3973L50.8504 34.4753L44.9911 29.7041L39.1317 34.4753L28.5848 27.3325H27.692C27.5432 27.3325 27.4129 27.3883 27.3013 27.4999C27.1897 27.6115 27.1339 27.7417 27.1339 27.8905V62.4887C27.1339 62.6375 27.1897 62.7677 27.3013 62.8793C27.4129 62.9909 27.5432 63.0467 27.692 63.0467H62.2902C62.439 63.0467 62.5692 62.9909 62.6808 62.8793C62.7924 62.7677 62.8482 62.6375 62.8482 62.4887ZM38.9922 31.5177L44.154 27.3325H32.8259L38.9922 31.5177ZM50.99 31.5177L57.1562 27.3325H45.8281L50.99 31.5177ZM66.4196 27.8905V62.4887C66.4196 63.642 66.0197 64.6185 65.2199 65.4184C64.42 66.2182 63.4435 66.6182 62.2902 66.6182H27.692C26.5387 66.6182 25.5621 66.2182 24.7623 65.4184C23.9624 64.6185 23.5625 63.642 23.5625 62.4887V27.8905C23.5625 26.7372 23.9624 25.7607 24.7623 24.9608C25.5621 24.1609 26.5387 23.761 27.692 23.761H62.2902C63.4435 23.761 64.42 24.1609 65.2199 24.9608C66.0197 25.7607 66.4196 26.7372 66.4196 27.8905Z" fill="#5F2DED"/>
</g>
<defs>
<clipPath id="clip0_56_170">
<rect width="42.86" height="50" fill="white" transform="matrix(1 0 0 -1 23.5605 70.1895)"/>
</clipPath>
</defs>
</svg>
