<svg width="90" height="91" viewBox="0 0 90 91" fill="none" xmlns="http://www.w3.org/2000/svg">
<rect x="1" y="1.58008" width="88" height="88" rx="44" stroke="#7ECA9D" strokeWidth="2" stroke-dasharray="6 4"/>
<g clipPath="url(#clip0_56_190)">
<path d="M62.4847 57.9406C62.0754 55.0574 61.2616 52.6625 60.0432 50.7559C58.8249 48.8492 57.1089 47.7471 54.8954 47.4495C53.6491 48.826 52.1656 49.9002 50.445 50.6722C48.7244 51.4441 46.9062 51.8301 44.9902 51.8301C43.0743 51.8301 41.256 51.4441 39.5354 50.6722C37.8148 49.9002 36.3314 48.826 35.0851 47.4495C32.8716 47.7471 31.1556 48.8492 29.9372 50.7559C28.7188 52.6625 27.905 55.0574 27.4958 57.9406C29.4675 60.7307 31.988 62.9396 35.0572 64.5672C38.1264 66.1948 41.4374 67.0086 44.9902 67.0086C48.5431 67.0086 51.8541 66.1948 54.9233 64.5672C57.9925 62.9396 60.5129 60.7307 62.4847 57.9406ZM52.5656 46.0126C52.5656 46.0126 53.0887 45.4894 54.135 44.4431C55.1814 43.3968 55.7045 41.3948 55.7045 38.4372C55.7045 35.4796 54.6582 32.9545 52.5656 30.8619C50.4729 28.7693 47.9478 27.7229 44.9902 27.7229C42.0326 27.7229 39.5075 28.7693 37.4149 30.8619C35.3223 32.9545 34.2759 35.4796 34.2759 38.4372C34.2759 41.3948 35.3223 43.9199 37.4149 46.0126C39.5075 48.1052 42.0326 49.1515 44.9902 49.1515C47.9478 49.1515 50.4729 48.1052 52.5656 46.0126ZM68.0092 35.8703C68.0092 35.8703 68.3394 36.6422 68.9997 38.1861C69.6601 39.73 69.9902 42.1947 69.9902 45.5801C69.9902 48.9655 69.3299 52.1975 68.0092 55.2759C66.6885 58.3544 64.9168 61.0144 62.6939 63.2559C60.4711 65.4973 57.8158 67.2784 54.728 68.5991C51.6402 69.9197 48.3943 70.5801 44.9902 70.5801C41.6048 70.5801 38.3682 69.9197 35.2804 68.5991C32.1926 67.2784 29.5326 65.502 27.3005 63.2698C25.0684 61.0377 23.2919 58.3777 21.9713 55.2899C20.6506 52.2021 19.9902 48.9655 19.9902 45.5801C19.9902 42.1947 20.6506 38.9581 21.9713 35.8703C23.2919 32.7825 25.0684 30.1225 27.3005 27.8903C29.5326 25.6582 32.1926 23.8818 35.2804 22.5611C38.3682 21.2404 41.6048 20.5801 44.9902 20.5801C48.3757 20.5801 51.6123 21.2404 54.7001 22.5611C57.7879 23.8818 60.4478 25.6582 62.68 27.8903C64.9121 30.1225 66.6885 32.7825 68.0092 35.8703Z" fill="#7ECA9D"/>
</g>
<defs>
<clipPath id="clip0_56_190">
<rect width="50.02" height="50" fill="white" transform="matrix(1 0 0 -1 19.9805 70.5801)"/>
</clipPath>
</defs>
</svg>
