<svg width="90" height="91" viewBox="0 0 90 91" fill="none" xmlns="http://www.w3.org/2000/svg">
<rect x="1" y="1.58008" width="88" height="88" rx="44" stroke="#5F2DED" stroke-width="2" stroke-dasharray="6 4"/>
<g clip-path="url(#clip0_56_197)">
<path d="M44.9897 68.3479C45.2873 68.3479 45.4361 68.1991 45.4361 67.9015C45.4361 67.6039 45.2873 67.4551 44.9897 67.4551C43.8922 67.4551 42.9482 67.0598 42.1576 66.2693C41.3671 65.4787 40.9718 64.5347 40.9718 63.4372C40.9718 63.1396 40.823 62.9908 40.5254 62.9908C40.2278 62.9908 40.079 63.1396 40.079 63.4372C40.079 64.7951 40.5579 65.953 41.5159 66.911C42.4739 67.869 43.6318 68.3479 44.9897 68.3479ZM68.204 59.8658C68.204 60.8331 67.8505 61.6701 67.1437 62.377C66.4368 63.0838 65.5998 63.4372 64.6325 63.4372H52.1325C52.1325 65.4089 51.435 67.0924 50.0399 68.4874C48.6448 69.8825 46.9614 70.5801 44.9897 70.5801C43.018 70.5801 41.3345 69.8825 39.9395 68.4874C38.5444 67.0924 37.8468 65.4089 37.8468 63.4372H25.3468C24.3796 63.4372 23.5425 63.0838 22.8357 62.377C22.1288 61.6701 21.7754 60.8331 21.7754 59.8658C22.7055 59.0845 23.5518 58.2661 24.3145 57.4104C25.0771 56.5548 25.8677 55.4434 26.6861 54.0762C27.5046 52.709 28.1975 51.2348 28.7648 49.6537C29.3321 48.0726 29.7972 46.1567 30.1599 43.906C30.5226 41.6552 30.704 39.2371 30.704 36.6515C30.704 33.8241 31.7921 31.1967 33.9685 28.7693C36.1448 26.3418 39.0001 24.8677 42.5343 24.3468C42.3855 23.9934 42.3111 23.6307 42.3111 23.2587C42.3111 22.5146 42.5715 21.8822 43.0924 21.3613C43.6132 20.8405 44.2456 20.5801 44.9897 20.5801C45.7337 20.5801 46.3662 20.8405 46.887 21.3613C47.4078 21.8822 47.6682 22.5146 47.6682 23.2587C47.6682 23.6307 47.5938 23.9934 47.445 24.3468C50.9793 24.8677 53.8345 26.3418 56.0109 28.7693C58.1872 31.1967 59.2754 33.8241 59.2754 36.6515C59.2754 39.2371 59.4568 41.6552 59.8195 43.906C60.1822 46.1567 60.6472 48.0726 61.2146 49.6537C61.7819 51.2348 62.4748 52.709 63.2932 54.0762C64.1117 55.4434 64.9023 56.5548 65.6649 57.4104C66.4275 58.2661 67.2739 59.0845 68.204 59.8658Z" fill="#5F2DED"/>
</g>
<defs>
<clipPath id="clip0_56_197">
<rect width="50.02" height="50" fill="white" transform="matrix(1 0 0 -1 19.9805 70.5801)"/>
</clipPath>
</defs>
</svg>
