<svg width="90" height="91" viewBox="0 0 90 91" fill="none" xmlns="http://www.w3.org/2000/svg">
<rect x="1" y="1.58008" width="88" height="88" rx="44" stroke="#5F2DED" stroke-width="2" stroke-dasharray="6 4"/>
<g clip-path="url(#clip0_56_203)">
<path d="M34.2768 63.4374H55.7054V52.7231H34.2768V63.4374ZM59.2768 63.4374H62.8482V38.4374C62.8482 38.1769 62.7552 37.8189 62.5692 37.3631C62.3832 36.9074 62.1972 36.5865 62.0112 36.4005L54.1708 28.5601C53.9847 28.3741 53.6685 28.1881 53.2221 28.0021C52.7757 27.8161 52.4129 27.7231 52.1339 27.7231V39.3302C52.1339 40.0743 51.8735 40.7067 51.3527 41.2275C50.8318 41.7484 50.1994 42.0088 49.4554 42.0088H33.3839C32.6399 42.0088 32.0074 41.7484 31.4866 41.2275C30.9658 40.7067 30.7054 40.0743 30.7054 39.3302V27.7231H27.1339V63.4374H30.7054V51.8302C30.7054 51.0862 30.9658 50.4537 31.4866 49.9329C32.0074 49.4121 32.6399 49.1516 33.3839 49.1516H56.5982C57.3423 49.1516 57.9747 49.4121 58.4955 49.9329C59.0164 50.4537 59.2768 51.0862 59.2768 51.8302V63.4374ZM48.5625 37.5445V28.6159C48.5625 28.3741 48.4741 28.1649 48.2974 27.9881C48.1207 27.8114 47.9115 27.7231 47.6696 27.7231H42.3125C42.0707 27.7231 41.8614 27.8114 41.6847 27.9881C41.508 28.1649 41.4196 28.3741 41.4196 28.6159V37.5445C41.4196 37.7863 41.508 37.9956 41.6847 38.1723C41.8614 38.349 42.0707 38.4374 42.3125 38.4374H47.6696C47.9115 38.4374 48.1207 38.349 48.2974 38.1723C48.4741 37.9956 48.5625 37.7863 48.5625 37.5445ZM66.4196 38.4374V64.3302C66.4196 65.0743 66.1592 65.7067 65.6384 66.2275C65.1176 66.7484 64.4851 67.0088 63.7411 67.0088H26.2411C25.497 67.0088 24.8646 66.7484 24.3438 66.2275C23.8229 65.7067 23.5625 65.0743 23.5625 64.3302V26.8302C23.5625 26.0862 23.8229 25.4537 24.3438 24.9329C24.8646 24.4121 25.497 24.1516 26.2411 24.1516H52.1339C52.878 24.1516 53.6964 24.3377 54.5893 24.7097C55.4821 25.0817 56.189 25.5281 56.7098 26.049L64.5223 33.8615C65.0432 34.3823 65.4896 35.0891 65.8616 35.982C66.2336 36.8749 66.4196 37.6933 66.4196 38.4374Z" fill="#5F2DED"/>
</g>
<defs>
<clipPath id="clip0_56_203">
<rect width="42.86" height="50" fill="white" transform="matrix(1 0 0 -1 23.5605 70.5801)"/>
</clipPath>
</defs>
</svg>
