<svg width="90" height="91" viewBox="0 0 90 91" fill="none" xmlns="http://www.w3.org/2000/svg">
<rect x="1" y="1.18945" width="88" height="88" rx="44" stroke="#7ECA9D" stroke-width="2" stroke-dasharray="6 4"/>
<g clip-path="url(#clip0_56_177)">
<path d="M46.5759 61.0519C46.5759 61.0519 46.6852 60.9426 46.9037 60.7241C47.1223 60.5055 47.2316 60.0893 47.2316 59.4754C47.2316 58.8616 47.013 58.3361 46.5759 57.899C46.1388 57.4619 45.6133 57.2433 44.9994 57.2433C44.3856 57.2433 43.8601 57.4619 43.423 57.899C42.9859 58.3361 42.7673 58.8616 42.7673 59.4754C42.7673 60.0893 42.9859 60.6148 43.423 61.0519C43.8601 61.489 44.3856 61.7076 44.9994 61.7076C45.6133 61.7076 46.1388 61.489 46.5759 61.0519ZM53.0352 55.0112V35.3683C53.0352 35.1265 52.9468 34.9172 52.7701 34.7405C52.5934 34.5638 52.3841 34.4754 52.1423 34.4754H37.8566C37.6148 34.4754 37.4055 34.5638 37.2288 34.7405C37.0521 34.9172 36.9637 35.1265 36.9637 35.3683V55.0112C36.9637 55.253 37.0521 55.4622 37.2288 55.639C37.4055 55.8157 37.6148 55.904 37.8566 55.904H52.1423C52.3841 55.904 52.5934 55.8157 52.7701 55.639C52.9468 55.4622 53.0352 55.253 53.0352 55.0112ZM47.2316 31.7969C47.5292 31.7969 47.678 31.6481 47.678 31.3504C47.678 31.0528 47.5292 30.904 47.2316 30.904H42.7673C42.4697 30.904 42.3209 31.0528 42.3209 31.3504C42.3209 31.6481 42.4697 31.7969 42.7673 31.7969H47.2316ZM55.7137 30.904V59.4754C55.7137 60.4427 55.3603 61.2798 54.6535 61.9866C53.9466 62.6935 53.1096 63.0469 52.1423 63.0469H37.8566C36.8893 63.0469 36.0523 62.6935 35.3454 61.9866C34.6386 61.2798 34.2852 60.4427 34.2852 59.4754V30.904C34.2852 29.9368 34.6386 29.0997 35.3454 28.3929C36.0523 27.686 36.8893 27.3326 37.8566 27.3326H52.1423C53.1096 27.3326 53.9466 27.686 54.6535 28.3929C55.3603 29.0997 55.7137 29.9368 55.7137 30.904Z" fill="#7ECA9D"/>
</g>
<defs>
<clipPath id="clip0_56_177">
<rect width="21.44" height="50" fill="white" transform="matrix(1 0 0 -1 34.2793 70.1895)"/>
</clipPath>
</defs>
</svg>
