<svg width="17" height="17" viewBox="0 0 17 17" fill="none" xmlns="http://www.w3.org/2000/svg">
<path fillRule="evenodd" clipRule="evenodd" d="M8.5 2.14144C4.818 2.14144 1.83333 5.12611 1.83333 8.80811C1.83333 12.4901 4.818 15.4748 8.5 15.4748C12.182 15.4748 15.1667 12.4901 15.1667 8.80811C15.1667 5.12611 12.182 2.14144 8.5 2.14144ZM8.5 16.8081C4.08067 16.8081 0.5 13.2274 0.5 8.80811C0.5 4.38877 4.08067 0.808105 8.5 0.808105C12.9193 0.808105 16.5 4.38877 16.5 8.80811C16.5 13.2274 12.9193 16.8081 8.5 16.8081Z" fill="#111224"/>
<path fillRule="evenodd" clipRule="evenodd" d="M11.833 12.4748C11.669 12.4748 11.5077 12.4121 11.385 12.3001L8.05167 9.30011C7.91367 9.17544 7.83301 8.99544 7.83301 8.80811V5.47477C7.83301 5.10744 8.13234 4.80811 8.49967 4.80811C8.86701 4.80811 9.16634 5.10744 9.16634 5.47477V8.50877L12.281 11.3081C12.489 11.4928 12.5597 11.7874 12.4603 12.0474C12.3617 12.3054 12.1117 12.4774 11.833 12.4748Z" fill="#111224"/>
</svg>
