<svg width="19" height="18" viewBox="0 0 19 18" fill="none" xmlns="http://www.w3.org/2000/svg">
<path fill-rule="evenodd" clip-rule="evenodd" d="M4.49233 1.07463C5.74024 1.07463 6.75388 2.08961 6.75388 3.33618C6.75388 4.58301 5.74024 5.59773 4.49233 5.59773C3.24576 5.59773 2.23185 4.58301 2.23185 3.33618C2.23185 2.08961 3.24576 1.07463 4.49233 1.07463ZM4.49233 6.67236C6.33209 6.67236 7.82851 5.17594 7.82851 3.33618C7.82851 1.49669 6.33209 0 4.49233 0C2.65391 0 1.15723 1.49669 1.15723 3.33618C1.15723 5.17594 2.65284 6.67236 4.49233 6.67236Z" fill="#1D1D1B"/>
<path fill-rule="evenodd" clip-rule="evenodd" d="M3.28233 3.33617L3.28153 3.26497C3.28045 3.23462 3.28045 3.23462 3.28663 3.19888C3.31403 3.053 3.21839 2.91223 3.07359 2.88509C2.92771 2.85769 2.7872 2.95226 2.75872 3.09814C2.74502 3.15886 2.74099 3.22091 2.74421 3.28271L2.74502 3.33617C2.74932 3.48097 2.8678 3.5965 3.01368 3.5965C3.15875 3.5965 3.27723 3.48205 3.28233 3.33617Z" fill="#1D1D1B"/>
<path fill-rule="evenodd" clip-rule="evenodd" d="M3.26156 2.78207C3.35183 2.78207 3.43592 2.73801 3.48508 2.66252C3.70968 2.3267 4.08741 2.1252 4.49147 2.1252C4.64057 2.1252 4.76012 2.00538 4.76012 1.85655C4.76012 1.70852 4.64057 1.58789 4.49147 1.58789C3.90821 1.58789 3.36338 1.87858 3.03911 2.36323C2.98457 2.44625 2.9792 2.5521 3.02541 2.63941C3.07162 2.72753 3.16296 2.78207 3.26156 2.78207Z" fill="#1D1D1B"/>
<path fill-rule="evenodd" clip-rule="evenodd" d="M12.0149 1.07463C13.2628 1.07463 14.2764 2.08961 14.2764 3.33618C14.2764 4.58301 13.2628 5.59773 12.0149 5.59773C10.7681 5.59773 9.75334 4.58301 9.75334 3.33618C9.75414 2.08961 10.7681 1.07463 12.0149 1.07463ZM12.0149 6.67236C13.8547 6.67236 15.3511 5.17594 15.3511 3.33618C15.3511 1.49669 13.8547 0 12.0149 0C10.1751 0 8.67871 1.49669 8.67871 3.33618C8.67952 5.17594 10.1762 6.67236 12.0149 6.67236Z" fill="#1D1D1B"/>
<path fill-rule="evenodd" clip-rule="evenodd" d="M10.7848 2.78207C10.8751 2.78207 10.9589 2.73801 11.0083 2.66252C11.2329 2.3267 11.6107 2.1252 12.0147 2.1252C12.1638 2.1252 12.2834 2.00538 12.2834 1.85655C12.2834 1.70852 12.1638 1.58789 12.0147 1.58789C11.4312 1.58789 10.8866 1.87858 10.5624 2.36323C10.5068 2.44625 10.5014 2.5521 10.5487 2.63941C10.5949 2.72753 10.6862 2.78207 10.7848 2.78207Z" fill="#1D1D1B"/>
<path fill-rule="evenodd" clip-rule="evenodd" d="M17.7255 16.1656C17.651 16.149 17.5713 16.1237 17.5156 16.106C13.9014 14.2033 13.7754 14.2001 13.6158 14.2001C13.4678 14.2001 13.3262 14.2547 13.2244 14.3627C13.1226 14.4699 13.0702 14.601 13.0796 14.749L13.1583 16.0482C13.151 16.4649 12.8077 16.7336 12.3711 16.7336H2.3943C1.93785 16.7336 1.57463 16.5404 1.57463 16.1237V9.10075C1.57463 8.64645 1.97439 8.13762 2.3943 8.13762V8.13654H12.3711C12.7932 8.13654 13.15 8.55833 13.1583 8.99597L13.0796 10.1555C13.0691 10.3046 13.1215 10.4513 13.2222 10.5606C13.3241 10.6697 13.4667 10.7318 13.6158 10.7318C13.791 10.7318 13.8383 10.7318 17.5481 8.74612C17.6215 8.71147 17.6771 8.69051 17.7182 8.67896C17.7244 8.72732 17.7287 8.7977 17.7265 8.90356L17.7255 16.1656ZM18.461 7.86251C18.2848 7.68305 18.0656 7.5866 17.798 7.5866C17.5807 7.5866 17.3467 7.64436 17.0621 7.78164C16.1167 8.28645 15.1689 8.78508 14.2192 9.28021L14.2319 9.07872C14.2329 9.06636 14.234 9.02633 14.234 9.01263C14.234 7.96756 13.3987 7.06299 12.3711 7.06299H2.3943C1.38469 7.06299 0.5 8.05567 0.5 9.10075V16.1237C0.5 17.129 1.35003 17.8082 2.3943 17.8082H12.3711C13.4071 17.8082 14.2192 17.0705 14.2329 16.0565C14.2319 16.0587 14.2319 16.0595 14.2319 16.0576L14.2047 15.6106C14.9183 15.9684 16.0276 16.5436 17.0549 17.085C17.0842 17.1005 17.1116 17.1145 17.143 17.1239C17.4232 17.2099 17.6457 17.2698 17.8609 17.2709C18.244 17.2676 18.4758 17.0809 18.5881 16.9246C18.7224 16.7397 18.7687 16.5004 18.7687 16.1772V8.92048C18.7687 8.70636 18.7958 8.20263 18.461 7.86251Z" fill="#1D1D1B"/>
<path fill-rule="evenodd" clip-rule="evenodd" d="M14.2314 16.0577L14.2325 16.041C14.2325 16.0472 14.2314 16.0523 14.2314 16.0577Z" fill="#1D1D1B"/>
<path fill-rule="evenodd" clip-rule="evenodd" d="M17.8678 17.2721L17.8606 17.271L17.852 17.2721H17.8678Z" fill="#1D1D1B"/>
<path fill-rule="evenodd" clip-rule="evenodd" d="M5.36762 8.67383H3.08619C2.54672 8.67383 2.1123 9.33902 2.1123 9.83657V11.2019C2.1123 11.3499 2.23186 11.4692 2.38096 11.4692C2.52899 11.4692 2.64962 11.3499 2.64962 11.2005V9.83523C2.64962 9.58565 2.89007 9.21222 3.08619 9.21222H5.36762C5.51672 9.21222 5.63627 9.09132 5.63627 8.94248C5.63627 8.79446 5.51672 8.67383 5.36762 8.67383Z" fill="#1D1D1B"/>
<path fill-rule="evenodd" clip-rule="evenodd" d="M6.71017 8.6748H6.44151C6.29348 8.6748 6.17285 8.79436 6.17285 8.94346C6.17285 9.09122 6.29348 9.21212 6.44151 9.21212H6.71017C6.85927 9.21212 6.97882 9.09122 6.97882 8.94346C6.97882 8.79436 6.85927 8.6748 6.71017 8.6748Z" fill="#1D1D1B"/>
</svg>
