<svg width="674" height="354" viewBox="0 0 674 354" fill="none" xmlns="http://www.w3.org/2000/svg">
<path d="M658.747 260.89L645.45 261.174L638.7 261.285C636.44 261.336 634.169 261.285 631.909 261.346H631.463V260.89L631.402 249.518V249.012H631.909L645.328 249.073C649.808 249.073 654.277 249.184 658.747 249.235H659.031V249.518C659.031 251.444 658.95 253.36 658.899 255.255L658.747 260.89ZM658.747 260.89L658.605 255.164C658.554 253.279 658.494 251.414 658.473 249.549L658.747 249.833C654.277 249.883 649.808 249.995 645.328 249.995L631.909 250.056L632.416 249.549V260.89L631.96 260.444C634.169 260.444 636.379 260.444 638.598 260.495L645.196 260.667L658.747 260.89Z" fill="#EBEBEB"/>
<path d="M643.776 275.191L630.479 275.475L623.719 275.586C621.469 275.586 619.198 275.586 616.938 275.647H616.492V275.191V263.85V263.343H616.999L630.418 263.414C634.888 263.414 639.367 263.525 643.837 263.576H644.121V263.85C644.121 265.775 644.04 267.691 643.989 269.586L643.776 275.191ZM643.776 275.191L643.634 269.464C643.584 267.579 643.523 265.714 643.502 263.85L643.776 264.133C639.306 264.184 634.827 264.295 630.357 264.295L616.938 264.356L617.445 263.85V275.191L616.989 274.745C619.198 274.745 621.408 274.745 623.627 274.796L630.286 274.917L643.776 275.191Z" fill="#EBEBEB"/>
<path d="M673.716 275.191L660.419 275.475L653.668 275.586C651.408 275.586 649.138 275.586 646.878 275.647H646.432V275.191L646.371 263.85V263.343H646.878L660.297 263.414C664.777 263.414 669.246 263.525 673.716 263.576H674V263.85C674 265.775 673.908 267.691 673.868 269.586L673.716 275.191ZM673.716 275.191L673.574 269.464C673.574 267.579 673.462 265.714 673.442 263.85L673.716 264.133C669.246 264.184 664.777 264.295 660.297 264.295L646.878 264.356L647.385 263.85V275.191L646.929 274.745C649.148 274.745 651.348 274.745 653.567 274.796L660.236 274.917L673.716 275.191Z" fill="#EBEBEB"/>
<path d="M276.063 125.94L262.766 126.224L256.016 126.335C253.756 126.335 251.486 126.335 249.226 126.335H248.78V125.879L248.719 114.538V114.031H249.226L262.644 114.092C267.124 114.092 271.594 114.204 276.063 114.254H276.347V114.528C276.347 116.454 276.256 118.359 276.205 120.254L276.063 125.94ZM276.063 125.94L275.922 120.204C275.922 118.318 275.81 116.454 275.79 114.599L276.063 114.872C271.594 114.872 267.124 115.035 262.644 115.035L249.226 115.106L249.732 114.599L249.682 125.94L249.226 125.484C251.435 125.484 253.644 125.484 255.864 125.545L262.533 125.656L276.063 125.94Z" fill="#EBEBEB"/>
<path d="M261.072 140.24L247.775 140.524L241.014 140.636C238.764 140.636 236.494 140.636 234.234 140.686H233.788V140.23L233.707 128.909V128.402H234.214L247.633 128.463C252.102 128.463 256.582 128.575 261.052 128.625H261.336V128.909C261.336 130.835 261.254 132.74 261.204 134.635L261.072 140.24ZM261.072 140.24L260.93 134.504C260.879 132.619 260.819 130.754 260.798 128.899L261.072 129.173C256.602 129.223 252.123 129.335 247.653 129.335L234.234 129.406L234.741 128.899L234.721 140.24L234.264 139.784C236.474 139.784 238.683 139.784 240.903 139.845L247.562 139.956L261.072 140.24Z" fill="#EBEBEB"/>
<path d="M291.032 140.24L277.735 140.524L270.985 140.636C268.725 140.636 266.465 140.636 264.194 140.686H263.748V140.23L263.688 128.909V128.402H264.194L277.613 128.463C282.093 128.463 286.563 128.575 291.032 128.625H291.316V128.909C291.316 130.835 291.225 132.74 291.184 134.635L291.032 140.24ZM291.032 140.24L290.89 134.504C290.89 132.619 290.779 130.754 290.759 128.899L291.032 129.173C286.563 129.223 282.093 129.335 277.613 129.335L264.194 129.406L264.701 128.899L264.65 140.24L264.194 139.784C266.414 139.784 268.613 139.784 270.833 139.845L277.502 139.956L291.032 140.24Z" fill="#EBEBEB"/>
<path d="M57.2317 200.981L43.9343 201.265L37.1741 201.376C34.9241 201.376 32.6538 201.376 30.3937 201.427H29.9883V200.971V189.63V189.123H30.495L43.914 189.184C48.3836 189.184 52.8634 189.295 57.333 189.346H57.6168V189.62C57.6168 191.545 57.5357 193.451 57.485 195.346L57.2317 200.981ZM57.2317 200.981L57.0898 195.245C57.0898 193.36 56.9783 191.495 56.958 189.64L57.2317 189.914C52.762 189.964 48.2823 190.076 43.8127 190.076L30.3937 190.147L30.9004 189.64L30.8498 200.981L30.3937 200.525C32.6032 200.525 34.8126 200.525 37.0322 200.586L43.691 200.697L57.2317 200.981Z" fill="#EBEBEB"/>
<path d="M502.149 125.929L488.852 126.213L482.102 126.325C479.842 126.375 477.572 126.325 475.311 126.375H474.865V125.919L474.805 114.578V114.071H475.311L488.73 114.132C493.21 114.132 497.68 114.254 502.149 114.304H502.433V114.578C502.433 116.504 502.352 118.419 502.301 120.304L502.149 125.929ZM502.149 125.929L502.007 120.203C501.957 118.308 501.896 116.443 501.876 114.588L502.149 114.862C497.68 114.913 493.21 115.024 488.73 115.034L475.311 115.095L475.818 114.588L475.768 125.929L475.311 125.473C477.521 125.473 479.73 125.473 481.95 125.534L488.619 125.646L502.149 125.929Z" fill="#EBEBEB"/>
<path d="M657.194 15.7806L643.897 16.0644L637.137 16.1759C634.887 16.1759 632.616 16.1759 630.356 16.2367H629.91V15.7806V4.43938V3.93262H630.417L643.836 3.99343C648.306 3.99343 652.785 4.11505 657.255 4.16573H657.539V4.43938C657.539 6.36506 657.458 8.28061 657.407 10.1658L657.194 15.7806ZM657.194 15.7806L657.052 10.0543C657.002 8.15899 656.941 6.29412 656.92 4.43938L657.194 4.71303C652.725 4.71303 648.245 4.87519 643.775 4.88533L630.356 4.94614L630.863 4.43938L630.812 15.7806L630.356 15.3246C632.566 15.3246 634.775 15.3246 636.995 15.3854L643.653 15.4969L657.194 15.7806Z" fill="#EBEBEB"/>
<path d="M672.165 30.0808L658.868 30.3646L652.118 30.4761C649.858 30.5268 647.587 30.4761 645.327 30.5268H644.881V30.0707L644.82 18.7294V18.2227H645.327L658.746 18.2835C663.226 18.2835 667.695 18.4051 672.165 18.4558H672.449V18.7294C672.449 20.6551 672.358 22.5707 672.307 24.4558L672.165 30.0808ZM672.165 30.0808L672.023 24.3544C672.023 22.4592 671.912 20.5943 671.891 18.7396L672.165 19.0132C667.695 19.0639 663.226 19.1754 658.746 19.1855L645.327 19.2463L645.834 18.7396V30.0808L645.378 29.6247C647.587 29.6247 649.797 29.6247 652.016 29.6855L658.685 29.797L672.165 30.0808Z" fill="#EBEBEB"/>
<path d="M27.2941 15.7904L13.9866 16.0742L7.23652 16.1857C4.98651 16.1857 2.71623 16.1857 0.456084 16.2465H0V15.7904V4.44914V3.94238H0.516893L13.9359 4.01333C18.4055 4.01333 22.8751 4.12482 27.3549 4.17549H27.6285V4.44914C27.6285 6.37483 27.5373 8.29038 27.4968 10.1857L27.2941 15.7904ZM27.2941 15.7904L27.142 10.064C27.142 8.16876 27.0305 6.30388 27.0103 4.44914L27.2941 4.72279C22.8143 4.7836 18.3447 4.88495 13.8751 4.89509L0.456084 4.9559L0.962843 4.44914L0.902031 15.7904L0.456084 15.3951C2.66555 15.3951 4.86489 15.3951 7.0845 15.3951L13.7534 15.5066L27.2941 15.7904Z" fill="#EBEBEB"/>
<path d="M356.02 156.468C354.777 157.642 353.234 158.452 351.561 158.809C350.547 159.072 349.422 159.224 348.348 159.417H344.679C343.169 159.184 341.639 159.001 340.169 158.707C334.677 157.529 329.474 155.269 324.865 152.059C312.725 144.034 302.498 133.439 294.905 121.025C292.36 116.928 290.606 112.39 289.736 107.646C289.513 106.4 289.341 105.143 289.148 103.886V100.217C289.452 98.8085 289.696 97.3794 290.071 95.9909C290.44 94.6877 291.138 93.5012 292.098 92.5449C292.28 92.7071 292.442 92.8389 292.605 93.001C298.442 98.8321 304.284 104.663 310.128 110.494C310.317 110.652 310.452 110.865 310.514 111.103C310.576 111.341 310.562 111.593 310.473 111.822C310.029 113.267 309.969 114.803 310.3 116.278C310.63 117.753 311.34 119.117 312.358 120.234C317.343 125.897 322.682 131.239 328.341 136.228C329.469 137.252 330.846 137.964 332.334 138.293C333.821 138.622 335.37 138.556 336.824 138.103C337.25 137.991 337.554 137.92 337.919 138.285C343.885 144.285 349.865 150.272 355.858 156.245C355.889 156.275 355.929 156.366 356.02 156.468Z" fill="#EBEBEB"/>
<path d="M367.492 143.363V144.579C366.963 145.341 366.391 146.072 365.779 146.768C363.975 148.643 362.11 150.457 360.275 152.292L359.708 152.829L341.688 134.819C344.049 132.488 346.4 130.106 348.833 127.785C349.096 127.54 349.406 127.351 349.745 127.228C350.083 127.106 350.442 127.052 350.801 127.071C351.161 127.09 351.512 127.181 351.836 127.338C352.159 127.496 352.448 127.717 352.684 127.988C354.042 129.305 355.36 130.653 356.738 131.981C359.87 135.123 363.022 138.244 366.123 141.407C366.63 142.022 367.088 142.676 367.492 143.363Z" fill="#EBEBEB"/>
<path d="M320.254 100.308C318.025 102.467 315.744 104.575 313.535 106.663L295.656 88.7945C296.052 88.4398 296.508 88.0648 296.923 87.6594C298.565 86.0276 300.177 84.3553 301.849 82.754C302.528 82.1579 303.242 81.6029 303.987 81.0918H305.214C305.897 81.5115 306.548 81.9825 307.16 82.5006C311.538 86.8384 315.9 91.1966 320.244 95.575C321.886 97.2169 321.886 98.6966 320.254 100.308Z" fill="#EBEBEB"/>
<path d="M20.625 110.25H137.92V35.8379H20.625V110.25Z" fill="#EBEBEB"/>
<path d="M159.861 110.25H137.918V87.3955L159.861 110.25Z" fill="#EBEBEB"/>
<path d="M124.338 48.6992H34.1953V50.1181H124.338V48.6992Z" fill="white"/>
<path d="M80.7868 56.3418H34.1953V57.7607H80.7868V56.3418Z" fill="white"/>
<path d="M107.088 71.6152H34.1953V73.0342H107.088V71.6152Z" fill="white"/>
<path d="M124.338 79.2471H34.1953V80.666H124.338V79.2471Z" fill="white"/>
<path d="M124.338 86.8789H34.1953V88.2978H124.338V86.8789Z" fill="white"/>
<path d="M66.2225 94.5205H34.1953V95.9394H66.2225V94.5205Z" fill="white"/>
<path d="M653.548 139.967H536.254V205.592H653.548V139.967Z" fill="#DBDBDB"/>
<path d="M514.309 205.602H536.251V182.747L514.309 205.602Z" fill="#DBDBDB"/>
<path d="M628.574 174.234H550.098V175.653H628.574V174.234Z" fill="white"/>
<path d="M612.439 181.876H550.098V183.295H612.439V181.876Z" fill="white"/>
<path d="M617.142 158.96H550.098V160.379H617.142V158.96Z" fill="white"/>
<path d="M637.635 151.328H550.098V152.747H637.635V151.328Z" fill="white"/>
<path d="M618.905 189.508H550.098V190.927H618.905V189.508Z" fill="white"/>
<path d="M594.285 70.2168H378.902V79.6628H594.285V70.2168Z" fill="#EBEBEB"/>
<path d="M400.423 79.6729H390.977V110.91H400.423V79.6729Z" fill="#EBEBEB"/>
<path d="M400.423 79.6729H390.977V89.3317H400.423V79.6729Z" fill="#DBDBDB"/>
<path d="M582.216 79.6729H572.77V110.91H582.216V79.6729Z" fill="#EBEBEB"/>
<path d="M582.216 79.6729H572.77V89.3317H582.216V79.6729Z" fill="#DBDBDB"/>
<path d="M434.273 70.2163V10.0234L419.111 10.0234V70.2163H434.273Z" fill="#C7C7C7"/>
<path d="M434.273 13.4191V6.80078L419.111 6.80078V13.4191H434.273Z" fill="#DBDBDB"/>
<path d="M434.262 24.355V21.9023H419.099V24.355H434.262Z" fill="#DBDBDB"/>
<path d="M436.156 62.3312V55.7129H419.109V62.3312H436.156Z" fill="#DBDBDB"/>
<path d="M444.863 70.2166V0L434.272 0V70.2166H444.863Z" fill="#DBDBDB"/>
<path d="M442.703 33.608V6.59766H436.348V33.608H442.703Z" fill="#EBEBEB"/>
<path d="M520.197 62.7164L470.262 13.3525L462.816 20.8847L512.752 70.2486L520.197 62.7164Z" fill="#C7C7C7"/>
<path d="M507.021 52.6217L487.812 33.6328L483.345 38.1521L502.554 57.141L507.021 52.6217Z" fill="#DBDBDB"/>
<path d="M462.844 70.237V16.8955H444.854V70.237H462.844Z" fill="#A6A6A6"/>
<path d="M462.844 64.5717V59.6055H444.854V64.5717H462.844Z" fill="#C7C7C7"/>
<path d="M462.844 56.3515V54.4258H444.854V56.3515H462.844Z" fill="#C7C7C7"/>
<path d="M419.109 70.237V20.1084H406.684V70.237H419.109Z" fill="#A6A6A6"/>
<path d="M419.109 64.9155V60.2432H406.684V64.9155H419.109Z" fill="#C7C7C7"/>
<path d="M419.109 35.1079V30.4355H406.684V35.1079H419.109Z" fill="#C7C7C7"/>
<path d="M419.109 40.1248V38.3105H406.684V40.1248H419.109Z" fill="#C7C7C7"/>
<path d="M571.647 46.8649L570.299 50.4426L569.468 52.6217L568.11 56.2095L562.819 70.2265H534.207L528.897 56.2095L527.538 52.6217L526.717 50.4426L525.359 46.8649L535.92 31.4695L530.447 21.3242H566.589L561.086 31.4695L571.647 46.8649Z" fill="#DBDBDB"/>
<path d="M571.647 46.8652L570.299 50.443H526.717L525.359 46.8652H571.647Z" fill="#A6A6A6"/>
<path d="M569.464 52.6221L568.106 56.2099H528.893L527.535 52.6221H569.464Z" fill="#A6A6A6"/>
<path d="M13.5898 343.4L94.4686 343.157L175.337 343.065L337.085 342.903L498.832 343.065L579.701 343.157L660.58 343.4L579.701 343.653L498.832 343.745L337.085 343.907L175.337 343.745L94.4686 343.653L13.5898 343.4Z" fill="#263238"/>
<path d="M328.309 343.38H452.627L427.846 199.187H334.876L328.309 343.38Z" fill="#DBDBDB"/>
<path d="M328.309 343.38H339.214L345.326 199.187H334.876L328.309 343.38Z" fill="#A6A6A6"/>
<path d="M436.331 227.454C450.399 258.873 484.392 311.018 499.605 298.096C522.359 278.778 537.764 236.048 543.845 218.768C547.261 209.089 497.953 192.893 494.933 201.68C490.636 214.166 483.896 240.264 479.994 243.964C477.967 245.9 461.811 223.227 449.588 212.474C431.943 196.977 431.841 217.42 436.331 227.454Z" fill="#AD6359"/>
<path d="M556.158 204.224C551.77 214.096 534.874 230.788 529.259 233.251C523.644 235.714 493.989 208.927 494.607 202.623C495.225 196.318 512.921 163.298 522.722 158.23C532.523 153.163 560.709 193.987 556.158 204.224Z" fill="#AD6359"/>
<path d="M496.93 195.691C496.93 195.691 497.639 181.643 494.092 169.765C491.112 159.782 485.568 145.298 490.869 143.494C501.774 139.795 515.599 175.927 515.599 175.927C515.599 175.927 519.146 192.853 508.676 197.474C502.109 200.373 496.93 195.691 496.93 195.691Z" fill="#AD6359"/>
<path d="M509.224 169.044C509.933 174.73 516.227 170.636 516.227 170.636C516.227 170.636 508.595 178.744 511.595 184.288C514.514 189.649 521.933 184.43 522.47 184.065C522.065 184.501 515.254 192.102 518.852 197.393C522.592 202.886 529.139 196.379 529.565 195.953C529.311 196.47 526.129 203.474 529.778 206.879C536.041 212.707 544.676 195.031 551.325 193.055C551.325 193.055 555.967 203.93 556.16 204.203C556.16 204.203 564.724 187.541 561.562 178.724C561.118 177.435 560.249 176.337 559.098 175.609C557.946 174.881 556.581 174.568 555.227 174.72C555.227 174.72 558.582 169.653 555.886 165.396C554.487 163.217 549.805 163.501 549.805 163.501C549.805 163.501 552.318 159.335 549.683 155.707C547.585 152.798 543.176 153.538 543.176 153.538C543.176 153.538 543.734 148.409 540.632 146.139C534.328 141.558 507.693 156.872 509.224 169.044Z" fill="#AD6359"/>
<path d="M542.413 153.569C542.504 153.518 542.413 153.386 542.362 153.417C532.369 156.315 522.285 162.538 515.859 170.819C515.646 171.092 515.991 171.548 516.285 171.295C524.585 164.048 532.44 158.302 542.413 153.569Z" fill="#263238"/>
<path d="M549.862 163.369C549.974 163.319 549.862 163.136 549.771 163.166C539.484 166.207 528.325 173.565 522.031 183.954C521.818 184.308 521.98 184.846 522.264 184.461C526.967 177.893 540.862 167.596 549.862 163.369Z" fill="#263238"/>
<path d="M529.369 196.815C535.785 187.085 544.674 180.386 554.799 174.822C554.92 174.751 554.799 174.579 554.687 174.609C548.991 175.977 542.91 180.194 538.471 183.883C534.27 187.22 531.019 191.603 529.045 196.592C528.954 196.815 529.238 197.038 529.369 196.815Z" fill="#263238"/>
<path d="M516.022 170.626C515.768 170.95 516.528 170.96 516.285 171.295C515.272 172.694 509.849 181.663 512.332 184.471C514.359 186.711 518.708 185.575 520.228 184.471L524.028 181.724L521.414 185.667C520.237 187.394 519.347 189.3 518.778 191.312C518.464 192.228 518.347 193.2 518.436 194.165C518.525 195.129 518.818 196.064 519.295 196.907C519.743 197.687 520.446 198.29 521.286 198.613C522.126 198.937 523.051 198.96 523.907 198.68C525.813 198.024 527.52 196.89 528.863 195.386L532.714 191.332L530.404 196.4C529.758 197.802 529.291 199.28 529.015 200.798C528.705 202.226 528.822 203.713 529.349 205.075C529.611 205.675 530.033 206.191 530.57 206.565C531.107 206.939 531.737 207.156 532.39 207.194C533.87 207.043 535.277 206.474 536.444 205.552C539.003 203.596 541.405 201.445 543.63 199.116C544.795 197.981 545.961 196.836 547.187 195.741C548.339 194.588 549.72 193.691 551.241 193.106C549.796 193.838 548.508 194.847 547.451 196.075C546.326 197.241 545.252 198.457 544.177 199.684C542.066 202.215 539.725 204.546 537.184 206.646C535.821 207.803 534.152 208.538 532.38 208.765C531.403 208.774 530.444 208.501 529.618 207.977C528.793 207.454 528.136 206.703 527.728 205.815C527.018 204.143 526.824 202.298 527.17 200.515C527.443 198.819 527.937 197.166 528.64 195.599L530.181 196.613C528.619 198.415 526.614 199.778 524.363 200.565C523.102 200.969 521.74 200.918 520.512 200.423C519.325 199.903 518.322 199.038 517.633 197.94C517.03 196.871 516.66 195.685 516.548 194.463C516.436 193.24 516.585 192.007 516.985 190.846C517.632 188.643 518.642 186.564 519.974 184.694L521.16 185.849C519.133 187.167 514.43 188.971 510.893 185.9C506.981 181.146 514.532 172.167 516.022 170.626Z" fill="#263238"/>
<path d="M516.226 170.636C515.131 171.073 513.976 171.343 512.8 171.437C512.328 171.486 511.852 171.407 511.421 171.209C510.989 171.011 510.619 170.701 510.348 170.312C509.87 169.374 509.677 168.317 509.79 167.271C509.851 166.116 509.973 164.91 510.155 163.663C509.383 164.682 508.837 165.853 508.554 167.099C508.359 167.771 508.299 168.476 508.377 169.171C508.455 169.867 508.67 170.541 509.01 171.153C509.453 171.789 510.079 172.277 510.804 172.552C511.502 172.78 512.25 172.808 512.963 172.633C514.234 172.328 515.376 171.629 516.226 170.636Z" fill="#263238"/>
<path d="M491.93 202.623L543.255 238.37C543.255 238.37 512.596 301.887 493.653 301.715C474.711 301.542 447.346 253.968 437.91 233.404C428.474 212.839 434.099 195.417 453.194 214.147C472.288 232.877 479.13 240.6 479.748 240.346C480.903 239.88 491.93 202.623 491.93 202.623Z" fill="#7ECA9D"/>
<path d="M543.256 238.369C543.256 238.369 521.972 282.417 503.942 297.052C500.324 299.991 496.847 301.745 493.655 301.704C474.712 301.542 447.347 253.957 437.86 233.403C431.992 220.673 431.941 209.15 437.273 206.667C440.566 205.136 445.887 207.021 453.154 214.177C472.411 233.038 479.08 240.619 479.709 240.366C480.904 239.88 491.942 202.633 491.942 202.633L543.256 238.369Z" fill="#7ECA9D"/>
<path d="M511.49 289.552C510.862 290.282 510.223 290.991 509.585 291.681C503.809 295.317 497.329 297.69 490.571 298.643C488.707 298.849 486.831 298.924 484.956 298.866L483.791 298.137C486.028 298.272 488.273 298.214 490.5 297.964C493.167 297.673 495.79 297.067 498.314 296.16L500.23 295.532L502.085 294.751C502.703 294.488 503.341 294.265 503.939 293.961L505.733 293.049C507.729 292.015 509.652 290.846 511.49 289.552ZM472.551 233.596C466.694 236.26 461.352 239.934 456.77 244.451C453.798 247.379 451.051 250.526 448.551 253.866C448.672 254.089 448.804 254.322 448.946 254.545C451.476 251.149 454.264 247.954 457.287 244.988C461.127 241.215 465.502 238.029 470.27 235.532L472.064 234.619C472.394 234.452 472.732 234.304 473.078 234.173L472.551 233.596ZM516.882 236.829C512.015 234.447 506.922 232.555 501.679 231.184C501.132 231.052 500.585 230.92 500.027 230.809C499.673 230.727 499.308 230.646 498.953 230.586C494.523 229.657 489.975 229.425 485.473 229.896C484.814 229.988 484.166 230.089 483.507 230.211C483.436 230.444 483.355 230.687 483.284 230.91C484.034 230.778 484.794 230.667 485.554 230.575C489.733 230.134 493.953 230.308 498.081 231.092L499.186 231.295C499.966 231.457 500.747 231.63 501.527 231.822C506.725 233.162 511.777 235.016 516.608 237.356C523.845 240.906 530.864 244.882 537.629 249.265C537.73 249.092 537.821 248.92 537.902 248.758C531.139 244.367 524.12 240.384 516.882 236.829ZM522.203 223.714C513.986 224.053 505.979 226.413 498.892 230.586L498.02 231.092C496.231 232.165 494.502 233.336 492.841 234.599C484.156 241.207 477.223 249.701 470.625 258.245C467.321 262.532 464.078 266.849 460.652 271.025C460.409 271.329 460.155 271.623 459.902 271.927L460.287 272.484C460.581 272.14 460.875 271.795 461.159 271.471C464.605 267.285 467.858 262.968 471.172 258.69C477.77 250.177 484.693 241.744 493.287 235.228C495.15 233.807 497.1 232.503 499.125 231.325C499.399 231.153 499.683 230.991 499.966 230.839C502.327 229.514 504.787 228.376 507.325 227.434L509.22 226.744C509.848 226.521 510.507 226.369 511.156 226.177L513.091 225.64L515.119 225.244C517.735 224.654 520.413 224.375 523.095 224.413H523.217L522.203 223.714ZM459.213 220.177C455.672 221.75 451.972 222.936 448.176 223.714L446.199 224.099C445.541 224.221 444.872 224.261 444.172 224.352L442.145 224.586L440.118 224.667C438.267 224.795 436.409 224.761 434.564 224.565L434.747 225.234C443.314 225.86 451.9 224.312 459.709 220.734C459.598 220.542 459.405 220.359 459.213 220.177ZM444.598 207.589C441.009 210.027 437.287 212.264 433.449 214.288C433.449 214.562 433.449 214.836 433.449 215.119C437.544 212.978 441.504 210.588 445.307 207.964C445.064 207.832 444.831 207.7 444.598 207.589Z" fill="white"/>
<path d="M531.124 244.329C529.766 243.204 528.398 242.109 527.019 241.014C524.222 238.805 521.425 236.606 518.627 234.416C513.053 230.068 507.357 225.872 501.621 221.747C498.367 219.396 495.164 216.923 491.81 214.724C491.794 214.712 491.776 214.703 491.756 214.698C491.737 214.693 491.717 214.692 491.697 214.695C491.677 214.698 491.658 214.704 491.641 214.715C491.624 214.725 491.609 214.738 491.597 214.754C491.585 214.77 491.576 214.788 491.571 214.808C491.566 214.827 491.565 214.847 491.568 214.867C491.571 214.887 491.577 214.906 491.588 214.923C491.598 214.94 491.611 214.955 491.627 214.967C494.293 217.318 497.151 219.467 499.918 221.707C502.685 223.947 505.431 226.197 508.239 228.386C513.82 232.724 519.469 236.977 525.185 241.146C526.776 242.322 528.347 243.558 529.999 244.663C530.84 245.231 531.641 245.859 532.492 246.406C533.344 246.954 534.256 247.42 535.087 248.038C535.106 248.049 535.128 248.053 535.15 248.048C535.171 248.044 535.19 248.032 535.204 248.015C535.217 247.998 535.224 247.977 535.223 247.955C535.222 247.933 535.213 247.912 535.198 247.896C533.81 246.731 532.513 245.464 531.124 244.329Z" fill="#263238"/>
<path d="M480.144 239.211C478.185 244.505 476.573 249.922 475.319 255.427C474.65 258.143 474.123 260.89 473.606 263.626C473.059 266.346 472.694 269.098 472.512 271.866C472.512 271.968 472.664 271.968 472.684 271.866C473.535 269.221 474.164 266.464 474.772 263.758C475.38 261.052 476.069 258.326 476.677 255.65C477.904 250.197 479.343 244.795 480.407 239.312C480.414 239.295 480.417 239.276 480.416 239.258C480.416 239.239 480.412 239.221 480.404 239.204C480.397 239.187 480.386 239.172 480.372 239.159C480.359 239.146 480.343 239.136 480.326 239.13C480.309 239.123 480.29 239.12 480.272 239.12C480.253 239.121 480.235 239.125 480.218 239.132C480.201 239.14 480.186 239.151 480.173 239.164C480.16 239.177 480.15 239.193 480.144 239.211Z" fill="#263238"/>
<path opacity="0.1" d="M503.942 297.053C500.324 299.992 496.847 301.745 493.655 301.705C474.712 301.542 447.347 253.958 437.86 233.404C431.992 220.674 431.941 209.15 437.273 206.667L503.942 297.053Z" fill="black"/>
<path d="M474.559 343.38H351.345C349.987 340.887 370.177 232.967 411.731 202.572C420.954 195.832 437.312 200.17 441.853 206.727C464.718 239.677 474.559 343.38 474.559 343.38Z" fill="#7ECA9D"/>
<path d="M468.155 295.471C465.079 294.381 462.064 293.126 459.124 291.71C454.999 289.734 451.016 287.545 447.053 285.234L446.476 284.889C442.421 282.487 438.367 279.943 434.394 277.379L433.827 277.014L431.131 275.271C422.009 269.423 413.029 263.403 403.289 258.72C398.475 256.313 393.363 254.554 388.087 253.491C385.439 253.018 382.744 252.869 380.06 253.045C379.391 253.045 378.732 253.187 378.033 253.278C377.577 253.369 377.12 253.43 376.654 253.521C376.725 253.359 376.786 253.207 376.867 253.045C377.232 252.974 377.607 252.913 377.972 252.832C378.641 252.751 379.32 252.649 379.999 252.599C382.709 252.417 385.432 252.563 388.107 253.035C393.439 254.089 398.606 255.852 403.472 258.274C413.263 262.957 422.303 268.977 431.404 274.805L434.08 276.518L434.658 276.883C438.712 279.487 442.766 282.072 446.972 284.514L447.55 284.859C451.401 287.099 455.324 289.227 459.357 291.143C462.175 292.491 465.061 293.692 468.003 294.741L468.155 295.471ZM457.188 244.014L456.773 244.41C448.959 252.021 443.121 261.305 437.617 270.589C436.455 272.568 435.286 274.545 434.111 276.518C434.019 276.69 433.928 276.852 433.827 277.014C432.337 279.528 430.837 282.031 429.276 284.494C427.908 286.663 426.479 288.802 424.959 290.869C424.817 291.062 424.685 291.254 424.543 291.437C423.005 293.515 421.346 295.501 419.577 297.386C417.732 299.343 415.695 301.109 413.496 302.656L412.675 303.234C412.401 303.427 412.097 303.579 411.813 303.751L410.08 304.765C408.886 305.367 407.653 305.892 406.391 306.336C401.278 308.033 395.926 308.899 390.539 308.9C385.172 308.878 379.822 308.27 374.587 307.086C369.519 306.011 364.603 304.572 359.647 303.133C359.647 303.295 359.566 303.457 359.516 303.609C364.462 305.058 369.428 306.518 374.475 307.602C379.773 308.811 385.187 309.436 390.621 309.467C396.068 309.47 401.481 308.601 406.654 306.893C407.946 306.449 409.206 305.917 410.425 305.302L412.198 304.288C412.498 304.128 412.789 303.952 413.07 303.761L413.911 303.173C416.144 301.61 418.212 299.824 420.084 297.842C421.97 295.823 423.737 293.694 425.374 291.467C425.526 291.275 425.658 291.092 425.79 290.9C427.229 288.933 428.587 286.917 429.844 284.869C431.415 282.406 432.884 279.903 434.404 277.4L434.698 276.903L438.215 270.964C443.729 261.69 449.567 252.487 457.3 244.967L457.432 244.845C457.34 244.551 457.259 244.278 457.188 244.014ZM463.036 268.085C462.256 269.099 461.465 270.052 460.665 271.025C457.309 275.243 453.559 279.132 449.465 282.639C448.655 283.278 447.844 283.917 447.003 284.514L446.476 284.889C445.302 285.717 444.073 286.462 442.796 287.119L441.915 287.596C441.621 287.758 441.296 287.869 440.992 288.011L439.148 288.802C437.89 289.256 436.604 289.625 435.296 289.906C432.155 290.579 428.952 290.919 425.739 290.92H424.959C423.053 290.92 421.148 290.768 419.252 290.565C413.904 289.892 408.646 288.631 403.573 286.805C398.506 285.052 393.509 282.893 388.543 280.724C383.6 278.488 378.522 276.562 373.34 274.957C371.81 274.521 370.299 274.136 368.678 273.852L368.526 274.288C370.107 274.582 371.678 274.957 373.208 275.403C378.361 277.013 383.408 278.942 388.32 281.18C393.286 283.319 398.252 285.487 403.371 287.261C408.487 289.102 413.788 290.38 419.181 291.072C420.965 291.275 422.749 291.406 424.533 291.437C424.796 291.437 425.05 291.437 425.313 291.437C428.716 291.492 432.115 291.172 435.448 290.484C436.781 290.19 438.094 289.814 439.381 289.359L441.266 288.548C441.58 288.406 441.894 288.295 442.198 288.133L443.101 287.646C444.484 286.941 445.813 286.131 447.073 285.224L447.601 284.849C448.371 284.291 449.131 283.704 449.881 283.106C454.016 279.584 457.803 275.675 461.192 271.43C461.867 270.599 462.543 269.758 463.219 268.906C463.158 268.643 463.097 268.359 463.036 268.085ZM450.307 223.237C449.597 223.409 448.888 223.572 448.178 223.714L446.202 224.099C445.543 224.22 444.874 224.261 444.175 224.352L442.148 224.585L440.121 224.666C437.444 224.839 434.757 224.697 432.114 224.241C427.968 223.524 423.951 222.195 420.195 220.298L419.181 219.801C418.472 219.436 417.773 219.051 417.083 218.656C412.444 215.932 408.091 212.747 404.09 209.149L403.644 209.595C407.682 213.231 412.072 216.457 416.749 219.224C417.236 219.507 417.763 219.781 418.229 220.045L419.242 220.551C423.25 222.654 427.557 224.127 432.013 224.92C438.189 225.787 444.475 225.442 450.519 223.906C450.479 223.683 450.388 223.46 450.307 223.237ZM443.09 208.592C437.708 212.202 431.964 215.242 425.952 217.663C423.771 218.512 421.541 219.226 419.273 219.801L418.32 220.045C415.685 220.657 413.009 221.074 410.313 221.291L408.286 221.423C407.617 221.474 406.948 221.423 406.259 221.423H404.232L402.205 221.261C399.763 221.12 397.344 220.715 394.989 220.055C394.847 220.247 394.705 220.44 394.573 220.643C402.668 222.675 411.143 222.644 419.222 220.551L420.236 220.298C422.257 219.763 424.247 219.113 426.195 218.352C432.238 215.915 438.012 212.858 443.425 209.23L443.09 208.592ZM473.405 332.778C472.391 332.778 471.297 332.869 470.243 332.9H470.161L469.543 332.951C464.349 333.494 459.301 334.996 454.655 337.38C451.33 339.116 448.154 341.123 445.158 343.38H445.796C448.655 341.263 451.678 339.379 454.837 337.744C459.524 335.352 464.619 333.863 469.857 333.356H470.232H470.476C471.489 333.356 472.442 333.244 473.415 333.255C473.435 333.072 473.425 332.93 473.405 332.778ZM473.932 337.44C472.83 336.042 471.692 334.667 470.516 333.315C470.405 333.174 470.283 333.042 470.161 332.91L469.746 332.423C466.205 328.296 462.132 324.656 457.634 321.599C455.352 320.11 452.894 318.908 450.317 318.021C449.678 317.809 449.009 317.626 448.361 317.444C447.712 317.261 447.033 317.119 446.334 317.028C444.996 316.775 443.628 316.754 442.28 316.623C436.83 316.424 431.395 317.288 426.276 319.167C421.205 321.095 416.361 323.576 411.833 326.565C403.725 331.785 396.337 337.927 388.441 343.38H388.776C396.631 338.018 403.979 331.988 412.006 326.88C416.517 323.911 421.344 321.454 426.398 319.552C431.465 317.697 436.846 316.846 442.239 317.048C443.567 317.19 444.925 317.211 446.242 317.464C446.911 317.555 447.55 317.748 448.209 317.88C448.867 318.011 449.506 318.234 450.134 318.447C452.674 319.326 455.095 320.518 457.34 321.994C461.799 325.031 465.832 328.651 469.33 332.758C469.391 332.829 469.452 332.89 469.503 332.961L469.857 333.356C471.276 335.008 472.665 336.69 474.003 338.424C474.013 338.099 473.972 337.785 473.911 337.44H473.932Z" fill="white"/>
<path d="M395.371 215.798C370.287 244.815 336.476 296.069 350.29 307.4C373.003 326.029 439.338 336.792 454.561 338.596C461.128 339.387 474.284 296.454 469.895 290.9C465.507 285.346 395.371 281.424 394.895 277.116C394.621 274.674 405.273 253.43 412.125 227.373C420 197.332 402.436 207.619 395.371 215.798Z" fill="#AD6359"/>
<path d="M458.404 287.363C458.404 287.363 478.532 287.211 491.698 287.728C499.046 288.011 511.593 289.633 516.894 292.319C524.82 296.322 555.408 318.163 550.279 325.694C545.627 332.505 521.729 310.41 521.729 310.41C521.729 310.41 547.816 330.579 540.712 337.775C533.607 344.971 509.921 316.41 509.921 316.41C509.921 316.41 536.273 337.694 527.769 343.978C521.343 348.691 498.438 324.042 498.438 324.042C498.438 324.042 520.948 342.518 514.553 347.657C507.458 353.333 484.907 331.907 484.907 331.907C466.461 342.224 453.488 339.589 444.367 336.62C442.228 335.86 458.404 287.363 458.404 287.363Z" fill="#AD6359"/>
<path d="M513.153 302.86C516.305 305.12 519.508 307.38 522.447 309.955C525.386 312.529 528.234 315.114 530.93 317.911C537.528 324.762 540.589 330.073 540.356 329.769C535.045 322.482 524.666 313.269 521.727 310.735C518.788 308.201 515.981 305.536 513.051 303.012C512.981 302.901 513.082 302.809 513.153 302.86Z" fill="#263238"/>
<path d="M503.829 313.309C507.721 316.35 511.704 319.248 515.464 322.481C519.225 325.714 524.312 330.377 527.829 333.843C528.093 334.106 527.829 334.613 527.545 334.36C523.897 331.035 518.475 326.495 514.785 323.211C511.096 319.927 507.539 316.512 503.748 313.38C503.687 313.37 503.768 313.258 503.829 313.309Z" fill="#263238"/>
<path d="M494.181 320.83C500.374 325.198 505.756 330.701 510.904 336.225C511.168 336.499 510.904 336.539 510.58 336.276C505.117 331.056 500.86 326.921 494.029 321.073C493.948 320.951 494.08 320.739 494.181 320.83Z" fill="#263238"/>
<path d="M455.576 286.725C464.758 286.664 491.728 286.593 500.89 287.302C508.998 287.921 515.678 289.664 522.478 294.164C537.073 303.813 546.478 315.144 548.83 318.488C550.249 320.515 552.306 323.789 550.431 326.059C548.13 328.816 539.668 326.12 530.738 318.042C530.414 317.748 530.617 317.566 530.951 317.84C543.489 327.975 548.475 326.819 549.782 325.086C550.634 323.961 549.783 322.046 549.053 320.526C547.832 318.374 546.34 316.388 544.614 314.617C538.855 308.456 532.484 302.897 525.6 298.025C518.224 292.52 509.438 289.22 500.262 288.508C490.877 287.738 464.91 287.981 455.535 287.079C455.343 287.019 455.373 286.735 455.576 286.725Z" fill="#263238"/>
<path d="M542.2 333.721C541.684 331.218 539.88 328.927 538.45 326.86C536.714 324.258 534.721 321.837 532.501 319.633C532.41 319.542 532.238 319.633 532.329 319.775C534.22 321.986 535.976 324.307 537.589 326.728C538.446 328.059 539.225 329.44 539.92 330.863C540.579 332.231 541.359 333.812 541.015 335.373C540.366 338.353 536.575 338.282 534.336 337.481C532.884 336.935 531.487 336.257 530.16 335.454C528.352 334.303 526.638 333.012 525.031 331.593C524.9 331.471 524.535 331.522 524.677 331.654C528.021 334.836 534.356 341.454 539.525 339.032C540.517 338.594 541.326 337.824 541.814 336.856C542.302 335.887 542.439 334.779 542.2 333.721Z" fill="#263238"/>
<path d="M458.709 284.758L434.598 339.488C434.598 339.488 350.334 320.464 345.449 304.471C340.564 288.478 366.966 245.687 390.793 218.97C414.226 192.72 417.692 210.528 411.865 230.829C406.037 251.129 396.479 274.532 397.544 276.285C398.608 278.038 458.709 284.758 458.709 284.758Z" fill="#7ECA9D"/>
<path d="M402.964 258.031C402.903 258.183 402.852 258.346 402.791 258.498C398.111 256.195 393.15 254.512 388.035 253.491C385.387 253.019 382.691 252.869 380.008 253.045C379.339 253.045 378.68 253.187 377.981 253.278C377.281 253.369 376.663 253.481 376.014 253.663C374.697 253.947 373.45 254.454 372.163 254.849C367.197 256.739 362.641 259.567 358.744 263.18L359.382 262.075C363.099 258.793 367.377 256.208 372.011 254.444C373.308 254.038 374.575 253.521 375.913 253.238C376.572 253.055 377.251 252.974 377.94 252.832C378.629 252.69 379.288 252.65 379.967 252.599C382.677 252.417 385.4 252.563 388.075 253.035C393.234 254.046 398.239 255.726 402.964 258.031ZM447.559 284.859L446.981 284.515L444.67 283.146L443.271 282.984C444.285 283.623 445.39 284.271 446.454 284.89L447.032 285.234C450.072 287.008 453.113 288.711 456.234 290.302L456.478 289.744C453.478 288.194 450.508 286.562 447.559 284.859ZM431.109 281.505C430.501 282.518 429.883 283.532 429.254 284.494C427.886 286.663 426.457 288.802 424.937 290.869C424.795 291.062 424.663 291.255 424.521 291.437C422.983 293.515 421.325 295.501 419.555 297.386C417.711 299.343 415.673 301.109 413.474 302.657L412.653 303.234C412.379 303.427 412.075 303.579 411.792 303.751L410.058 304.765C408.864 305.367 407.632 305.892 406.369 306.336C401.257 308.034 395.905 308.899 390.518 308.9C385.157 308.877 379.814 308.269 374.585 307.086C369.305 305.961 364.126 304.43 358.926 302.92C354.315 301.582 349.673 300.234 344.93 299.353C344.93 299.515 344.93 299.677 344.93 299.829C349.622 300.711 354.214 302.069 358.805 303.397C363.994 304.917 369.193 306.437 374.494 307.603C379.792 308.811 385.206 309.436 390.639 309.467C396.087 309.47 401.5 308.601 406.673 306.893C407.965 306.449 409.224 305.918 410.444 305.302L412.217 304.288C412.517 304.129 412.808 303.953 413.089 303.761L413.93 303.174C416.163 301.61 418.231 299.824 420.102 297.842C421.989 295.823 423.756 293.694 425.393 291.467C425.545 291.275 425.677 291.092 425.808 290.9C427.248 288.934 428.606 286.917 429.863 284.869C430.552 283.795 431.221 282.7 431.89 281.616L431.109 281.505ZM448.258 283.532C447.842 283.856 447.417 284.18 446.981 284.484L446.454 284.859C445.281 285.687 444.051 286.432 442.775 287.089L441.893 287.565C441.599 287.728 441.275 287.839 440.971 287.981L439.126 288.771C437.869 289.226 436.582 289.595 435.275 289.876C432.133 290.549 428.93 290.889 425.717 290.89H424.937C423.031 290.89 421.126 290.738 419.231 290.535C413.882 289.862 408.624 288.601 403.552 286.775C398.484 285.021 393.487 282.863 388.521 280.694C383.578 278.458 378.501 276.532 373.318 274.927C368.119 273.437 362.575 272.626 357.193 273.68C355.481 274.024 353.824 274.601 352.268 275.393C352.166 275.596 352.065 275.809 351.974 276.011C353.639 275.123 355.425 274.481 357.274 274.106C362.565 273.092 368.038 273.883 373.187 275.373C378.339 276.983 383.386 278.912 388.298 281.15C393.264 283.288 398.231 285.457 403.349 287.231C408.471 289.083 413.779 290.371 419.18 291.072C420.964 291.275 422.748 291.407 424.531 291.437C424.795 291.437 425.048 291.437 425.312 291.437C428.715 291.492 432.114 291.173 435.447 290.484C436.78 290.19 438.093 289.814 439.379 289.359L441.265 288.548C441.579 288.407 441.893 288.295 442.197 288.133L443.099 287.646C444.483 286.941 445.811 286.131 447.072 285.224L447.599 284.849C448.126 284.464 448.613 284.059 449.18 283.653L448.258 283.532ZM404.129 209.099C403.693 208.714 403.268 208.339 402.842 207.943L402.295 208.298L403.714 209.565C407.013 212.52 410.537 215.214 414.254 217.622C414.254 217.369 414.254 217.116 414.254 216.872C410.697 214.548 407.319 211.96 404.15 209.129L404.129 209.099ZM410.292 221.261L408.264 221.393C407.596 221.443 406.927 221.393 406.237 221.393H404.21L402.183 221.231C399.503 221.07 396.85 220.601 394.278 219.832C393.153 219.497 392.038 219.112 390.943 218.666L390.7 218.94L390.467 219.204C391.649 219.699 392.857 220.128 394.085 220.491C400.505 222.205 407.208 222.577 413.778 221.585C413.778 221.332 413.849 221.089 413.89 220.835C412.764 221.058 411.538 221.2 410.312 221.291L410.292 221.261ZM442.278 316.593C436.827 316.403 431.391 317.278 426.275 319.167C421.203 321.095 416.36 323.576 411.832 326.566C409.298 328.207 406.825 329.93 404.383 331.704L404.778 331.816C407.15 330.103 409.552 328.451 412.014 326.88C416.526 323.912 421.352 321.454 426.406 319.552C431.474 317.697 436.855 316.847 442.248 317.049C442.947 317.12 443.646 317.16 444.346 317.221L444.538 316.795C443.819 316.734 443.048 316.694 442.298 316.623L442.278 316.593Z" fill="white"/>
<path d="M424.926 330.438C425.747 328.877 426.537 327.316 427.328 325.745C428.915 322.563 430.497 319.373 432.071 316.178C435.192 309.833 438.152 303.407 441 296.921C442.632 293.252 444.405 289.623 445.875 285.883C445.892 285.846 445.894 285.803 445.88 285.764C445.866 285.725 445.837 285.693 445.799 285.676C445.761 285.658 445.718 285.656 445.679 285.671C445.64 285.685 445.609 285.714 445.591 285.752C443.838 288.843 442.318 292.076 440.696 295.248C439.074 298.421 437.422 301.563 435.861 304.765C432.753 311.11 429.74 317.505 426.821 323.951C426 325.755 425.108 327.539 424.368 329.384C423.983 330.326 423.537 331.238 423.162 332.191C422.787 333.144 422.503 334.117 422.148 335.059C422.144 335.069 422.141 335.08 422.141 335.091C422.14 335.102 422.142 335.113 422.146 335.124C422.149 335.134 422.155 335.143 422.163 335.152C422.17 335.16 422.179 335.166 422.189 335.171C422.199 335.176 422.21 335.178 422.221 335.179C422.232 335.179 422.243 335.177 422.253 335.174C422.264 335.17 422.273 335.164 422.281 335.157C422.289 335.149 422.296 335.14 422.301 335.13C423.121 333.559 424.084 332.039 424.926 330.438Z" fill="#263238"/>
<path d="M436.412 335.728L434.719 339.559L434.668 339.681H434.506C426.53 338.201 418.604 336.427 410.729 334.451C402.854 332.474 395.04 330.235 387.307 327.741C379.546 325.288 371.935 322.385 364.513 319.045C360.788 317.37 357.191 315.426 353.749 313.228C352.032 312.108 350.408 310.85 348.894 309.468C347.334 308.129 346.138 306.417 345.418 304.491C346.314 306.3 347.623 307.873 349.239 309.082C350.839 310.311 352.537 311.406 354.317 312.356C357.837 314.313 361.472 316.056 365.202 317.576C372.651 320.667 380.303 323.302 387.996 325.775C395.688 328.248 403.452 330.549 411.236 332.758C419.02 334.968 426.834 337.157 434.658 339.255L434.456 339.356L436.412 335.728Z" fill="#263238"/>
<path d="M457.744 286.887L458.585 284.708L458.676 284.86C450.224 284.302 441.781 283.623 433.338 282.742C424.896 281.86 416.504 280.897 408.112 279.64C406.014 279.316 403.916 278.971 401.818 278.566C400.804 278.353 399.72 278.15 398.636 277.846C398.362 277.765 398.098 277.684 397.804 277.573C397.636 277.518 397.473 277.446 397.318 277.36C397.2 277.296 397.088 277.222 396.984 277.137C396.874 277.045 396.782 276.936 396.71 276.813C396.669 276.733 396.631 276.652 396.598 276.569C396.592 276.529 396.592 276.488 396.598 276.448C396.558 276.062 396.578 275.672 396.659 275.292C396.71 275.019 396.761 274.725 396.832 274.471C397.906 270.265 399.264 266.292 400.642 262.309C403.399 254.292 406.399 246.377 409.561 238.512C407.119 246.62 404.615 254.728 402.122 262.836C400.926 266.89 399.609 270.944 398.686 274.998C398.625 275.252 398.595 275.485 398.544 275.728C398.494 275.971 398.544 276.255 398.494 276.154C398.482 276.1 398.462 276.049 398.433 276.002C398.433 275.9 398.25 275.799 398.291 275.819C398.24 275.819 398.332 275.84 398.291 275.819L398.544 275.921L399.213 276.134C400.227 276.397 401.24 276.59 402.254 276.792C404.281 277.167 406.399 277.492 408.477 277.806C412.653 278.434 416.835 279.025 421.024 279.579L433.602 281.272C441.984 282.387 450.366 283.583 458.747 284.809H458.899L458.839 284.941L457.744 286.887Z" fill="#263238"/>
<path d="M410.464 243.7C409.869 245.13 409.118 246.49 408.224 247.754C407.384 249.048 406.36 250.212 405.184 251.21C405.954 249.862 406.775 248.585 407.646 247.318C408.492 246.043 409.434 244.833 410.464 243.7Z" fill="#263238"/>
<path d="M435.023 224.981C427.867 227.008 414.975 216.539 409.685 207.812C409.32 207.214 410.759 182.565 410.536 177.65C410.536 176.636 441.691 183.731 441.691 183.731C441.691 183.731 439.127 194.17 439.573 202.734C439.604 203.464 441.925 223.015 435.023 224.981Z" fill="#AD6359"/>
<path d="M410.059 193.085C424.643 203.383 438.853 199.43 439.451 199.248C439.69 194.023 440.413 188.832 441.609 183.741C441.609 183.741 410.393 176.646 410.444 177.66C410.626 179.96 410.373 186.609 410.059 193.085Z" fill="#263238"/>
<path d="M441.541 163.429C442.341 170.706 448.169 176.038 454.544 175.328C460.919 174.619 465.45 168.162 464.679 160.896C463.909 153.629 458.061 148.287 451.676 148.997C445.291 149.706 440.74 156.162 441.541 163.429Z" fill="#455A64"/>
<path d="M437.849 164.301C438.74 172.409 445.217 178.318 452.311 177.538C459.406 176.757 464.474 169.572 463.551 161.474C462.629 153.376 456.193 147.457 449.089 148.237C441.984 149.017 436.957 156.213 437.849 164.301Z" fill="#C7C7C7"/>
<path d="M406.219 140.616C402.814 151.541 408.398 183.184 416.131 190.278C427.351 200.565 445.817 201.65 454.574 188.15C463.067 175.055 455.061 133.957 446.405 127.501C433.665 117.974 411.246 124.491 406.219 140.616Z" fill="#AD6359"/>
<path d="M432.508 160.481C432.508 160.41 432.366 160.612 432.386 160.704C432.853 162.812 433.045 165.315 431.261 166.389C431.201 166.389 431.261 166.531 431.261 166.501C433.582 165.72 433.299 162.406 432.508 160.481Z" fill="#263238"/>
<path d="M430.187 158.625C426.721 159.021 427.765 165.933 430.978 165.568C434.191 165.203 433.096 158.301 430.187 158.625Z" fill="#263238"/>
<path d="M444.813 158.818C444.813 158.737 444.995 158.899 445.006 158.99C445.259 161.139 445.918 163.551 447.955 163.977C448.016 163.977 448.036 164.098 447.955 164.098C445.533 164.119 444.712 160.896 444.813 158.818Z" fill="#263238"/>
<path d="M446.385 156.275C449.79 155.494 451.098 162.356 447.946 163.085C444.794 163.815 443.506 156.954 446.385 156.275Z" fill="#263238"/>
<path d="M426.985 155.879C427.854 155.478 428.7 155.028 429.518 154.531C430.476 154.181 431.291 153.526 431.839 152.666C431.958 152.362 431.973 152.027 431.881 151.713C431.789 151.4 431.596 151.126 431.333 150.933C430.756 150.631 430.109 150.488 429.458 150.52C428.808 150.552 428.177 150.758 427.633 151.116C426.412 151.666 425.439 152.653 424.907 153.882C424.8 154.169 424.78 154.481 424.848 154.78C424.916 155.078 425.07 155.35 425.291 155.562C425.512 155.774 425.79 155.917 426.09 155.973C426.391 156.03 426.702 155.997 426.985 155.879Z" fill="#263238"/>
<path d="M448.573 152.413C447.616 152.366 446.662 152.268 445.715 152.119C444.697 152.157 443.696 151.858 442.867 151.268C442.639 151.031 442.496 150.725 442.461 150.399C442.427 150.072 442.501 149.743 442.674 149.464C443.099 148.968 443.647 148.594 444.262 148.378C444.878 148.163 445.54 148.114 446.181 148.237C447.519 148.293 448.787 148.846 449.738 149.788C449.942 150.013 450.077 150.293 450.125 150.593C450.173 150.894 450.133 151.202 450.009 151.479C449.886 151.757 449.684 151.994 449.429 152.159C449.174 152.325 448.877 152.413 448.573 152.413Z" fill="#263238"/>
<path d="M433.684 180.538C434.272 180.963 434.89 181.551 435.711 181.551C436.505 181.417 437.261 181.117 437.931 180.67C437.943 180.655 437.96 180.645 437.979 180.643C437.998 180.642 438.017 180.647 438.032 180.659C438.047 180.671 438.056 180.689 438.058 180.708C438.06 180.727 438.054 180.746 438.042 180.761C437.802 181.23 437.438 181.624 436.989 181.901C436.541 182.178 436.025 182.327 435.498 182.332C435.046 182.286 434.617 182.106 434.266 181.815C433.916 181.525 433.661 181.136 433.532 180.7C433.441 180.599 433.593 180.477 433.684 180.538Z" fill="#263238"/>
<path d="M434.962 173.798C435.633 174.562 436.455 175.178 437.376 175.609C438.297 176.04 439.297 176.276 440.313 176.302C441.203 176.337 442.094 176.245 442.958 176.028C443.125 175.998 443.288 175.95 443.445 175.886C443.599 175.847 443.751 175.799 443.901 175.744C444.012 175.707 444.108 175.634 444.174 175.537C444.24 175.44 444.272 175.324 444.266 175.207C444.26 175.134 444.243 175.062 444.215 174.994V174.812C444.002 173.16 443.465 170.677 443.465 170.677C444.114 170.89 447.398 171.802 447.215 170.95C445.715 163.856 444.043 156.031 441.053 149.332C441.033 149.288 440.997 149.252 440.953 149.232C440.909 149.212 440.859 149.208 440.812 149.222C440.766 149.235 440.725 149.265 440.699 149.306C440.672 149.347 440.661 149.395 440.668 149.444C441.844 156.285 444.215 162.873 445.512 169.714C444.344 169.371 443.132 169.197 441.914 169.197C441.691 169.298 443.039 173.971 443.07 174.721C443.076 174.747 443.076 174.775 443.07 174.802C440.354 175.572 438.144 175.055 435.175 173.606C434.952 173.504 434.81 173.646 434.962 173.798Z" fill="#263238"/>
<path d="M441.853 175.339C441.132 176.65 440.085 177.754 438.812 178.541C438.102 178.946 437.285 179.123 436.471 179.048C434.697 178.856 434.444 177.295 434.525 175.906C434.592 175.168 434.745 174.44 434.981 173.737C437.043 174.989 439.45 175.55 441.853 175.339Z" fill="#263238"/>
<path d="M438.804 178.572C438.094 178.977 437.277 179.154 436.463 179.079C434.689 178.886 434.436 177.325 434.517 175.937C436.412 175.815 438.379 176.788 438.804 178.572Z" fill="#FF99BA"/>
<path opacity="0.2" d="M411.407 151.856C410.16 154.998 407.596 162.376 406.137 162.893C404.748 152.636 404.697 143.332 407.241 137.616C408.293 135.255 409.771 133.108 411.6 131.281C411.812 134.028 412.735 148.572 411.407 151.856Z" fill="#263238"/>
<path d="M438.821 137.189C437.953 138.694 436.714 139.95 435.221 140.837C433.729 141.724 432.033 142.213 430.297 142.257C428.53 142.303 426.781 141.897 425.215 141.078C423.648 140.258 422.317 139.053 421.348 137.575C421.343 137.565 421.336 137.557 421.327 137.551C421.319 137.544 421.309 137.539 421.299 137.536C421.288 137.533 421.277 137.533 421.267 137.534C421.256 137.535 421.246 137.539 421.236 137.544C421.227 137.55 421.219 137.557 421.212 137.565C421.206 137.574 421.201 137.583 421.198 137.594C421.195 137.604 421.195 137.615 421.196 137.625C421.197 137.636 421.201 137.646 421.206 137.656C422.088 139.305 423.403 140.682 425.011 141.638C426.619 142.594 428.457 143.092 430.328 143.078C432.16 142.975 433.933 142.391 435.468 141.386C437.003 140.381 438.247 138.989 439.074 137.352C439.096 137.318 439.103 137.277 439.095 137.238C439.086 137.199 439.062 137.165 439.029 137.144C438.995 137.122 438.954 137.115 438.915 137.124C438.877 137.132 438.843 137.156 438.821 137.189Z" fill="#263238"/>
<path d="M459.965 120.882C458.505 118.189 456.139 116.099 453.286 114.983C449.333 113.422 445.371 114.466 441.448 115.591C441.427 115.591 441.406 115.6 441.391 115.615C441.376 115.63 441.367 115.651 441.367 115.672C441.367 115.694 441.376 115.714 441.391 115.73C441.406 115.745 441.427 115.753 441.448 115.753C444.783 114.811 448.229 114.051 451.634 115.085C454.453 115.928 456.894 117.718 458.546 120.152C460.158 122.673 460.808 125.69 460.378 128.651C459.948 131.611 458.467 134.319 456.205 136.277C454.872 137.371 453.329 138.181 451.672 138.657C450.014 139.132 448.277 139.264 446.567 139.044C446.435 139.044 446.374 139.227 446.516 139.247C448.844 139.642 451.236 139.38 453.424 138.49C455.611 137.601 457.507 136.119 458.899 134.211C460.291 132.304 461.123 130.046 461.303 127.691C461.482 125.336 461.001 122.978 459.915 120.882H459.965Z" fill="#263238"/>
<path d="M405.297 146.93C405.297 146.93 397.969 137.514 401.516 130.713C403.543 126.852 412.27 125.788 412.27 125.788C412.27 125.788 414.297 121.318 421.199 118.419C428.101 115.521 437.415 117.224 437.415 117.224C437.415 117.224 443.608 112.075 450.703 114.629C460.594 118.197 461.851 132.092 453.581 138.072C447.763 142.278 438.155 138.163 438.155 138.163C437.344 138.416 429.743 145.024 422 138.568C422 138.568 417.591 144.122 412.331 141.69C411.833 143.177 410.892 144.476 409.635 145.412C408.378 146.349 406.864 146.878 405.297 146.93Z" fill="#263238"/>
<path d="M412.815 166.409C412.815 166.409 405.528 156.274 400.927 158.899C396.325 161.524 401.94 176.25 407.373 178.156C408.055 178.456 408.79 178.615 409.536 178.624C410.281 178.633 411.02 178.491 411.709 178.207C412.398 177.923 413.023 177.503 413.546 176.972C414.068 176.44 414.478 175.809 414.751 175.115L412.815 166.409Z" fill="#AD6359"/>
<path d="M402.631 163.096C402.54 163.096 402.53 163.207 402.631 163.238C406.472 164.738 408.53 168.244 409.989 171.893C408.834 170.494 407.283 169.744 405.408 171.123C405.307 171.194 405.408 171.346 405.509 171.325C406.177 171.113 406.894 171.11 407.563 171.319C408.232 171.527 408.821 171.937 409.249 172.491C409.97 173.434 410.585 174.454 411.084 175.532C411.266 175.866 411.874 175.673 411.742 175.288V175.197C411.742 170.271 407.861 163.511 402.631 163.096Z" fill="#263238"/>
<path d="M406.745 159.315C406.745 159.315 402.803 143.605 405.874 133.977C409.289 123.274 422.171 112.794 437.394 117.244C437.394 117.244 420.499 119.423 412.289 133.541C408.519 140.028 412.137 158.758 412.137 158.758L406.745 159.315Z" fill="#C7C7C7"/>
<path d="M423.102 164.606C424.643 172.714 420.153 180.356 413.058 181.714C405.964 183.072 398.95 177.66 397.4 169.552C395.849 161.443 400.349 153.802 407.443 152.443C414.538 151.085 421.552 156.518 423.102 164.606Z" fill="#C7C7C7"/>
<path d="M419.27 164.869C420.659 172.136 416.615 179.059 410.24 180.244C403.865 181.43 397.56 176.545 396.172 169.288C394.783 162.032 398.817 155.099 405.192 153.913C411.567 152.727 417.871 157.592 419.27 164.869Z" fill="#455A64"/>
<path d="M17.1172 343.38H141.435L116.645 199.187H23.6848L17.1172 343.38Z" fill="#DBDBDB"/>
<path d="M17.1172 343.38H28.0125L34.1342 199.187H23.6848L17.1172 343.38Z" fill="#A6A6A6"/>
<path d="M90.8014 136.298C79.2575 147.781 75.9432 166.703 75.9432 166.703C75.9432 166.703 64.8756 185.747 67.9669 196.095C68.7845 199.029 70.3017 201.721 72.3882 203.94C74.4747 206.159 77.0684 207.839 79.9467 208.835L78.852 203.119C78.852 203.119 82.5615 210.467 94.9569 213.426C107.352 216.386 123.751 212.575 132.285 208.258C137.343 205.725 141.659 201.926 144.812 197.23L141.619 205.541C141.619 205.541 153.65 205.116 160.795 192.315C167.94 179.514 147.417 161.119 145.673 157.156C143.93 153.193 141.721 124.318 111.345 129.294C111.386 129.223 98.788 128.392 90.8014 136.298Z" fill="#263238"/>
<path d="M75.5991 208.015C72.4369 205.653 69.3152 202.947 67.572 199.603C65.6711 196.136 64.9961 192.129 65.6564 188.231C66.4977 183.559 68.9605 179.434 71.3524 175.41C73.7443 171.386 76.6227 167.302 79.0247 163.075C79.1565 162.842 78.8018 162.65 78.6396 162.832C75.9408 166.002 73.4232 169.321 71.099 172.775C68.7213 175.933 66.7212 179.358 65.1395 182.981C63.6612 186.317 63.1757 190.008 63.7409 193.613C64.3388 196.543 65.6396 199.283 67.5314 201.599C69.7713 204.386 72.599 206.17 75.4369 208.268C75.5991 208.4 75.7714 208.147 75.5991 208.015Z" fill="#263238"/>
<path d="M163.4 179.079C159.752 168.447 150.225 161.697 144.377 152.423C141.235 147.406 138.792 141.852 134.697 137.494C134.586 137.372 134.383 137.565 134.485 137.686C137.849 141.609 139.795 146.332 142.228 150.862C144.819 155.32 147.848 159.51 151.268 163.369C157.289 170.585 164.495 179.129 163.116 189.234C162.478 193.896 159.721 199.065 154.937 200.514C154.755 200.575 154.866 200.879 155.049 200.798C156.936 200.041 158.648 198.907 160.082 197.466C161.516 196.025 162.642 194.307 163.39 192.416C165.002 188.117 165.006 183.38 163.4 179.079Z" fill="#263238"/>
<path d="M163.835 181.936C164.164 177.91 163.236 173.88 161.18 170.403C159.082 166.977 155.788 164.504 152.494 162.294C148.693 159.771 144.69 157.369 142.277 153.365C142.176 153.193 141.933 153.365 142.024 153.538C145.855 160.146 153.173 163.227 158.068 168.791C163.693 175.146 163.703 184.399 159.832 191.666C157.371 196.096 153.898 199.881 149.696 202.714C149.625 202.714 149.696 202.866 149.777 202.815C156.943 198.112 163.257 190.876 163.835 181.936Z" fill="#263238"/>
<path d="M117.901 230.373C148.661 247.258 185.482 268.451 208.043 263.464C218.046 261.255 262.965 202.37 264.871 195.559C266.503 189.711 225.83 166.167 221.29 170.778C213.627 178.511 192.911 222.052 189.87 222.782C186.83 223.512 161.005 218.272 134.127 213.417C108.262 208.775 96.5457 218.657 117.901 230.373Z" fill="#EB9481"/>
<path d="M260.503 202.896C264.01 198.477 278.321 176.808 280.946 169.886C283.571 162.963 289.713 142.521 284.625 139.946C279.537 137.372 277.287 143.2 277.287 143.2C277.287 143.2 278.513 134.149 273.152 132.051C267.79 129.953 264.547 139.146 264.547 139.146C264.547 139.146 265.125 129.761 259.621 127.997C254.118 126.234 252.415 136.105 252.415 136.105C252.415 136.105 253.347 127.551 248.219 127.997C242.057 128.595 242.138 144.568 238.651 151.987C237.861 153.67 220.195 185.008 220.195 185.008L260.503 202.896Z" fill="#EB9481"/>
<path d="M252.539 135.305C252.539 147.051 250.512 152.2 244.43 161.991C244.309 162.173 244.562 162.396 244.714 162.214C251.606 153.173 255.072 147.092 253.147 135.274C253.015 134.697 252.539 134.747 252.539 135.305Z" fill="#263238"/>
<path d="M264.486 138.224C263.472 150.386 261.303 156.021 255.617 166.754C255.536 166.906 255.79 167.058 255.881 166.906C262.337 156.852 265.661 150.69 265.094 138.376C265.124 137.818 264.536 137.666 264.486 138.224Z" fill="#263238"/>
<path d="M276.944 143.737C275.09 155.474 273.002 161.717 266.15 171.427C266.132 171.449 266.119 171.474 266.111 171.501C266.103 171.528 266.1 171.557 266.103 171.585C266.105 171.613 266.114 171.641 266.127 171.666C266.141 171.691 266.159 171.713 266.181 171.731C266.203 171.749 266.228 171.762 266.255 171.77C266.282 171.779 266.311 171.781 266.339 171.778C266.367 171.776 266.395 171.767 266.42 171.754C266.445 171.74 266.467 171.722 266.485 171.7C274.441 162.477 277.107 154.714 277.299 143.829C277.289 143.099 277.066 142.997 276.944 143.737Z" fill="#263238"/>
<path d="M211.492 188.555C211.492 188.555 210.63 173.869 211.684 167.332C212.738 160.795 225.6 137.869 230.668 140.363C237.266 143.596 232.441 158.292 229.137 165.184C229.137 165.184 244.401 172.623 243.225 183.924C242.049 195.224 211.492 188.555 211.492 188.555Z" fill="#EB9481"/>
<path d="M232.225 141.842C236.117 149.129 231.212 157.896 228.496 164.818C228.451 164.918 228.432 165.028 228.439 165.137C228.446 165.246 228.479 165.352 228.536 165.446C228.593 165.539 228.671 165.618 228.765 165.674C228.858 165.731 228.964 165.764 229.073 165.771C235.266 169.318 242.969 176.129 243.628 183.629C243.628 183.675 243.646 183.719 243.678 183.751C243.71 183.783 243.754 183.802 243.8 183.802C243.846 183.802 243.889 183.783 243.922 183.751C243.954 183.719 243.972 183.675 243.972 183.629C244.357 175.521 237.334 168.183 230.31 164.727C233.188 157.633 237.739 148.663 232.337 141.801C232.266 141.771 232.205 141.801 232.225 141.842Z" fill="#263238"/>
<path d="M182.554 220.379L145.53 251.413C145.53 251.413 122.928 239.656 106.236 226.146C89.5431 212.636 108.03 206.068 136.692 210.883C165.354 215.697 182.554 220.379 182.554 220.379Z" fill="#7ECA9D"/>
<path d="M138.699 226.612C137.65 225.181 136.435 223.878 135.081 222.731C136.58 225.953 138.746 228.82 141.435 231.143C140.709 229.528 139.79 228.007 138.699 226.612ZM106.266 226.166L106.712 226.511C107.006 226.197 107.3 225.862 107.574 225.498C107.108 225.71 106.672 225.933 106.246 226.207L106.266 226.166ZM168.243 226.369C166.492 226.112 164.716 226.058 162.952 226.207C164.607 226.831 166.328 227.263 168.081 227.494C169.831 227.76 171.607 227.818 173.371 227.666C171.711 227.036 169.983 226.601 168.223 226.369H168.243ZM155.848 214.369C155.825 215.046 155.849 215.723 155.919 216.396C156.166 215.788 156.376 215.165 156.547 214.531L155.848 214.369Z" fill="white"/>
<path d="M137.241 244.785C144.772 237.549 152.819 230.829 160.978 224.282C163.289 222.437 165.64 220.633 168.072 218.9C168.143 218.849 168.234 218.9 168.164 218.991C164.332 222.528 160.349 225.903 156.386 229.299C152.424 232.694 148.41 236.089 144.346 239.383C142.045 241.248 139.755 243.113 137.424 244.927C137.282 244.998 137.15 244.876 137.241 244.785Z" fill="#263238"/>
<path d="M161.258 238.227L145.519 251.403C145.519 251.403 122.917 239.656 106.224 226.146C100.295 221.352 98.8055 217.44 100.62 214.592L161.258 238.227Z" fill="#263238"/>
<path d="M153.64 343.258H35.6562C35.6562 343.258 61.2881 244.268 85.0146 216.396C85.5416 215.758 86.0889 215.15 86.6362 214.582C86.7477 214.45 86.8491 214.359 86.9606 214.248C88.7973 212.285 90.9357 210.629 93.2951 209.342C93.7106 209.119 94.1261 208.906 94.562 208.724C103.684 204.518 113.353 208.004 120.315 213.964C122.525 215.849 147.539 248.423 149.707 260.798C151.623 271.755 144.224 283.522 144.224 283.522L153.64 343.258Z" fill="#7ECA9D"/>
<path d="M126.546 279.285C121.522 279.775 116.542 280.639 111.647 281.87C109.214 282.518 106.843 283.268 104.461 284.069C103.275 284.474 102.089 284.839 100.893 285.194C99.6482 285.599 98.3583 285.851 97.0522 285.944C97.028 285.944 97.0048 285.954 96.9876 285.971C96.9705 285.988 96.9609 286.011 96.9609 286.035C96.9609 286.059 96.9705 286.083 96.9876 286.1C97.0048 286.117 97.028 286.126 97.0522 286.126C98.2895 286.179 99.529 286.145 100.762 286.025C101.948 285.877 103.124 285.646 104.279 285.336C106.752 284.697 109.184 283.957 111.647 283.309C116.613 281.991 121.569 280.674 126.616 279.711C126.673 279.701 126.723 279.67 126.757 279.623C126.79 279.577 126.803 279.519 126.794 279.463C126.784 279.406 126.753 279.356 126.706 279.322C126.66 279.289 126.602 279.276 126.546 279.285Z" fill="#263238"/>
<path d="M139.015 283.633C134.868 283.235 130.703 283.069 126.538 283.137C124.511 283.187 122.393 283.35 120.315 283.562C119.302 283.674 118.288 283.796 117.356 283.927C116.423 284.059 115.207 284.363 114.123 284.495C114.011 284.495 114.011 284.687 114.123 284.677C115.136 284.586 116.2 284.677 117.234 284.627L120.346 284.515C122.373 284.454 124.491 284.404 126.569 284.312C130.724 284.14 134.869 284.008 139.025 283.968C139.248 283.978 139.228 283.654 139.015 283.633Z" fill="#263238"/>
<path d="M73.8025 239.667C73.2451 238.957 72.6775 238.258 72.0592 237.64L71.6234 238.552C72.0288 239.18 72.4646 239.799 72.9106 240.397C73.9606 241.819 75.1751 243.111 76.5289 244.248C75.7891 242.626 74.8749 241.09 73.8025 239.667ZM87.4951 213.7C87.2887 215.283 87.2547 216.884 87.3938 218.474C88.0234 216.812 88.4489 215.08 88.6607 213.315C88.6607 213.052 88.7316 212.778 88.762 212.515C88.3364 212.89 87.9107 213.285 87.4951 213.7ZM123.303 246.68C122.672 248.34 122.236 250.068 122.005 251.829C121.75 253.584 121.692 255.362 121.833 257.13C122.47 255.473 122.898 253.743 123.11 251.981C123.388 250.228 123.453 248.449 123.303 246.68ZM100.752 303.762C100.127 305.415 99.6988 307.137 99.4749 308.89C99.2179 310.645 99.1635 312.424 99.3127 314.191C100.517 310.854 101.008 307.301 100.752 303.762ZM62.4207 260.667C61.8018 262.333 61.3734 264.063 61.1436 265.826C60.8857 267.577 60.8313 269.352 60.9815 271.116C61.6018 269.455 62.0269 267.727 62.2484 265.968C62.514 264.214 62.5718 262.434 62.4207 260.667ZM94.1438 253.43C92.3924 253.173 90.6171 253.119 88.8532 253.268C90.5077 253.893 92.2285 254.324 93.9816 254.555C95.7322 254.821 97.5081 254.879 99.2722 254.728C97.6234 254.086 95.9059 253.637 94.1539 253.39L94.1438 253.43ZM136.59 302.079C134.835 301.822 133.057 301.768 131.289 301.917C134.627 303.122 138.18 303.612 141.718 303.356C140.067 302.73 138.35 302.295 136.6 302.059L136.59 302.079ZM57.3531 297.407C55.6317 297.157 53.8883 297.096 52.1537 297.225H52.0524H52.1436C53.7808 297.828 55.4807 298.247 57.2112 298.471C58.9626 298.728 60.7379 298.783 62.5018 298.633C60.8387 298.027 59.1109 297.615 57.3531 297.407ZM101.867 339.255C100.115 338.998 98.3401 338.944 96.5763 339.093C99.9164 340.3 103.474 340.787 107.015 340.522C105.34 339.903 103.599 339.478 101.826 339.255H101.867ZM53.9882 334.127C52.2334 333.87 50.4548 333.815 48.6875 333.965C50.343 334.581 52.0637 335.006 53.8159 335.231C55.5694 335.504 57.3498 335.558 59.1166 335.394C57.4481 334.774 55.7136 334.349 53.9477 334.127H53.9882ZM103.022 228.234C101.595 229.296 100.292 230.517 99.1405 231.873C100.758 231.137 102.287 230.222 103.701 229.146C105.126 228.089 106.419 226.864 107.553 225.498C105.946 226.241 104.427 227.158 103.022 228.234ZM115.651 282.488C114.226 283.535 112.933 284.75 111.799 286.106C113.412 285.375 114.932 284.457 116.33 283.37C117.756 282.325 119.05 281.11 120.181 279.751C118.57 280.493 117.05 281.418 115.651 282.508V282.488ZM71.3701 315.65C69.9376 316.695 68.6405 317.914 67.5085 319.279C69.1148 318.536 70.6341 317.618 72.039 316.542C73.4637 315.485 74.7658 314.271 75.9207 312.924C74.2936 313.643 72.7645 314.566 71.3701 315.671V315.65ZM144.911 267.944C143.862 266.512 142.647 265.209 141.293 264.062C142.792 267.284 144.958 270.152 147.647 272.474C146.919 270.867 146.001 269.352 144.911 267.964V267.944ZM129.82 329.333C128.762 327.908 127.549 326.606 126.201 325.451C126.912 327.078 127.828 328.608 128.928 330.002C129.975 331.429 131.19 332.726 132.546 333.863C131.807 332.257 130.893 330.738 129.82 329.333ZM85.387 281.049C84.3351 279.619 83.1209 278.317 81.7687 277.167C82.4874 278.792 83.4067 280.321 84.5052 281.718C85.5494 283.148 86.7645 284.444 88.1235 285.579C87.3854 283.971 86.4674 282.451 85.387 281.049Z" fill="white"/>
<path d="M82.6007 217.167C59.908 235.461 1.79285 307.958 14.8976 324.711C28.0024 341.464 115.104 333.833 140.392 325.907C147.912 323.556 127.398 275.829 119.27 273.63C112.499 271.795 74.9588 282.893 74.229 280.724C73.4081 278.272 83.5027 264.701 96.3339 235.298C111.131 201.386 92.6244 209.089 82.6007 217.167Z" fill="#EB9481"/>
<path d="M160.266 269.646C177.607 271.673 181.752 274.825 197.289 268.744C207.485 264.761 214.408 269.555 206.948 278.16C194.786 292.238 171.84 294.376 163.681 292.795L160.266 269.646Z" fill="#EB9481"/>
<path d="M111.629 274.238C111.629 274.238 133.146 268.674 151.835 268.978C164.768 269.191 192.842 272.789 211.896 306.346C216.417 314.302 217.217 328.857 205.106 318.508C196.511 311.181 193.278 303.934 187.501 300.579C187.501 300.579 186.315 319.198 178.166 323.424C171.039 327.109 163.659 330.283 156.082 332.921C155.279 331.645 154.561 330.318 153.933 328.948C153.933 328.948 145.947 332.171 133.663 327.701L111.629 274.238Z" fill="#EB9481"/>
<path d="M164.146 271.156C169.214 275.697 179.674 285.487 185.43 296.494C191.876 308.717 200.998 333.994 191.927 338.667C185.278 342.092 180.94 332.738 180.94 332.738C180.94 332.738 182.511 343.988 175.873 345.761C169.792 347.383 166.863 339.944 166.863 339.944C166.863 339.944 166.64 346.927 160.478 347.363C153.059 347.869 154.741 333.173 146.775 327.184C144.981 325.836 164.146 271.156 164.146 271.156Z" fill="#EB9481"/>
<path d="M171.425 301.207C175.479 306.275 181.671 320.059 181.144 332.555C181.144 332.839 180.911 332.981 180.871 332.717C178.969 321.896 175.76 311.345 171.313 301.298C171.301 301.283 171.295 301.265 171.297 301.246C171.299 301.227 171.309 301.209 171.323 301.197C171.338 301.185 171.357 301.179 171.376 301.181C171.395 301.183 171.413 301.192 171.425 301.207Z" fill="#263238"/>
<path d="M159.274 308.018C162.315 312.731 168.081 327.275 167.108 339.894C167.108 340.177 166.855 340.299 166.825 340.035C165.485 329.124 162.911 318.4 159.152 308.069C159.152 308.055 159.156 308.041 159.164 308.029C159.172 308.017 159.183 308.008 159.196 308.003C159.209 307.997 159.224 307.996 159.237 307.998C159.251 308.001 159.264 308.008 159.274 308.018Z" fill="#263238"/>
<path d="M187.531 300.498C192.599 303.539 195.426 307.116 199.197 311.505C201.04 313.703 203.002 315.797 205.075 317.779C206.981 319.552 209.788 322.218 212.646 320.951C214.237 320.241 214.673 318.336 214.805 316.755C214.93 314.977 214.67 313.194 214.045 311.525C214.045 311.444 214.166 311.383 214.197 311.475C214.819 312.946 215.228 314.499 215.413 316.086C215.654 317.578 215.438 319.107 214.795 320.475C213.214 323.272 209.565 322.745 207.274 321.275C205.919 320.337 204.66 319.267 203.514 318.083C202.389 316.978 201.315 315.823 200.271 314.647C198.132 312.214 196.136 309.67 194.028 307.228C191.962 304.898 189.748 302.705 187.399 300.66C187.308 300.579 187.43 300.437 187.531 300.498Z" fill="#263238"/>
<path d="M193.976 322.654C193.378 319.178 189.081 304.238 187.378 300.6C187.367 300.581 187.364 300.559 187.37 300.538C187.376 300.517 187.39 300.499 187.408 300.488C187.427 300.478 187.45 300.475 187.47 300.48C187.491 300.486 187.509 300.5 187.52 300.519C190.733 305.657 194.787 318.134 195.496 321.975C196.206 325.816 196.885 330.57 195.902 334.35C194.422 340.046 190.368 340.147 188.898 340.066C187.162 339.939 185.521 339.224 184.246 338.039C182.794 336.525 181.663 334.732 180.922 332.769C180.922 332.678 181.013 332.597 181.064 332.688C182.462 335.445 185.169 338.516 188.371 338.911C189.08 339.021 189.804 338.988 190.501 338.814C191.197 338.64 191.851 338.328 192.425 337.897C193.628 336.746 194.373 335.198 194.523 333.539C194.965 329.906 194.78 326.224 193.976 322.654Z" fill="#263238"/>
<path d="M167.109 339.894C167.727 340.776 168.751 343.563 171.213 344.738C172.07 345.226 173.032 345.499 174.017 345.533C175.003 345.566 175.981 345.36 176.869 344.931C178.562 343.88 179.779 342.212 180.264 340.279C180.674 337.806 180.894 335.306 180.923 332.799C180.923 332.678 181.075 332.667 181.085 332.799C181.401 335.518 181.305 338.268 180.801 340.958C180.563 342.012 180.117 343.008 179.489 343.886C178.86 344.765 178.063 345.51 177.143 346.076C176.168 346.608 175.065 346.861 173.956 346.805C172.847 346.75 171.775 346.389 170.859 345.762C169.936 345.124 167.261 342.235 166.805 339.965C166.815 339.894 167.078 339.853 167.109 339.894Z" fill="#263238"/>
<path d="M147.557 326.292C148.29 327.104 148.926 327.999 149.452 328.958C150.05 329.971 150.618 330.934 151.155 331.947C152.222 333.996 153.075 336.149 153.699 338.373C154.347 340.603 154.854 343.035 156.385 344.87C157.101 345.777 158.084 346.435 159.196 346.752C160.308 347.068 161.49 347.027 162.577 346.633C163.727 346.176 164.684 345.335 165.283 344.252C165.978 343.084 166.442 341.794 166.651 340.451C166.647 340.439 166.645 340.425 166.647 340.412C166.649 340.399 166.653 340.387 166.661 340.376C166.668 340.366 166.678 340.357 166.69 340.351C166.702 340.345 166.714 340.342 166.727 340.342C166.741 340.342 166.753 340.345 166.765 340.351C166.777 340.357 166.787 340.366 166.794 340.376C166.802 340.387 166.806 340.399 166.808 340.412C166.81 340.425 166.808 340.439 166.803 340.451C166.717 341.668 166.506 342.874 166.175 344.049C165.792 345.104 165.138 346.041 164.28 346.765C163.38 347.453 162.308 347.879 161.181 347.997C160.055 348.115 158.918 347.92 157.895 347.434C155.624 346.42 154.347 344.13 153.557 341.86C152.675 339.336 152.087 336.731 151.084 334.238C150.567 332.92 150.07 331.603 149.442 330.336C148.814 329.069 147.942 327.751 147.415 326.393C147.354 326.312 147.476 326.201 147.557 326.292Z" fill="#263238"/>
<path d="M139.643 329.434C142.847 329.897 146.088 330.057 149.322 329.911C149.423 329.911 149.484 330.205 149.383 330.225C147.779 330.525 146.148 330.651 144.518 330.6C142.865 330.53 141.232 330.213 139.673 329.657C139.542 329.586 139.542 329.414 139.643 329.434Z" fill="#263238"/>
<path d="M40.1238 291.579C45.5417 288.964 51.1406 286.742 56.8772 284.93C62.5539 283.155 68.3533 281.8 74.2287 280.876C77.5834 280.319 80.9483 279.923 84.3638 279.508C84.4652 279.508 84.4855 279.65 84.3638 279.66C78.4603 280.616 72.6163 281.908 66.8604 283.531C61.1306 285.092 55.4346 286.758 49.7725 288.528C46.5697 289.542 43.4076 290.677 40.2352 291.782C40.1238 291.863 40.0224 291.65 40.1238 291.579Z" fill="#263238"/>
<path d="M35.1875 261.184L83.2181 266.403C83.2181 266.403 95.4716 244.106 101.847 223.562C108.222 203.018 90.1202 207.011 68.9681 226.927C47.8159 246.842 35.1875 261.184 35.1875 261.184Z" fill="#7ECA9D"/>
<path d="M35.1875 261.184L83.2181 266.403C83.2181 266.403 95.4716 244.106 101.847 223.562C108.222 203.018 90.1202 207.011 68.9681 226.927C47.8159 246.842 35.1875 261.184 35.1875 261.184Z" fill="#7ECA9D"/>
<path d="M87.577 213.031C87.5819 213.082 87.5819 213.132 87.577 213.183C87.3198 214.938 87.2654 216.716 87.4148 218.484C88.0445 216.822 88.4699 215.089 88.6817 213.325C88.6817 213.021 88.7628 212.727 88.7932 212.423L87.577 213.031ZM62.4214 260.666C61.9815 261.772 61.6423 262.915 61.4079 264.082L62.4214 264.183C62.5328 263.014 62.5328 261.836 62.4214 260.666ZM45.7592 249.852L45.293 250.339C45.82 250.339 46.3065 250.339 46.8842 250.247C46.4991 250.095 46.1342 249.964 45.7592 249.852ZM88.8641 253.227C89.1479 253.339 89.4418 253.45 89.7358 253.541C89.7882 253.409 89.8492 253.28 89.9182 253.156C89.5736 253.166 89.2189 253.187 88.8641 253.227ZM73.8033 239.666C72.7458 238.241 71.5322 236.939 70.185 235.784C70.8977 237.414 71.8137 238.946 72.9114 240.345C73.9613 241.767 75.1758 243.06 76.5296 244.197C75.7866 242.593 74.8725 241.074 73.8033 239.666Z" fill="white"/>
<path d="M81.2739 265.957C81.5375 265.957 83.301 265.957 83.301 265.957C83.5138 265.339 87.649 255.822 88.6625 253.795C90.7503 249.629 93.0814 245.575 95.3517 241.511C95.4227 241.379 95.6254 241.511 95.5544 241.602C93.9531 245.149 92.4125 248.697 90.7807 252.264C91.1862 251.788 91.5916 251.311 91.9868 250.825C92.7875 249.811 93.5172 248.798 94.2774 247.724C94.3483 247.632 94.4902 247.724 94.4396 247.835C93.7142 249.301 92.7974 250.664 91.7132 251.889C91.2529 252.427 90.755 252.932 90.2233 253.399C90.0916 253.693 89.9598 253.997 89.8179 254.281C88.8044 256.308 83.8077 266.524 83.6253 266.514L81.3145 266.23C81.1422 266.271 81.1422 265.947 81.2739 265.957Z" fill="#263238"/>
<path d="M44.2407 253.025C54.6597 253.724 65.0483 255.153 75.376 256.775C78.3085 257.241 81.2207 257.771 84.1126 258.366C84.1937 258.366 84.1937 258.508 84.1126 258.498C78.9234 258.042 73.7443 257.373 68.5652 256.734C63.3861 256.096 58.1665 255.407 52.9874 254.586C50.0685 254.14 47.1394 253.694 44.2306 253.197C44.109 253.207 44.109 253.015 44.2407 253.025Z" fill="#263238"/>
<path d="M99.4453 210.092C99.6277 212.2 107.472 226.856 116.868 227.758C119.908 228.041 122.249 211.41 122.249 211.41L122.695 210.224L129.01 193.582L110.665 177.72L107.999 175.592C107.999 175.592 106.57 180.254 104.857 186.082C104.776 186.355 104.685 186.629 104.604 186.913C104.523 187.197 104.401 187.551 104.31 187.855C104.047 188.727 103.773 189.609 103.53 190.501C103.337 191.18 103.145 191.839 102.962 192.528C102.78 193.217 102.597 193.947 102.395 194.656C101.061 199.728 100.076 204.886 99.4453 210.092Z" fill="#EB9481"/>
<path d="M104.859 186.082C105.904 191.159 108.04 195.948 111.121 200.116C114.201 204.285 118.151 207.734 122.697 210.224L129.012 193.582L110.667 177.72L108.001 175.592C108.001 175.592 106.572 180.254 104.859 186.082Z" fill="#263238"/>
<path d="M134.564 168.021C136.176 175.116 142.561 179.788 148.825 178.379C155.088 176.97 158.848 170.028 157.237 162.893C155.625 155.757 149.24 151.116 142.977 152.534C136.713 153.953 132.953 160.876 134.564 168.021Z" fill="#455A64"/>
<path d="M130.985 169.298C132.789 177.234 139.883 182.393 146.857 180.822C153.83 179.251 158.005 171.538 156.211 163.592C154.417 155.646 147.313 150.497 140.35 152.068C133.387 153.639 129.191 161.342 130.985 169.298Z" fill="#C7C7C7"/>
<path d="M151.478 159.142C159.991 189.193 142.954 197.656 136.467 199.521C130.579 201.183 110.329 206.088 98.7543 177.071C87.1799 148.054 98.4604 134.595 111.717 130.084C124.974 125.574 142.964 129.081 151.478 159.142Z" fill="#EB9481"/>
<path d="M141.02 155.362C140.306 155.433 139.589 155.463 138.871 155.453C138.117 155.597 137.337 155.486 136.652 155.139C136.457 154.988 136.317 154.777 136.255 154.539C136.193 154.3 136.211 154.048 136.307 153.821C136.566 153.404 136.932 153.063 137.367 152.835C137.802 152.607 138.29 152.499 138.78 152.524C139.779 152.413 140.783 152.677 141.598 153.264C141.774 153.411 141.904 153.606 141.972 153.824C142.04 154.043 142.044 154.277 141.983 154.498C141.923 154.72 141.799 154.918 141.629 155.072C141.458 155.225 141.247 155.325 141.02 155.362Z" fill="#263238"/>
<path d="M121.205 162.355C121.894 162.142 122.57 161.892 123.232 161.605C123.982 161.44 124.658 161.034 125.158 160.45C125.276 160.234 125.32 159.985 125.284 159.742C125.247 159.498 125.132 159.273 124.955 159.102C124.553 158.819 124.083 158.648 123.593 158.607C123.103 158.566 122.611 158.657 122.168 158.869C121.206 159.158 120.387 159.794 119.867 160.653C119.76 160.855 119.715 161.084 119.735 161.312C119.756 161.541 119.842 161.758 119.984 161.938C120.125 162.118 120.316 162.253 120.533 162.327C120.749 162.401 120.983 162.411 121.205 162.355Z" fill="#263238"/>
<path d="M127.285 167.656C127.285 167.575 127.153 167.798 127.184 167.879C127.832 169.906 128.197 172.339 126.576 173.545C126.525 173.545 126.576 173.676 126.626 173.656C128.775 172.693 128.207 169.45 127.285 167.656Z" fill="#263238"/>
<path d="M124.833 166.035C121.468 166.724 123.09 173.393 126.212 172.754C129.333 172.116 127.651 165.457 124.833 166.035Z" fill="#263238"/>
<path d="M123.61 166.703C123.123 167.23 122.708 168.031 122.028 168.274C121.349 168.518 120.447 168.001 119.758 167.453C119.687 167.403 119.637 167.453 119.657 167.565C119.951 168.842 120.762 170.038 122.181 169.896C123.599 169.754 124.096 168.416 124.096 167.048C124.106 166.795 123.812 166.501 123.61 166.703Z" fill="#263238"/>
<path d="M139.133 163.997C139.133 163.916 139.325 164.058 139.336 164.139C139.761 166.227 140.592 168.548 142.629 168.791C142.69 168.791 142.711 168.902 142.629 168.912C140.278 169.125 139.204 166.034 139.133 163.997Z" fill="#263238"/>
<path d="M140.462 161.403C143.726 160.389 145.53 166.977 142.489 167.94C139.449 168.903 137.736 162.264 140.462 161.403Z" fill="#263238"/>
<path d="M141.983 161.453C142.602 161.656 143.291 162.153 143.929 162.021C144.568 161.889 145.004 161.007 145.277 160.186C145.277 160.105 145.379 160.186 145.399 160.186C145.784 161.443 145.733 162.872 144.578 163.45C143.422 164.028 142.419 163.115 141.77 161.94C141.649 161.778 141.73 161.342 141.983 161.453Z" fill="#263238"/>
<path d="M131.968 184.318C132.556 184.714 133.184 185.332 133.995 185.2C134.77 185.032 135.502 184.704 136.144 184.237C136.156 184.223 136.173 184.213 136.192 184.211C136.211 184.209 136.23 184.215 136.245 184.227C136.26 184.239 136.269 184.257 136.271 184.276C136.273 184.295 136.267 184.314 136.255 184.329C136.036 184.797 135.694 185.198 135.266 185.489C134.838 185.779 134.339 185.949 133.823 185.981C133.37 185.958 132.935 185.8 132.574 185.527C132.212 185.254 131.941 184.879 131.796 184.45C131.725 184.339 131.877 184.268 131.968 184.318Z" fill="#263238"/>
<path d="M138.77 174.021C138.77 174.021 139.976 176.991 140.351 178.44C140.351 178.582 135.364 181.015 132.141 178.035C132.108 178.012 132.085 177.977 132.077 177.937C132.069 177.897 132.078 177.856 132.101 177.822C132.124 177.788 132.159 177.765 132.199 177.758C132.239 177.75 132.28 177.759 132.314 177.781C134.487 178.573 136.859 178.641 139.074 177.974C139.074 177.548 136.824 172.957 137.047 172.906C138.199 172.717 139.372 172.683 140.533 172.805C138.182 166.552 134.858 160.724 132.618 154.45C132.598 154.404 132.596 154.352 132.613 154.304C132.629 154.256 132.663 154.217 132.707 154.193C132.752 154.168 132.803 154.162 132.852 154.174C132.901 154.186 132.944 154.216 132.972 154.258C136.895 160.126 139.753 167.271 142.337 173.667C142.682 174.447 139.449 174.123 138.77 174.021Z" fill="#263238"/>
<path d="M139.062 178.673C138.524 180.018 137.652 181.204 136.528 182.119C135.898 182.592 135.137 182.861 134.349 182.889C132.616 182.889 132.16 181.46 132.099 180.112C132.075 179.398 132.133 178.684 132.271 177.983C134.403 178.934 136.783 179.175 139.062 178.673Z" fill="#263238"/>
<path d="M136.531 182.119C135.9 182.592 135.14 182.861 134.352 182.889C132.618 182.889 132.162 181.46 132.102 180.112C133.875 179.798 135.902 180.487 136.531 182.119Z" fill="#FF99BA"/>
<path d="M100.207 176.068C106.024 176.443 106.693 163.136 106.693 163.136C106.693 163.136 131.018 157.47 131.889 137.321C131.889 137.321 136.886 149.828 150.133 154.815C150.133 154.815 147.933 132.923 130.278 129.72C130.278 129.72 108.203 123.173 97.1053 141.051C86.0072 158.93 96.3046 175.815 100.207 176.068Z" fill="#263238"/>
<path d="M131.887 135.832C132.367 138.906 132.184 142.047 131.349 145.045C130.562 148.091 129.147 150.939 127.194 153.406C126.715 154.027 126.197 154.616 125.643 155.17L124.833 156.031C124.549 156.295 124.245 156.538 123.941 156.792C123.333 157.278 122.745 157.805 122.116 158.261C121.488 158.717 120.799 159.092 120.089 159.498C119.755 159.69 119.43 159.903 119.076 160.086L118.062 160.572L115.944 161.535C114.484 162.042 113.005 162.467 111.535 162.873C112.903 162.173 114.322 161.616 115.67 160.917L117.647 159.802L118.66 159.244C118.974 159.042 119.268 158.808 119.572 158.586C120.18 158.14 120.789 157.704 121.407 157.278C122.025 156.852 122.522 156.265 123.079 155.808L123.92 155.069L124.67 154.238C125.186 153.706 125.67 153.144 126.12 152.555C127.962 150.205 129.391 147.559 130.346 144.731C130.835 143.311 131.208 141.853 131.461 140.373C131.73 138.874 131.873 137.355 131.887 135.832Z" fill="#263238"/>
<path d="M104.544 175.754C104.544 175.754 96.0098 167.453 92.128 170.686C88.2463 173.919 95.9389 186.831 101.402 187.744C102.094 187.91 102.813 187.935 103.515 187.816C104.217 187.698 104.888 187.439 105.487 187.054C106.086 186.67 106.602 186.168 107.002 185.58C107.403 184.991 107.68 184.327 107.817 183.629L104.544 175.754Z" fill="#EB9481"/>
<path d="M94.4303 174.325C94.4115 174.325 94.3935 174.332 94.3802 174.345C94.3669 174.359 94.3594 174.377 94.3594 174.396C94.3594 174.414 94.3669 174.433 94.3802 174.446C94.3935 174.459 94.4115 174.467 94.4303 174.467C98.2918 175.227 100.805 178.186 102.792 181.369C101.474 180.254 99.8831 179.808 98.3526 181.369C98.2716 181.46 98.3526 181.581 98.4844 181.541C99.0763 181.222 99.7523 181.094 100.42 181.174C101.087 181.253 101.714 181.537 102.214 181.987C103.046 182.742 103.794 183.584 104.444 184.5C104.667 184.794 105.214 184.5 105.022 184.166L104.971 184.085C104.18 179.585 99.4067 173.848 94.4303 174.325Z" fill="#263238"/>
<path d="M98.7049 171.528C98.7049 171.528 93.1711 156.781 95.0867 147.153C97.2151 136.43 110.502 124.196 125.695 128.778C125.695 128.778 107.624 131.484 101.239 146.007C98.2995 152.697 103.854 170.403 103.854 170.403L98.7049 171.528Z" fill="#C7C7C7"/>
<path d="M107.239 192.545C113.946 190.456 117.452 182.563 115.07 174.915C112.688 167.267 105.32 162.761 98.613 164.85C91.9059 166.939 88.3997 174.832 90.7817 182.48C93.1637 190.128 100.532 194.634 107.239 192.545Z" fill="#C7C7C7"/>
<path d="M111.417 175.531C113.555 182.402 110.403 189.497 104.322 191.372C98.2411 193.247 91.6735 189.203 89.5248 182.331C87.3762 175.46 90.5384 168.365 96.6195 166.48C102.701 164.595 109.278 168.7 111.417 175.531Z" fill="#455A64"/>
<path d="M122.625 210.325L117.051 224.393L99.5171 206.707L94.6016 212.423C94.6016 212.423 111.831 240.579 111.892 239.302L117.629 227.14L126.021 235.521L125.26 214.42L122.625 210.325Z" fill="#EBEBEB"/>
<path d="M126.275 225.082C126.022 221.606 125.88 218.079 125.474 214.612C125.474 214.491 125.261 214.44 125.231 214.612C124.552 217.977 125.555 231.305 125.555 234.498C125.211 234.133 117.782 227.119 117.711 227.231C116.464 229.156 112.258 237.994 111.974 238.795C109.248 234.325 97.714 216.7 94.5012 212.443C94.482 212.424 94.4569 212.412 94.4299 212.408C94.4028 212.405 94.3754 212.411 94.352 212.425C94.3286 212.439 94.3106 212.46 94.3009 212.486C94.2912 212.511 94.2904 212.539 94.2985 212.565C96.7005 217.288 111.599 240.548 111.812 240.488C114.029 236.319 116.031 232.039 117.812 227.667C119.069 229.197 126.569 237.113 126.589 236.596C126.683 232.755 126.578 228.912 126.275 225.082Z" fill="#263238"/>
<path d="M224.061 116.596C223.453 122.426 221.236 127.972 217.659 132.616C214.082 137.26 209.285 140.818 203.803 142.894C198.321 144.971 192.37 145.482 186.614 144.373C180.858 143.264 175.524 140.577 171.206 136.613L155.375 138.934L163.301 125.251C161.507 120.801 160.749 116 161.085 111.214C161.42 106.427 162.84 101.779 165.238 97.6226C167.635 93.4659 170.947 89.9091 174.922 87.2215C178.897 84.5338 183.431 82.7857 188.182 82.1096C192.932 81.4334 197.774 81.8469 202.342 83.3187C206.909 84.7905 211.081 87.2821 214.543 90.6048C218.005 93.9276 220.665 97.9943 222.323 102.497C223.981 107 224.593 111.821 224.112 116.596H224.061Z" fill="white"/>
<path d="M224.06 116.595C223.447 122.428 221.238 127.98 217.675 132.639C215.924 134.966 213.833 137.016 211.472 138.72C209.14 140.487 206.571 141.917 203.84 142.967C201.107 144.036 198.238 144.718 195.316 144.994C193.857 145.127 192.391 145.154 190.928 145.075C189.458 145.04 187.994 144.887 186.549 144.619C180.712 143.568 175.282 140.911 170.87 136.946L171.245 137.058L155.434 139.49L154.289 139.663L154.867 138.649L162.762 124.936V125.483C160.906 120.948 160.117 116.047 160.456 111.158C160.795 106.269 162.253 101.523 164.718 97.2874C167.179 93.0676 170.565 89.4603 174.62 86.7367C178.672 84.0533 183.279 82.322 188.096 81.6726C192.912 81.0231 197.813 81.4724 202.431 82.9867C206.993 84.5454 211.148 87.1044 214.593 90.4766C218.043 93.8312 220.687 97.9244 222.327 102.448C223.967 106.972 224.559 111.809 224.06 116.595ZM224.06 116.595C224.565 111.83 223.97 107.013 222.32 102.515C220.67 98.0168 218.01 93.9573 214.543 90.6496C211.077 87.3419 206.898 84.8742 202.327 83.4367C197.756 81.9992 192.917 81.6302 188.181 82.3583C183.489 83.0631 179.021 84.8311 175.117 87.5272C171.251 90.2393 168.021 93.7599 165.651 97.8449C163.319 101.945 161.946 106.52 161.637 111.226C161.328 115.933 162.091 120.648 163.867 125.017L163.978 125.301L163.826 125.554L155.86 139.217L155.292 138.375L171.134 136.156H171.357L171.509 136.308C175.754 140.27 181.018 142.972 186.712 144.112C188.125 144.396 189.558 144.569 190.999 144.629C192.439 144.73 193.886 144.73 195.326 144.629C198.216 144.403 201.061 143.779 203.779 142.774C206.513 141.789 209.086 140.402 211.411 138.659C213.788 136.967 215.887 134.915 217.634 132.578C221.208 127.944 223.431 122.413 224.06 116.595Z" fill="#263238"/>
<path d="M206.405 118.096C208.521 118.096 210.236 116.381 210.236 114.265C210.236 112.149 208.521 110.434 206.405 110.434C204.289 110.434 202.574 112.149 202.574 114.265C202.574 116.381 204.289 118.096 206.405 118.096Z" fill="#263238"/>
<path d="M192.671 118.096C194.787 118.096 196.502 116.381 196.502 114.265C196.502 112.149 194.787 110.434 192.671 110.434C190.555 110.434 188.84 112.149 188.84 114.265C188.84 116.381 190.555 118.096 192.671 118.096Z" fill="#263238"/>
<path d="M178.948 118.096C181.064 118.096 182.779 116.381 182.779 114.265C182.779 112.149 181.064 110.434 178.948 110.434C176.832 110.434 175.117 112.149 175.117 114.265C175.117 116.381 176.832 118.096 178.948 118.096Z" fill="#263238"/>
<path d="M538.776 116.596C538.168 122.426 535.951 127.972 532.374 132.616C528.797 137.26 524 140.819 518.518 142.895C513.036 144.971 507.085 145.483 501.329 144.373C495.573 143.264 490.239 140.577 485.921 136.613L470.09 138.934L478.005 125.251C476.204 120.798 475.44 115.994 475.771 111.202C476.102 106.41 477.52 101.756 479.917 97.5937C482.315 93.4311 485.628 89.869 489.606 87.1772C493.585 84.4855 498.124 82.7348 502.879 82.0579C507.635 81.381 512.482 81.7958 517.053 83.2706C521.625 84.7454 525.8 87.2417 529.264 90.5701C532.727 93.8985 535.387 97.9718 537.042 102.481C538.697 106.99 539.304 111.817 538.817 116.596H538.776Z" fill="white"/>
<path d="M538.778 116.595C538.16 122.428 535.952 127.978 532.393 132.639C531.502 133.793 530.545 134.893 529.524 135.933C528.469 136.944 527.352 137.888 526.18 138.761C523.851 140.532 521.281 141.962 518.548 143.008C515.818 144.077 512.953 144.759 510.034 145.035C508.572 145.168 507.102 145.195 505.636 145.116C504.166 145.08 502.702 144.928 501.257 144.66C495.425 143.589 490.006 140.914 485.608 136.937L485.983 137.048L470.173 139.481L469.027 139.653L469.605 138.639L477.48 124.926V125.474C475.624 120.939 474.835 116.038 475.172 111.149C475.51 106.261 476.965 101.515 479.426 97.2776C481.891 93.0574 485.28 89.4502 489.338 86.7269C493.39 84.0436 497.997 82.3123 502.814 81.6628C507.63 81.0134 512.531 81.4626 517.149 82.9769C521.712 84.5343 525.867 87.0936 529.311 90.4668C532.764 93.8212 535.411 97.9159 537.05 102.442C538.69 106.968 539.281 111.808 538.778 116.595ZM538.778 116.595C539.283 111.831 538.688 107.014 537.038 102.515C535.388 98.0171 532.728 93.9577 529.261 90.65C525.795 87.3423 521.616 84.8746 517.045 83.437C512.474 81.9995 507.635 81.6306 502.899 82.3587C498.207 83.0634 493.739 84.8314 489.835 87.5276C485.969 90.2397 482.739 93.7603 480.369 97.8452C478.02 101.943 476.634 106.521 476.315 111.234C476.017 115.936 476.775 120.646 478.534 125.018L478.656 125.301L478.504 125.555L470.538 139.217L469.97 138.376L485.811 136.156H486.034L486.186 136.308C490.417 140.262 495.663 142.964 501.338 144.112C502.752 144.396 504.185 144.569 505.625 144.629C507.066 144.731 508.512 144.731 509.953 144.629C512.843 144.404 515.687 143.78 518.406 142.774C521.139 141.788 523.711 140.401 526.038 138.66C528.409 136.964 530.504 134.913 532.251 132.579C535.864 127.958 538.124 122.425 538.778 116.595Z" fill="#263238"/>
<path d="M521.069 118.096C523.185 118.096 524.9 116.381 524.9 114.265C524.9 112.149 523.185 110.434 521.069 110.434C518.954 110.434 517.238 112.149 517.238 114.265C517.238 116.381 518.954 118.096 521.069 118.096Z" fill="#263238"/>
<path d="M507.347 118.096C509.463 118.096 511.178 116.381 511.178 114.265C511.178 112.149 509.463 110.434 507.347 110.434C505.231 110.434 503.516 112.149 503.516 114.265C503.516 116.381 505.231 118.096 507.347 118.096Z" fill="#263238"/>
<path d="M497.455 114.264C497.457 115.022 497.234 115.764 496.814 116.396C496.395 117.027 495.797 117.52 495.097 117.811C494.397 118.103 493.627 118.18 492.883 118.033C492.139 117.887 491.455 117.522 490.919 116.987C490.382 116.452 490.016 115.769 489.867 115.026C489.719 114.282 489.794 113.511 490.084 112.811C490.373 112.11 490.864 111.511 491.495 111.09C492.125 110.668 492.866 110.443 493.624 110.443C494.638 110.443 495.611 110.846 496.329 111.562C497.048 112.278 497.452 113.25 497.455 114.264Z" fill="#263238"/>
<path d="M171.679 340.907H164.898V345.336H171.679V340.907Z" fill="#455A64"/>
<path d="M180.476 340.613H173.695V345.042H180.476V340.613Z" fill="#455A64"/>
<path d="M189.273 340.319H182.492V344.748H189.273V340.319Z" fill="#455A64"/>
<path d="M198.062 340.025H191.281V344.454H198.062V340.025Z" fill="#455A64"/>
<path d="M206.859 339.731H200.078V344.161H206.859V339.731Z" fill="#455A64"/>
<path d="M215.655 339.447H208.875V343.876H215.655V339.447Z" fill="#455A64"/>
<path d="M224.441 339.153H217.66V343.582H224.441V339.153Z" fill="#455A64"/>
<path d="M233.241 338.859H226.461V343.288H233.241V338.859Z" fill="#455A64"/>
<path d="M242.027 338.565H235.246V342.995H242.027V338.565Z" fill="#455A64"/>
<path d="M243.687 347.88H163.234V342.488L243.687 340.248V347.88Z" fill="#37474F"/>
<path d="M322.218 326.637H189.406L210.528 227.758H343.339L322.218 326.637Z" fill="#455A64"/>
<path d="M327.13 326.637H194.309L215.43 227.758H348.252L327.13 326.637Z" fill="#37474F"/>
<path d="M282.759 271.47C282.352 273.721 281.185 275.764 279.453 277.259C277.721 278.753 275.529 279.607 273.242 279.68C272.211 279.712 271.185 279.51 270.243 279.089C269.301 278.667 268.466 278.038 267.802 277.248C267.137 276.458 266.661 275.528 266.408 274.527C266.155 273.526 266.132 272.481 266.34 271.47C266.743 269.218 267.908 267.173 269.638 265.677C271.369 264.181 273.561 263.324 275.847 263.251C276.881 263.217 277.909 263.418 278.853 263.839C279.798 264.26 280.634 264.89 281.3 265.682C281.965 266.473 282.443 267.405 282.695 268.408C282.948 269.411 282.97 270.458 282.759 271.47Z" fill="#263238"/>
<path d="M289.571 352.461H224.25V347.383L289.571 345.275V352.461Z" fill="#455A64"/>
<path d="M307.329 352.451H272.251L251.129 297.042H286.207L307.329 352.451Z" fill="#455A64"/>
<path d="M313.096 352.451H278.028L256.906 297.042H291.974L313.096 352.451Z" fill="#263238"/>
<path d="M160.732 353.809H93.4146C87.6679 353.809 95.9788 337.44 116.959 331.167C137.938 324.893 167.371 347.667 160.732 353.809Z" fill="#37474F"/>
<path d="M134.383 353.809C134.428 351.944 134.735 350.095 135.295 348.316C135.835 346.517 136.594 344.791 137.555 343.177C138.518 341.554 139.725 340.087 141.133 338.829C142.529 337.581 144.135 336.59 145.876 335.9C145.157 336.488 144.336 336.914 143.677 337.552L142.663 338.434L141.711 339.448C140.466 340.751 139.374 342.193 138.457 343.745C137.525 345.297 136.725 346.924 136.065 348.61C135.389 350.304 134.827 352.041 134.383 353.809Z" fill="#263238"/>
<path d="M142.309 338.231C146.314 339.499 150.104 341.369 153.549 343.775C155.291 344.98 156.869 346.408 158.241 348.022C159.68 349.628 160.556 351.66 160.734 353.809C160.176 351.827 159.107 350.027 157.633 348.59C156.197 347.127 154.626 345.804 152.94 344.637C151.268 343.431 149.515 342.346 147.731 341.282C145.947 340.218 144.153 339.215 142.309 338.231Z" fill="#263238"/>
<path d="M482.687 340.907H475.906V345.336H482.687V340.907Z" fill="#455A64"/>
<path d="M491.484 340.613H484.703V345.042H491.484V340.613Z" fill="#455A64"/>
<path d="M500.28 340.319H493.5V344.748H500.28V340.319Z" fill="#455A64"/>
<path d="M509.07 340.025H502.289V344.454H509.07V340.025Z" fill="#455A64"/>
<path d="M517.866 339.731H511.086V344.161H517.866V339.731Z" fill="#455A64"/>
<path d="M526.663 339.447H519.883V343.876H526.663V339.447Z" fill="#455A64"/>
<path d="M535.452 339.153H528.672V343.582H535.452V339.153Z" fill="#455A64"/>
<path d="M544.249 338.859H537.469V343.288H544.249V338.859Z" fill="#455A64"/>
<path d="M553.046 338.565H546.266V342.995H553.046V338.565Z" fill="#455A64"/>
<path d="M554.707 347.88H474.254V342.488L554.707 340.248V347.88Z" fill="#37474F"/>
<path d="M633.226 326.637H500.414L521.536 227.758H654.347L633.226 326.637Z" fill="#455A64"/>
<path d="M638.14 326.637H505.328L526.45 227.758H659.261L638.14 326.637Z" fill="#37474F"/>
<path d="M593.767 271.47C593.361 273.72 592.195 275.762 590.465 277.255C588.735 278.749 586.545 279.605 584.261 279.68C583.228 279.714 582.201 279.513 581.258 279.092C580.314 278.672 579.478 278.042 578.813 277.252C578.147 276.462 577.67 275.531 577.416 274.53C577.162 273.528 577.139 272.482 577.348 271.47C577.753 269.219 578.918 267.175 580.648 265.679C582.378 264.183 584.569 263.326 586.855 263.251C587.889 263.217 588.916 263.418 589.861 263.839C590.806 264.26 591.642 264.89 592.308 265.682C592.973 266.473 593.451 267.405 593.703 268.408C593.956 269.411 593.978 270.458 593.767 271.47Z" fill="#263238"/>
<path d="M600.579 352.461H535.258V347.383L600.579 345.275V352.461Z" fill="#455A64"/>
<path d="M618.336 352.451H583.258L562.137 297.042H597.215L618.336 352.451Z" fill="#455A64"/>
<path d="M624.114 352.451H589.036L567.914 297.042H602.992L624.114 352.451Z" fill="#263238"/>
<path d="M471.771 353.809H404.422C398.676 353.809 406.987 337.44 427.966 331.167C448.946 324.893 478.379 347.667 471.771 353.809Z" fill="#37474F"/>
<path d="M445.34 353.809C445.39 351.945 445.697 350.096 446.252 348.316C446.797 346.519 447.556 344.794 448.512 343.177C449.482 341.558 450.688 340.093 452.09 338.829C453.486 337.581 455.092 336.59 456.833 335.9C456.114 336.488 455.293 336.914 454.634 337.552L453.62 338.434L452.668 339.448C451.416 340.748 450.321 342.191 449.404 343.745C448.472 345.297 447.672 346.924 447.012 348.61C446.34 350.304 445.781 352.041 445.34 353.809Z" fill="#263238"/>
<path d="M453.316 338.231C457.322 339.499 461.112 341.369 464.556 343.775C466.3 344.982 467.881 346.41 469.259 348.022C470.694 349.617 471.575 351.632 471.773 353.769C471.211 351.786 470.138 349.986 468.661 348.549C467.225 347.087 465.654 345.763 463.968 344.596C462.306 343.39 460.543 342.306 458.759 341.242C456.975 340.177 455.171 339.215 453.316 338.231Z" fill="#263238"/>
</svg>
