<svg width="26" height="10" viewBox="0 0 26 10" fill="none" xmlns="http://www.w3.org/2000/svg">
<path d="M25.1451 4.75167C25.3218 4.92839 25.4102 5.13765 25.4102 5.37946C25.4102 5.62128 25.3218 5.83054 25.1451 6.00725L21.5737 9.57868C21.3969 9.75539 21.1877 9.84375 20.9459 9.84375C20.7041 9.84375 20.4948 9.75539 20.3181 9.57868C20.1414 9.40197 20.053 9.19271 20.053 8.95089V7.16518H5.7673V8.95089C5.7673 9.19271 5.67894 9.40197 5.50223 9.57868C5.32552 9.75539 5.11626 9.84375 4.87444 9.84375C4.63263 9.84375 4.42336 9.75539 4.24665 9.57868L0.675223 6.00725C0.498512 5.83054 0.410156 5.62128 0.410156 5.37946C0.410156 5.13765 0.498512 4.92839 0.675223 4.75167L4.24665 1.18025C4.42336 1.00353 4.63263 0.915178 4.87444 0.915178C5.11626 0.915178 5.32552 1.00353 5.50223 1.18025C5.67894 1.35696 5.7673 1.56622 5.7673 1.80803V3.59375H20.053V1.80803C20.053 1.56622 20.1414 1.35696 20.3181 1.18025C20.4948 1.00353 20.7041 0.915178 20.9459 0.915178C21.1877 0.915178 21.3969 1.00353 21.5737 1.18025L25.1451 4.75167Z" fill="#5F2DED"/>
</svg>
