<svg width="26" height="10" viewBox="0 0 26 10" fill="none" xmlns="http://www.w3.org/2000/svg">
<path d="M24.8248 4.75167C25.0015 4.92839 25.0898 5.13765 25.0898 5.37946C25.0898 5.62128 25.0015 5.83054 24.8248 6.00725L21.2533 9.57868C21.0766 9.75539 20.8674 9.84375 20.6256 9.84375C20.3837 9.84375 20.1745 9.75539 19.9978 9.57868C19.8211 9.40197 19.7327 9.19271 19.7327 8.95089V7.16518H5.44699V8.95089C5.44699 9.19271 5.35863 9.40197 5.18192 9.57868C5.00521 9.75539 4.79594 9.84375 4.55413 9.84375C4.31231 9.84375 4.10305 9.75539 3.92634 9.57868L0.354911 6.00725C0.178199 5.83054 0.0898438 5.62128 0.0898438 5.37946C0.0898438 5.13765 0.178199 4.92839 0.354911 4.75167L3.92634 1.18025C4.10305 1.00353 4.31231 0.915178 4.55413 0.915178C4.79594 0.915178 5.00521 1.00353 5.18192 1.18025C5.35863 1.35696 5.44699 1.56622 5.44699 1.80803V3.59375H19.7327V1.80803C19.7327 1.56622 19.8211 1.35696 19.9978 1.18025C20.1745 1.00353 20.3837 0.915178 20.6256 0.915178C20.8674 0.915178 21.0766 1.00353 21.2533 1.18025L24.8248 4.75167Z" fill="white"/>
</svg>
