<svg width="25" height="23" viewBox="0 0 25 23" fill="none" xmlns="http://www.w3.org/2000/svg">
<path d="M18.3948 19.9775C18.3948 19.9775 18.439 19.9334 18.5273 19.845C18.6157 19.7566 18.6599 19.5916 18.6599 19.3497C18.6599 19.1079 18.5715 18.8987 18.3948 18.722C18.2181 18.5452 18.0088 18.4569 17.767 18.4569C17.5252 18.4569 17.3159 18.5452 17.1392 18.722C16.9625 18.8987 16.8742 19.1079 16.8742 19.3497C16.8742 19.5916 16.9625 19.8008 17.1392 19.9775C17.3159 20.1543 17.5252 20.2426 17.767 20.2426C18.0088 20.2426 18.2181 20.1543 18.3948 19.9775ZM21.9662 19.9775C21.9662 19.9775 22.0104 19.9334 22.0988 19.845C22.1871 19.7566 22.2313 19.5916 22.2313 19.3497C22.2313 19.1079 22.143 18.8987 21.9662 18.722C21.7895 18.5452 21.5803 18.4569 21.3384 18.4569C21.0966 18.4569 20.8874 18.5452 20.7107 18.722C20.5339 18.8987 20.4456 19.1079 20.4456 19.3497C20.4456 19.5916 20.5339 19.8008 20.7107 19.9775C20.8874 20.1543 21.0966 20.2426 21.3384 20.2426C21.5803 20.2426 21.7895 20.1543 21.9662 19.9775ZM24.017 16.2247V20.689C24.017 21.0611 23.8868 21.3773 23.6264 21.6377C23.366 21.8981 23.0498 22.0283 22.6777 22.0283H2.14202C1.77 22.0283 1.45378 21.8981 1.19336 21.6377C0.932943 21.3773 0.802734 21.0611 0.802734 20.689V16.2247C0.802734 15.8527 0.932943 15.5365 1.19336 15.2761C1.45378 15.0157 1.77 14.8855 2.14202 14.8855H8.62919L10.5126 16.7828C11.052 17.3036 11.6844 17.564 12.4099 17.564C13.1353 17.564 13.7678 17.3036 14.3072 16.7828L16.2045 14.8855H22.6777C23.0498 14.8855 23.366 15.0157 23.6264 15.2761C23.8868 15.5365 24.017 15.8527 24.017 16.2247ZM19.483 8.28669C19.6411 8.66802 19.576 8.99354 19.2877 9.26325L13.0377 15.5133C12.8703 15.69 12.661 15.7783 12.4099 15.7783C12.1588 15.7783 11.9495 15.69 11.7821 15.5133L5.53209 9.26325C5.24377 8.99354 5.17866 8.66802 5.33677 8.28669C5.49488 7.92397 5.76925 7.74261 6.15988 7.74261H9.73131V1.49261C9.73131 1.25079 9.81966 1.04153 9.99637 0.864817C10.1731 0.688105 10.3823 0.599749 10.6242 0.599749H14.1956C14.4374 0.599749 14.6467 0.688105 14.8234 0.864817C15.0001 1.04153 15.0884 1.25079 15.0884 1.49261V7.74261H18.6599C19.0505 7.74261 19.3249 7.92397 19.483 8.28669Z" fill="white"/>
</svg>
