<svg width="63" height="63" viewBox="0 0 63 63" fill="none" xmlns="http://www.w3.org/2000/svg">
<path d="M42.8008 12.125C42.8008 18.6641 37.5938 23.75 31.1758 23.75C24.6367 23.75 19.5508 18.6641 19.5508 12.125C19.5508 5.70703 24.6367 0.5 31.1758 0.5C37.5938 0.5 42.8008 5.70703 42.8008 12.125ZM28.3906 29.8047C28.875 30.0469 29.2383 30.5312 29.2383 31.1367V60.9258C29.2383 62.1367 27.7852 62.9844 26.6953 62.3789C19.3086 58.625 8.65234 57.6562 3.32422 57.293C1.50781 57.293 0.175781 55.8398 0.175781 54.0234V27.1406C0.175781 25.2031 1.75 23.75 3.6875 23.8711C9.62109 24.1133 21.2461 25.3242 28.3906 29.8047ZM58.543 23.8711C60.4805 23.75 62.1758 25.2031 62.1758 27.1406V54.0234C62.1758 55.8398 60.7227 57.293 58.9062 57.4141C53.5781 57.6562 42.9219 58.625 35.5352 62.3789C34.4453 62.9844 33.1133 62.1367 33.1133 60.9258V31.1367C33.1133 30.6523 33.3555 30.0469 33.8398 29.8047C40.9844 25.3242 52.6094 24.1133 58.543 23.8711Z" fill="#341199"/>
</svg>
