<svg width="63" height="68" viewBox="0 0 63 68" fill="none" xmlns="http://www.w3.org/2000/svg">
<path d="M30.4023 44.6094C30.0391 46.1836 29.0703 47.0312 27.6172 47.6367C26.5273 48 21.5625 47.7578 20.2305 47.7578C18.0508 47.5156 16.1133 46.668 14.9023 44.8516C13.207 42.0664 12.6016 39.0391 13.207 35.8906C13.6914 32.8633 16.1133 31.6523 18.7773 33.1055C20.5938 33.9531 23.8633 36.375 26.4062 38.7969C28.9492 40.9766 30.6445 43.1562 30.4023 44.6094ZM55.2266 47.1523C55.9531 47.7578 56.5586 49.8164 56.5586 51.0273C56.6797 57.2031 53.6523 59.2617 50.9883 61.4414C43.1172 67.4961 15.2656 63.3789 33.3086 62.168C48.8086 61.0781 53.168 50.543 54.1367 47.3945C54.2578 47.1523 54.5 47.0312 54.7422 47.0312C54.9844 47.0312 55.1055 47.0312 55.2266 47.1523ZM62.7344 32.3789C62.7344 34.4375 62.9766 36.4961 62.6133 38.5547C62.1289 41.582 59.1016 43.6406 56.1953 43.0352C55.2266 42.793 54.9844 42.1875 54.9844 41.3398C54.9844 37.9492 55.1055 34.4375 54.9844 31.0469C54.7422 21.8438 50.625 14.9414 42.6328 10.582C29.1914 3.19531 11.9961 11.4297 8.96875 26.4453C8.24219 30.1992 8.72656 32.3789 8.48438 41.7031C8.48438 42.5508 8 43.0352 7.03125 43.1562C3.39844 43.2773 0.855469 40.8555 0.855469 37.2227V34.6797V31.4102C1.21875 29.5938 2.1875 28.1406 3.88281 27.293C4.36719 27.0508 4.60938 26.9297 4.73047 26.3242C5.45703 22.3281 7.03125 18.5742 9.45312 15.3047C9.69531 14.9414 9.9375 14.5781 9.57422 14.0938C9.08984 13.4883 9.45312 12.8828 9.9375 12.3984C13.3281 8.52344 17.4453 5.73828 22.2891 4.28516C33.9141 0.652344 44.0859 3.07422 52.8047 11.5508C53.6523 12.2773 54.7422 13.125 53.6523 14.457C53.5312 14.6992 53.7734 14.9414 53.8945 15.0625C56.3164 18.4531 58.1328 22.3281 58.8594 26.4453C58.9805 26.9297 59.2227 27.0508 59.5859 27.1719C61.6445 28.2617 62.6133 30.0781 62.7344 32.3789ZM43.3594 48.2422L37.1836 47.2734C34.3984 46.668 31.0078 43.3984 39.8477 40.0078C42.3906 38.918 50.1406 35.4062 50.5039 40.9766C50.5039 44.8516 47.8398 48.6055 43.3594 48.2422Z" fill="#341199"/>
</svg>
