<svg width="79" height="63" viewBox="0 0 79 63" fill="none" xmlns="http://www.w3.org/2000/svg">
<path d="M25.9078 43.125C33.4156 43.125 39.4703 49.3008 39.4703 56.8086C39.3492 59.957 36.8062 62.5 33.6578 62.5H6.53281C3.26328 62.5 0.72031 59.957 0.72031 56.8086C0.599216 49.3008 6.6539 43.125 14.2828 43.125C14.525 43.125 14.7672 43.2461 15.1305 43.3672C16.7047 43.8516 18.2789 44.0938 20.0953 44.0938C21.7906 44.0938 23.3648 43.8516 24.9391 43.3672C25.3023 43.2461 25.5445 43.125 25.9078 43.125ZM20.0953 39.25C13.5562 39.25 8.47031 34.1641 8.47031 27.625C8.47031 21.207 13.5562 16 20.0953 16C26.5133 16 31.7203 21.207 31.7203 27.625C31.7203 34.1641 26.5133 39.25 20.0953 39.25ZM72.4078 0.5C75.5562 0.5 78.2203 3.28516 78.2203 6.55469V44.9414C78.2203 48.2109 75.5562 50.875 72.4078 50.875H42.7398C41.8922 47.8477 40.1969 45.1836 37.8961 43.125H47.2203V35.375H62.7203V43.125H70.4703V8.25H27.8453V14.3047C25.5445 12.9727 22.8805 12.125 20.0953 12.125V6.55469C20.0953 3.28516 22.6383 0.5 25.9078 0.5H72.4078Z" fill="#341199"/>
</svg>
