<svg width="63" height="68" viewBox="0 0 63 68" fill="none" xmlns="http://www.w3.org/2000/svg">
<path d="M23.5 19.1484C27.6172 19.1484 31.0078 22.2969 31.0078 26.1719C31.0078 30.0469 27.6172 33.1953 23.5 33.1953C19.3828 33.1953 16.1133 30.0469 16.1133 26.1719C16.1133 22.2969 19.3828 19.1484 23.5 19.1484ZM40.9375 19.1484C45.0547 19.1484 48.3242 22.2969 48.3242 26.1719C48.3242 30.0469 45.0547 33.1953 40.9375 33.1953C36.8203 33.1953 33.4297 30.0469 33.4297 26.1719C33.4297 22.2969 36.8203 19.1484 40.9375 19.1484ZM59.8281 30.0469C61.6445 28.8359 62.8555 30.5312 61.7656 32.2266C59.5859 35.0117 55.3477 38.2812 48.9297 40.9453C55.7109 64.1953 32.3398 67.8281 32.7031 55.9609C32.7031 55.8398 32.582 49.4219 32.582 44.5781C32.0977 44.5781 31.6133 44.3359 31.0078 44.2148C31.0078 49.0586 30.8867 55.8398 30.8867 55.9609C31.3711 67.8281 7.87891 64.1953 14.6602 40.9453C8.24219 38.2812 4.00391 34.8906 1.82422 32.2266C0.734375 30.5312 1.94531 28.8359 3.76172 30.0469C4.00391 30.2891 4.24609 30.4102 4.48828 30.5312V6.55469C4.48828 3.28516 7.03125 0.5 10.0586 0.5H53.5312C56.6797 0.5 59.1016 3.28516 59.1016 6.55469V30.5312L59.8281 30.0469ZM56.1953 32.3477V9.33984C56.1953 5.34375 54.8633 3.76953 51.2305 3.76953H12.7227C8.96875 3.76953 7.87891 5.10156 7.87891 9.33984V32.5898C15.9922 36.9492 23.0156 36.1016 26.8906 35.9805C28.4648 35.9805 29.5547 36.2227 30.1602 36.9492C30.4023 37.0703 31.3711 38.0391 32.582 39.0078C32.8242 37.0703 33.793 35.8594 36.6992 35.9805C40.5742 36.1016 47.8398 36.9492 56.1953 32.3477Z" fill="#341199"/>
</svg>
