<svg width="63" height="55" viewBox="0 0 63 55" fill="none" xmlns="http://www.w3.org/2000/svg">
<path d="M17.9434 21.7773C20.002 21.7773 21.8184 23.5938 21.8184 25.6523C21.8184 27.832 20.002 29.5273 17.9434 29.5273C15.7637 29.5273 14.0684 27.832 14.0684 25.6523C14.0684 23.5938 15.7637 21.7773 17.9434 21.7773ZM31.5059 21.7773C33.5645 21.7773 35.3809 23.5938 35.3809 25.6523C35.3809 27.832 33.5645 29.5273 31.5059 29.5273C29.3262 29.5273 27.6309 27.832 27.6309 25.6523C27.6309 23.5938 29.3262 21.7773 31.5059 21.7773ZM45.0684 21.7773C47.127 21.7773 48.9434 23.5938 48.9434 25.6523C48.9434 27.832 47.127 29.5273 45.0684 29.5273C42.8887 29.5273 41.1934 27.832 41.1934 25.6523C41.1934 23.5938 42.8887 21.7773 45.0684 21.7773ZM31.5059 0.464844C48.5801 0.464844 62.5059 11.8477 62.5059 25.6523C62.5059 39.5781 48.5801 50.8398 31.5059 50.8398C27.5098 50.8398 23.7559 50.2344 20.2441 49.1445C16.7324 51.6875 10.7988 54.7148 3.41211 54.7148C2.20117 54.7148 1.11133 54.1094 0.626953 53.0195C0.263672 51.9297 0.384766 50.7188 1.23242 49.8711C1.35352 49.8711 5.10742 45.7539 6.80273 41.0312C2.80664 36.793 0.505859 31.4648 0.505859 25.6523C0.505859 11.8477 14.3105 0.464844 31.5059 0.464844ZM31.5059 45.0273C45.3105 45.0273 56.6934 36.4297 56.6934 25.6523C56.6934 14.9961 45.3105 6.27734 31.5059 6.27734C17.5801 6.27734 6.31836 14.9961 6.31836 25.6523C6.31836 30.8594 8.86133 34.7344 11.041 37.0352L13.584 39.6992L12.252 43.0898C11.6465 44.7852 10.7988 46.4805 9.83008 47.9336C12.7363 46.9648 15.1582 45.6328 16.8535 44.4219L19.1543 42.7266L21.9395 43.5742C24.9668 44.543 28.2363 45.0273 31.5059 45.0273Z" fill="#341199"/>
</svg>
