<svg width="64" height="65" viewBox="0 0 64 65" fill="none" xmlns="http://www.w3.org/2000/svg">
<path d="M56.6367 32.5898L62.207 38.0391C63.9023 39.6133 63.0547 42.3984 60.875 43.0039L53.3672 44.9414L55.4258 52.4492C56.0312 54.6289 54.0938 56.5664 51.9141 55.9609L44.4062 53.9023L42.4688 61.4102C41.8633 63.7109 39.0781 64.4375 37.5039 62.7422L32.1758 57.1719L26.7266 62.7422C25.1523 64.3164 22.3672 63.7109 21.7617 61.4102L19.8242 53.9023L12.3164 55.9609C10.1367 56.5664 8.19922 54.6289 8.80469 52.4492L10.8633 44.9414L3.35547 43.0039C1.17578 42.3984 0.328125 39.6133 2.02344 38.0391L7.59375 32.5898L2.02344 27.1406C0.328125 25.5664 1.17578 22.7812 3.35547 22.2969L10.8633 20.3594L8.80469 12.8516C8.19922 10.6719 10.1367 8.61328 12.3164 9.21875L19.8242 11.3984L21.7617 3.76953C22.2461 1.58984 25.1523 0.863281 26.7266 2.55859L32.1758 8.12891L37.5039 2.55859C39.0781 0.863281 41.9844 1.71094 42.4688 3.76953L44.4062 11.3984L51.9141 9.21875C54.0938 8.61328 56.0312 10.6719 55.4258 12.8516L53.3672 20.3594L60.875 22.2969C63.0547 22.7812 63.9023 25.5664 62.207 27.1406L56.6367 32.5898Z" fill="#341199"/>
</svg>
