<svg width="22" height="22" viewBox="0 0 22 22" fill="none" xmlns="http://www.w3.org/2000/svg">
<path d="M17.679 11.7712C17.8463 11.6038 17.93 11.3945 17.93 11.1434C17.93 10.8923 17.8463 10.683 17.679 10.5156L16.41 9.24609C16.2427 9.07868 16.0335 8.99498 15.7825 8.99498C15.5315 8.99498 15.3224 9.07868 15.1551 9.24609L12.5196 11.8828V4.87947C12.5196 4.63765 12.4312 4.42838 12.2546 4.25167C12.078 4.07496 11.8688 3.98661 11.6271 3.98661H9.84224C9.60054 3.98661 9.39137 4.07496 9.21474 4.25167C9.03811 4.42838 8.9498 4.63765 8.9498 4.87947V11.8828L6.31431 9.24609C6.13768 9.06938 5.92851 8.98103 5.68681 8.98103C5.44511 8.98103 5.23594 9.06938 5.05931 9.24609L3.79037 10.5156C3.62304 10.683 3.53938 10.8923 3.53938 11.1434C3.53938 11.3945 3.62304 11.6038 3.79037 11.7712L8.83824 16.8214L10.1072 18.091C10.2745 18.2584 10.4837 18.3421 10.7347 18.3421C10.9857 18.3421 11.1948 18.2584 11.3622 18.091L12.6311 16.8214L17.679 11.7712ZM20.0077 5.7514C20.0077 5.7514 20.2471 6.16178 20.7258 6.98256C21.2046 7.80334 21.444 9.18564 21.444 11.1295C21.444 13.0733 20.9652 14.866 20.0077 16.5075C19.0502 18.1491 17.751 19.4488 16.1102 20.4068C14.4695 21.3648 12.6776 21.8438 10.7347 21.8438C8.79176 21.8438 6.99991 21.3648 5.35912 20.4068C3.71833 19.4488 2.41918 18.1491 1.46166 16.5075C0.504148 14.866 0.0253906 13.0733 0.0253906 11.1295C0.0253906 9.18564 0.504148 7.39295 1.46166 5.7514C2.41918 4.10984 3.71833 2.81008 5.35912 1.85212C6.99991 0.894159 8.79176 0.415178 10.7347 0.415178C12.6776 0.415178 14.4695 0.894159 16.1102 1.85212C17.751 2.81008 19.0502 4.10984 20.0077 5.7514Z" fill="white"/>
</svg>
