<svg width="50" height="51" viewBox="0 0 50 51" fill="none" xmlns="http://www.w3.org/2000/svg">
<path d="M34.45 31.5977C41.3836 31.8906 47.0477 37.6523 47.0477 44.6836V45.5625C47.0477 48.1992 44.8992 50.25 42.3602 50.25H7.98516C5.34844 50.25 3.29766 48.1992 3.29766 45.5625V44.6836C3.29766 37.6523 8.86406 31.8906 15.7977 31.5977L25.1727 40.875L34.45 31.5977ZM4.56719 8.0625C2.80938 7.67188 2.80938 5.42578 4.56719 5.03516L23.2195 0.542969C24.4891 0.25 25.7586 0.25 27.0281 0.542969L45.6805 5.03516C47.4383 5.42578 47.4383 7.67188 45.6805 8.0625L36.3055 10.3086C37.0867 12.0664 37.6727 13.9219 37.6727 15.875C37.6727 22.8086 32.0086 28.375 25.1727 28.375C18.2391 28.375 12.6727 22.8086 12.6727 15.875C12.6727 13.9219 13.1609 12.0664 14.0398 10.3086L7.59453 8.84375V13.9219C8.27813 14.3125 8.76641 15.0938 8.76641 15.875C8.76641 16.7539 8.27813 17.4375 7.59453 17.8281L9.15703 23.8828C9.35234 24.5664 8.96172 25.25 8.37578 25.25H4.37188C3.78594 25.25 3.39531 24.5664 3.59063 23.8828L5.15313 17.8281C4.46953 17.4375 4.07891 16.7539 4.07891 15.875C4.07891 15.0938 4.56719 14.3125 5.25078 13.9219V8.25781L4.56719 8.0625Z" fill="#5F2DED"/>
</svg>
