<svg width="48" height="51" viewBox="0 0 48 51" fill="none" xmlns="http://www.w3.org/2000/svg">
<path d="M45.8563 33.3047C47.0281 33.8906 47.4188 35.3555 46.7352 36.5273L44.782 39.75C44.1961 40.9219 42.7313 41.3125 41.5594 40.6289L28.0828 32.4258L28.3758 48.2461C28.3758 49.5156 27.3016 50.5898 26.032 50.5898H22.2234C20.9539 50.5898 19.8797 49.5156 19.8797 48.2461L20.2703 32.4258L6.69609 40.6289C5.52422 41.3125 4.05938 40.9219 3.47344 39.75L1.52031 36.5273C0.83672 35.3555 1.22734 33.8906 2.39922 33.3047L16.3641 25.5898L2.39922 17.9727C1.22734 17.3867 0.83672 15.9219 1.52031 14.75L3.47344 11.5273C4.05938 10.3555 5.52422 9.96484 6.69609 10.6484L20.2703 18.8516L19.8797 3.03125C19.8797 1.76172 20.9539 0.589844 22.2234 0.589844H26.032C27.3016 0.589844 28.3758 1.76172 28.3758 3.03125L28.0828 18.8516L41.5594 10.6484C42.7313 9.96484 44.1961 10.3555 44.782 11.5273L46.7352 14.75C47.4188 15.9219 47.0281 17.3867 45.8563 17.9727L31.9891 25.5898L45.8563 33.3047Z" fill="#5F2DED"/>
</svg>
