<svg width="51" height="52" viewBox="0 0 51 52" fill="none" xmlns="http://www.w3.org/2000/svg">
<path d="M9.86602 22.9648C8.98711 22.9648 8.30352 22.2812 8.30352 21.4023V12.0273C8.30352 11.2461 8.98711 10.4648 9.86602 10.4648H11.1355C13.577 4.99609 19.0457 1.08984 25.491 1.08984C31.8387 1.08984 37.3074 4.99609 39.7488 10.4648H41.116C41.8973 10.4648 42.6785 11.2461 42.6785 12.0273V21.4023C42.6785 22.2812 41.8973 22.9648 41.116 22.9648H39.7488C37.3074 28.5312 31.8387 32.3398 25.491 32.3398C19.0457 32.3398 13.577 28.5312 11.1355 22.9648H9.86602ZM13.7723 14.3711V16.7148C13.7723 21.8906 17.9715 26.0898 23.1473 26.0898H27.8348C33.0105 26.0898 37.2098 21.8906 37.2098 16.7148V14.3711C37.2098 12.2227 35.0613 10.4648 32.5223 10.4648H18.4598C15.823 10.4648 13.7723 12.2227 13.7723 14.3711ZM20.8035 21.4023L19.6316 17.8867L16.116 16.7148L19.6316 15.543L20.8035 12.0273L21.9754 15.543L25.491 16.7148L21.9754 17.8867L20.8035 21.4023ZM35.5496 32.5352C42.1902 33.2188 47.366 38.6875 47.366 45.5234V46.4023C47.366 49.0391 45.2176 51.0898 42.6785 51.0898H34.866V44.8398C34.866 43.1797 33.4012 41.7148 31.741 41.7148H19.241C17.4832 41.7148 16.116 43.1797 16.116 44.8398V51.0898H8.30352C5.6668 51.0898 3.61602 49.0391 3.61602 46.4023V45.5234C3.61602 38.6875 8.69414 33.2188 15.3348 32.5352C18.2645 34.3906 21.6824 35.4648 25.491 35.4648C29.202 35.4648 32.6199 34.3906 35.5496 32.5352ZM30.1785 44.8398C30.9598 44.8398 31.741 45.6211 31.741 46.4023C31.741 47.2812 30.9598 47.9648 30.1785 47.9648C29.2996 47.9648 28.616 47.2812 28.616 46.4023C28.616 45.6211 29.2996 44.8398 30.1785 44.8398ZM20.8035 44.8398C21.5848 44.8398 22.366 45.6211 22.366 46.4023V51.0898H19.241V46.4023C19.241 45.6211 19.9246 44.8398 20.8035 44.8398Z" fill="#5F2DED"/>
</svg>
