<svg width="51" height="52" viewBox="0 0 51 52" fill="none" xmlns="http://www.w3.org/2000/svg">
<path d="M18.4559 8.12109C18.4559 4.3125 21.5809 1.08984 25.4871 1.08984C29.2957 1.08984 32.5184 4.3125 32.5184 8.12109C32.5184 12.0273 29.2957 15.1523 25.4871 15.1523C21.5809 15.1523 18.4559 12.0273 18.4559 8.12109ZM43.2605 8.31641C44.5301 9.48828 44.5301 11.5391 43.2605 12.7109L34.0809 21.9883V47.9648C34.0809 49.7227 32.616 51.0898 30.9559 51.0898H29.3934C27.6355 51.0898 26.2684 49.7227 26.2684 47.9648V37.0273H24.7059V47.9648C24.7059 49.7227 23.241 51.0898 21.5809 51.0898H20.0184C18.2605 51.0898 16.8934 49.7227 16.8934 47.9648V21.9883L7.61602 12.7109C6.34649 11.5391 6.34649 9.48828 7.61602 8.31641C8.78789 7.04688 10.8387 7.04688 12.0105 8.31641L20.5066 16.7148H30.3699L38.866 8.31641C40.0379 7.04688 42.0887 7.04688 43.2605 8.31641Z" fill="#7ECA9D"/>
</svg>
