<svg width="38" height="51" viewBox="0 0 38 51" fill="none" xmlns="http://www.w3.org/2000/svg">
<path d="M21.952 13.8711C21.952 15.2383 22.9285 16.2148 24.2957 16.2148H37.577V48.2461C37.577 49.6133 36.5027 50.5898 35.2332 50.5898H2.4207C1.05352 50.5898 0.0769539 49.6133 0.0769539 48.2461V2.93359C0.0769539 1.66406 1.05352 0.589844 2.4207 0.589844H21.952V13.8711ZM6.32695 7.62109V9.18359C6.32695 9.67188 6.61992 9.96484 7.1082 9.96484H14.9207C15.3113 9.96484 15.702 9.67188 15.702 9.18359V7.62109C15.702 7.23047 15.3113 6.83984 14.9207 6.83984H7.1082C6.61992 6.83984 6.32695 7.23047 6.32695 7.62109ZM6.32695 13.8711V15.4336C6.32695 15.9219 6.61992 16.2148 7.1082 16.2148H14.9207C15.3113 16.2148 15.702 15.9219 15.702 15.4336V13.8711C15.702 13.4805 15.3113 13.0898 14.9207 13.0898H7.1082C6.61992 13.0898 6.32695 13.4805 6.32695 13.8711ZM25.077 38.0898C24.6863 38.0898 24.2957 37.8945 24.1004 37.5039C22.9285 35.1602 19.6082 34.5742 17.6551 36.1367L16.2879 32.0352C15.9949 31.0586 15.116 30.4727 14.1395 30.4727C13.0652 30.4727 12.1863 31.0586 11.8934 32.0352L10.1355 37.4062C9.94024 37.7969 9.54961 38.0898 9.06133 38.0898H7.88945C7.01055 38.0898 6.32695 38.8711 6.32695 39.6523C6.32695 40.5312 7.01055 41.2148 7.88945 41.2148H9.06133C10.9168 41.2148 12.4793 40.1406 13.0652 38.3828L14.1395 35.2578L15.702 40.2383C15.8973 40.8242 16.4832 41.2148 17.0691 41.2148C17.1668 41.2148 17.1668 41.2148 17.2645 41.2148C17.2645 41.2148 17.1668 41.3125 17.2645 41.3125C17.8504 41.3125 18.3387 40.9219 18.6316 40.4336L19.3152 38.8711C19.6082 38.3828 20.0965 38.2852 20.3895 38.2852C20.5848 38.2852 21.073 38.3828 21.366 38.9688C22.0496 40.3359 23.5145 41.2148 25.077 41.2148H29.7645C30.5457 41.2148 31.327 40.5312 31.327 39.6523C31.327 38.8711 30.5457 38.0898 29.7645 38.0898H25.077ZM36.8934 10.8438C37.284 11.332 37.577 11.918 37.577 12.5039V13.0898H25.077V0.589844H25.6629C26.2488 0.589844 26.8348 0.882812 27.323 1.27344L36.8934 10.8438Z" fill="#5F2DED"/>
</svg>
