<svg width="51" height="51" viewBox="0 0 51 51" fill="none" xmlns="http://www.w3.org/2000/svg">
<path d="M41.327 18.4727C46.6004 20.2305 50.5066 23.1602 50.5066 26.0898C50.5066 29.2148 46.4051 32.2422 40.741 34.0977C40.448 34.1953 40.1551 34.293 39.8621 34.3906C39.9598 34.7812 40.0574 35.2695 40.1551 35.6602C41.2293 41.3242 40.3504 45.9141 37.7137 47.4766C35.1746 48.9414 31.073 47.4766 26.8738 43.8633C26.3855 43.4727 25.9949 43.082 25.5066 42.6914C25.2137 42.9844 24.823 43.2773 24.5301 43.5703C20.2332 47.3789 15.741 48.9414 13.1043 47.3789C10.5652 45.9141 9.78399 41.6172 10.7605 36.2461C10.9559 35.6602 11.0535 35.0742 11.1512 34.4883C10.7605 34.3906 10.2723 34.1953 9.88164 34.0977C4.41289 32.2422 0.506641 29.1172 0.506641 26.0898C0.506641 23.1602 4.21758 20.3281 9.39336 18.4727C9.9793 18.2773 10.5652 18.082 11.2488 17.8867C11.0535 17.3984 10.9559 16.8125 10.8582 16.3242C9.78399 10.7578 10.5652 6.36328 13.1043 4.89844C15.741 3.33594 20.2332 4.99609 24.7254 8.90234C24.9207 9.19531 25.2137 9.39062 25.5066 9.68359C25.8973 9.29297 26.2879 8.90234 26.6785 8.60938C30.9754 4.89844 35.1746 3.33594 37.7137 4.80078C40.3504 6.36328 41.1316 11.0508 39.9598 16.8125C39.8621 17.2031 39.7645 17.5938 39.7645 17.9844C40.2527 18.082 40.741 18.2773 41.327 18.4727ZM28.0457 10.1719C27.6551 10.4648 27.3621 10.8555 26.9715 11.1484C28.4363 12.8086 29.8035 14.5664 31.073 16.4219C33.3191 16.6172 35.4676 16.9102 37.7137 17.3984C37.8113 17.1055 37.8113 16.8125 37.909 16.4219C38.9832 11.4414 38.2996 7.53516 36.6395 6.65625C35.077 5.77734 31.7566 6.94922 28.0457 10.1719ZM16.8152 31.168C16.327 30.2891 15.8387 29.5078 15.3504 28.6289C14.7645 30.0938 14.2762 31.5586 13.7879 32.9258C15.2527 33.3164 16.8152 33.5117 18.3777 33.707C17.7918 32.8281 17.3035 32.0469 16.8152 31.168ZM13.7879 19.4492C14.2762 20.8164 14.7645 22.1836 15.3504 23.6484C15.8387 22.7695 16.327 21.9883 16.8152 21.1094C17.3035 20.3281 17.7918 19.4492 18.2801 18.668C16.7176 18.8633 15.2527 19.0586 13.7879 19.4492ZM16.5223 26.1875C17.2059 27.457 17.8895 28.8242 18.573 30.0938C19.3543 31.3633 20.1355 32.6328 21.0145 33.9023C22.4793 34 23.9441 34.0977 25.5066 34.0977C26.9715 34.0977 28.534 34 29.9988 33.9023C30.7801 32.6328 31.5613 31.3633 32.3426 30.0938C33.1238 28.8242 33.8074 27.457 34.3934 26.0898C33.8074 24.7227 33.0262 23.4531 32.3426 22.1836C31.5613 20.9141 30.7801 19.6445 29.9012 18.375C28.534 18.2773 26.9715 18.1797 25.5066 18.1797C23.9441 18.1797 22.4793 18.2773 21.0145 18.375C20.1355 19.6445 19.3543 20.9141 18.573 22.1836C17.8895 23.4531 17.1082 24.8203 16.5223 26.1875ZM34.1004 31.168C33.6121 31.9492 33.1238 32.8281 32.6355 33.6094C34.198 33.5117 35.6629 33.2188 37.2254 32.8281C36.7371 31.3633 36.1512 29.9961 35.5652 28.5312C35.077 29.4102 34.6863 30.2891 34.1004 31.168ZM35.5652 23.6484C36.1512 22.2812 36.6395 20.9141 37.1277 19.4492C35.7605 19.1562 34.198 18.8633 32.6355 18.668C33.1238 19.4492 33.6121 20.3281 34.1004 21.1094C34.5887 21.9883 35.077 22.7695 35.5652 23.6484ZM25.5066 12.7109C24.5301 13.7852 23.5535 14.957 22.577 16.2266C24.5301 16.1289 26.4832 16.1289 28.3387 16.2266C27.4598 14.957 26.4832 13.7852 25.5066 12.7109ZM14.1785 6.65625C12.616 7.63281 12.0301 11.1484 12.909 15.8359C13.0066 16.4219 13.1043 16.9102 13.2996 17.3984C15.448 16.9102 17.5965 16.6172 19.8426 16.4219C21.1121 14.5664 22.4793 12.8086 24.0418 11.1484C23.7488 10.9531 23.5535 10.7578 23.2605 10.4648C19.452 7.14453 15.8387 5.77734 14.1785 6.65625ZM11.7371 32.4375C12.4207 30.2891 13.202 28.1406 14.1785 26.1875C13.2996 24.1367 12.4207 22.0859 11.8348 19.9375C11.2488 20.1328 10.6629 20.2305 10.077 20.4258C5.68242 21.9883 2.55742 24.332 2.55742 26.0898C2.75274 27.2617 3.43633 28.3359 4.41289 29.0195C6.07305 30.3867 8.51445 31.3633 10.5652 32.0469C10.9559 32.2422 11.3465 32.3398 11.7371 32.4375ZM23.1629 42.0078C23.4559 41.7148 23.7488 41.4219 24.0418 41.1289C22.577 39.4688 21.1121 37.7109 19.8426 35.9531C17.5965 35.7578 15.448 35.4648 13.202 34.9766C13.1043 35.4648 13.0066 36.0508 12.909 36.6367C12.0301 41.2266 12.616 44.6445 14.1785 45.6211C15.3504 46.0117 16.5223 46.0117 17.5965 45.4258C19.6473 44.6445 21.5027 43.4727 23.1629 42.0078ZM25.5066 39.6641C26.5809 38.4922 27.5574 37.3203 28.4363 36.0508C27.4598 36.1484 26.4832 36.1484 25.5066 36.1484C24.5301 36.1484 23.5535 36.1484 22.577 36.0508C23.5535 37.418 24.5301 38.5898 25.5066 39.6641ZM38.2996 42.5938C38.5926 40.4453 38.4949 38.1992 38.1043 36.0508C38.0066 35.6602 37.909 35.2695 37.8113 34.8789C35.5652 35.3672 33.4168 35.7578 31.1707 35.9531C29.9012 37.8086 28.534 39.4688 26.9715 41.1289C27.4598 41.5195 27.8504 41.9102 28.241 42.3008C31.8543 45.3281 35.1746 46.5 36.7371 45.6211C37.616 44.8398 38.202 43.7656 38.2996 42.5938ZM40.0574 32.0469C44.9402 30.4844 48.3582 27.9453 48.3582 26.0898C48.3582 24.332 45.1355 21.9883 40.6434 20.4258C40.1551 20.2305 39.6668 20.1328 39.1785 19.9375C38.4949 22.0859 37.7137 24.1367 36.7371 26.0898C37.7137 28.1406 38.5926 30.1914 39.2762 32.3398C39.5691 32.2422 39.7645 32.1445 40.0574 32.0469ZM25.5066 30.582C22.9676 30.582 21.0145 28.6289 21.0145 26.0898C21.0145 23.6484 22.9676 21.6953 25.5066 21.6953C27.948 21.6953 29.9012 23.6484 29.9012 26.0898C29.9012 28.6289 27.948 30.582 25.5066 30.582Z" fill="#7ECA9D"/>
</svg>
