<svg width="57" height="51" viewBox="0 0 57 51" fill="none" xmlns="http://www.w3.org/2000/svg">
<path d="M56.3172 23.5273C56.3172 25.8711 55.0477 27.9219 53.0945 28.9961V43.8398C53.0945 44.8164 52.4109 46.9648 49.9695 46.9648C49.2859 46.9648 48.6023 46.7695 48.1141 46.2812L39.7156 39.6406C35.6141 36.3203 30.3406 34.4648 25.0672 34.4648H22.2352C22.0398 35.5391 21.8445 36.5156 21.8445 37.5898C21.8445 40.5195 22.8211 43.0586 24.3836 45.207C25.9461 47.2578 24.3836 50.0898 21.8445 50.0898H14.618C13.4461 50.0898 12.3719 49.5039 11.8836 48.4297C10.2234 45.207 9.34453 41.4961 9.34453 37.5898C9.34453 36.6133 9.44219 35.5391 9.53984 34.4648H6.31719C2.80156 34.4648 0.0671883 31.7305 0.0671883 28.2148V18.8398C0.0671883 15.4219 2.80156 12.5898 6.31719 12.5898H25.0672C30.3406 12.5898 35.6141 10.832 39.7156 7.51172L48.1141 0.871094C48.6023 0.382812 49.2859 0.0898438 50.0672 0.0898438C52.5086 0.0898438 53.1922 2.43359 53.1922 3.3125V18.1562C55.0477 19.2305 56.3172 21.2812 56.3172 23.5273ZM46.9422 37.3945V9.75781L43.6219 12.3945C38.3484 16.5938 31.8055 18.8398 25.0672 18.8398V28.2148C31.8055 28.2148 38.3484 30.5586 43.6219 34.7578L46.9422 37.3945Z" fill="#5F2DED"/>
</svg>
