<svg width="65" height="38" viewBox="0 0 65 38" fill="none" xmlns="http://www.w3.org/2000/svg">
<path d="M62.5535 24.9258C64.7996 27.0742 64.3113 32.0547 62.5535 33.5195C59.0379 37.3281 52.7879 35.2773 52.2996 30.1016C52.202 28.9297 52.3973 27.8555 52.8855 26.8789C57.4754 16.7227 34.7215 16.5273 38.5301 26.0977C38.6277 26.0977 38.6277 26.0977 38.6277 26.0977C41.1668 30.2969 37.9441 35.5703 32.866 35.375C27.7879 35.5703 24.4676 30.2969 27.1043 26.0977C31.0105 16.5273 8.25664 16.7227 12.8465 26.8789C14.7996 31.2734 11.4793 35.9609 6.88945 35.4727C0.834766 34.6914 0.73711 27.3672 2.69024 25.4141C4.25274 23.8516 5.81524 22.9727 7.86602 23.168C12.0652 23.0703 12.7488 19.8477 11.577 13.5977C9.33086 7.93359 12.9441 0.707031 20.073 0.804688C27.5926 0.902344 28.1785 8.8125 32.866 8.8125C37.6512 8.8125 38.0418 0.902344 45.659 0.804688C52.6902 0.707031 56.4012 7.93359 54.1551 13.5977C52.9832 19.8477 53.5691 23.0703 57.866 23.168C59.6238 22.9727 61.3816 23.6562 62.5535 24.9258ZM32.866 23.0703C37.1629 23.0703 39.0184 19.3594 39.0184 16.918C39.0184 13.5 36.284 10.7656 32.866 10.7656C29.448 10.7656 26.7137 13.5 26.7137 16.918C26.7137 19.3594 28.5691 23.0703 32.866 23.0703Z" fill="#5F2DED"/>
</svg>
