<svg width="49" height="49" viewBox="0 0 49 49" fill="none" xmlns="http://www.w3.org/2000/svg">
<path d="M24.5035 0.371094C37.7847 0.371094 48.7222 11.3086 48.7222 24.5898C48.7222 37.9688 37.7847 48.8086 24.5035 48.8086C11.1246 48.8086 0.28475 37.9688 0.28475 24.5898C0.28475 11.3086 11.1246 0.371094 24.5035 0.371094ZM24.5035 42.5586C34.3668 42.5586 42.4722 34.5508 42.4722 24.5898C42.4722 14.7266 34.3668 6.62109 24.5035 6.62109C14.5426 6.62109 6.53475 14.7266 6.53475 24.5898C6.53475 34.5508 14.5426 42.5586 24.5035 42.5586ZM24.5035 12.0898C31.3394 12.0898 37.0035 17.7539 37.0035 24.5898C37.0035 31.5234 31.3394 37.0898 24.5035 37.0898C17.5699 37.0898 12.0035 31.5234 12.0035 24.5898C12.0035 17.7539 17.5699 12.0898 24.5035 12.0898ZM24.5035 30.8398C27.9215 30.8398 30.7535 28.1055 30.7535 24.5898C30.7535 21.1719 27.9215 18.3398 24.5035 18.3398C20.9879 18.3398 18.2535 21.1719 18.2535 24.5898C18.2535 28.1055 20.9879 30.8398 24.5035 30.8398Z" fill="#7ECA9D"/>
</svg>
