<svg width="57" height="44" viewBox="0 0 57 44" fill="none" xmlns="http://www.w3.org/2000/svg">
<path d="M41.3621 15.8398C41.3621 24.5312 32.1824 31.4648 21.0496 31.4648C17.0457 31.4648 13.2371 30.5859 10.1121 29.0234C7.96367 30.293 5.03399 31.4648 1.51836 31.4648C1.12774 31.4648 0.932423 31.3672 0.73711 31.0742C0.639454 30.7812 0.73711 30.3906 0.932423 30.1953C0.932423 30.1953 3.08086 27.8516 4.44805 24.8242C2.1043 22.2852 0.73711 19.2578 0.73711 15.8398C0.73711 7.24609 9.81914 0.214844 21.0496 0.214844C32.1824 0.214844 41.3621 7.24609 41.3621 15.8398ZM53.2762 37.3242C54.5457 40.3516 56.6941 42.6953 56.6941 42.6953C56.9871 42.8906 56.9871 43.2812 56.8895 43.5742C56.7918 43.8672 56.4988 43.9648 56.2059 43.9648C52.5926 43.9648 49.6629 42.793 47.5145 41.5234C44.3895 43.0859 40.6785 43.9648 36.6746 43.9648C28.1785 43.9648 20.952 40.0586 17.9246 34.4922C18.9012 34.5898 19.9754 34.5898 21.0496 34.5898C33.9402 34.5898 44.4871 26.1914 44.4871 15.8398C44.4871 15.2539 44.3895 14.5703 44.2918 13.8867C51.7137 16.2305 56.9871 21.8945 56.9871 28.3398C56.9871 31.7578 55.5223 34.7852 53.2762 37.3242Z" fill="#7ECA9D"/>
</svg>
