<svg width="50" height="49" viewBox="0 0 50 49" fill="none" xmlns="http://www.w3.org/2000/svg">
<path d="M24.7457 0.371094C38.6129 0.371094 49.0621 11.2109 49.0621 24.5898C49.0621 39.043 37.441 48.8086 24.7457 48.8086C11.6597 48.8086 0.624594 38.1641 0.624594 24.5898C0.624594 11.6992 10.7808 0.371094 24.7457 0.371094ZM24.8433 4.76562C13.3199 4.76562 4.92147 14.3359 4.92147 24.5898C4.92147 35.332 13.8082 44.4141 24.8433 44.4141C34.9019 44.4141 44.6676 36.5039 44.6676 24.5898C44.6676 13.5547 35.8785 4.76562 24.8433 4.76562ZM35.2926 24.8828L40.9566 24.7852V27.1289H36.0738L34.316 31.3281C33.8277 32.4023 32.2652 32.207 32.1676 31.0352L31.8746 28.8867L31.191 36.9922C31.0933 38.3594 29.0426 38.3594 28.9449 36.9922L28.4566 30.6445L27.9683 36.4062C27.8707 37.7734 25.8199 37.7734 25.7222 36.4062L25.3316 29.375L24.8433 37.1875C24.7457 38.6523 22.6949 38.6523 22.5972 37.1875L22.109 30.0586L21.6207 36.8945C21.523 38.3594 19.4722 38.3594 19.3746 36.9922L18.7887 29.2773L18.4957 33.5742C18.3004 34.9414 16.3472 34.9414 16.1519 33.6719L15.1754 26.4453C14.9801 26.8359 14.5894 27.1289 14.1012 27.1289H9.12069V24.8828H13.4176L14.6871 22.1484C15.1754 21.1719 16.6402 21.3672 16.8355 22.4414L17.0308 23.6133L17.8121 14.9219C17.9097 13.5547 19.9605 13.5547 20.0582 14.9219L20.4488 20.4883L20.9371 12.6758C21.0347 11.2109 23.1832 11.2109 23.1832 12.6758L23.6715 19.1211L24.1597 10.918C24.2574 9.55078 26.3082 9.55078 26.4058 10.918L26.9918 20.1953L27.2847 15.8008C27.4801 14.3359 29.5308 14.3359 29.6285 15.8008L30.1168 22.4414L30.5074 17.4609C30.6051 16.0938 32.6558 16.0938 32.7535 17.4609L33.8277 26.4453L34.2183 25.5664C34.4137 25.1758 34.8043 24.8828 35.2926 24.8828ZM27.6754 25.3711C28.066 25.3711 28.359 25.0781 28.359 24.5898C28.359 24.1992 28.066 23.9062 27.6754 23.9062H25.5269V21.7578C25.5269 21.3672 25.234 21.0742 24.8433 21.0742C24.3551 21.0742 24.0621 21.3672 24.0621 21.7578V23.9062H21.9137C21.523 23.9062 21.2301 24.1992 21.2301 24.5898C21.2301 25.0781 21.523 25.3711 21.9137 25.3711H24.0621V27.5195C24.0621 27.9102 24.3551 28.2031 24.8433 28.2031C25.234 28.2031 25.5269 27.9102 25.5269 27.5195V25.3711H27.6754Z" fill="#7ECA9D"/>
</svg>
