<svg width="51" height="52" viewBox="0 0 51 52" fill="none" xmlns="http://www.w3.org/2000/svg">
<path d="M25.7449 22.9648C27.5027 23.0625 28.8699 24.4297 28.9676 26.0898C28.9676 27.8477 27.5027 29.2148 25.8426 29.2148C24.0848 29.2148 22.7176 27.8477 22.7176 26.0898C22.7176 24.4297 24.0848 23.0625 25.7449 22.9648ZM46.741 13.5898C48.3035 16.5195 48.2059 20.8164 44.2996 26.0898C48.2059 31.4609 48.3035 35.7578 46.741 38.5898C43.909 43.7656 36.7801 42.8867 35.3152 42.6914C33.2645 47.7695 30.0418 51.0898 25.7449 51.0898C21.5457 51.0898 18.323 47.7695 16.2723 42.6914C14.8074 42.8867 7.67852 43.7656 4.84649 38.5898C3.28399 35.7578 3.38164 31.4609 7.28789 26.0898C3.38164 20.8164 3.28399 16.5195 4.84649 13.5898C5.9207 11.7344 8.85039 8.70703 16.2723 9.58594C18.323 4.50781 21.5457 1.08984 25.7449 1.08984C30.0418 1.08984 33.2645 4.50781 35.3152 9.58594C42.7371 8.70703 45.6668 11.7344 46.741 13.5898ZM10.1199 35.4648C10.5105 36.1484 11.9754 36.6367 14.3191 36.5391C14.1238 35.2695 13.8309 34 13.7332 32.6328C12.952 32.0469 12.2684 31.4609 11.5848 30.7773C10.1199 33.1211 9.7293 34.7812 10.1199 35.4648ZM13.7332 19.6445C13.8309 18.2773 14.1238 17.0078 14.3191 15.6406C14.2215 15.6406 13.9285 15.6406 13.8309 15.6406C11.6824 15.6406 10.4129 16.1289 10.1199 16.7148C9.7293 17.4961 10.1199 19.1562 11.5848 21.5C12.2684 20.8164 12.952 20.2305 13.7332 19.6445ZM25.7449 7.33984C24.866 7.33984 23.5965 8.70703 22.5223 11.0508C23.5965 11.3438 24.6707 11.832 25.7449 12.3203C26.9168 11.832 27.991 11.3438 29.0652 11.0508C27.991 8.70703 26.7215 7.33984 25.7449 7.33984ZM25.7449 44.8398C26.7215 44.8398 27.991 43.5703 29.0652 41.2266C27.991 40.8359 26.9168 40.4453 25.7449 39.957C24.6707 40.4453 23.5965 40.8359 22.5223 41.2266C23.5965 43.5703 24.866 44.8398 25.7449 44.8398ZM25.7449 33.9023C30.1395 33.9023 33.5574 30.4844 33.5574 26.0898C33.5574 21.793 30.1395 18.2773 25.7449 18.2773C21.448 18.2773 17.9324 21.793 17.9324 26.0898C17.9324 30.4844 21.448 33.9023 25.7449 33.9023ZM41.4676 35.4648C41.8582 34.7812 41.4676 33.1211 40.0027 30.7773C39.3191 31.4609 38.6355 32.0469 37.8543 32.6328C37.7566 34 37.4637 35.2695 37.2684 36.5391C39.6121 36.6367 41.1746 36.1484 41.4676 35.4648ZM40.0027 21.5C41.4676 19.1562 41.8582 17.4961 41.4676 16.7148C41.1746 16.1289 39.9051 15.6406 37.7566 15.6406C37.659 15.6406 37.366 15.6406 37.2684 15.6406C37.4637 17.0078 37.7566 18.2773 37.8543 19.6445C38.6355 20.2305 39.3191 20.8164 40.0027 21.5Z" fill="#7ECA9D"/>
</svg>
