<svg width="64" height="45" viewBox="0 0 64 45" fill="none" xmlns="http://www.w3.org/2000/svg">
<path d="M61.5906 2.96094C62.6648 3.44922 63.4461 4.62109 63.4461 5.79297V36.8477C63.4461 38.6055 61.8836 39.875 60.2234 39.875C59.9305 39.875 59.5398 39.875 59.2469 39.7773C56.2195 38.8008 53.1922 38.4102 50.1648 38.4102C38.1531 38.4102 26.1414 44.4648 14.1297 44.4648C10.3211 44.4648 6.5125 43.8789 2.70391 42.3164C1.62969 41.8281 0.946095 40.6562 0.946095 39.4844V8.42969C0.946095 6.67188 2.41094 5.30469 4.07109 5.30469C4.36406 5.30469 4.75469 5.40234 5.04766 5.5C8.075 6.47656 11.1023 6.86719 14.1297 6.86719C26.1414 6.86719 38.1531 0.714844 50.1648 0.714844C53.9734 0.714844 57.782 1.39844 61.5906 2.96094ZM32.1961 31.9648C36.493 31.9648 40.0086 27.8633 40.0086 22.5898C40.0086 17.4141 36.493 13.2148 32.1961 13.2148C27.8016 13.2148 24.3836 17.4141 24.3836 22.5898C24.3836 27.8633 27.8016 31.9648 32.1961 31.9648Z" fill="#5F2DED"/>
</svg>
