<svg width="46" height="51" viewBox="0 0 46 51" fill="none" xmlns="http://www.w3.org/2000/svg">
<path d="M32.45 31.4375C39.3836 31.7305 45.0477 37.4922 45.0477 44.5234V45.4023C45.0477 48.0391 42.8992 50.0898 40.3602 50.0898H5.98516C3.34844 50.0898 1.29766 48.0391 1.29766 45.4023V44.5234C1.29766 37.4922 6.86406 31.7305 13.7977 31.4375L23.1727 40.7148L32.45 31.4375ZM2.56719 7.90234C0.809376 7.51172 0.809376 5.26562 2.56719 4.875L21.2195 0.382812C22.4891 0.0898438 23.7586 0.0898438 25.0281 0.382812L43.6805 4.875C45.4383 5.26562 45.4383 7.51172 43.6805 7.90234L34.3055 10.1484C35.0867 11.9062 35.6727 13.7617 35.6727 15.7148C35.6727 22.6484 30.0086 28.2148 23.1727 28.2148C16.2391 28.2148 10.6727 22.6484 10.6727 15.7148C10.6727 13.7617 11.1609 11.9062 12.0398 10.1484L5.59453 8.68359V13.7617C6.27813 14.1523 6.76641 14.9336 6.76641 15.7148C6.76641 16.5938 6.27813 17.2773 5.59453 17.668L7.15703 23.7227C7.35234 24.4062 6.96172 25.0898 6.37578 25.0898H2.37188C1.78594 25.0898 1.39531 24.4062 1.59063 23.7227L3.15313 17.668C2.46953 17.2773 2.07891 16.5938 2.07891 15.7148C2.07891 14.9336 2.56719 14.1523 3.25078 13.7617V8.09766L2.56719 7.90234Z" fill="#7ECA9D"/>
</svg>
