<svg width="56" height="38" viewBox="0 0 56 38" fill="none" xmlns="http://www.w3.org/2000/svg">
<path d="M37.7625 5.1875L39.2273 29.5039H38.1531C34.6375 29.4062 31.2195 30.2852 28.0945 32.2383C25.0672 30.2852 21.6492 29.5039 18.1336 29.5039C13.6414 29.5039 10.1258 30.4805 6.02422 32.1406L9.14922 6.94531C11.8836 5.77344 15.1063 5.1875 18.1336 5.1875C22.1375 5.1875 25.3602 6.45703 28.1922 9.38672C30.8289 6.55469 33.9539 5.28516 37.7625 5.1875ZM55.6336 38C53.0945 38 50.9461 37.5117 48.7 36.5352C45.3797 34.9727 41.8641 34.0938 38.1531 34.0938C34.3445 34.0938 30.8289 35.3633 28.1922 38C25.4578 35.3633 21.9422 34.0938 18.1336 34.0938C14.4227 34.0938 10.907 34.9727 7.58672 36.5352C5.43828 37.5117 3.19219 38 0.848438 38H0.653126L4.85234 3.91797C8.66094 1.76953 13.3484 0.5 17.743 0.5C21.3563 0.5 25.0672 1.28125 28.1922 3.42969C31.2195 1.28125 34.9305 0.5 38.5438 0.5C42.9383 0.5 47.6258 1.76953 51.4344 3.91797L55.6336 38ZM51.3367 33.7031L48.0164 6.35938C44.9891 4.99219 41.4734 4.21094 38.1531 4.21094C34.4422 4.21094 30.9266 5.38281 28.1922 8.01953C25.3602 5.38281 21.8445 4.21094 18.1336 4.21094C14.8133 4.21094 11.2977 4.99219 8.27031 6.35938L4.95 33.7031C9.53984 31.75 13.0555 30.3828 18.1336 30.3828C21.7469 30.3828 25.0672 31.3594 28.1922 33.3125C31.2195 31.3594 34.5398 30.3828 38.1531 30.3828C43.2313 30.3828 46.7469 31.75 51.3367 33.7031Z" fill="#7ECA9D"/>
</svg>
