<svg width="46" height="46" viewBox="0 0 46 46" fill="none" xmlns="http://www.w3.org/2000/svg">
<path d="M22.1911 9.88281L15.6482 30.293V17.5977L10.2771 19.9414L15.6482 1.38672V12.6172L22.1911 9.88281ZM14.0857 0.410156L13.988 0.898438L12.4255 6.07422C8.51925 7.53906 5.78487 11.3477 5.78487 15.8398C5.78487 20.918 9.10519 25.2148 13.8903 26.0938V31.3672C6.27316 30.3906 0.706749 23.75 0.706749 15.8398C0.706749 8.02734 6.46847 1.48438 14.0857 0.410156ZM44.4567 44.0625C43.3825 45.1367 42.2107 45.332 41.7224 45.1367C41.1364 44.9414 39.0857 43.1836 35.7653 40.7422C32.5427 38.3984 32.5427 37.3242 31.5661 35.2734C30.6872 33.2227 28.6364 31.0742 25.9997 30.0977L25.0232 28.7305C22.5817 30.293 19.8474 31.2695 17.113 31.4648L17.3083 30.8789L18.8708 25.9961C23.363 24.8242 26.781 20.7227 26.781 15.8398C26.781 10.4688 22.9724 5.87891 17.406 5.39062V0.3125C25.5114 0.800781 31.9567 7.53906 31.9567 15.8398C31.9567 19.1602 30.7849 22.1875 29.1247 24.6289L30.4919 25.6055C31.4685 28.2422 33.6169 30.293 35.6677 31.1719C37.6208 32.1484 38.7927 32.1484 41.1364 35.3711C43.5778 38.6914 45.3357 40.7422 45.531 41.3281C45.7263 41.8164 45.6286 42.9883 44.4567 44.0625ZM43.4802 42.3047C43.4802 41.9141 43.1872 41.5234 42.6989 41.5234C42.3083 41.5234 41.9177 41.9141 41.9177 42.3047C41.9177 42.793 42.3083 43.0859 42.6989 43.0859C43.1872 43.0859 43.4802 42.793 43.4802 42.3047Z" fill="#5F2DED"/>
</svg>
