<svg width="63" height="51" viewBox="0 0 63 51" fill="none" xmlns="http://www.w3.org/2000/svg">
<path d="M22.1512 25.5898C15.2176 25.5898 9.65117 20.0234 9.65117 13.0898C9.65117 6.25391 15.2176 0.589844 22.1512 0.589844C28.9871 0.589844 34.6512 6.25391 34.6512 13.0898C34.6512 20.0234 28.9871 25.5898 22.1512 25.5898ZM30.8426 28.7148C38.0691 28.7148 44.0262 34.6719 44.0262 41.8984V45.9023C44.0262 48.5391 41.8777 50.5898 39.3387 50.5898H4.96367C2.32695 50.5898 0.276173 48.5391 0.276173 45.9023V41.8984C0.276173 34.6719 6.13555 28.7148 13.3621 28.7148H15.0223C17.1707 29.7891 19.6121 30.2773 22.1512 30.2773C24.6902 30.2773 27.034 29.7891 29.1824 28.7148H30.8426ZM62.3855 16.2148C62.8738 16.7031 62.8738 17.3867 62.3855 17.875L48.616 31.5469C48.1277 32.0352 47.4441 32.0352 46.9559 31.5469L38.948 23.5391C38.5574 23.0508 38.5574 22.2695 38.948 21.8789L41.6824 19.1445C42.1707 18.6562 42.952 18.6562 43.3426 19.1445L47.8348 23.6367L58.0887 13.4805C58.4793 12.9922 59.2605 12.9922 59.6512 13.4805L62.3855 16.2148Z" fill="#7ECA9D"/>
</svg>
