<svg width="7" height="21" viewBox="0 0 7 21" fill="none" xmlns="http://www.w3.org/2000/svg">
<path d="M6.55117 16.2907V19.4157C6.55117 19.6576 6.46292 19.8668 6.2864 20.0435C6.10989 20.2202 5.90086 20.3086 5.65932 20.3086H2.09188C1.85034 20.3086 1.64131 20.2202 1.46479 20.0435C1.28828 19.8668 1.20002 19.6576 1.20002 19.4157V16.2907C1.20002 16.0489 1.28828 15.8397 1.46479 15.6629C1.64131 15.4862 1.85034 15.3979 2.09188 15.3979H5.65932C5.90086 15.3979 6.10989 15.4862 6.2864 15.6629C6.46292 15.8397 6.55117 16.0489 6.55117 16.2907ZM6.96923 1.55859L6.57904 12.2729C6.56975 12.5147 6.47453 12.724 6.29337 12.9007C6.11221 13.0774 5.90086 13.1657 5.65932 13.1657H2.09188C1.85034 13.1657 1.63898 13.0774 1.45783 12.9007C1.27667 12.724 1.18144 12.5147 1.17215 12.2729L0.781965 1.55859C0.772674 1.31678 0.853964 1.10752 1.02583 0.930803C1.1977 0.754093 1.40441 0.665737 1.64595 0.665737H6.10524C6.34679 0.665737 6.5535 0.754093 6.72537 0.930803C6.89723 1.10752 6.97852 1.31678 6.96923 1.55859Z" fill="#7ECA9D"/>
</svg>
