<svg width="51" height="50" viewBox="0 0 51 50" fill="none" xmlns="http://www.w3.org/2000/svg">
<path d="M26.7391 23.4375C27.5203 23.4375 28.3016 24.2188 28.3016 25C28.3016 25.8789 27.5203 26.5625 26.7391 26.5625C25.8602 26.5625 25.1766 25.8789 25.1766 25C25.1766 24.2188 25.8602 23.4375 26.7391 23.4375ZM20.4891 17.1875C21.2703 17.1875 22.0516 17.9688 22.0516 18.75C22.0516 19.6289 21.2703 20.3125 20.4891 20.3125C19.6102 20.3125 18.9266 19.6289 18.9266 18.75C18.9266 17.9688 19.6102 17.1875 20.4891 17.1875ZM49.8836 26.8555C49.9813 27.2461 50.0789 27.7344 50.0789 28.125C50.0789 29.8828 48.7117 31.25 47.0516 31.25H43.9266V37.5C43.9266 41.0156 41.0945 43.75 37.6766 43.75H31.4266V50H6.42656V32.7148C2.52031 29.2969 0.176563 24.3164 0.176563 18.8477V18.75C0.176563 8.39844 8.575 0 18.9266 0H26.1531C32.9891 0 39.0438 3.41797 42.7547 8.69141C45.0984 12.1094 47.8328 22.2656 49.8836 26.8555ZM36.1141 23.4375C36.8953 23.4375 37.6766 22.7539 37.6766 21.875C37.6766 21.0938 36.8953 20.3125 36.1141 20.3125H34.8445C32.1102 20.3125 30.743 16.9922 32.6961 15.0391L33.4773 14.1602C33.7703 13.8672 33.9656 13.4766 33.9656 13.0859C33.9656 12.207 33.282 11.5234 32.4031 11.5234C32.0125 11.5234 31.6219 11.7188 31.3289 12.0117L30.45 12.793C28.4969 14.7461 25.1766 13.3789 25.1766 10.6445V9.375C25.1766 8.59375 24.3953 7.8125 23.6141 7.8125C22.7352 7.8125 22.0516 8.59375 22.0516 9.375V10.6445C22.0516 13.3789 18.6336 14.7461 16.6805 12.793L15.8016 12.0117C15.5086 11.7188 15.118 11.5234 14.7273 11.5234C13.8484 11.5234 13.1648 12.207 13.1648 13.0859C13.1648 13.4766 13.3602 13.8672 13.6531 14.1602L14.4344 15.0391C16.3875 16.9922 15.0203 20.3125 12.2859 20.3125H11.1141C10.2352 20.3125 9.55156 21.0938 9.55156 21.875C9.55156 22.7539 10.2352 23.4375 11.1141 23.4375H12.2859C15.0203 23.4375 16.3875 26.8555 14.4344 28.8086L13.6531 29.6875C13.3602 29.9805 13.1648 30.3711 13.1648 30.7617C13.1648 31.6406 13.8484 32.3242 14.7273 32.3242C15.118 32.3242 15.5086 32.1289 15.8016 31.8359L16.6805 31.0547C18.6336 29.1016 22.0516 30.4688 22.0516 33.2031V34.375C22.0516 35.2539 22.7352 35.9375 23.6141 35.9375C24.3953 35.9375 25.1766 35.2539 25.1766 34.375V33.2031C25.1766 30.4688 28.4969 29.1016 30.45 31.0547L31.3289 31.8359C31.6219 32.1289 32.0125 32.3242 32.4031 32.3242C33.282 32.3242 33.9656 31.6406 33.9656 30.7617C33.9656 30.3711 33.7703 29.9805 33.4773 29.6875L32.6961 28.8086C30.743 26.8555 32.1102 23.4375 34.8445 23.4375H36.1141Z" fill="#5F2DED"/>
</svg>
