<svg width="64" height="50" viewBox="0 0 64 50" fill="none" xmlns="http://www.w3.org/2000/svg">
<path d="M63.1141 25.7812C63.1141 26.6602 62.3328 27.3438 61.5516 27.3438H51.3953V31.25H56.8641C58.5242 31.25 59.9891 32.7148 59.9891 34.375V46.875C59.9891 48.6328 58.5242 50 56.8641 50H41.2391C39.4813 50 38.1141 48.6328 38.1141 46.875V34.375C38.1141 32.7148 39.4813 31.25 41.2391 31.25H46.7078V27.3438H17.0203V31.25H22.4891C24.1492 31.25 25.6141 32.7148 25.6141 34.375V46.875C25.6141 48.6328 24.1492 50 22.4891 50H6.86406C5.10625 50 3.73906 48.6328 3.73906 46.875V34.375C3.73906 32.7148 5.10625 31.25 6.86406 31.25H12.3328V27.3438H2.17656C1.29766 27.3438 0.614063 26.6602 0.614063 25.7812V24.2188C0.614063 23.4375 1.29766 22.6562 2.17656 22.6562H29.5203V18.75H22.4891C20.7313 18.75 19.3641 17.3828 19.3641 15.625V3.125C19.3641 1.46484 20.7313 0 22.4891 0H41.2391C42.8992 0 44.3641 1.46484 44.3641 3.125V15.625C44.3641 17.3828 42.8992 18.75 41.2391 18.75H34.2078V22.6562H61.5516C62.3328 22.6562 63.1141 23.4375 63.1141 24.2188V25.7812ZM25.6141 12.5H38.1141V6.25H25.6141V12.5ZM19.3641 43.75V37.5H9.98906V43.75H19.3641ZM53.7391 43.75V37.5H44.3641V43.75H53.7391Z" fill="#5F2DED"/>
</svg>
