<svg width="64" height="51" viewBox="0 0 64 51" fill="none" xmlns="http://www.w3.org/2000/svg">
<path d="M22.8211 26C15.8875 26 10.3211 20.4336 10.3211 13.5C10.3211 6.66406 15.8875 1 22.8211 1C29.657 1 35.3211 6.66406 35.3211 13.5C35.3211 20.4336 29.657 26 22.8211 26ZM31.5125 29.125C38.7391 29.125 44.6961 35.082 44.6961 42.3086V46.3125C44.6961 48.9492 42.5477 51 40.0086 51H5.63359C2.99688 51 0.946095 48.9492 0.946095 46.3125V42.3086C0.946095 35.082 6.80547 29.125 14.032 29.125H15.6922C17.8406 30.1992 20.282 30.6875 22.8211 30.6875C25.3602 30.6875 27.7039 30.1992 29.8523 29.125H31.5125ZM63.0555 16.625C63.5438 17.1133 63.5438 17.7969 63.0555 18.2852L49.2859 31.957C48.7977 32.4453 48.1141 32.4453 47.6258 31.957L39.618 23.9492C39.2273 23.4609 39.2273 22.6797 39.618 22.2891L42.3523 19.5547C42.8406 19.0664 43.6219 19.0664 44.0125 19.5547L48.5047 24.0469L58.7586 13.8906C59.1492 13.4023 59.9305 13.4023 60.3211 13.8906L63.0555 16.625Z" fill="#7ECA9D"/>
</svg>
