<svg width="51" height="38" viewBox="0 0 51 38" fill="none" xmlns="http://www.w3.org/2000/svg">
<path d="M48.9422 31.5C49.7234 31.5 50.5047 32.2812 50.5047 33.0625V36.1875C50.5047 37.0664 49.7234 37.75 48.9422 37.75H3.62969C1.87188 37.75 0.504688 36.3828 0.504688 34.625V1.8125C0.504688 1.03125 1.18828 0.25 2.06719 0.25H5.19219C5.97344 0.25 6.75469 1.03125 6.75469 1.8125V31.5H48.9422ZM45.8172 3.375C46.5984 3.375 47.3797 4.15625 47.282 4.9375V16.5586C47.282 18.6094 44.8406 19.6836 43.3758 18.2188L40.1531 14.9961L30.7781 24.3711C29.6063 25.6406 27.5555 25.6406 26.3836 24.3711L19.2547 17.2422L14.6648 21.7344C14.0789 22.3203 13.1023 22.3203 12.5164 21.7344L10.2703 19.4883C9.68438 18.9023 9.68438 17.9258 10.2703 17.3398L17.0086 10.6016C18.1805 9.33203 20.2313 9.33203 21.4031 10.6016L28.6297 17.7305L35.7586 10.6016L32.5359 7.37891C31.0711 5.91406 32.1453 3.375 34.1961 3.375H45.8172Z" fill="#7ECA9D"/>
</svg>
