<svg width="50" height="51" viewBox="0 0 50 51" fill="none" xmlns="http://www.w3.org/2000/svg">
<path d="M25.1707 25.5C18.2371 25.5 12.6707 19.9336 12.6707 13C12.6707 6.16406 18.2371 0.5 25.1707 0.5C32.0066 0.5 37.6707 6.16406 37.6707 13C37.6707 19.9336 32.0066 25.5 25.1707 25.5ZM34.448 28.7227C41.4793 29.0156 47.0457 34.7773 47.0457 41.8086V45.8125C47.0457 48.4492 44.8973 50.5 42.3582 50.5H7.9832C5.34649 50.5 3.2957 48.4492 3.2957 45.8125V41.8086C3.2957 34.7773 8.76445 29.0156 15.7957 28.7227L20.4832 47.375L23.6082 34.0938L20.4832 28.625H29.8582L26.7332 34.0938L29.8582 47.375L34.448 28.7227Z" fill="#5F2DED"/>
</svg>
