<svg width="57" height="51" viewBox="0 0 57 51" fill="none" xmlns="http://www.w3.org/2000/svg">
<path d="M26.9207 25.5117L16.2762 14.3789C13.1512 11.1562 13.3465 5.78516 16.8621 2.75781C19.7918 0.121094 24.284 0.609375 27.0184 3.53906L28.1902 4.61328L29.2645 3.53906C31.9988 0.609375 36.491 0.121094 39.5184 2.75781C42.9363 5.78516 43.1316 11.1562 40.0066 14.3789L29.3621 25.5117C28.6785 26.1953 27.6043 26.1953 26.9207 25.5117ZM55.241 33.1289C56.7059 34.3984 56.6082 36.6445 55.1434 37.8164L40.2996 49.6328C39.2254 50.6094 37.8582 51 36.3934 51H1.62774C0.748829 51 0.0652351 50.3164 0.0652351 49.4375V40.0625C0.0652351 39.2812 0.748829 38.5 1.62774 38.5H6.99883L11.491 34.8867C13.5418 33.2266 16.1785 32.25 18.8152 32.25H34.4402C36.2957 32.25 37.7605 34.0078 37.4676 35.9609C37.2723 37.5234 35.8074 38.5 34.2449 38.5H26.6277C25.7488 38.5 25.0652 39.2812 25.0652 40.0625C25.0652 40.9414 25.7488 41.625 26.6277 41.625H38.1512C39.5184 41.625 40.9832 41.2344 42.0574 40.2578L51.0418 33.1289C52.3113 32.1523 54.0691 32.0547 55.241 33.1289Z" fill="#7ECA9D"/>
</svg>
