<svg width="57" height="51" viewBox="0 0 57 51" fill="none" xmlns="http://www.w3.org/2000/svg">
<path d="M53.9715 6.75C55.241 6.75 56.3152 7.82422 56.3152 9.09375V14.5625C56.3152 18.0781 54.0691 21.6914 50.2605 24.4258C47.1355 26.6719 43.4246 28.0391 39.5184 28.5273C36.3934 33.6055 32.8777 35.6562 32.8777 35.6562V42.6875H37.5652C40.9832 42.6875 43.8152 44.7383 43.8152 48.1562V49.3281C43.8152 50.0117 43.2293 50.5 42.6434 50.5H13.7371C13.0535 50.5 12.5652 50.0117 12.5652 49.3281V48.1562C12.5652 44.7383 15.2996 42.6875 18.8152 42.6875H23.5027V35.6562C23.5027 35.6562 19.8895 33.6055 16.7645 28.5273C12.8582 28.0391 9.14727 26.6719 6.02227 24.4258C2.21367 21.6914 0.0652351 18.0781 0.0652351 14.5625V9.09375C0.0652351 7.82422 1.0418 6.75 2.40899 6.75H12.5652V2.84375C12.5652 1.57422 13.5418 0.5 14.909 0.5H41.4715C42.741 0.5 43.8152 1.57422 43.8152 2.84375V6.75H53.9715ZM9.7332 19.3477C10.9051 20.2266 12.2723 20.9102 13.8348 21.4961C13.1512 19.0547 12.6629 16.2227 12.5652 13H6.31524V14.5625C6.31524 15.7344 7.2918 17.6875 9.7332 19.3477ZM50.0652 14.5625V13H43.7176C43.6199 16.2227 43.1316 19.0547 42.448 21.4961C44.0105 20.9102 45.3777 20.2266 46.5496 19.3477C48.3074 18.1758 50.0652 16.2227 50.0652 14.5625Z" fill="#7ECA9D"/>
</svg>
