<svg width="25" height="25" viewBox="0 0 25 25" fill="none" xmlns="http://www.w3.org/2000/svg">
<path d="M7.01398 2.7627C5.70998 2.8917 4.83198 3.1817 4.17598 3.8387C3.00098 5.0157 3.00098 6.9107 3.00098 10.7017V14.7217C3.00098 18.5117 3.00098 20.4077 4.17598 21.5857C5.35098 22.7637 7.24298 22.7627 11.026 22.7627H13.033C16.816 22.7627 18.708 22.7627 19.883 21.5857C20.95 20.5157 21.049 18.8687 21.058 15.7397" stroke="#7ECA9D" stroke-width="1.5" stroke-linecap="round" stroke-linejoin="round"/>
<path d="M11.026 7.76237L12.029 11.2624C12.589 12.3724 13.292 12.6624 15.039 12.7624C16.428 12.7284 17.234 12.5644 17.922 11.9664C18.391 11.5584 18.603 10.9434 18.706 10.3314L19.05 8.26237M21.558 6.26237V11.2624M9.10096 5.69537C10.688 4.37837 12.102 3.67137 15.035 2.89337C15.3658 2.80601 15.714 2.80774 16.044 2.89837C18.64 3.61237 20.042 4.24637 21.92 5.65637C22 5.71637 22.024 5.82837 21.968 5.91137C21.355 6.81337 19.986 7.54437 16.628 8.84637C15.9285 9.1155 15.1534 9.11122 14.457 8.83437C10.881 7.41437 9.23696 6.65437 9.03696 5.86537C9.03046 5.83388 9.03302 5.8012 9.04435 5.77111C9.05568 5.74102 9.07531 5.71476 9.10096 5.69537Z" stroke="#7ECA9D" stroke-width="1.5" stroke-linecap="round" stroke-linejoin="round"/>
</svg>
