<svg width="363" height="413" viewBox="0 0 363 413" fill="none" xmlns="http://www.w3.org/2000/svg">
<path d="M26.5635 397.153C25.4637 396.213 23.0122 393.224 24.8844 389.757C25.5812 388.481 27.0504 387.851 28.3853 387.289C29.7578 386.824 31.0515 386.153 32.222 385.299C34.2956 383.536 34.8749 380.598 36.2518 378.239C37.8385 375.527 40.7937 373.495 43.9168 373.638C47.4932 373.797 50.482 376.727 51.8336 380.052C53.1853 383.377 53.2356 387.087 53.2608 390.689C53.2608 392.679 53.1853 394.887 51.7245 396.264C50.2637 397.64 48.3915 397.498 46.5277 397.498L26.9748 396.893" fill="#F5F5F5"/>
<path d="M63.9478 343.381H12.5176L21.7525 398.623C21.9447 399.773 22.4593 400.845 23.2365 401.714C24.0137 402.584 25.0217 403.215 26.1433 403.534C26.2009 403.554 26.2598 403.571 26.3196 403.584C26.4711 403.632 26.6253 403.672 26.7814 403.702C27.1241 403.774 27.4724 403.816 27.8224 403.828V403.878L28.0742 403.836H50.9937C52.5514 403.832 54.0569 403.274 55.2411 402.262C56.4253 401.25 57.2111 399.85 57.4581 398.312L61.9245 360.256L62.126 358.744L63.8974 343.675L63.9478 343.381ZM54.2679 378.616H48.9704L49.4993 362.59H55.6111L54.2679 378.616ZM56.1484 362.59H61.1857L59.3051 378.616H54.7548L56.1484 362.59ZM41.0367 396.389L40.7177 382.461H48.2736L47.8118 396.389H41.0367ZM32.826 382.461H40.2056L40.533 396.389H33.9174L32.826 382.461ZM33.3969 396.389H27.2095C26.6218 392.628 25.8579 387.742 25.0267 382.461H32.3223L33.3969 396.389ZM32.5574 378.616L31.3149 362.59H39.7606L40.13 378.616H32.5574ZM40.6673 378.616L40.2979 362.59H48.9872L48.4583 378.616H40.6673ZM40.2056 358.744L39.8614 343.901H49.6084L49.1131 358.744H40.2056ZM39.6935 358.744H30.9874L29.8373 343.901H39.3325L39.6935 358.744ZM30.4585 358.744H21.2908C20.9633 356.696 20.6611 354.748 20.3841 353.002C19.4186 346.999 19.0576 344.749 18.8645 343.901H29.3252L30.4585 358.744ZM30.7608 362.59L32.0033 378.616H24.4474C24.1956 376.988 23.9353 375.342 23.6751 373.697C23.079 369.919 22.4829 366.141 21.9288 362.59H30.7608ZM23.8933 378.616H18.9484L16.2619 362.59H21.3831C22.1639 367.543 23.037 373.059 23.9101 378.616H23.8933ZM24.4978 382.461C25.2534 387.28 26.0006 392.032 26.6806 396.389H21.9288L19.5949 382.461H24.4978ZM48.3911 396.389L48.8528 382.461H53.8901L52.6979 396.389H48.3911ZM49.642 358.744L50.1373 343.901H57.223L55.9469 358.744H49.642ZM18.3776 343.901C18.5791 344.968 19.5193 350.811 20.7786 358.744H15.6491L13.1304 343.901H18.3776ZM57.2147 396.389H53.2352L54.4274 382.461H58.8434L57.2147 396.389ZM61.6306 358.744H56.4507L57.7268 343.901H63.3685L61.6306 358.744Z" fill="#E0E0E0"/>
<path d="M230.277 304.703H98.2012V365.62H230.277V304.703Z" fill="#F5F5F5"/>
<path d="M227.138 362.741H101.207V307.902H227.138V362.741ZM102.047 361.901H226.298V308.725H102.047V361.901Z" fill="#E0E0E0"/>
<path d="M262.549 304.703H230.285V365.62H262.549V304.703Z" fill="#E0E0E0"/>
<path d="M101.635 324.877H226.726C226.771 324.877 226.813 324.86 226.845 324.828C226.876 324.797 226.894 324.754 226.894 324.709C226.894 324.665 226.876 324.622 226.845 324.591C226.813 324.559 226.771 324.542 226.726 324.542H101.635C101.59 324.542 101.547 324.559 101.516 324.591C101.484 324.622 101.467 324.665 101.467 324.709C101.467 324.754 101.484 324.797 101.516 324.828C101.547 324.86 101.59 324.877 101.635 324.877Z" fill="#E0E0E0"/>
<path d="M164.592 324.709C164.941 319.2 164.955 313.674 164.634 308.162C164.634 308.118 164.616 308.075 164.584 308.043C164.553 308.012 164.51 307.994 164.466 307.994C164.421 307.994 164.378 308.012 164.347 308.043C164.315 308.075 164.298 308.118 164.298 308.162C163.976 313.674 163.99 319.2 164.34 324.709C164.34 324.743 164.353 324.775 164.377 324.798C164.4 324.822 164.432 324.835 164.466 324.835C164.499 324.835 164.531 324.822 164.555 324.798C164.578 324.775 164.592 324.743 164.592 324.709Z" fill="#E0E0E0"/>
<path d="M198.266 316.44C198.266 316.772 198.168 317.097 197.983 317.373C197.799 317.649 197.537 317.864 197.23 317.991C196.923 318.118 196.585 318.151 196.26 318.087C195.934 318.022 195.635 317.862 195.4 317.627C195.165 317.392 195.005 317.093 194.94 316.767C194.876 316.442 194.909 316.104 195.036 315.797C195.163 315.49 195.378 315.228 195.654 315.044C195.931 314.859 196.255 314.761 196.587 314.761C197.033 314.761 197.46 314.938 197.775 315.253C198.089 315.567 198.266 315.995 198.266 316.44Z" fill="#E0E0E0"/>
<path d="M132.614 316.44C132.614 316.772 132.516 317.097 132.331 317.373C132.147 317.649 131.884 317.864 131.577 317.991C131.271 318.118 130.933 318.151 130.607 318.087C130.282 318.022 129.982 317.862 129.748 317.627C129.513 317.392 129.353 317.093 129.288 316.767C129.223 316.442 129.257 316.104 129.384 315.797C129.511 315.49 129.726 315.228 130.002 315.044C130.278 314.859 130.603 314.761 130.935 314.761C131.38 314.761 131.807 314.938 132.122 315.253C132.437 315.567 132.614 315.995 132.614 316.44Z" fill="#E0E0E0"/>
<path d="M165.927 335.321C165.927 335.653 165.828 335.978 165.644 336.254C165.459 336.53 165.197 336.745 164.89 336.872C164.583 337 164.246 337.033 163.92 336.968C163.594 336.903 163.295 336.743 163.06 336.508C162.825 336.274 162.665 335.974 162.601 335.649C162.536 335.323 162.569 334.985 162.696 334.679C162.823 334.372 163.038 334.11 163.315 333.925C163.591 333.741 163.915 333.642 164.247 333.642C164.693 333.642 165.12 333.819 165.435 334.134C165.75 334.449 165.927 334.876 165.927 335.321Z" fill="#E0E0E0"/>
<path d="M113.994 365.612L107.193 403.853H111.022L123.556 365.612H113.994Z" fill="#E0E0E0"/>
<path d="M220.941 365.612L226.625 403.92H222.797L211.379 365.612H220.941Z" fill="#E0E0E0"/>
<path d="M246.473 365.612L252.912 403.92H249.092L236.91 365.612H246.473Z" fill="#E0E0E0"/>
<path d="M165.776 352.565C165.776 352.897 165.678 353.222 165.493 353.498C165.309 353.774 165.046 353.989 164.74 354.117C164.433 354.244 164.095 354.277 163.769 354.212C163.444 354.147 163.145 353.987 162.91 353.753C162.675 353.518 162.515 353.219 162.45 352.893C162.385 352.567 162.419 352.23 162.546 351.923C162.673 351.616 162.888 351.354 163.164 351.169C163.44 350.985 163.765 350.886 164.097 350.886C164.542 350.886 164.969 351.063 165.284 351.378C165.599 351.693 165.776 352.12 165.776 352.565Z" fill="#E0E0E0"/>
<path d="M101.635 343.767H226.726C226.771 343.767 226.813 343.749 226.845 343.718C226.876 343.686 226.894 343.644 226.894 343.599C226.894 343.555 226.876 343.512 226.845 343.48C226.813 343.449 226.771 343.431 226.726 343.431H101.635C101.59 343.431 101.547 343.449 101.516 343.48C101.484 343.512 101.467 343.555 101.467 343.599C101.467 343.644 101.484 343.686 101.516 343.718C101.547 343.749 101.59 343.767 101.635 343.767Z" fill="#E0E0E0"/>
<path d="M190.41 284.008L190.367 275.881L150.431 276.09L150.473 284.217L190.41 284.008Z" fill="#E0E0E0"/>
<path d="M195.211 304.518L195.145 291.883L150.633 292.116L150.699 304.751L195.211 304.518Z" fill="#F5F5F5"/>
<path d="M186.646 304.443C186.425 302.346 186.352 300.236 186.427 298.129C186.352 296.02 186.425 293.907 186.646 291.808C186.856 293.908 186.926 296.02 186.856 298.129C186.926 300.236 186.856 302.345 186.646 304.443Z" fill="#E0E0E0"/>
<path d="M188.51 304.443C188.3 302.345 188.229 300.236 188.3 298.129C188.229 296.02 188.299 293.908 188.51 291.808C188.726 293.907 188.799 296.02 188.728 298.129C188.799 300.236 188.726 302.346 188.51 304.443Z" fill="#E0E0E0"/>
<path d="M157.405 304.443C157.189 302.346 157.116 300.236 157.186 298.129C157.116 296.02 157.188 293.907 157.405 291.808C157.621 293.907 157.694 296.02 157.623 298.129C157.693 300.236 157.621 302.346 157.405 304.443Z" fill="#E0E0E0"/>
<path d="M159.277 304.443C159.056 302.346 158.983 300.236 159.058 298.129C158.982 296.02 159.055 293.907 159.277 291.808C159.487 293.908 159.557 296.02 159.486 298.129C159.557 300.236 159.487 302.345 159.277 304.443Z" fill="#E0E0E0"/>
<path d="M163.357 298.331C163.357 298.214 167.841 298.113 173.382 298.113C178.922 298.113 183.456 298.214 183.456 298.331C183.456 298.449 178.964 298.549 173.382 298.549C167.799 298.549 163.357 298.432 163.357 298.331Z" fill="#E0E0E0"/>
<path d="M211.925 291.817L211.883 283.69L156.961 283.978L157.003 292.105L211.925 291.817Z" fill="#EBEBEB"/>
<path d="M204.068 290.817C203.546 290.824 203.035 290.676 202.599 290.391C202.162 290.106 201.82 289.698 201.616 289.219C201.412 288.739 201.355 288.21 201.453 287.698C201.55 287.186 201.798 286.715 202.164 286.344C202.53 285.973 202.998 285.719 203.509 285.615C204.02 285.511 204.55 285.561 205.032 285.759C205.514 285.957 205.926 286.293 206.216 286.726C206.507 287.159 206.662 287.668 206.662 288.19C206.664 288.532 206.599 288.872 206.469 289.19C206.34 289.508 206.15 289.797 205.909 290.041C205.668 290.285 205.381 290.479 205.065 290.612C204.75 290.745 204.41 290.815 204.068 290.817Z" fill="#E0E0E0"/>
<path d="M196.932 289.004V287.375H160.168V289.004H196.932Z" fill="#E0E0E0"/>
<path d="M245.737 189.509C280.625 154.621 280.625 98.0573 245.737 63.1697C210.85 28.2821 154.286 28.2821 119.398 63.1697C84.5105 98.0573 84.5105 154.621 119.398 189.509C154.286 224.397 210.85 224.397 245.737 189.509Z" fill="#E0E0E0"/>
<path d="M233.105 176.876C261.016 148.965 261.016 103.713 233.105 75.8024C205.194 47.8917 159.942 47.8917 132.031 75.8024C104.12 103.713 104.12 148.965 132.031 176.876C159.942 204.787 205.194 204.787 233.105 176.876Z" fill="#FAFAFA"/>
<path d="M233.699 142.396C242.571 114.156 226.869 84.0715 198.63 75.2001C170.39 66.3287 140.306 82.0297 131.434 110.269C122.563 138.509 138.264 168.594 166.504 177.465C194.743 186.336 224.828 170.635 233.699 142.396Z" fill="#E0E0E0"/>
<path d="M215.213 140.898C223.249 122.875 215.152 101.75 197.129 93.7141C179.106 85.6782 157.98 93.7747 149.945 111.798C141.909 129.821 150.005 150.946 168.029 158.982C186.052 167.018 207.177 158.922 215.213 140.898Z" fill="#FAFAFA"/>
<path d="M190.664 142.267C199.459 137.796 202.964 127.041 198.492 118.245C194.021 109.45 183.265 105.945 174.47 110.417C165.675 114.889 162.17 125.644 166.642 134.439C171.113 143.234 181.869 146.739 190.664 142.267Z" fill="#E0E0E0"/>
<path d="M185.32 128.971L160.52 122.431L166.867 115.916L115.555 73.7798L118.392 71.0093L169.974 112.894L174.952 106.085L185.32 128.971Z" fill="#EBEBEB"/>
<path d="M115.554 73.7797L114.782 74.2163C112.893 75.2839 110.754 75.8309 108.584 75.8014C106.415 75.7719 104.292 75.167 102.432 74.0483L80.9316 61.1362L95.4053 58.8611L93.8438 43.6318L113.632 57.182C115.806 58.6708 117.443 60.8204 118.301 63.3123C119.158 65.8043 119.19 68.5061 118.392 71.0176L115.554 73.7797Z" fill="#EBEBEB"/>
<path d="M328.713 341.618C328.81 336.409 330.821 331.418 334.363 327.598C336.067 334.633 328.713 341.618 328.713 341.618Z" fill="#EBEBEB"/>
<path d="M336.906 337.655C341.72 335.661 347.101 335.512 352.018 337.235C346.25 341.601 336.906 337.655 336.906 337.655Z" fill="#EBEBEB"/>
<path d="M337.848 333.088C337.064 329.052 337.793 324.868 339.897 321.334C342.373 326.498 337.848 333.088 337.848 333.088Z" fill="#EBEBEB"/>
<path d="M306.129 316.642C318.134 319.832 324.599 330.251 324.599 330.251C314.314 330.251 306.129 316.642 306.129 316.642Z" fill="#EBEBEB"/>
<path d="M325.288 321.553C324.667 308.641 337.285 294.024 337.285 294.024C335.379 310.06 325.288 321.553 325.288 321.553Z" fill="#EBEBEB"/>
<path d="M325.221 284.772C325.464 291.232 323.893 297.63 320.687 303.242C318.908 294.964 325.221 284.772 325.221 284.772Z" fill="#EBEBEB"/>
<path d="M320.401 311.025C310.956 310.018 305.818 300.623 305.818 300.623C317.194 303.805 320.401 311.025 320.401 311.025Z" fill="#EBEBEB"/>
<path d="M299.992 350.483C304.42 347.738 309.704 346.719 314.835 347.621C309.848 352.876 299.992 350.483 299.992 350.483Z" fill="#EBEBEB"/>
<path d="M324.458 354.731C323.254 357.786 321.009 360.317 318.119 361.876C318.522 357.519 324.458 354.731 324.458 354.731Z" fill="#EBEBEB"/>
<path d="M323.249 353.338C319.838 355.314 315.841 356.027 311.957 355.353C315.592 351.566 323.249 353.338 323.249 353.338Z" fill="#EBEBEB"/>
<path d="M328.076 370.725C328.067 370.661 328.067 370.596 328.076 370.532C328.076 370.372 328.076 370.187 328.076 369.969C328.076 369.432 328.076 368.71 328.076 367.803C328.076 366.896 328.076 365.713 328.076 364.378C328.076 363.043 328.076 361.523 327.984 359.844C327.9 356.486 327.664 352.498 327.32 348.091C326.976 343.683 326.397 338.814 325.641 333.743C324.105 323.618 322.082 314.526 320.402 308.011C319.563 304.754 318.883 302.134 318.379 300.321C318.136 299.439 317.951 298.743 317.808 298.23L317.674 297.685C317.666 297.621 317.666 297.556 317.674 297.492C317.709 297.549 317.735 297.611 317.75 297.676L317.926 298.205L318.564 300.271C319.126 302.067 319.865 304.687 320.73 307.936C322.963 316.418 324.729 325.017 326.019 333.693C326.758 338.73 327.287 343.633 327.648 348.066C328.009 352.498 328.177 356.503 328.219 359.869C328.277 361.549 328.261 363.068 328.219 364.403C328.177 365.738 328.219 366.922 328.168 367.828C328.118 368.735 328.109 369.465 328.093 369.994C328.093 370.221 328.093 370.406 328.093 370.557L328.076 370.725Z" fill="#E0E0E0"/>
<path d="M310.747 343.389C310.814 343.288 314.626 345.79 319.268 348.972C323.911 352.154 327.613 354.807 327.546 354.908C327.479 355.008 323.667 352.507 319.025 349.325C314.382 346.143 310.68 343.482 310.747 343.389Z" fill="#E0E0E0"/>
<path d="M327.547 344.766C327.715 344.527 327.913 344.31 328.135 344.119L329.814 342.482L335.489 337.16C337.663 335.12 339.628 333.273 341.164 331.845L342.843 330.225C343.045 330.015 343.271 329.829 343.515 329.671C343.36 329.918 343.174 330.144 342.961 330.343C342.591 330.762 342.029 331.342 341.332 332.022C339.938 333.449 337.974 335.38 335.741 337.437C333.508 339.494 331.476 341.357 329.982 342.675C329.234 343.33 328.621 343.851 328.185 344.212C327.995 344.421 327.781 344.607 327.547 344.766Z" fill="#E0E0E0"/>
<path d="M298.625 337.269C298.625 337.269 308.38 337.084 312.511 344.758C309.773 344.679 307.091 343.96 304.68 342.66C302.269 341.36 300.195 339.514 298.625 337.269Z" fill="#EBEBEB"/>
<path d="M311.947 333.348C311.947 333.348 319.889 339.015 318.663 347.62C316.509 345.929 314.78 343.758 313.614 341.28C312.448 338.802 311.877 336.086 311.947 333.348Z" fill="#EBEBEB"/>
<path d="M353.79 319.42C353.79 319.42 350.659 330.334 340.693 332.307C341.722 329.288 343.441 326.55 345.715 324.312C347.989 322.075 350.754 320.4 353.79 319.42Z" fill="#EBEBEB"/>
<path d="M307.615 278.787C307.615 278.787 320.066 286.905 318.722 300.111C315.336 297.669 312.568 294.469 310.64 290.766C308.711 287.064 307.675 282.961 307.615 278.787Z" fill="#EBEBEB"/>
<path d="M349.046 351.012C348.79 351.257 348.509 351.473 348.207 351.659C347.67 352.045 346.906 352.624 345.974 353.338C343.565 355.263 341.319 357.383 339.257 359.676C337.202 361.981 335.338 364.449 333.683 367.056C333.053 368.055 332.558 368.878 332.23 369.457C332.073 369.755 331.884 370.037 331.668 370.296C331.772 369.967 331.91 369.649 332.079 369.348C332.365 368.743 332.827 367.895 333.431 366.829C336.616 361.463 340.827 356.776 345.823 353.035C346.78 352.322 347.577 351.776 348.14 351.432C348.427 351.262 348.731 351.121 349.046 351.012Z" fill="#E0E0E0"/>
<path d="M338.209 359.122C337.307 353.991 338.326 348.707 341.071 344.279C342.406 353.531 338.209 359.122 338.209 359.122Z" fill="#EBEBEB"/>
<path d="M346.588 354.555C349.881 352.683 353.747 352.085 357.452 352.876C351.466 356.058 346.588 354.555 346.588 354.555Z" fill="#EBEBEB"/>
<path d="M309.924 371.732L314.592 402.425H341.726L348.022 372.177L309.924 371.732Z" fill="#EBEBEB"/>
<path d="M344.228 391.403C344.228 391.495 337.277 391.562 328.705 391.562C320.134 391.562 313.174 391.495 313.174 391.403C313.174 391.31 320.125 391.243 328.705 391.243C337.285 391.243 344.228 391.319 344.228 391.403Z" fill="#FAFAFA"/>
<path d="M344.337 389.942C344.337 390.026 337.336 390.101 328.705 390.101C320.075 390.101 313.064 390.026 313.064 389.942C313.064 389.858 320.066 389.782 328.705 389.782C337.344 389.782 344.337 389.807 344.337 389.942Z" fill="#FAFAFA"/>
<path d="M344.278 388.196C344.278 388.28 337.285 388.355 328.646 388.355C320.007 388.355 313.014 388.28 313.014 388.196C313.014 388.112 320.015 388.036 328.646 388.036C337.276 388.036 344.278 388.103 344.278 388.196Z" fill="#FAFAFA"/>
<path d="M317.708 400.68C317.331 399.412 317.05 398.119 316.868 396.809C316.595 395.52 316.421 394.212 316.348 392.897C317.016 395.449 317.468 398.052 317.699 400.68H317.708Z" fill="#FAFAFA"/>
<path d="M319.562 400.352C319.37 399.104 319.258 397.845 319.227 396.582C319.085 395.325 319.026 394.061 319.05 392.796C319.54 395.283 319.712 397.822 319.562 400.352Z" fill="#FAFAFA"/>
<path d="M322.921 400.352C322.554 399.089 322.318 397.792 322.215 396.482C322.008 395.186 321.938 393.872 322.005 392.561C322.255 393.845 322.429 395.143 322.526 396.448C322.729 397.741 322.861 399.044 322.921 400.352Z" fill="#FAFAFA"/>
<path d="M325.279 400.512C325.023 399.218 324.896 397.902 324.902 396.583C324.806 395.267 324.848 393.944 325.028 392.637C325.166 393.945 325.231 395.259 325.221 396.574C325.317 397.884 325.337 399.199 325.279 400.512Z" fill="#FAFAFA"/>
<path d="M329.46 400.352C329.26 399.119 329.165 397.873 329.174 396.624C329.067 395.378 329.067 394.126 329.174 392.88C329.374 394.115 329.469 395.365 329.46 396.616C329.567 397.859 329.567 399.109 329.46 400.352Z" fill="#FAFAFA"/>
<path d="M332.516 400.512C332.362 399.233 332.32 397.944 332.391 396.658C332.35 395.371 332.412 394.082 332.575 392.805C332.73 394.083 332.772 395.372 332.701 396.658C332.742 397.946 332.68 399.234 332.516 400.512Z" fill="#FAFAFA"/>
<path d="M335.38 400.1C335.348 398.753 335.424 397.406 335.607 396.07C335.683 394.726 335.868 393.389 336.161 392.074C336.187 393.422 336.108 394.769 335.926 396.104C335.844 397.448 335.662 398.784 335.38 400.1Z" fill="#FAFAFA"/>
<path d="M339.072 399.697C339.07 398.54 339.223 397.388 339.526 396.272C339.718 395.13 340.056 394.018 340.533 392.964C340.363 394.095 340.131 395.216 339.836 396.322C339.644 397.46 339.389 398.587 339.072 399.697Z" fill="#FAFAFA"/>
<path d="M306.811 365.662V371.405C306.811 372.004 307.048 372.578 307.472 373.001C307.896 373.425 308.47 373.663 309.069 373.663H348.359C348.959 373.663 349.534 373.425 349.959 373.002C350.384 372.579 350.624 372.004 350.626 371.405V365.662H306.811Z" fill="#EBEBEB"/>
<path d="M310.219 373.663L310.538 375.493L346.797 378.079L347.713 373.663H310.219Z" fill="#E0E0E0"/>
<path d="M348.652 403.215C348.652 403.341 273.605 403.433 181.046 403.433C88.487 403.433 13.4238 403.374 13.4238 403.215C13.4238 403.055 88.4535 402.997 181.046 402.997C273.639 402.997 348.652 403.097 348.652 403.215Z" fill="#263238"/>
<path d="M0 154.653C0 154.653 8.60527 189.913 47.1233 181.82C47.1233 181.82 35.9659 146.131 0 154.653Z" fill="#455A64"/>
<path d="M18.6133 208.03C18.6133 208.03 36.294 234.392 65.5099 216.157C65.5099 216.157 45.5877 190.199 18.6133 208.03Z" fill="#455A64"/>
<path d="M46.7871 248.253C46.7871 248.253 72.5862 270.19 97.2938 242.997C97.2938 243.022 69.3119 222.118 46.7871 248.253Z" fill="#455A64"/>
<path d="M73.452 163.627C73.452 163.627 44.8405 177.379 58.7265 208.895C60.7666 207.762 87.0106 192.264 73.452 163.627Z" fill="#455A64"/>
<path d="M79.6636 201.625C79.6636 201.625 65.3914 220.892 86.657 237.44C87.9834 235.374 100.442 216.997 79.6636 201.625Z" fill="#455A64"/>
<path d="M13.4839 114.086C13.4839 114.086 10.2013 142.63 41.0543 147.231C41.0543 147.231 42.5571 117.629 13.4839 114.086Z" fill="#455A64"/>
<path d="M57.7355 85.189C57.7355 85.189 32.776 95.6076 43.6145 124.857C43.6145 124.857 68.6243 112.382 57.7355 85.189Z" fill="#455A64"/>
<path d="M72.7969 126.922C72.7969 126.922 39.7526 130.692 42.6574 166.624C42.6574 166.624 76.4069 160.613 72.7969 126.922Z" fill="#455A64"/>
<path d="M119.827 252.467L119.407 252.341L118.165 252.014C117.082 251.728 115.461 251.342 113.43 250.679C107.668 248.901 102.097 246.556 96.7985 243.677C88.9522 239.397 81.7082 234.095 75.2559 227.911C71.4283 224.25 67.8653 220.322 64.5938 216.157L62.0752 212.799C61.6554 212.245 61.2356 211.682 60.8243 211.12C60.4129 210.557 60.0435 209.944 59.6573 209.357L57.315 205.764L55.1658 202.002L54.0912 200.105L53.1341 198.166C52.5044 196.881 51.858 195.605 51.2451 194.321L49.566 190.442C49.2974 189.796 49.0119 189.157 48.7265 188.511C48.4411 187.865 48.2564 187.218 48.0297 186.572L46.6528 182.727C46.2667 181.434 45.8889 180.158 45.5195 178.89C45.3348 178.252 45.1417 177.622 44.957 177.001C44.7723 176.38 44.6463 175.733 44.4952 175.112C44.2014 173.853 43.9075 172.593 43.6557 171.376C41.7957 162.644 40.9952 153.72 41.2714 144.796C41.4663 138.77 42.1373 132.768 43.2779 126.847C43.7228 124.756 44.1174 123.145 44.3693 122.053C44.4868 121.507 44.5792 121.096 44.6463 120.802C44.7135 120.508 44.7303 120.374 44.7303 120.374C44.7303 120.374 44.6799 120.508 44.6044 120.794C44.5288 121.079 44.4281 121.491 44.2937 122.028C44.0251 123.128 43.6053 124.731 43.1352 126.813C40.1123 141.561 40.1866 156.776 43.3534 171.494C43.6389 172.728 43.9327 173.97 44.193 175.238C44.3525 175.868 44.47 176.506 44.6547 177.135C44.8394 177.765 45.0241 178.395 45.2172 179.033C45.5866 180.3 45.9644 181.551 46.3506 182.878L47.7274 186.74C47.9541 187.386 48.1892 188.041 48.4243 188.687C48.6593 189.334 48.9616 189.972 49.2638 190.618L50.9429 194.522C51.5474 195.807 52.1938 197.083 52.8318 198.376C53.1509 199.03 53.4699 199.677 53.7973 200.323C54.1247 200.97 54.5109 201.591 54.8719 202.229L57.0295 206.007L59.3803 209.609C59.7748 210.196 60.1442 210.801 60.5472 211.38L61.8065 213.059L64.3251 216.417C67.6066 220.584 71.1809 224.512 75.0209 228.171C81.5084 234.374 88.7957 239.682 96.6894 243.954C102.012 246.818 107.613 249.133 113.405 250.864C115.445 251.51 117.073 251.863 118.165 252.131L119.416 252.417L119.827 252.467Z" fill="#263238"/>
<path d="M82.7535 217.156C82.7176 217.435 82.7176 217.717 82.7535 217.996C82.7535 218.516 82.8711 219.263 82.9886 220.179C83.2069 222.026 83.5931 224.561 84.1304 227.331C84.6677 230.102 85.2805 232.604 85.7591 234.392C86.0025 235.29 86.2124 236.012 86.3719 236.508C86.4302 236.771 86.5234 237.025 86.649 237.263C86.64 236.979 86.5948 236.697 86.5147 236.424L86.0193 234.291C85.5996 232.486 85.0455 229.993 84.4998 227.222C83.9541 224.452 83.5427 221.933 83.2489 220.103C83.1145 219.263 82.997 218.525 82.8962 217.937C82.8791 217.672 82.8312 217.41 82.7535 217.156Z" fill="#263238"/>
<path d="M75.7266 245.768C76.0085 245.78 76.2908 245.754 76.5661 245.692L78.7657 245.373C80.6127 245.096 83.1733 244.735 86.0025 244.408C88.8318 244.08 91.4092 243.837 93.2729 243.677L95.4809 243.484C95.7646 243.48 96.0466 243.441 96.3205 243.367C96.0415 243.335 95.7598 243.335 95.4809 243.367C94.952 243.367 94.1964 243.367 93.2645 243.442C91.3924 243.535 88.8066 243.736 85.9689 244.064C83.1313 244.391 80.5707 244.802 78.7237 245.147C77.8086 245.315 77.0446 245.466 76.5493 245.583C76.2686 245.611 75.9923 245.673 75.7266 245.768Z" fill="#263238"/>
<path d="M40.9531 210.801C41.2616 210.906 41.5792 210.981 41.9018 211.027L44.5128 211.548C46.7208 211.976 49.7683 212.614 53.1013 213.42C56.4342 214.226 59.4314 215.057 61.589 215.679L64.1076 216.417C64.4175 216.529 64.7383 216.608 65.0647 216.652C64.7765 216.497 64.4725 216.374 64.158 216.283C63.5619 216.065 62.6972 215.771 61.6394 215.443C59.4985 214.755 56.5098 213.882 53.16 213.076C49.8103 212.27 46.7627 211.666 44.538 211.296C43.4298 211.111 42.5231 210.977 41.9018 210.902C41.5901 210.834 41.272 210.8 40.9531 210.801Z" fill="#263238"/>
<path d="M66.2066 183.785C65.9804 184.042 65.7833 184.324 65.6189 184.624C65.2579 185.195 64.7794 186.051 64.2169 187.143C61.3144 192.787 59.5433 198.945 59.0034 205.268C58.9026 206.477 58.8607 207.451 58.8607 208.131C58.8303 208.483 58.8303 208.837 58.8607 209.189C58.9309 208.844 58.9674 208.492 58.9698 208.14C58.9698 207.468 59.1041 206.461 59.2301 205.294C59.9153 199.03 61.6702 192.93 64.4184 187.26C64.9389 186.169 65.3923 185.296 65.7113 184.742C65.9076 184.44 66.0735 184.119 66.2066 183.785Z" fill="#263238"/>
<path d="M27.8809 167.346C28.1136 167.551 28.3668 167.731 28.6364 167.883L30.7605 169.26C32.5403 170.444 34.9582 172.14 37.4768 174.188C39.9954 176.237 42.1698 178.243 43.6894 179.738L45.4776 181.518C45.6833 181.755 45.9142 181.968 46.166 182.156C45.9994 181.892 45.8053 181.647 45.5867 181.425C45.2006 180.964 44.6213 180.325 43.9077 179.553C41.9732 177.541 39.9151 175.651 37.7454 173.895C35.575 172.138 33.2983 170.518 30.9284 169.042C30.0217 168.471 29.2493 168.035 28.7456 167.758C28.4724 167.591 28.1826 167.453 27.8809 167.346Z" fill="#263238"/>
<path d="M63.9642 141.253C63.9642 141.253 63.8551 141.321 63.6872 141.463L62.9652 142.11C62.3355 142.681 61.4456 143.529 60.3626 144.586C58.205 146.71 55.3254 149.741 52.3114 153.259C49.2975 156.777 46.7788 160.109 45.0326 162.586C44.1931 163.82 43.4627 164.828 43.0009 165.541L42.472 166.381C42.4039 166.47 42.3501 166.569 42.3125 166.675C42.3125 166.675 42.4048 166.599 42.5392 166.423L43.1185 165.642L45.2425 162.754C47.0475 160.328 49.6081 157.028 52.5969 153.519C55.5856 150.01 58.4736 146.954 60.5557 144.788L63.0743 142.269L63.7459 141.572C63.835 141.478 63.9087 141.371 63.9642 141.253Z" fill="#263238"/>
<path d="M24.1621 123.38C24.3716 123.696 24.6076 123.994 24.8673 124.27L26.8738 126.637C28.5529 128.644 30.8113 131.473 33.1368 134.714C35.4623 137.954 37.4016 141.019 38.7617 143.26C39.4081 144.335 39.9371 145.233 40.3484 145.922C40.5278 146.256 40.7327 146.576 40.9613 146.879C40.8306 146.522 40.6705 146.176 40.4828 145.846C40.1469 145.191 39.6432 144.259 38.9884 143.126C37.6871 140.842 35.7729 137.761 33.439 134.495C31.1051 131.23 28.8132 128.434 27.0753 126.461C26.2358 125.479 25.4886 124.698 24.9765 124.169C24.7326 123.879 24.4598 123.614 24.1621 123.38Z" fill="#263238"/>
<path d="M54.0414 96.2544C53.8368 96.5879 53.6626 96.9391 53.5209 97.3038C53.2102 97.9838 52.7737 98.9829 52.2448 100.217C51.1953 102.694 49.8101 106.094 48.3913 109.981C46.9725 113.868 45.7719 117.352 44.9576 119.913C44.5546 121.189 44.2356 122.23 44.0257 122.952C43.8969 123.32 43.8014 123.7 43.7402 124.085C43.9245 123.727 44.0762 123.354 44.1936 122.969C44.4622 122.196 44.8148 121.189 45.2346 119.971C46.1161 117.453 47.3419 113.935 48.7691 110.09C50.1963 106.245 51.506 102.82 52.4966 100.301C52.9668 99.1004 53.3362 98.1014 53.6552 97.3374C53.813 96.9874 53.9421 96.6252 54.0414 96.2544Z" fill="#263238"/>
<path d="M363 149.641C363 149.641 354.395 184.901 315.877 176.817C315.877 176.817 327.043 141.119 363 149.641Z" fill="#455A64"/>
<path d="M344.387 203.019C344.387 203.019 326.706 229.389 297.49 211.154C297.49 211.12 317.413 185.195 344.387 203.019Z" fill="#455A64"/>
<path d="M316.203 243.241C316.203 243.241 290.413 265.186 265.705 237.985C265.705 237.985 293.687 217.114 316.203 243.241Z" fill="#455A64"/>
<path d="M289.548 158.624C289.548 158.624 318.16 172.375 304.274 203.883C302.242 202.725 276.032 187.26 289.548 158.624Z" fill="#455A64"/>
<path d="M283.336 196.613C283.336 196.613 297.608 215.88 276.342 232.436C275.016 230.371 262.557 211.96 283.336 196.613Z" fill="#455A64"/>
<path d="M349.526 109.083C349.526 109.083 352.808 137.627 321.947 142.228C321.947 142.228 320.444 112.625 349.526 109.083Z" fill="#455A64"/>
<path d="M305.29 80.1519C305.29 80.1519 330.25 90.5789 319.411 119.828C319.386 119.854 294.376 107.37 305.29 80.1519Z" fill="#455A64"/>
<path d="M290.179 121.919C290.179 121.919 323.223 125.688 320.318 161.654C320.343 161.654 286.594 155.61 290.179 121.919Z" fill="#455A64"/>
<path d="M243.164 247.455L243.584 247.338L244.818 247.002C245.909 246.717 247.521 246.339 249.553 245.675C255.313 243.894 260.884 241.549 266.184 238.674C274.042 234.383 281.297 229.07 287.76 222.874C291.576 219.227 295.133 215.319 298.406 211.179L300.882 207.821L302.142 206.142C302.545 205.562 302.914 204.966 303.3 204.37C304.081 203.186 304.853 201.986 305.643 200.785L307.792 197.016C308.153 196.386 308.514 195.756 308.866 195.127L309.823 193.187C310.462 191.895 311.108 190.669 311.712 189.342L313.392 185.455C313.66 184.809 313.946 184.179 314.231 183.533C314.516 182.886 314.701 182.232 314.928 181.585L316.305 177.748C316.691 176.455 317.069 175.171 317.438 173.903C317.631 173.274 317.816 172.644 318.001 172.014C318.185 171.385 318.311 170.755 318.462 170.125C318.765 168.866 319.058 167.624 319.344 166.398C321.206 157.646 322.01 148.703 321.737 139.759C321.539 133.73 320.866 127.725 319.722 121.801C319.277 119.719 318.882 118.107 318.639 117.008C318.513 116.47 318.42 116.051 318.353 115.757C318.286 115.463 318.278 115.329 318.278 115.329L318.395 115.748L318.706 116.991C318.974 118.082 319.394 119.694 319.873 121.776C321.065 127.703 321.775 133.717 321.997 139.759C322.292 148.728 321.491 157.699 319.613 166.473L318.773 170.209C318.622 170.839 318.496 171.485 318.311 172.107C318.127 172.728 317.942 173.374 317.749 174.004C317.379 175.28 317.002 176.565 316.615 177.858C316.162 179.134 315.709 180.376 315.239 181.711C315.012 182.366 314.777 183.012 314.542 183.667C314.307 184.322 314.004 184.952 313.702 185.598L312.023 189.502C311.41 190.786 310.764 192.021 310.126 193.355L309.169 195.303L308.086 197.2L305.928 200.978L303.577 204.58C303.191 205.176 302.813 205.781 302.41 206.351L301.151 208.031L298.632 211.389C295.348 215.556 291.771 219.484 287.928 223.142C281.445 229.352 274.157 234.663 266.26 238.934C260.937 241.797 255.337 244.11 249.545 245.835C247.504 246.481 245.876 246.842 244.784 247.103L243.542 247.397C243.417 247.422 243.291 247.441 243.164 247.455Z" fill="#263238"/>
<path d="M280.247 212.153C280.283 212.432 280.283 212.714 280.247 212.992C280.205 213.504 280.129 214.252 280.02 215.175C279.794 217.014 279.416 219.549 278.87 222.328C278.324 225.107 277.728 227.6 277.241 229.389C276.998 230.287 276.788 231 276.629 231.496C276.567 231.761 276.474 232.017 276.352 232.26C276.365 231.989 276.413 231.721 276.494 231.462C276.629 230.875 276.788 230.161 276.981 229.321C277.401 227.525 277.963 225.023 278.501 222.252C279.038 219.482 279.466 216.963 279.752 215.133C279.894 214.294 280.012 213.563 280.104 212.976C280.117 212.696 280.165 212.42 280.247 212.153Z" fill="#263238"/>
<path d="M287.283 240.764C287.001 240.775 286.719 240.75 286.443 240.688L284.252 240.369C282.397 240.092 279.844 239.731 277.007 239.395C274.169 239.06 271.6 238.825 269.736 238.665L267.537 238.472C267.253 238.472 266.97 238.432 266.697 238.354C266.976 238.321 267.258 238.321 267.537 238.354C268.057 238.354 268.813 238.354 269.753 238.43C271.617 238.522 274.203 238.715 277.04 239.051C279.878 239.387 282.439 239.79 284.286 240.134C285.201 240.302 285.965 240.453 286.46 240.571C286.741 240.603 287.017 240.668 287.283 240.764Z" fill="#263238"/>
<path d="M322.08 205.789C321.769 205.899 321.449 205.978 321.123 206.024L318.512 206.536C316.304 206.973 313.265 207.611 309.923 208.417C306.582 209.223 303.593 210.054 301.436 210.675L298.875 211.414C298.564 211.521 298.244 211.597 297.918 211.641C298.214 211.496 298.52 211.372 298.833 211.271C299.421 211.053 300.285 210.768 301.352 210.432C303.493 209.743 306.49 208.87 309.831 208.056C313.172 207.241 316.228 206.654 318.453 206.284C319.561 206.1 320.468 205.965 321.089 205.881C321.416 205.82 321.748 205.789 322.08 205.789Z" fill="#263238"/>
<path d="M296.793 178.772C297.017 179.046 297.214 179.342 297.381 179.654C297.75 180.225 298.22 181.081 298.791 182.173C301.686 187.819 303.454 193.976 303.996 200.298C304.097 201.507 304.147 202.489 304.139 203.169C304.175 203.518 304.175 203.87 304.139 204.219C304.074 203.876 304.037 203.527 304.03 203.178C304.03 202.498 303.904 201.499 303.77 200.323C303.08 194.054 301.323 187.949 298.573 182.273C298.052 181.19 297.607 180.317 297.28 179.755C297.088 179.443 296.925 179.114 296.793 178.772Z" fill="#263238"/>
<path d="M335.126 162.334C334.893 162.541 334.636 162.722 334.362 162.872L332.247 164.257C330.467 165.432 328.049 167.128 325.53 169.177C323.012 171.225 320.837 173.232 319.318 174.726L317.53 176.514C317.324 176.746 317.096 176.957 316.85 177.144C317.011 176.879 317.202 176.634 317.421 176.414C317.807 175.96 318.386 175.314 319.1 174.541C321.036 172.531 323.094 170.642 325.262 168.883C327.428 167.125 329.702 165.504 332.07 164.03C332.977 163.468 333.75 163.031 334.253 162.746C334.53 162.58 334.823 162.443 335.126 162.334Z" fill="#263238"/>
<path d="M299.043 136.25C299.143 136.305 299.234 136.376 299.312 136.46L300.042 137.106C300.672 137.677 301.553 138.517 302.636 139.583C304.794 141.699 307.673 144.729 310.687 148.247C313.701 151.765 316.22 155.106 317.975 157.574C318.814 158.808 319.536 159.824 319.998 160.529L320.527 161.369C320.594 161.462 320.648 161.563 320.686 161.671C320.601 161.593 320.525 161.506 320.46 161.411L319.88 160.63L317.756 157.751C315.951 155.324 313.391 152.025 310.402 148.516C307.413 145.006 304.525 141.959 302.443 139.793L299.924 137.274L299.244 136.569C299.161 136.474 299.093 136.366 299.043 136.25Z" fill="#263238"/>
<path d="M338.871 118.368C338.665 118.686 338.429 118.984 338.166 119.258L336.16 121.625C334.481 123.64 332.222 126.461 329.897 129.71C327.571 132.959 325.632 136.015 324.28 138.248L322.685 140.909C322.501 141.244 322.297 141.566 322.072 141.875C322.202 141.516 322.365 141.171 322.559 140.842C322.887 140.187 323.399 139.255 324.045 138.114C325.346 135.838 327.261 132.749 329.595 129.492C331.928 126.234 334.22 123.422 335.958 121.457C336.798 120.475 337.545 119.686 338.057 119.165C338.308 118.88 338.581 118.613 338.871 118.368Z" fill="#263238"/>
<path d="M308.959 91.2505C309.165 91.5803 309.339 91.9288 309.479 92.2915C309.799 92.9799 310.235 93.9706 310.756 95.2131C311.805 97.6814 313.19 101.09 314.609 104.977C316.028 108.864 317.228 112.34 318.043 114.9C318.454 116.185 318.765 117.217 318.975 117.948C319.102 118.314 319.197 118.69 319.26 119.073C319.088 118.725 318.947 118.363 318.84 117.99L317.791 114.984C316.909 112.466 315.684 108.948 314.256 105.103C312.829 101.258 311.494 97.8073 310.512 95.3139L309.345 92.3503C309.193 91.9924 309.064 91.625 308.959 91.2505Z" fill="#263238"/>
<path d="M225.375 299.439C225.375 299.439 229.724 316.809 225.375 323.853C225.198 324.147 225.005 324.441 224.804 324.693C221.976 328.759 217.893 331.787 213.181 333.314C208.469 334.841 203.387 334.782 198.711 333.147L149.791 316.356L153.527 303.226L184.934 307.104L218.449 297.979L225.375 299.439Z" fill="#FFBE9D"/>
<path d="M203.563 272.616C203.563 272.616 219.228 318.261 218.448 329.209C217.667 340.157 187.385 397.514 187.385 397.514L174.12 391.419C174.12 391.419 179.208 375.325 182.599 361.246C184.278 354.135 184.984 345.496 186.293 342.004C190.273 331.568 194.924 326.136 194.924 326.136L173.574 282.254L203.563 272.616Z" fill="#FFBE9D"/>
<path d="M160.636 242.183C160.636 242.183 156.01 254.91 159.209 266.932C162.408 278.955 192.514 328.219 192.514 328.219L227.355 308.07C227.355 308.07 226.011 264.162 213.872 239.664L160.636 242.183Z" fill="#263238"/>
<path d="M218.17 313.292C218.17 313.292 218.254 313.417 218.371 313.678C218.489 313.938 218.657 314.324 218.833 314.836C219.338 316.287 219.673 317.792 219.832 319.319C220.056 321.59 219.997 323.88 219.656 326.136C219.463 327.413 219.236 328.731 218.892 330.091C218.548 331.451 218.094 332.828 217.599 334.213C215.609 339.787 213.477 344.682 211.924 348.225C211.143 349.996 210.497 351.415 210.035 352.422C209.817 352.867 209.64 353.262 209.498 353.539C209.44 353.673 209.367 353.8 209.279 353.917C209.306 353.774 209.351 353.636 209.414 353.505L209.875 352.355L211.638 348.158C213.116 344.581 215.206 339.67 217.188 334.12C217.675 332.735 218.12 331.367 218.472 330.04C218.825 328.714 219.06 327.387 219.261 326.128C219.619 323.908 219.712 321.654 219.538 319.412C219.417 317.898 219.135 316.4 218.699 314.945C218.363 313.854 218.128 313.308 218.17 313.292Z" fill="#EB996E"/>
<path d="M183.826 355.252C183.817 354.858 183.842 354.465 183.901 354.076C183.969 353.312 184.103 352.221 184.288 350.878C184.743 347.351 185.544 343.878 186.68 340.509C187.919 337.172 189.527 333.985 191.474 331.006C192.205 329.864 192.817 328.94 193.254 328.319C193.461 327.984 193.7 327.669 193.968 327.379C193.809 327.74 193.618 328.085 193.397 328.412C192.96 329.134 192.406 330.091 191.718 331.165C189.862 334.167 188.307 337.345 187.075 340.652C185.947 343.997 185.105 347.432 184.556 350.92C184.338 352.196 184.162 353.262 184.027 354.093C184.003 354.485 183.935 354.874 183.826 355.252Z" fill="#EB996E"/>
<path d="M217.977 303.737C217.906 303.61 217.853 303.475 217.817 303.334L217.439 302.167C217.112 301.084 216.659 299.649 216.113 297.861C214.996 294.217 213.41 289.205 211.529 283.714C209.648 278.224 207.827 273.287 206.492 269.719L204.897 265.521C204.729 265.06 204.594 264.682 204.477 264.371C204.418 264.241 204.378 264.102 204.359 263.96C204.445 264.075 204.513 264.202 204.561 264.338L205.056 265.463C205.484 266.437 206.072 267.864 206.777 269.66C208.196 273.195 210.06 278.123 211.949 283.622C213.838 289.121 215.374 294.158 216.424 297.819C216.944 299.649 217.355 301.177 217.616 302.176C217.733 302.646 217.834 303.015 217.91 303.36C217.95 303.482 217.972 303.609 217.977 303.737Z" fill="#455A64"/>
<path d="M197.475 269.678C197.425 269.736 196.384 268.88 194.528 267.763C193.445 267.115 192.324 266.531 191.17 266.017C189.749 265.403 188.288 264.887 186.796 264.472C185.296 264.083 183.77 263.802 182.229 263.633C180.972 263.494 179.707 263.435 178.443 263.457C176.277 263.499 174.95 263.717 174.934 263.633C175.232 263.527 175.542 263.456 175.857 263.423C176.709 263.275 177.57 263.182 178.434 263.146C179.714 263.081 180.996 263.109 182.271 263.23C183.836 263.385 185.386 263.666 186.905 264.069C188.421 264.488 189.903 265.021 191.338 265.665C192.5 266.203 193.622 266.823 194.696 267.52C195.426 267.983 196.124 268.493 196.787 269.048C197.041 269.229 197.272 269.441 197.475 269.678Z" fill="#455A64"/>
<path d="M210.295 220.355C210.547 214.595 217.347 207.358 215.593 191.021C213.746 173.886 211.143 158.783 211.143 158.783L198.223 161.931L196.006 158.783L174.674 163.82L171.315 166.985L156.514 173.038C155.639 173.398 154.845 173.931 154.18 174.604C153.515 175.278 152.993 176.079 152.644 176.959L142.334 203.178L119.927 188.108L111.439 199.618C111.439 199.618 139.648 225.501 147.019 224.754C153.626 224.082 159.159 214.058 161.904 208.055L166.152 225.761C166.152 225.761 159.436 237.599 158.084 257.664L202.395 259.343C203.762 259.396 205.123 259.131 206.37 258.569C207.617 258.006 208.717 257.162 209.582 256.102L217.977 245.851C217.977 245.851 210.043 226.08 210.295 220.355Z" fill="#7ECA9D"/>
<path d="M205.107 161.948L210.825 159.328L233.282 139.759L241.359 105.623L255.631 111.592C255.631 111.592 254.262 137.24 252.474 146.013C250.686 154.786 214.619 183.415 214.619 183.415L205.107 161.948Z" fill="#7ECA9D"/>
<path d="M212.94 167.178C213.131 168.141 213.268 169.114 213.352 170.091C213.595 172.014 213.906 174.449 214.242 177.135C214.578 179.822 214.863 182.391 215.014 184.196C215.098 185.102 215.148 185.875 215.174 186.345C215.213 186.609 215.213 186.878 215.174 187.142C214.963 186.182 214.814 185.209 214.729 184.229C214.485 182.307 214.175 179.88 213.83 177.194C213.486 174.507 213.209 171.938 213.066 170.125C212.991 169.218 212.949 168.488 212.932 167.976C212.892 167.711 212.895 167.442 212.94 167.178Z" fill="#263238"/>
<path d="M197.609 213.025C197.458 212.895 197.317 212.752 197.19 212.597L196.056 211.304C195.049 210.137 193.638 208.509 191.926 206.51L178.426 190.559L171.004 181.736L170.912 181.627L170.988 181.509L172.642 178.629L172.843 178.906C171.869 179.108 170.954 179.158 170.115 179.335L169.871 179.393V179.142C170.324 175.582 170.711 172.635 170.962 170.528C171.097 169.537 171.206 168.748 171.29 168.16C171.313 167.876 171.363 167.595 171.441 167.321C171.447 167.602 171.43 167.882 171.391 168.16C171.332 168.756 171.256 169.546 171.156 170.545C170.929 172.652 170.61 175.582 170.224 179.175L170.005 178.99C170.845 178.789 171.81 178.73 172.734 178.529L173.145 178.436L172.944 178.806C172.432 179.729 171.894 180.695 171.332 181.694V181.467C173.607 184.17 176.134 187.151 178.779 190.282L192.211 206.301L196.233 211.187L197.307 212.53C197.425 212.684 197.527 212.85 197.609 213.025Z" fill="#263238"/>
<path d="M200.926 210.599C200.921 210.413 200.937 210.227 200.977 210.045L201.203 208.458C201.413 207.081 201.749 205.1 202.186 202.64C202.622 200.18 203.134 197.275 203.613 194.026C204.155 190.513 204.466 186.968 204.545 183.415C204.643 179.571 204.362 175.727 203.705 171.938L203.856 172.089L200.926 171.392L200.481 171.283L200.876 171.048L203.017 169.789L202.966 170.032C202.035 168.706 201.346 167.438 200.7 166.33C200.053 165.222 199.524 164.282 199.071 163.476C198.618 162.67 198.231 162.09 198.005 161.679C197.861 161.48 197.735 161.269 197.627 161.049C197.678 161.09 197.723 161.138 197.761 161.192C197.878 161.332 197.987 161.477 198.089 161.629C198.366 162.015 198.752 162.611 199.23 163.375L200.91 166.196C201.573 167.279 202.295 168.546 203.218 169.831L203.327 169.982L203.168 170.083L201.044 171.367L200.993 171.031L203.923 171.703H204.049V171.829C204.758 175.649 205.076 179.531 204.998 183.415C204.915 186.993 204.584 190.561 204.007 194.094C203.512 197.351 202.95 200.264 202.488 202.707C202.026 205.15 201.648 207.073 201.371 208.492C201.245 209.138 201.145 209.659 201.061 210.062C201.034 210.245 200.989 210.425 200.926 210.599Z" fill="#263238"/>
<path d="M203.705 219.632C203.51 219.805 203.289 219.947 203.05 220.052C202.613 220.296 201.975 220.623 201.178 221.009C197.006 223.007 192.632 224.552 188.131 225.618C187.292 225.82 186.57 225.971 186.083 226.055C185.832 226.124 185.571 226.152 185.311 226.139C186.209 225.807 187.126 225.527 188.056 225.299C189.735 224.821 192.094 224.115 194.629 223.217C197.165 222.319 199.432 221.395 201.052 220.699C201.913 220.288 202.799 219.932 203.705 219.632Z" fill="#263238"/>
<path d="M204.42 226.5C203.729 226.58 203.032 226.599 202.338 226.559C201.053 226.559 199.282 226.559 197.3 226.659C195.319 226.76 193.581 226.886 192.305 226.995C191.632 227.086 190.952 227.111 190.273 227.071C190.939 226.858 191.626 226.717 192.322 226.651C193.598 226.466 195.378 226.273 197.359 226.189C199.34 226.105 201.112 226.139 202.396 226.189C203.081 226.213 203.76 226.317 204.42 226.5Z" fill="#263238"/>
<path d="M201.187 219.809C200.934 218.289 200.821 216.749 200.851 215.208C200.74 213.672 200.774 212.129 200.952 210.599C201.21 212.119 201.322 213.659 201.288 215.2C201.404 216.736 201.37 218.279 201.187 219.809Z" fill="#263238"/>
<path d="M200.506 226.089C200.177 225.336 199.981 224.532 199.927 223.713C199.73 222.911 199.679 222.081 199.776 221.261C200.303 222.815 200.55 224.449 200.506 226.089Z" fill="#263238"/>
<path d="M205.754 258.847C205.67 258.435 205.625 258.016 205.62 257.596C205.561 256.757 205.477 255.615 205.343 254.179C205.099 251.291 204.663 247.312 204.016 242.946C203.37 238.581 202.606 234.626 202.027 231.822C201.733 230.404 201.464 229.262 201.288 228.464C201.165 228.06 201.087 227.643 201.053 227.222C201.219 227.61 201.354 228.012 201.456 228.422C201.682 229.195 201.993 230.328 202.295 231.738C202.984 234.559 203.79 238.497 204.444 242.871C205.099 247.245 205.486 251.266 205.653 254.146C205.746 255.598 205.779 256.765 205.788 257.579C205.819 258.002 205.807 258.427 205.754 258.847Z" fill="#263238"/>
<g opacity="0.3">
<path d="M169.905 179.276L170.896 179.687L169.805 182.206C169.805 182.206 186.595 202.741 191.188 206.712C196.729 211.531 196.888 212.152 196.888 212.152L171.156 181.585L172.777 178.705L169.905 179.276Z" fill="black"/>
</g>
<g opacity="0.3">
<path d="M181.971 227.155L206.687 219.448C206.832 220.167 206.777 220.913 206.527 221.603C206.276 222.293 205.841 222.901 205.268 223.36C204.104 224.259 202.757 224.892 201.322 225.215C195.37 226.894 188.192 227.936 182.063 227.155" fill="black"/>
</g>
<path d="M148.438 208.601C147.043 205.795 144.591 203.657 141.621 202.657C142.092 202.643 142.559 202.735 142.99 202.926C145.149 203.685 146.936 205.241 147.985 207.275C148.229 207.679 148.384 208.132 148.438 208.601Z" fill="#263238"/>
<path d="M157.229 185.656C157.292 185.78 157.338 185.913 157.363 186.051C157.447 186.37 157.548 186.748 157.665 187.209C157.917 188.292 158.261 189.728 158.681 191.499C159.52 195.118 160.662 200.13 161.888 205.662C163.114 211.195 164.172 216.165 164.977 219.859C165.347 221.631 165.649 223.091 165.867 224.174C165.96 224.644 166.035 225.014 166.094 225.35C166.127 225.485 166.147 225.622 166.153 225.761C165.959 225.257 165.811 224.738 165.708 224.208C165.448 223.133 165.095 221.689 164.675 219.926C163.836 216.308 162.686 211.304 161.46 205.763C160.234 200.222 159.143 195.168 158.37 191.567C158.009 189.795 157.707 188.334 157.531 187.251C157.447 186.781 157.371 186.412 157.312 186.068C157.267 185.935 157.239 185.796 157.229 185.656Z" fill="#263238"/>
<path d="M115.085 198.527C115.001 198.871 115.019 199.233 115.135 199.568C115.201 199.735 115.303 199.885 115.433 200.008C115.564 200.132 115.72 200.225 115.891 200.281C116.097 200.329 116.312 200.312 116.509 200.234C116.705 200.156 116.873 200.02 116.99 199.845C117.125 199.683 117.208 199.484 117.229 199.275C117.249 199.066 117.207 198.855 117.108 198.669C117.004 198.523 116.87 198.4 116.715 198.309C116.56 198.218 116.388 198.16 116.21 198.14C115.855 198.121 115.502 198.206 115.194 198.384C115.194 198.384 115.194 198.25 115.379 198.107C115.619 197.923 115.916 197.828 116.218 197.838C116.453 197.838 116.686 197.894 116.896 198.001C117.106 198.107 117.288 198.261 117.427 198.451C117.574 198.708 117.642 199.003 117.623 199.299C117.604 199.594 117.499 199.878 117.32 200.114C117.141 200.35 116.897 200.529 116.617 200.627C116.338 200.725 116.035 200.739 115.748 200.667C115.526 200.588 115.327 200.456 115.166 200.284C115.005 200.112 114.888 199.904 114.824 199.677C114.715 199.387 114.715 199.068 114.824 198.778C114.959 198.585 115.068 198.527 115.085 198.527Z" fill="#263238"/>
<path d="M243.24 110.375C243.24 110.375 243.307 110.249 243.55 110.182C243.719 110.159 243.891 110.17 244.055 110.215C244.22 110.26 244.373 110.337 244.507 110.442C244.923 110.743 245.204 111.195 245.288 111.701C245.312 112.031 245.225 112.358 245.041 112.632C244.857 112.906 244.586 113.11 244.272 113.213C243.975 113.336 243.648 113.372 243.331 113.316C243.014 113.259 242.72 113.113 242.484 112.893C242.309 112.698 242.19 112.46 242.138 112.203C242.087 111.946 242.105 111.68 242.19 111.433C242.459 110.593 242.929 110.341 242.954 110.375C242.767 110.738 242.613 111.118 242.492 111.508C242.44 111.7 242.437 111.902 242.486 112.095C242.535 112.287 242.632 112.464 242.77 112.608C242.955 112.762 243.179 112.862 243.417 112.898C243.655 112.933 243.899 112.903 244.121 112.81C244.347 112.739 244.543 112.596 244.681 112.404C244.819 112.212 244.891 111.98 244.885 111.743C244.828 111.334 244.626 110.958 244.314 110.686C244.113 110.489 243.848 110.373 243.567 110.358C243.366 110.375 243.256 110.45 243.24 110.375Z" fill="#263238"/>
<path d="M124.696 168.001C130.203 160.974 137.641 155.407 146.624 153.98C151.259 153.233 155.75 153.98 160.149 155.5C164.817 157.087 169.292 158.967 174.22 159.614C179.879 160.361 185.562 159.84 191.204 159.194C192.295 159.068 196.334 158.044 196.334 156.851C196.334 155.844 192.304 154.988 191.204 155.114C186.083 155.701 180.903 156.213 175.748 155.718C170.711 155.231 166.135 153.241 161.409 151.63C156.798 149.929 151.855 149.319 146.969 149.85C142.08 150.474 137.384 152.147 133.2 154.753C128.824 157.514 124.968 161.023 121.808 165.121C121.444 165.512 121.242 166.027 121.242 166.561C121.242 167.095 121.444 167.609 121.808 168.001C122.193 168.38 122.711 168.593 123.252 168.593C123.792 168.593 124.311 168.38 124.696 168.001Z" fill="#455A64"/>
<g opacity="0.3">
<path d="M124.713 168.06C130.22 161.033 137.659 155.467 146.642 154.039C151.209 153.419 155.859 153.941 160.175 155.559C164.843 157.137 169.318 159.026 174.237 159.673C179.896 160.42 185.588 159.899 191.221 159.253C192.321 159.127 196.334 158.413 196.334 157.23C196.334 156.222 192.321 155.047 191.221 155.173C186.1 155.76 180.92 156.273 175.765 155.769C170.728 155.29 166.161 153.301 161.434 151.689C156.82 149.99 151.876 149.378 146.986 149.9C142.097 150.53 137.401 152.205 133.218 154.812C128.844 157.573 124.99 161.083 121.833 165.18C121.466 165.57 121.262 166.085 121.262 166.62C121.262 167.155 121.466 167.67 121.833 168.06C122.217 168.439 122.734 168.651 123.273 168.651C123.812 168.651 124.33 168.439 124.713 168.06Z" fill="black"/>
</g>
<path d="M204.546 118.443C206.46 117.36 206.838 114.447 205.537 112.659C204.833 111.805 203.89 111.182 202.829 110.871C201.767 110.56 200.637 110.574 199.584 110.912C199.81 110.275 199.824 109.582 199.625 108.936C199.425 108.29 199.022 107.726 198.476 107.328C197.362 106.557 196.027 106.17 194.673 106.228C192.868 106.228 190.803 106.79 190.064 108.436C189.778 107.361 188.561 106.815 187.453 106.757C185.965 106.706 184.51 107.205 183.367 108.159C182.224 109.113 181.473 110.455 181.257 111.928C180.264 111.362 179.12 111.118 177.983 111.231C177.417 111.302 176.891 111.558 176.485 111.959C176.08 112.359 175.818 112.883 175.741 113.448C175.361 113.036 174.884 112.725 174.353 112.545C173.822 112.364 173.255 112.32 172.702 112.415C171.887 112.438 171.099 112.711 170.444 113.196C170.123 113.444 169.885 113.785 169.762 114.172C169.639 114.558 169.637 114.974 169.755 115.362C168.982 115.23 168.188 115.39 167.526 115.811C166.864 116.231 166.382 116.882 166.173 117.638C165.964 118.394 166.043 119.2 166.395 119.901C166.746 120.602 167.346 121.148 168.076 121.432C167.546 121.868 167.135 122.433 166.883 123.072C166.631 123.711 166.546 124.404 166.636 125.085C166.726 125.767 166.988 126.414 167.397 126.966C167.806 127.518 168.349 127.956 168.975 128.24C168.822 128.308 168.686 128.409 168.578 128.536C168.47 128.664 168.393 128.814 168.351 128.976C168.31 129.137 168.306 129.307 168.34 129.47C168.374 129.634 168.444 129.787 168.546 129.92C168.949 130.474 168.681 130.507 169.386 130.49C169.52 132.841 169.705 134.646 169.839 136.997C169.932 138.516 169.898 140.506 170.452 141.917C170.868 142.706 171.436 143.406 172.123 143.975C172.81 144.544 173.603 144.972 174.457 145.233L202.455 134.722C203.384 133.735 204.014 132.506 204.273 131.176C204.531 129.846 204.408 128.47 203.916 127.208C203.827 127.095 203.764 126.964 203.732 126.824C203.701 126.683 203.702 126.538 203.735 126.398C203.768 126.258 203.833 126.127 203.924 126.016C204.015 125.905 204.13 125.816 204.26 125.755C204.828 125.319 205.301 124.771 205.65 124.147C205.999 123.522 206.218 122.832 206.292 122.12C206.345 121.408 206.212 120.695 205.906 120.05C205.6 119.406 205.131 118.852 204.546 118.443Z" fill="#263238"/>
<path d="M202.026 128.005C201.397 122.338 195.016 116.948 189.433 117.813L171.266 122.128L171.476 125.184L176.11 166.322L195.747 178.025L194.596 157.8C194.596 157.8 201.766 156.255 202.807 146.701C203.328 141.992 202.715 134.268 202.026 128.005Z" fill="#FFBE9D"/>
<path d="M198.525 136.241C198.541 136.556 198.435 136.865 198.228 137.103C198.022 137.341 197.731 137.49 197.417 137.517C197.112 137.548 196.807 137.456 196.57 137.263C196.332 137.069 196.181 136.79 196.149 136.485C196.128 136.168 196.233 135.856 196.44 135.615C196.647 135.375 196.941 135.226 197.257 135.2C197.563 135.172 197.868 135.266 198.105 135.46C198.342 135.655 198.493 135.936 198.525 136.241Z" fill="#263238"/>
<path d="M200.541 132.069C200.398 132.236 199.441 131.598 198.14 131.666C196.839 131.733 195.915 132.43 195.772 132.278C195.63 132.127 195.831 131.917 196.234 131.59C196.78 131.176 197.439 130.939 198.123 130.91C198.804 130.869 199.479 131.052 200.046 131.43C200.457 131.716 200.608 132.001 200.541 132.069Z" fill="#263238"/>
<path d="M187.124 136.602C187.145 136.917 187.042 137.227 186.836 137.466C186.63 137.704 186.339 137.853 186.025 137.878C185.871 137.898 185.715 137.887 185.566 137.846C185.417 137.804 185.277 137.733 185.156 137.637C185.035 137.541 184.934 137.421 184.86 137.285C184.785 137.149 184.739 137 184.723 136.846C184.702 136.53 184.806 136.219 185.011 135.979C185.217 135.739 185.508 135.589 185.823 135.561C185.977 135.541 186.134 135.553 186.284 135.595C186.434 135.637 186.573 135.708 186.695 135.806C186.816 135.903 186.917 136.023 186.991 136.16C187.064 136.297 187.11 136.447 187.124 136.602Z" fill="#263238"/>
<path d="M187.797 133.202C187.654 133.37 186.706 132.732 185.404 132.799C184.103 132.866 183.18 133.563 183.029 133.403C182.877 133.244 183.096 133.051 183.499 132.723C184.038 132.306 184.693 132.066 185.374 132.035C186.055 132.005 186.728 132.187 187.302 132.555C187.755 132.849 187.864 133.126 187.797 133.202Z" fill="#263238"/>
<path d="M192.943 142.403C193.619 142.15 194.324 141.987 195.042 141.917C195.37 141.866 195.68 141.782 195.731 141.556C195.74 141.209 195.647 140.867 195.462 140.573L194.354 138.055C192.809 134.495 191.676 131.565 191.835 131.506C191.995 131.448 193.346 134.277 194.891 137.836C195.261 138.676 195.613 139.515 195.957 140.355C196.183 140.749 196.266 141.208 196.192 141.656C196.15 141.778 196.08 141.888 195.989 141.978C195.897 142.068 195.786 142.136 195.664 142.177C195.484 142.234 195.298 142.268 195.11 142.278C194.395 142.406 193.668 142.448 192.943 142.403Z" fill="#263238"/>
<path d="M194.596 157.834C190.152 158.114 185.718 157.148 181.793 155.047C181.793 155.047 185.655 162.091 195.058 160.756L194.596 157.834Z" fill="#EB996E"/>
<path d="M192.548 145.577C192.285 145.276 191.949 145.048 191.573 144.913C191.197 144.778 190.793 144.74 190.399 144.804C190.115 144.839 189.842 144.932 189.595 145.076C189.348 145.221 189.133 145.414 188.963 145.644C188.804 145.873 188.719 146.145 188.719 146.424C188.719 146.704 188.804 146.976 188.963 147.205C189.182 147.432 189.465 147.586 189.773 147.649C190.082 147.712 190.403 147.68 190.693 147.558C191.3 147.312 191.851 146.947 192.313 146.483C192.454 146.372 192.574 146.235 192.666 146.08C192.711 146.007 192.735 145.923 192.735 145.837C192.735 145.751 192.711 145.666 192.666 145.593" fill="#EB996E"/>
<path d="M189.156 143.486C189.366 143.486 189.442 144.88 190.701 145.837C191.96 146.794 193.455 146.559 193.471 146.752C193.488 146.945 193.152 147.046 192.514 147.096C191.688 147.147 190.87 146.903 190.206 146.408C189.566 145.929 189.133 145.223 188.997 144.435C188.921 143.839 189.055 143.486 189.156 143.486Z" fill="#263238"/>
<path d="M187.964 128.509C187.846 128.87 186.545 128.769 185.025 129.021C183.506 129.273 182.289 129.76 182.07 129.449C181.969 129.298 182.171 128.954 182.65 128.61C183.296 128.159 184.035 127.861 184.813 127.737C185.591 127.614 186.387 127.668 187.141 127.896C187.754 128.072 188.006 128.341 187.964 128.509Z" fill="#263238"/>
<path d="M199.878 128.307C199.66 128.618 198.745 128.307 197.67 128.391C196.595 128.475 195.689 128.685 195.462 128.391C195.361 128.24 195.462 127.938 195.873 127.636C196.393 127.271 197.01 127.072 197.645 127.065C198.279 127.047 198.904 127.226 199.433 127.577C199.828 127.862 199.97 128.156 199.878 128.307Z" fill="#263238"/>
<path d="M197.593 117.234L197.005 116.99C197.921 114.942 196.376 112.314 194.193 111.802C193.085 111.612 191.946 111.784 190.944 112.294C189.943 112.804 189.133 113.624 188.635 114.631C188.132 113.752 187.347 113.069 186.406 112.692C185.466 112.316 184.426 112.268 183.455 112.558C181.869 113.086 180.735 114.446 179.644 115.723C179.4 116.008 179.09 116.319 178.712 116.277C178.443 116.205 178.203 116.053 178.023 115.84C177.078 115.06 175.92 114.583 174.699 114.471C173.479 114.359 172.253 114.616 171.181 115.21C170.125 115.83 169.205 116.656 168.473 117.638C167.742 118.62 167.216 119.738 166.925 120.928C166.62 121.889 166.568 122.912 166.774 123.9C166.88 124.389 167.114 124.842 167.452 125.212C167.789 125.582 168.219 125.856 168.696 126.007C168.27 126.606 167.987 127.294 167.869 128.02C167.751 128.745 167.802 129.488 168.017 130.19C168.232 130.893 168.606 131.537 169.109 132.072C169.613 132.607 170.233 133.02 170.921 133.277C171.022 133.597 171.16 133.905 171.332 134.192C171.173 135.917 171.114 137.649 171.156 139.381C171.131 140.129 171.286 140.872 171.609 141.547C171.782 141.877 172.054 142.144 172.387 142.31C172.72 142.476 173.098 142.532 173.465 142.47C174.246 142.252 175.337 141.849 175.572 141.068C175.983 139.675 175.53 137.752 175.639 136.3C176.448 136.179 177.205 135.829 177.82 135.291C178.435 134.752 178.883 134.048 179.109 133.263C179.336 132.477 179.332 131.643 179.097 130.86C178.863 130.076 178.409 129.377 177.788 128.845C178.466 129.127 179.201 129.245 179.933 129.188C180.665 129.13 181.373 128.9 181.999 128.515C182.625 128.131 183.15 127.603 183.532 126.976C183.913 126.349 184.14 125.639 184.194 124.907C184.864 125.533 185.66 126.007 186.529 126.296C187.399 126.586 188.32 126.685 189.231 126.586C190.107 126.539 190.93 126.15 191.523 125.503C191.804 125.169 191.953 124.743 191.941 124.307C191.928 123.87 191.756 123.453 191.456 123.136C192.292 123.509 193.219 123.629 194.122 123.479C195.025 123.33 195.864 122.919 196.535 122.296C197.184 121.646 197.629 120.821 197.816 119.922C198.004 119.023 197.927 118.089 197.593 117.234Z" fill="#263238"/>
<path d="M173.91 137.786C173.768 137.727 168.277 136.291 168.63 141.857C168.982 147.424 174.464 145.938 174.464 145.778C174.464 145.619 173.91 137.786 173.91 137.786Z" fill="#FFBE9D"/>
<path d="M172.642 143.772C172.642 143.772 172.549 143.847 172.39 143.931C172.166 144.045 171.907 144.066 171.668 143.99C171.296 143.781 170.985 143.478 170.767 143.111C170.549 142.744 170.431 142.326 170.425 141.899C170.385 141.424 170.448 140.946 170.61 140.497C170.652 140.321 170.736 140.157 170.854 140.02C170.972 139.883 171.122 139.776 171.29 139.708C171.4 139.671 171.52 139.674 171.627 139.717C171.735 139.76 171.824 139.841 171.878 139.943C171.962 140.094 171.937 140.204 171.962 140.212C171.987 140.22 172.079 140.111 172.02 139.885C171.98 139.748 171.894 139.63 171.777 139.549C171.699 139.496 171.611 139.459 171.519 139.441C171.427 139.422 171.332 139.422 171.24 139.44C171.014 139.498 170.807 139.614 170.64 139.776C170.472 139.937 170.349 140.14 170.283 140.363C170.074 140.859 169.993 141.398 170.048 141.933C170.048 142.431 170.195 142.917 170.472 143.331C170.748 143.745 171.141 144.068 171.601 144.259C171.747 144.285 171.897 144.281 172.042 144.247C172.186 144.212 172.322 144.147 172.44 144.057C172.642 143.906 172.642 143.78 172.642 143.772Z" fill="#EB996E"/>
<path d="M183.918 123.967C183.968 123.972 184.019 123.972 184.069 123.967L184.514 124.017C185.075 124.06 185.639 124.031 186.193 123.933C186.596 123.855 186.988 123.728 187.36 123.555C187.802 123.357 188.198 123.071 188.527 122.716C188.898 122.293 189.161 121.786 189.291 121.238C189.437 120.62 189.354 119.969 189.056 119.408L188.905 119.551C190.065 120.293 191.435 120.637 192.809 120.533C193.558 120.487 194.293 120.302 194.975 119.987C195.332 119.821 195.666 119.606 195.965 119.349C196.27 119.07 196.494 118.713 196.612 118.317C196.73 117.858 196.745 117.379 196.654 116.915C196.58 116.467 196.471 116.026 196.326 115.597C196.194 115.173 196.005 114.769 195.764 114.396C195.645 114.204 195.484 114.041 195.294 113.919C195.103 113.797 194.888 113.719 194.664 113.691V113.917C195.488 114.128 196.358 114.051 197.132 113.699C197.843 113.396 198.455 112.899 198.895 112.264C199.278 111.706 199.491 111.05 199.508 110.375C199.513 109.669 199.332 108.974 198.985 108.36C198.637 107.746 198.134 107.233 197.527 106.874C197.267 106.72 196.983 106.612 196.687 106.555C196.951 106.67 197.209 106.799 197.46 106.941C198.14 107.371 198.673 107.997 198.988 108.737C199.212 109.254 199.32 109.812 199.307 110.375C199.293 111.026 199.082 111.658 198.702 112.188C198.28 112.785 197.698 113.25 197.023 113.531C196.292 113.856 195.472 113.924 194.698 113.724L194.656 113.959C194.846 113.986 195.028 114.054 195.187 114.16C195.347 114.266 195.481 114.407 195.579 114.572C195.809 114.921 195.985 115.304 196.1 115.706C196.435 116.521 196.534 117.414 196.385 118.283C196.26 118.629 196.061 118.944 195.801 119.205C195.542 119.467 195.228 119.668 194.882 119.794C194.226 120.097 193.521 120.279 192.8 120.332C191.477 120.436 190.156 120.112 189.031 119.408L188.67 119.173L188.88 119.551C189.16 120.063 189.24 120.661 189.106 121.23C188.989 121.749 188.75 122.232 188.41 122.64C188.101 122.992 187.724 123.278 187.301 123.48C186.944 123.656 186.566 123.785 186.176 123.866C185.624 123.98 185.061 124.028 184.497 124.009C184.305 123.983 184.112 123.969 183.918 123.967Z" fill="white"/>
<path d="M198.668 121.138C198.668 121.138 198.777 121.213 198.995 121.272C199.396 121.374 199.815 121.379 200.218 121.288C200.621 121.196 200.996 121.009 201.313 120.743C201.433 120.637 201.53 120.509 201.599 120.364C201.669 120.22 201.708 120.063 201.716 119.904C201.723 119.733 201.682 119.563 201.597 119.415C201.513 119.266 201.388 119.145 201.237 119.064L201.153 119.299H201.237C201.779 119.424 202.343 119.427 202.887 119.31C203.431 119.192 203.942 118.956 204.385 118.619C204.652 118.417 204.887 118.177 205.082 117.905C205.16 117.811 205.22 117.703 205.258 117.586C204.959 117.91 204.634 118.208 204.284 118.476C203.854 118.775 203.366 118.981 202.852 119.082C202.337 119.184 201.808 119.177 201.296 119.064H201.22L200.053 118.804L201.136 119.291C201.248 119.354 201.34 119.447 201.4 119.56C201.461 119.673 201.489 119.801 201.48 119.929C201.461 120.182 201.347 120.419 201.161 120.592C200.82 120.9 200.398 121.104 199.944 121.18C199.519 121.228 199.089 121.214 198.668 121.138Z" fill="white"/>
<path d="M243.794 106.32L244.407 102.844C244.407 102.844 242.376 95.2882 242.586 94.1968C242.795 93.1054 243.022 87.9255 243.022 87.9255L248.244 82.0487C248.612 82.0348 248.976 82.1303 249.29 82.3231C249.603 82.5158 249.853 82.7972 250.007 83.1317C250.007 83.1317 252.391 82.9386 252.929 84.5505C253.134 84.4405 253.363 84.3845 253.596 84.3879C253.828 84.3913 254.056 84.4539 254.258 84.5699C254.46 84.6858 254.628 84.8513 254.748 85.0506C254.868 85.25 254.936 85.4766 254.944 85.7091C255.051 86.2054 255.099 86.7126 255.086 87.2202C255.43 87.2958 257.412 87.7659 257.429 88.7482C257.368 90.259 257.085 91.7526 256.589 93.181C256.485 93.4349 256.321 93.6595 256.11 93.8351C255.899 94.0107 255.649 94.132 255.38 94.1884L254.792 96.8666C254.792 96.8666 254.28 101.266 253.298 103.314L252.551 104.532L252.324 110.014L243.794 106.32Z" fill="#FFBE9D"/>
<path d="M251.56 86.8091C251.276 85.4059 250.704 84.0767 249.881 82.9053L247.883 84.1814C248.115 84.8609 248.396 85.523 248.722 86.1627C248.861 86.5404 249.085 86.8813 249.376 87.1593C249.667 87.4372 250.018 87.6448 250.401 87.7662C250.846 87.8753 251.417 87.7662 251.56 87.3296C251.602 87.1587 251.602 86.9801 251.56 86.8091Z" fill="#FFBE9D"/>
<path d="M247.891 84.1814C247.9 84.3224 247.931 84.4612 247.983 84.5927C248.102 84.9546 248.245 85.3081 248.411 85.6506C248.512 85.8772 248.613 86.1207 248.73 86.3809C248.858 86.6598 249.028 86.9175 249.234 87.1449C249.467 87.404 249.754 87.6101 250.073 87.7494C250.25 87.8244 250.44 87.8631 250.632 87.8631C250.824 87.8631 251.013 87.8244 251.19 87.7494C251.284 87.7104 251.37 87.6522 251.441 87.5785C251.511 87.5048 251.566 87.4172 251.601 87.3212C251.647 87.1365 251.647 86.9434 251.601 86.7587C251.548 86.4231 251.469 86.092 251.366 85.7681C251.198 85.2264 250.982 84.701 250.72 84.1981C250.493 83.7616 250.283 83.4342 250.141 83.2075C250.067 83.0858 249.982 82.9707 249.889 82.8633C249.944 82.9938 250.008 83.1201 250.082 83.2411C250.216 83.4761 250.401 83.812 250.611 84.2485C250.859 84.7535 251.064 85.2787 251.224 85.8185C251.313 86.1363 251.386 86.4586 251.442 86.7839C251.48 86.9412 251.48 87.1052 251.442 87.2625C251.415 87.3376 251.373 87.4063 251.318 87.4642C251.263 87.522 251.197 87.5677 251.123 87.5983C250.968 87.6646 250.801 87.6987 250.632 87.6987C250.463 87.6987 250.296 87.6646 250.141 87.5983C249.843 87.4732 249.576 87.284 249.36 87.0442C249.158 86.8256 248.989 86.5797 248.856 86.3138C248.739 86.0703 248.638 85.8185 248.529 85.6002C248.351 85.2648 248.191 84.9201 248.05 84.5675C248.007 84.4348 247.954 84.3056 247.891 84.1814Z" fill="#EB996E"/>
<path d="M251.073 87.7072C251.073 87.7072 251.073 87.7072 251.073 87.8248C251.064 87.9393 251.064 88.0544 251.073 88.169C251.102 88.5895 251.213 89.0002 251.4 89.3779C251.687 89.9367 252.105 90.4178 252.618 90.7799C252.773 90.8936 252.95 90.9733 253.138 91.0138C253.326 91.0543 253.521 91.0547 253.709 91.015C253.916 90.9761 254.103 90.8662 254.238 90.7044C254.372 90.5314 254.446 90.319 254.448 90.0999C254.425 89.7052 254.36 89.314 254.255 88.933C254.162 88.5636 254.062 88.2109 253.961 87.8751L253.415 86.1121C253.264 85.6168 253.147 85.2054 253.079 84.9284C253.051 84.7756 253.006 84.6264 252.945 84.4834C252.951 84.6365 252.974 84.7885 253.012 84.9367C253.071 85.2306 253.163 85.642 253.306 86.1457C253.449 86.6494 253.625 87.2623 253.818 87.9171C253.911 88.2529 254.003 88.6055 254.095 88.9665C254.194 89.3344 254.256 89.7113 254.28 90.0915C254.284 90.2738 254.224 90.4518 254.112 90.5952C253.998 90.7281 253.845 90.822 253.675 90.8639C253.507 90.8955 253.335 90.8933 253.167 90.8572C253 90.8212 252.842 90.7521 252.702 90.654C252.206 90.331 251.792 89.897 251.493 89.3863C251.298 89.0266 251.173 88.6336 251.123 88.2277C251.081 87.9087 251.09 87.7072 251.073 87.7072Z" fill="#EB996E"/>
<path d="M252.349 90.5701C252.349 90.5701 252.349 90.5701 252.299 90.7044C252.248 90.8387 252.248 90.9227 252.215 91.099C252.137 91.5912 252.137 92.0927 252.215 92.5849C252.313 93.3314 252.659 94.0232 253.197 94.5495C253.526 94.8682 253.965 95.0485 254.423 95.0532C254.547 95.051 254.67 95.0239 254.784 94.9735C254.898 94.923 255.001 94.8502 255.086 94.7594C255.249 94.5642 255.348 94.3241 255.371 94.0709C255.436 93.171 255.436 92.2676 255.371 91.3676C255.304 90.5281 255.245 89.8145 255.195 89.1848C255.145 88.5552 255.128 88.0598 255.111 87.7156C255.122 87.5339 255.122 87.3517 255.111 87.1699C255.111 87.1699 255.111 87.2203 255.111 87.3126C255.111 87.405 255.111 87.5393 255.111 87.7156C255.111 88.0598 255.111 88.5552 255.111 89.1932C255.111 89.8313 255.203 90.5617 255.254 91.3844C255.313 92.2705 255.313 93.1596 255.254 94.0458C255.234 94.2644 255.15 94.4721 255.01 94.6418C254.942 94.7193 254.858 94.7817 254.764 94.825C254.67 94.8684 254.568 94.8918 254.465 94.8937C254.048 94.8837 253.65 94.7191 253.348 94.4319C252.827 93.9328 252.487 93.2739 252.383 92.5598C252.255 91.9036 252.244 91.2302 252.349 90.5701Z" fill="#EB996E"/>
<path d="M199.415 87.808L199.499 87.5981L199.625 87.7828C199.725 87.9265 199.865 88.0375 200.028 88.1019L200.23 88.1858L200.053 88.3118C199.904 88.4081 199.79 88.5492 199.726 88.7147L199.642 88.9162L199.524 88.7315C199.422 88.5898 199.283 88.4793 199.121 88.4125L198.92 88.3285L199.096 88.2026C199.238 88.1038 199.348 87.967 199.415 87.808Z" fill="#E0E0E0"/>
<path d="M255.33 64.6201L255.472 64.2759L255.691 64.5781C255.861 64.8262 256.1 65.0189 256.379 65.1322L256.723 65.2749L256.421 65.4932C256.171 65.6612 255.977 65.9013 255.867 66.1816L255.724 66.5258L255.506 66.2236C255.336 65.9755 255.096 65.7828 254.817 65.6695L254.465 65.5268L254.775 65.3085C255.021 65.1358 255.213 64.8972 255.33 64.6201Z" fill="#E0E0E0"/>
<path d="M252.87 52.0856L253.105 51.5063L253.474 52.0185C253.761 52.4362 254.163 52.7603 254.633 52.9504L255.212 53.1854L254.7 53.5548C254.284 53.8432 253.961 54.2455 253.768 54.7134L253.533 55.2927L253.172 54.7805C252.881 54.3643 252.476 54.0407 252.005 53.8487L251.426 53.6136L251.938 53.2526C252.354 52.9612 252.678 52.5561 252.87 52.0856Z" fill="#E0E0E0"/>
<path d="M224.552 104.204L224.342 103.608L224.955 103.759C225.447 103.876 225.961 103.853 226.441 103.692L227.037 103.482L226.894 104.095C226.769 104.586 226.792 105.104 226.961 105.581L227.163 106.177L226.55 106.026C226.058 105.91 225.543 105.933 225.064 106.093L224.468 106.303L224.619 105.69C224.735 105.199 224.712 104.684 224.552 104.204Z" fill="#E0E0E0"/>
<path d="M214.359 82.6703C213.293 83.9548 212.193 85.1889 211.161 86.5154C210.703 87.0684 210.37 87.7147 210.188 88.4092C210.005 89.1038 209.976 89.8299 210.103 90.5368C210.264 91.2549 210.571 91.9323 211.004 92.5273C211.437 93.1222 211.988 93.622 212.622 93.9957C216.542 96.6822 221.344 98.9489 226.214 98.3529C229.523 97.8844 232.528 96.1659 234.609 93.5507C234.779 93.3361 234.859 93.0634 234.831 92.7909C234.803 92.5184 234.669 92.2676 234.459 92.0922C234.248 91.9168 233.978 91.8307 233.705 91.8522C233.431 91.8738 233.178 92.0012 232.997 92.2074C231.435 94.1931 229.239 95.5829 226.776 96.1449C224.651 96.514 222.468 96.3378 220.429 95.6328C218.476 94.9862 216.614 94.0918 214.888 92.9714C213.973 92.5182 213.166 91.8741 212.521 91.0825C212.222 90.5856 212.086 90.0081 212.131 89.4303C212.177 88.8525 212.401 88.3031 212.773 87.8586C213.805 86.5489 214.914 85.34 215.98 84.0135C216.158 83.7987 216.243 83.5218 216.217 83.244C216.191 82.9661 216.056 82.7099 215.841 82.5317C215.626 82.3536 215.35 82.2681 215.072 82.2941C214.794 82.3201 214.538 82.4554 214.359 82.6703Z" fill="#7ECA9D"/>
<path d="M236.188 59.5074C237.195 58.2984 238.194 57.0895 239.202 55.889C239.463 55.5213 239.804 55.2176 240.2 55.0009C240.595 54.7843 241.035 54.6602 241.485 54.638C242.728 54.638 243.509 55.4776 244.306 56.3171C247.127 59.2219 249.746 62.9495 250.032 67.1136C250.156 69.9111 249.2 72.6493 247.362 74.7618C247.192 74.9764 247.112 75.2491 247.14 75.5216C247.168 75.7942 247.302 76.0449 247.512 76.2203C247.723 76.3957 247.994 76.4818 248.267 76.4603C248.54 76.4387 248.794 76.3113 248.974 76.1051C250.929 73.8505 252.065 71.0015 252.198 68.0203C252.192 65.4363 251.512 62.8985 250.225 60.6575C249.061 58.5737 247.617 56.6587 245.935 54.9655C245.101 53.9037 243.975 53.1098 242.694 52.6819C241.938 52.4937 241.148 52.4908 240.391 52.6735C239.634 52.8562 238.932 53.2191 238.345 53.7313C236.98 55.1067 235.72 56.5828 234.576 58.1473C234.487 58.2532 234.42 58.3754 234.379 58.5072C234.337 58.6389 234.322 58.7776 234.334 58.9152C234.346 59.0528 234.385 59.1866 234.449 59.3091C234.513 59.4316 234.6 59.5404 234.706 59.6291C234.812 59.7179 234.934 59.7849 235.066 59.8264C235.198 59.8679 235.336 59.883 235.474 59.8709C235.611 59.8589 235.745 59.8198 235.868 59.756C235.99 59.6921 236.099 59.6048 236.188 59.499V59.5074Z" fill="#7ECA9D"/>
<path d="M251.257 89.042L249.049 90.7211V90.7882H248.991L247.748 93.3069C247.748 93.3069 251.618 97.0092 253.264 101.031L256.538 97.11L256.622 97.0008L259.896 93.0802C255.598 92.1903 251.257 89.042 251.257 89.042Z" fill="#7ECA9D"/>
<path d="M252.207 88.5468L247.404 94.306C247.257 94.484 247.076 94.631 246.871 94.7388C246.667 94.8465 246.443 94.9128 246.213 94.9339C245.983 94.955 245.751 94.9304 245.53 94.8615C245.31 94.7927 245.105 94.6809 244.928 94.5327C244.744 94.3849 244.591 94.2014 244.48 93.9933C244.368 93.7852 244.3 93.5568 244.279 93.3216C244.257 93.0864 244.284 92.8494 244.357 92.6248C244.429 92.4001 244.546 92.1924 244.701 92.0141L249.503 86.2548C249.651 86.0769 249.832 85.9298 250.036 85.8221C250.241 85.7143 250.464 85.648 250.695 85.6269C250.925 85.6059 251.157 85.6305 251.377 85.6993C251.598 85.7682 251.803 85.8799 251.98 86.0282C252.164 86.176 252.316 86.3594 252.428 86.5675C252.54 86.7756 252.608 87.0041 252.629 87.2392C252.65 87.4744 252.624 87.7114 252.551 87.9361C252.479 88.1608 252.361 88.3685 252.207 88.5468Z" fill="#7ECA9D"/>
<path d="M232.25 53.6978L220.916 67.3151L220.311 68.0371L209.582 80.8904C209.775 81.2095 235.423 104.851 247.47 89.4537C260.483 74.787 232.611 53.8405 232.25 53.6978Z" fill="#7ECA9D"/>
<path d="M232.249 53.6978C232.346 53.7415 232.436 53.798 232.518 53.8657C232.694 53.9832 232.946 54.1595 233.265 54.4114C233.92 54.8983 234.86 55.6455 236.035 56.6613C239.358 59.5113 242.387 62.6865 245.077 66.1397C246.946 68.5309 248.496 71.1556 249.686 73.9474C251.149 77.1654 251.486 80.7821 250.643 84.215C250.121 86.0477 249.204 87.744 247.957 89.1851C246.775 90.7767 245.292 92.1203 243.591 93.1393C241.79 94.1494 239.777 94.7244 237.714 94.8184C235.607 94.9134 233.497 94.684 231.46 94.1384C227.132 92.9077 223.018 91.0221 219.261 88.547C217.439 87.3885 215.71 86.1711 214.065 84.9202C213.225 84.2906 212.453 83.6525 211.689 83.0145L210.547 82.0406C210.169 81.6964 209.833 81.4277 209.43 81.008L209.338 80.9072L209.447 80.7729C216.163 72.7553 221.864 65.9718 225.885 61.1697L230.57 55.6287L231.812 54.1763L232.14 53.8153C232.172 53.7727 232.209 53.7334 232.249 53.6978C232.221 53.7491 232.187 53.7971 232.148 53.8405L231.829 54.2351L230.612 55.7462L226.011 61.3627L209.758 80.9912L209.623 80.8568L209.774 80.7645L209.825 80.8149L209.959 80.9324L210.228 81.1843L210.774 81.6628L211.94 82.6703C212.713 83.3083 213.502 83.9296 214.316 84.5508C215.953 85.7933 217.675 87.0023 219.488 88.1524C223.212 90.6056 227.289 92.4768 231.577 93.7018C233.571 94.2354 235.635 94.4619 237.698 94.3734C239.692 94.2768 241.638 93.7193 243.381 92.7447C245.038 91.7501 246.486 90.4444 247.646 88.8996C248.859 87.5026 249.753 85.8582 250.265 84.0807C251.091 80.7318 250.772 77.2029 249.359 74.0566C248.191 71.2986 246.673 68.7026 244.842 66.3328C242.18 62.8748 239.195 59.6785 235.926 56.7873C234.768 55.805 233.852 54.9655 233.223 54.4785L232.501 53.8992L232.249 53.6978Z" fill="#263238"/>
<g opacity="0.3">
<path d="M232.25 53.6978C233.929 55.0746 235.516 56.3087 237.002 57.6604C247.034 66.7694 253.499 77.0789 249.88 85.8269L247.11 90.0246C247.11 90.0246 250.031 79.2953 244.591 71.5548C239.151 63.8142 231.662 55.0074 231.662 55.0074L232.25 53.6978Z" fill="black"/>
</g>
<path d="M266.789 90.9143L252.642 107.856C252.091 107.397 251.636 106.834 251.303 106.199C250.97 105.564 250.765 104.87 250.7 104.156C250.635 103.441 250.712 102.721 250.926 102.037C251.139 101.352 251.486 100.717 251.946 100.166L259.115 91.6111C259.574 91.0601 260.137 90.6049 260.772 90.2716C261.407 89.9383 262.102 89.7335 262.816 89.6687C263.53 89.604 264.25 89.6807 264.935 89.8944C265.619 90.1082 266.255 90.4547 266.805 90.9143H266.789Z" fill="#7ECA9D"/>
<path d="M268.898 87.9518L249.912 110.74L260.877 119.875L279.863 97.0875L268.898 87.9518Z" fill="#263238"/>
<path d="M268.906 93.7114L255.477 109.83L260.849 114.307L274.279 98.1879L268.906 93.7114Z" fill="#455A64"/>
<path d="M227.892 72.7297L233.181 74.0058L237.236 70.3706L237.656 75.794L242.374 78.5225L237.337 80.6046L236.203 85.9357L232.669 81.7883L227.254 82.3508L230.1 77.7082L227.892 72.7297Z" fill="white"/>
<path d="M241.703 92.0056L241.635 92.0644L241.442 92.2155C241.178 92.4029 240.897 92.5659 240.603 92.7024C240.151 92.9168 239.674 93.0747 239.184 93.1726C238.538 93.3051 237.879 93.3643 237.219 93.3489C236.419 93.3373 235.621 93.2558 234.835 93.1054L233.517 92.8535C233.072 92.7528 232.619 92.6269 232.149 92.5177C230.129 91.9574 228.163 91.2213 226.272 90.3181C224.374 89.4195 222.532 88.4074 220.756 87.2874C219.077 86.2632 217.667 85.2725 216.466 84.4414C215.265 83.6102 214.308 82.8966 213.654 82.4097L212.94 81.8304L212.738 81.6877L212.68 81.6289L212.747 81.6793L212.94 81.8304L213.704 82.3761C214.376 82.8546 215.341 83.5431 216.542 84.3742C217.742 85.2053 219.186 86.1876 220.832 87.2034C222.598 88.3177 224.429 89.3269 226.314 90.2258C228.206 91.1239 230.172 91.857 232.191 92.417C232.661 92.5345 233.114 92.6604 233.559 92.7612L234.869 93.0215C235.653 93.1672 236.447 93.2487 237.245 93.2649C237.901 93.2857 238.557 93.2322 239.201 93.1054C239.687 93.0112 240.161 92.859 240.611 92.6521C240.904 92.5204 241.185 92.3631 241.451 92.1819L241.652 92.0392L241.703 92.0056Z" fill="white"/>
<path d="M245.195 92.6016C245.148 92.7199 245.117 92.8442 245.103 92.971C245.094 93.1277 245.12 93.2846 245.179 93.4299C245.239 93.5752 245.33 93.7052 245.447 93.8105C245.68 94.0092 245.952 94.1578 246.245 94.2471C246.463 94.3226 246.606 94.3646 246.606 94.373C246.474 94.3722 246.343 94.3495 246.219 94.3058C245.91 94.2306 245.622 94.0839 245.38 93.8777C245.267 93.7696 245.178 93.639 245.119 93.4944C245.059 93.3498 245.031 93.1944 245.036 93.0381C245.048 92.9406 245.079 92.8465 245.128 92.7611L245.195 92.6016Z" fill="white"/>
<path d="M252.776 100.116C252.776 100.116 252.717 100.191 252.616 100.334C252.465 100.528 252.327 100.733 252.205 100.947C251.793 101.653 251.544 102.441 251.475 103.256C251.416 104.071 251.533 104.89 251.819 105.657C251.909 105.887 252.012 106.111 252.13 106.328C252.177 106.405 252.216 106.487 252.247 106.572L252.205 106.521L252.096 106.345C251.97 106.131 251.858 105.91 251.76 105.682C251.449 104.913 251.32 104.083 251.382 103.256C251.474 102.174 251.893 101.146 252.583 100.309L252.726 100.158C252.726 100.158 252.776 100.107 252.776 100.116Z" fill="white"/>
<path d="M248.15 94.3143C249.125 93.36 249.897 92.2175 250.417 90.9562C250.671 90.3285 250.735 89.6403 250.602 88.9764C250.47 88.3125 250.145 87.702 249.67 87.2202L243.793 93.9365L250.375 102.525C252.281 99.2508 250.719 95.3637 248.15 94.3143Z" fill="#FFBE9D"/>
<path d="M251.56 101.14C251.56 101.14 251.56 101.089 251.56 100.989C251.56 100.888 251.627 100.745 251.652 100.544C251.745 99.9737 251.745 99.3926 251.652 98.8226C251.51 97.9483 251.18 97.1151 250.687 96.3796C250.069 95.4397 249.195 94.6967 248.168 94.2387V94.3647C248.651 93.8474 249.105 93.3036 249.528 92.736C249.991 92.127 250.338 91.4384 250.552 90.7043C250.707 90.0671 250.707 89.4021 250.552 88.7649C250.422 88.1553 250.102 87.6027 249.637 87.1866L249.579 87.1362L249.528 87.195L245.331 92.0643L244.13 93.4748L243.811 93.8609C243.735 93.9533 243.702 93.9953 243.71 94.0037L243.828 93.8777L244.164 93.5167L245.406 92.1231L249.646 87.3041H249.537C249.965 87.7028 250.259 88.2252 250.376 88.7985C250.51 89.4119 250.493 90.0487 250.326 90.6539C250.121 91.3699 249.785 92.0417 249.335 92.6352C248.919 93.1981 248.473 93.739 248 94.2555L247.925 94.3311H248.025C249.046 94.7675 249.92 95.4871 250.544 96.4047C251.033 97.1231 251.367 97.9349 251.526 98.789C251.628 99.3428 251.648 99.9086 251.585 100.468C251.627 100.93 251.56 101.14 251.56 101.14Z" fill="#EB996E"/>
<path d="M251.869 100.661C254.262 97.5129 257.209 94.2387 259.601 91.082L251.869 100.661Z" fill="#7ECA9D"/>
<path d="M259.601 91.0654C258.527 92.8225 257.287 94.4727 255.899 95.9935C254.866 97.2277 253.926 98.3358 253.095 99.3517C252.739 99.84 252.328 100.285 251.869 100.678C252.941 98.9216 254.178 97.2714 255.563 95.7501L258.376 92.3919C258.737 91.9084 259.148 91.4639 259.601 91.0654Z" fill="#263238"/>
<path d="M152.132 319.865L151.082 319.605C151.082 319.605 139.471 335.699 136.029 335.052L145.012 299.599L156.682 303.074C152.904 307.725 151.233 313.174 152.132 319.865Z" fill="#455A64"/>
<path d="M152.006 305.702C151.988 305.334 151.835 304.986 151.577 304.724C151.318 304.463 150.972 304.306 150.604 304.283C150.237 304.289 149.886 304.435 149.622 304.691C149.359 304.947 149.203 305.293 149.186 305.66C149.204 306.049 149.366 306.417 149.641 306.694C149.915 306.97 150.283 307.134 150.672 307.154C151.055 307.11 151.406 306.919 151.651 306.622C151.897 306.325 152.018 305.944 151.99 305.559" fill="white"/>
<path d="M145.014 299.599L147.818 300.438L138.222 334.104C138.222 334.104 137.131 335.506 136.064 335.052L145.014 299.599Z" fill="#263238"/>
<path d="M150.949 319.706C150.781 319.655 150.949 318.765 150.579 317.775C150.21 316.784 149.622 316.146 149.74 316.003C149.857 315.861 150.789 316.373 151.175 317.582C151.562 318.791 151.1 319.781 150.949 319.706Z" fill="#263238"/>
<path d="M148.473 323.03C148.297 323.03 148.187 322.191 147.633 321.435C147.079 320.679 146.315 320.293 146.366 320.125C146.416 319.957 147.423 320.125 148.129 321.066C148.834 322.006 148.641 323.072 148.473 323.03Z" fill="#263238"/>
<path d="M143.485 324.012C143.485 323.853 144.417 323.828 145.248 324.516C146.079 325.204 146.256 326.103 146.088 326.136C145.92 326.17 145.542 325.549 144.845 324.995C144.148 324.44 143.46 324.189 143.485 324.012Z" fill="#263238"/>
<path d="M188.879 395.701L188.476 396.633C188.476 396.633 201.48 409.78 200.355 412.844L169.158 399.176L174.145 388.984C175.977 391.094 178.24 392.785 180.782 393.944C183.324 395.103 186.085 395.702 188.879 395.701Z" fill="#455A64"/>
<path d="M175.85 393.644C175.51 393.602 175.166 393.688 174.885 393.885C174.605 394.082 174.407 394.376 174.331 394.71C174.278 395.048 174.356 395.394 174.55 395.676C174.743 395.959 175.037 396.157 175.372 396.229C175.732 396.269 176.095 396.175 176.391 395.964C176.687 395.754 176.895 395.442 176.975 395.088C176.994 394.73 176.873 394.378 176.638 394.107C176.404 393.837 176.073 393.667 175.716 393.635" fill="white"/>
<path d="M169.158 399.177L170.359 396.725L199.818 410.762C199.818 410.762 200.943 411.971 200.355 412.886L169.158 399.177Z" fill="#263238"/>
<path d="M188.593 396.767C188.518 396.918 187.754 396.658 186.763 396.817C185.772 396.977 185.084 397.438 185 397.321C184.916 397.203 185.504 396.414 186.679 396.238C187.855 396.062 188.644 396.658 188.593 396.767Z" fill="#263238"/>
<path d="M191.221 399.562C191.221 399.722 190.423 399.688 189.617 400.108C188.811 400.528 188.375 401.141 188.223 401.065C188.072 400.99 188.358 400.091 189.357 399.596C190.356 399.101 191.288 399.411 191.221 399.562Z" fill="#263238"/>
<path d="M191.364 404.289C191.212 404.289 191.364 403.45 192.086 402.745C192.808 402.039 193.706 402.065 193.714 402.224C193.723 402.384 193.085 402.627 192.472 403.181C191.859 403.735 191.523 404.348 191.364 404.289Z" fill="#263238"/>
<path d="M173.481 145.955C173.424 145.643 173.253 145.364 173.002 145.172C172.751 144.98 172.437 144.887 172.121 144.914H172.037C171.804 144.96 171.59 145.074 171.421 145.241C171.251 145.408 171.135 145.621 171.085 145.854C171.036 146.086 171.055 146.328 171.142 146.55C171.228 146.771 171.378 146.963 171.572 147.1C171.766 147.238 171.996 147.315 172.233 147.324C172.471 147.332 172.706 147.271 172.909 147.147C173.112 147.023 173.274 146.843 173.376 146.628C173.478 146.413 173.515 146.173 173.481 145.938V145.955Z" fill="#455A64"/>
<path d="M174.666 163.828L182.054 184.229L199.777 213.025L200.306 182.475L195.21 158.867H194.798L191.138 174.474L186.277 168.597L175.22 160.898L174.666 163.828Z" fill="#FAFAFA"/>
<path d="M198.038 171.989C197.617 171.573 197.24 171.114 196.913 170.62C196.577 170.192 196.174 169.68 195.704 169.126C195.218 168.517 194.653 167.975 194.025 167.514L194.352 167.371C194.283 167.656 194.196 167.937 194.092 168.211C193.37 170.016 192.539 171.527 192.002 172.66C191.464 173.794 191.204 174.507 191.162 174.499C191.223 173.812 191.42 173.144 191.741 172.535C192.203 171.368 193.001 169.814 193.698 168.06C193.795 167.814 193.876 167.561 193.941 167.304L194.017 167.002L194.268 167.17C194.937 167.654 195.529 168.238 196.023 168.899C196.485 169.479 196.863 170.024 197.173 170.478C197.526 170.941 197.817 171.449 198.038 171.989Z" fill="#263238"/>
<path d="M199.776 213.025C199.623 212.552 199.514 212.066 199.449 211.573C199.247 210.566 198.979 209.222 198.66 207.602C197.98 204.244 196.981 199.635 195.847 194.539C194.714 189.443 193.673 184.901 192.909 181.492C192.548 179.88 192.254 178.545 192.069 177.538C191.939 177.057 191.849 176.565 191.801 176.069C191.978 176.533 192.121 177.01 192.229 177.496C192.481 178.42 192.825 179.763 193.245 181.425C194.084 184.783 195.167 189.342 196.301 194.438C197.434 199.534 198.391 204.177 198.996 207.543C199.289 209.222 199.525 210.599 199.65 211.548C199.724 212.037 199.766 212.531 199.776 213.025Z" fill="#263238"/>
<path d="M196.335 157.23C191.424 160.814 180.686 161.469 176.144 161.175C170.024 160.747 163.408 158.229 157.532 156.65C151.411 155.047 145.778 155.148 139.675 156.021C133.571 156.894 126.292 161.058 122.699 165.994L125.218 168.689C125.218 168.689 133.613 161.713 141.27 160.688C148.607 159.723 153.141 161.285 161.755 163.56C171.56 166.154 183.415 165.583 187.151 164.576C190.745 163.566 194.181 162.06 197.359 160.101L196.335 157.23Z" fill="#455A64"/>
<path d="M176.43 168.689C176.693 168.83 176.938 169.002 177.16 169.202C177.605 169.546 178.243 170.041 179.032 170.704C180.602 171.989 182.751 173.794 185.102 175.8L185.228 175.909L184.875 176.027C185.278 174.155 185.665 172.4 186 170.864L186.068 170.553L186.303 170.746C187.646 171.838 188.754 172.753 189.526 173.399C189.949 173.72 190.339 174.08 190.693 174.474C190.23 174.216 189.791 173.916 189.384 173.576C188.544 172.979 187.428 172.106 186.068 171.057L186.37 170.948L185.304 176.128L185.228 176.489L184.943 176.245L184.817 176.136C182.466 174.13 180.35 172.291 178.831 170.948C178.067 170.276 177.462 169.722 177.043 169.336C176.811 169.148 176.605 168.93 176.43 168.689Z" fill="#263238"/>
<path d="M116.176 188.813C116.226 188.485 114.497 181.878 114.497 181.878L106.102 178.042L107.579 185.698C108.534 186.645 109.537 187.541 110.585 188.385C110.727 188.334 116.176 188.813 116.176 188.813Z" fill="#EB996E"/>
<path d="M128.794 174.734C128.982 176.941 128.511 179.154 127.441 181.094C126.371 183.034 124.75 184.612 122.783 185.631C120.815 186.649 118.59 187.061 116.389 186.814C114.188 186.568 112.109 185.674 110.415 184.246C108.722 182.818 107.49 180.92 106.875 178.792C106.261 176.663 106.291 174.401 106.962 172.29C107.634 170.179 108.916 168.314 110.647 166.932C112.379 165.55 114.481 164.712 116.688 164.525C119.647 164.274 122.585 165.208 124.855 167.123C127.125 169.037 128.542 171.775 128.794 174.734Z" fill="#7ECA9D"/>
<g opacity="0.3">
<path d="M128.794 174.734C128.982 176.941 128.511 179.154 127.441 181.094C126.371 183.034 124.75 184.612 122.783 185.631C120.815 186.649 118.59 187.061 116.389 186.814C114.188 186.568 112.109 185.674 110.415 184.246C108.722 182.818 107.49 180.92 106.875 178.792C106.261 176.663 106.291 174.401 106.962 172.29C107.634 170.179 108.916 168.314 110.647 166.932C112.379 165.55 114.481 164.712 116.688 164.525C119.647 164.274 122.585 165.208 124.855 167.123C127.125 169.037 128.542 171.775 128.794 174.734Z" fill="black"/>
</g>
<path d="M128.794 173.282C128.982 175.489 128.511 177.702 127.441 179.642C126.371 181.581 124.75 183.16 122.783 184.178C120.815 185.197 118.59 185.609 116.389 185.362C114.188 185.116 112.109 184.222 110.415 182.794C108.722 181.366 107.49 179.468 106.875 177.339C106.261 175.211 106.291 172.949 106.962 170.838C107.634 168.727 108.916 166.862 110.647 165.48C112.379 164.098 114.481 163.26 116.688 163.073C119.647 162.822 122.585 163.756 124.855 165.671C127.125 167.585 128.542 170.323 128.794 173.282Z" fill="#7ECA9D"/>
<g opacity="0.3">
<path d="M109.811 175.364C109.618 173.082 110.339 170.816 111.816 169.066C113.292 167.315 115.404 166.223 117.686 166.028H118.047C116.876 165.961 115.704 166.134 114.602 166.535C113.501 166.937 112.492 167.558 111.639 168.362C110.785 169.166 110.104 170.136 109.638 171.212C109.172 172.287 108.929 173.447 108.926 174.619C108.922 175.792 109.158 176.953 109.618 178.031C110.078 179.11 110.753 180.083 111.602 180.892C112.451 181.701 113.456 182.329 114.555 182.736C115.654 183.144 116.825 183.324 117.996 183.264C115.906 183.163 113.924 182.307 112.418 180.853C110.912 179.4 109.986 177.449 109.811 175.364Z" fill="black"/>
</g>
<g opacity="0.3">
<path d="M122.305 167.363L124.143 165.121L125.545 166.313L123.572 168.362L122.305 167.363Z" fill="white"/>
</g>
<path d="M126.233 173.894C126.1 173.202 125.926 172.518 125.712 171.846C125.051 170.037 123.807 168.499 122.178 167.472C120.98 166.723 119.613 166.285 118.203 166.199C116.792 166.112 115.382 166.38 114.102 166.977C113.364 167.315 112.682 167.762 112.078 168.303C111.437 168.858 110.89 169.513 110.458 170.242C109.523 171.769 109.1 173.554 109.251 175.338C109.402 177.121 110.119 178.81 111.297 180.157C111.848 180.801 112.497 181.353 113.22 181.794C113.907 182.229 114.658 182.555 115.445 182.76C116.588 183.067 117.783 183.132 118.953 182.953C120.123 182.773 121.243 182.352 122.241 181.717C123.24 181.081 124.096 180.245 124.754 179.261C125.412 178.277 125.859 177.167 126.065 176.002C126.166 175.303 126.222 174.6 126.233 173.894C126.347 174.603 126.347 175.326 126.233 176.035C126.047 177.251 125.607 178.414 124.941 179.447C124.275 180.481 123.398 181.363 122.368 182.034C121.337 182.705 120.177 183.151 118.962 183.343C117.747 183.535 116.506 183.468 115.319 183.146C113.63 182.698 112.113 181.757 110.962 180.443C109.71 179.025 108.949 177.242 108.792 175.357C108.635 173.473 109.09 171.588 110.089 169.982C110.54 169.225 111.106 168.542 111.768 167.959C112.403 167.393 113.123 166.928 113.9 166.582C115.333 165.926 116.916 165.665 118.484 165.826C120.15 166.003 121.73 166.656 123.034 167.707C124.338 168.758 125.312 170.163 125.838 171.754C126.089 172.44 126.223 173.164 126.233 173.894Z" fill="#263238"/>
<path d="M113.522 164.76C113.522 164.836 112.9 165.004 112.044 165.6C110.958 166.419 110.009 167.405 109.232 168.521C108.422 169.611 107.851 170.858 107.552 172.182C107.317 173.198 107.309 173.861 107.242 173.861C107.112 173.289 107.112 172.695 107.242 172.123C107.476 170.717 108.052 169.391 108.921 168.261C109.725 167.102 110.745 166.11 111.926 165.34C112.395 165.004 112.947 164.804 113.522 164.76Z" fill="white"/>
<path d="M115.655 164.005C115.655 164.122 115.487 164.273 115.202 164.357C114.917 164.441 114.656 164.357 114.623 164.282C114.589 164.206 114.799 164.005 115.084 163.929C115.37 163.853 115.63 163.887 115.655 164.005Z" fill="white"/>
<path d="M121.279 181.014C120.425 181.586 119.451 181.955 118.433 182.092C117.414 182.229 116.377 182.13 115.402 181.803C115.402 181.677 116.771 181.887 118.391 181.66C120.011 181.433 121.229 180.896 121.279 181.014Z" fill="white"/>
<path d="M126.257 178.184C126.156 178.117 126.341 177.63 126.501 177.017C126.66 176.404 126.727 175.884 126.853 175.876C126.979 175.867 127.105 176.438 126.92 177.126C126.736 177.815 126.358 178.251 126.257 178.184Z" fill="white"/>
<g opacity="0.3">
<path d="M118.787 171.367V179.108H116.99V172.803H115.445V171.367H118.787Z" fill="black"/>
</g>
<path d="M116.696 187.831C115.092 187.168 109.375 186.471 109.375 186.471L109.828 183.835C109.828 183.835 113.035 182.878 113.9 181.484C114.145 181.043 114.279 180.549 114.291 180.044C114.303 179.54 114.191 179.04 113.967 178.588L112.196 179.091C113.086 178.185 112.574 176.413 112.574 176.413L110.601 176.833C110.774 176.704 110.918 176.539 111.024 176.35C111.129 176.161 111.194 175.952 111.213 175.736C111.232 175.521 111.205 175.304 111.134 175.099C111.063 174.894 110.95 174.707 110.802 174.549L109.274 175.045C110.198 174.037 108.552 172.938 108.552 172.938C108.552 172.938 101.601 178.361 101.147 179.108C100.694 179.855 101.693 181.845 101.693 181.845C101.138 182.488 100.783 183.279 100.669 184.12C100.627 185.279 102.096 185.707 102.096 185.707C102.008 186.321 102.048 186.947 102.214 187.545C102.499 188.503 107.117 191.172 107.117 191.172L113.186 197.293L119.29 188.948C119.29 188.948 118.299 188.494 116.696 187.831Z" fill="#FFBE9D"/>
<path d="M113.875 178.671C113.414 178.969 112.901 179.177 112.363 179.284C111.114 179.596 109.885 179.989 108.686 180.46C108.049 180.734 107.46 181.108 106.94 181.568C106.461 182.004 106.1 182.407 105.723 182.81C105.034 183.549 104.488 183.885 104.455 183.835C104.421 183.784 104.875 183.39 105.496 182.609C105.857 182.14 106.247 181.695 106.663 181.274C107.2 180.764 107.822 180.352 108.501 180.057C109.726 179.577 110.994 179.217 112.288 178.982C112.807 178.833 113.338 178.73 113.875 178.671Z" fill="#EB996E"/>
<path d="M112.699 187.067C112.699 187.176 111.255 186.857 109.341 186.941H109.047L109.131 186.655C109.24 186.269 109.349 185.816 109.433 185.413C109.552 184.834 109.631 184.248 109.668 183.658V183.482H109.853C110.522 183.407 111.175 183.223 111.784 182.936C112.254 182.743 112.523 182.6 112.548 182.642C112.573 182.684 112.346 182.886 111.901 183.154C111.28 183.539 110.585 183.79 109.861 183.893L110.054 183.7C110.034 184.312 109.964 184.921 109.844 185.522C109.761 185.953 109.652 186.379 109.517 186.798L109.307 186.521C110.465 186.436 111.626 186.622 112.699 187.067Z" fill="#EB996E"/>
<path d="M103.641 181.156C103.92 180.745 104.257 180.374 104.64 180.057L105.815 178.898C106.043 178.651 106.3 178.431 106.579 178.243C106.884 178.052 107.204 177.886 107.536 177.748C108.683 177.302 109.865 176.954 111.071 176.707C111.559 176.562 112.064 176.477 112.573 176.455C112.133 176.715 111.654 176.902 111.154 177.009C110.265 177.295 109.005 177.622 107.712 178.151C107.401 178.277 107.1 178.428 106.814 178.604C106.553 178.774 106.311 178.971 106.092 179.192L104.858 180.275C104.496 180.625 104.086 180.921 103.641 181.156Z" fill="#EB996E"/>
<path d="M102.482 179.377C102.44 179.326 102.826 178.932 103.481 178.336L104.639 177.311L105.336 176.707L105.705 176.396L105.899 176.237C105.975 176.179 106.057 176.129 106.142 176.086C107.199 175.609 108.287 175.205 109.399 174.877C109.846 174.693 110.32 174.583 110.801 174.549C110.399 174.809 109.964 175.015 109.509 175.162C108.669 175.506 107.527 175.918 106.352 176.472L106.167 176.581L105.974 176.732L105.605 177.043L104.891 177.622L103.674 178.579C103.317 178.901 102.915 179.17 102.482 179.377Z" fill="#EB996E"/>
<path d="M128.238 131.002L128.549 130.23L129.028 130.91C129.412 131.457 129.945 131.883 130.564 132.136L131.336 132.455L130.656 132.933C130.107 133.312 129.681 133.843 129.431 134.461L129.111 135.234L128.633 134.554C128.249 134.006 127.715 133.581 127.097 133.328L126.324 133.009L127.013 132.53C127.557 132.147 127.982 131.617 128.238 131.002Z" fill="#7ECA9D"/>
<path d="M232.897 219.733L233.207 218.961L233.686 219.641C234.07 220.188 234.603 220.614 235.222 220.867L235.994 221.186L235.306 221.664C234.761 222.051 234.336 222.583 234.08 223.201L233.77 223.965L233.291 223.285C232.907 222.737 232.374 222.312 231.755 222.059L230.982 221.74L231.671 221.261C232.216 220.878 232.641 220.348 232.897 219.733Z" fill="#7ECA9D"/>
<path d="M250.955 183.919L251.266 183.155L251.744 183.835C252.131 184.38 252.663 184.805 253.281 185.061L254.053 185.38L253.373 185.858C252.826 186.239 252.401 186.77 252.147 187.386L251.828 188.158L251.35 187.478C250.966 186.931 250.432 186.506 249.813 186.253L249.041 185.934L249.729 185.455C250.277 185.071 250.702 184.538 250.955 183.919Z" fill="#7ECA9D"/>
<path d="M98.1414 126.779L98.3261 126.334L98.6031 126.729C98.8245 127.048 99.1336 127.296 99.493 127.443L99.938 127.627L99.5434 127.904C99.2245 128.126 98.9766 128.435 98.8298 128.794L98.6451 129.239L98.3681 128.845C98.1467 128.526 97.8376 128.278 97.4782 128.131L97.0332 127.946L97.4278 127.669C97.7467 127.448 97.9946 127.139 98.1414 126.779Z" fill="#7ECA9D"/>
<path d="M233.979 193.54L234.164 193.095L234.441 193.489C234.662 193.809 234.971 194.057 235.331 194.203L235.784 194.388L235.381 194.665C235.067 194.889 234.822 195.197 234.676 195.555L234.491 196L234.214 195.605C233.989 195.29 233.681 195.043 233.324 194.891L232.871 194.715L233.266 194.43C233.587 194.21 233.835 193.901 233.979 193.54Z" fill="#7ECA9D"/>
<path d="M112.287 103.146L113.034 101.979L113.672 103.23C114.184 104.228 114.971 105.058 115.939 105.623L117.148 106.328L115.906 106.966C114.907 107.48 114.075 108.266 113.504 109.233L112.799 110.442L112.161 109.2C111.651 108.199 110.864 107.366 109.894 106.798L108.686 106.093L109.936 105.455C110.926 104.928 111.742 104.126 112.287 103.146Z" fill="#7ECA9D"/>
</svg>
