<svg width="7" height="21" viewBox="0 0 7 21" fill="none" xmlns="http://www.w3.org/2000/svg">
<path d="M6.43068 16.5056V19.6306C6.43068 19.8724 6.34233 20.0817 6.16561 20.2584C5.9889 20.4351 5.77964 20.5234 5.53782 20.5234H1.9664C1.72458 20.5234 1.51532 20.4351 1.33861 20.2584C1.16189 20.0817 1.07354 19.8724 1.07354 19.6306V16.5056C1.07354 16.2638 1.16189 16.0545 1.33861 15.8778C1.51532 15.7011 1.72458 15.6127 1.9664 15.6127H5.53782C5.77964 15.6127 5.9889 15.7011 6.16561 15.8778C6.34233 16.0545 6.43068 16.2638 6.43068 16.5056ZM6.84921 1.77344L6.45858 12.4877C6.44928 12.7295 6.35395 12.9388 6.17259 13.1155C5.99123 13.2922 5.77964 13.3806 5.53782 13.3806H1.9664C1.72458 13.3806 1.51299 13.2922 1.33163 13.1155C1.15027 12.9388 1.05494 12.7295 1.04564 12.4877L0.655012 1.77344C0.645712 1.53162 0.727092 1.32236 0.899153 1.14565C1.07121 0.968937 1.27815 0.880581 1.51997 0.880581H5.98425C6.22607 0.880581 6.43301 0.968937 6.60507 1.14565C6.77713 1.32236 6.85851 1.53162 6.84921 1.77344Z" fill="white"/>
</svg>
