<svg width="26" height="10" viewBox="0 0 26 10" fill="none" xmlns="http://www.w3.org/2000/svg">
<path d="M25.0982 4.50167C25.2749 4.67839 25.3633 4.88765 25.3633 5.12946C25.3633 5.37128 25.2749 5.58054 25.0982 5.75725L21.5268 9.32868C21.3501 9.50539 21.1408 9.59375 20.899 9.59375C20.6572 9.59375 20.4479 9.50539 20.2712 9.32868C20.0945 9.15197 20.0061 8.94271 20.0061 8.70089V6.91518H5.72042V8.70089C5.72042 8.94271 5.63207 9.15197 5.45536 9.32868C5.27865 9.50539 5.06938 9.59375 4.82757 9.59375C4.58575 9.59375 4.37649 9.50539 4.19978 9.32868L0.628348 5.75725C0.451637 5.58054 0.363281 5.37128 0.363281 5.12946C0.363281 4.88765 0.451637 4.67839 0.628348 4.50167L4.19978 0.930245C4.37649 0.753533 4.58575 0.665178 4.82757 0.665178C5.06938 0.665178 5.27865 0.753533 5.45536 0.930245C5.63207 1.10696 5.72042 1.31622 5.72042 1.55803V3.34375H20.0061V1.55803C20.0061 1.31622 20.0945 1.10696 20.2712 0.930245C20.4479 0.753533 20.6572 0.665178 20.899 0.665178C21.1408 0.665178 21.3501 0.753533 21.5268 0.930245L25.0982 4.50167Z" fill="#0000FF"/>
</svg>
