<svg width="10" height="26" viewBox="0 0 10 26" fill="none" xmlns="http://www.w3.org/2000/svg">
<rect width="8.98072" height="25" transform="translate(0.0449219 0.629883)" fill="#5F2DED"/>
<path d="M7.21084 18.0407V21.1657C7.21084 21.4076 7.12258 21.6168 6.94607 21.7935C6.76956 21.9702 6.56053 22.0586 6.31898 22.0586H2.75155C2.51 22.0586 2.30098 21.9702 2.12446 21.7935C1.94795 21.6168 1.85969 21.4076 1.85969 21.1657V18.0407C1.85969 17.7989 1.94795 17.5897 2.12446 17.4129C2.30098 17.2362 2.51 17.1479 2.75155 17.1479H6.31898C6.56053 17.1479 6.76956 17.2362 6.94607 17.4129C7.12258 17.5897 7.21084 17.7989 7.21084 18.0407ZM7.6289 3.30859L7.23871 14.0229C7.22942 14.2647 7.1342 14.474 6.95304 14.6507C6.77188 14.8274 6.56053 14.9157 6.31898 14.9157H2.75155C2.51 14.9157 2.29865 14.8274 2.11749 14.6507C1.93634 14.474 1.84111 14.2647 1.83182 14.0229L1.44163 3.30859C1.43234 3.06678 1.51363 2.85752 1.6855 2.6808C1.85737 2.50409 2.06408 2.41574 2.30562 2.41574H6.76491C7.00646 2.41574 7.21316 2.50409 7.38503 2.6808C7.5569 2.85752 7.63819 3.06678 7.6289 3.30859Z" fill="white"/>
</svg>
