<svg width="16" height="13" viewBox="0 0 16 13" fill="none" xmlns="http://www.w3.org/2000/svg">
<path d="M0.551 1.9074L7.20725 8.5644C7.40416 8.76145 7.66718 8.87843 7.94539 8.8927C8.2236 8.90697 8.49721 8.81752 8.71325 8.64165L8.79875 8.5644L15.4505 1.9119C15.472 1.9944 15.4865 2.07865 15.494 2.16465L15.5 2.2959V11.2959C15.5001 11.6743 15.3572 12.0388 15.0999 12.3163C14.8426 12.5938 14.4899 12.7638 14.1125 12.7921L14 12.7959H2C1.62157 12.796 1.25708 12.6531 0.979589 12.3958C0.702103 12.1385 0.532132 11.7858 0.50375 11.4084L0.5 11.2959V2.2959C0.5 2.2059 0.5075 2.1184 0.5225 2.0334L0.551 1.9074ZM14 0.795898C14.091 0.795898 14.1797 0.803649 14.2662 0.819149L14.3937 0.848399L8.00375 7.2384L1.6115 0.846898C1.6945 0.824398 1.7795 0.809398 1.8665 0.801898L2 0.795898H14Z" fill="#6B6B6B"/>
</svg>
