<svg width="17" height="18" viewBox="0 0 17 18" fill="none" xmlns="http://www.w3.org/2000/svg">
<path d="M1.70711 0.588792C1.31658 0.198267 0.683417 0.198267 0.292893 0.588792C-0.0976311 0.979316 -0.0976311 1.61248 0.292893 2.00301L1.70711 0.588792ZM15.2929 17.003C15.6834 17.3935 16.3166 17.3935 16.7071 17.003C17.0976 16.6125 17.0976 15.9793 16.7071 15.5888L15.2929 17.003ZM10.6761 10.9255C11.0536 10.5224 11.0328 9.88955 10.6296 9.51207C10.2265 9.13459 9.59365 9.1554 9.21617 9.55855L10.6761 10.9255ZM7.94364 10.8277L8.19346 9.85942L8.18896 9.85828L7.94364 10.8277ZM6.46818 9.35226L7.43763 9.10694L7.43647 9.10244L6.46818 9.35226ZM7.73735 8.07973C8.1405 7.70225 8.16131 7.06942 7.78383 6.66628C7.40635 6.26313 6.77352 6.24232 6.37038 6.6198L7.73735 8.07973ZM6.84155 2.52933C6.30346 2.65374 5.96811 3.19081 6.09252 3.7289C6.21694 4.26699 6.754 4.60234 7.29209 4.47792L6.84155 2.52933ZM16 8.7959L16.8828 9.26564C17.0349 8.97988 17.0392 8.6382 16.8944 8.34868L16 8.7959ZM13.7602 10.3293C13.4054 10.7526 13.461 11.3833 13.8843 11.738C14.3076 12.0928 14.9383 12.0372 15.293 11.6139L13.7602 10.3293ZM13.156 13.6426C13.5956 13.3083 13.681 12.6809 13.3467 12.2413C13.0124 11.8017 12.385 11.7163 11.9454 12.0506L13.156 13.6426ZM8.5 14.2504V15.2504C8.50543 15.2504 8.51086 15.2504 8.51629 15.2503L8.5 14.2504ZM1 8.7959L0.118724 8.3233C-0.0347944 8.60957 -0.0396985 8.95257 0.105573 9.24311L1 8.7959ZM5.05647 5.5398C5.49531 5.20448 5.57922 4.5769 5.2439 4.13806C4.90858 3.69923 4.281 3.61531 3.84216 3.95063L5.05647 5.5398ZM0.292893 2.00301L15.2929 17.003L16.7071 15.5888L1.70711 0.588792L0.292893 2.00301ZM9.21617 9.55855C8.95229 9.84037 8.55996 9.95398 8.19346 9.85942L7.69381 11.796C8.77549 12.0751 9.91726 11.736 10.6761 10.9255L9.21617 9.55855ZM8.18896 9.85828C7.82021 9.76496 7.53094 9.47568 7.43762 9.10694L5.49874 9.59759C5.77224 10.6784 6.61751 11.5237 7.69831 11.7972L8.18896 9.85828ZM7.43647 9.10244C7.34191 8.73594 7.45552 8.34361 7.73735 8.07973L6.37038 6.6198C5.55993 7.37864 5.22081 8.52041 5.49989 9.60209L7.43647 9.10244ZM7.29209 4.47792C7.68818 4.38634 8.09185 4.34135 8.5 4.34135V2.34135C7.94406 2.34135 7.38909 2.40273 6.84155 2.52933L7.29209 4.47792ZM8.5 4.34135C10.4869 4.34135 12.1158 5.47855 13.3102 6.75257C13.8983 7.37985 14.3523 8.01095 14.6593 8.48615C14.8121 8.72279 14.9268 8.91823 15.0019 9.05178C15.0394 9.11849 15.067 9.16955 15.0843 9.20236C15.093 9.21876 15.0991 9.23057 15.1027 9.23748C15.1045 9.24093 15.1056 9.24315 15.1061 9.24411C15.1063 9.24458 15.1064 9.24474 15.1063 9.24458C15.1063 9.2445 15.1062 9.24433 15.1061 9.24409C15.106 9.24397 15.1059 9.24372 15.1058 9.24366C15.1057 9.2434 15.1056 9.24311 16 8.7959C16.8944 8.34868 16.8943 8.34836 16.8941 8.34801C16.894 8.34787 16.8938 8.3475 16.8937 8.34721C16.8934 8.34663 16.8931 8.34597 16.8927 8.34523C16.8919 8.34375 16.891 8.34193 16.8899 8.33978C16.8878 8.33549 16.8849 8.32989 16.8814 8.32302C16.8743 8.30929 16.8645 8.29048 16.8521 8.26692C16.8272 8.21983 16.7914 8.1537 16.7451 8.07126C16.6524 7.90652 16.5168 7.67582 16.3393 7.4011C15.9857 6.85357 15.4596 6.12104 14.7693 5.38468C13.4069 3.93143 11.2859 2.34135 8.5 2.34135V4.34135ZM15.1172 8.32616C14.7392 9.03648 14.2826 9.70583 13.7602 10.3293L15.293 11.6139C15.8996 10.8901 16.4358 10.1058 16.8828 9.26564L15.1172 8.32616ZM11.9454 12.0506C10.9478 12.8091 9.73441 13.2302 8.48371 13.2506L8.51629 15.2503C10.1947 15.223 11.8204 14.6581 13.156 13.6426L11.9454 12.0506ZM8.5 13.2504C6.51314 13.2504 4.88416 12.1132 3.68976 10.8392C3.10169 10.2119 2.64765 9.58085 2.34075 9.10565C2.18792 8.86901 2.07321 8.67356 1.99808 8.54001C1.96056 8.4733 1.93303 8.42224 1.91567 8.38944C1.90699 8.37304 1.90087 8.36123 1.89732 8.35432C1.89554 8.35087 1.89441 8.34864 1.89393 8.34769C1.89369 8.34721 1.89361 8.34705 1.89369 8.34722C1.89373 8.3473 1.89382 8.34746 1.89394 8.34771C1.894 8.34783 1.89412 8.34807 1.89415 8.34813C1.89428 8.3484 1.89443 8.34868 1 8.7959C0.105573 9.24311 0.105736 9.24344 0.10591 9.24379C0.105982 9.24393 0.106168 9.2443 0.106312 9.24459C0.106601 9.24516 0.106932 9.24582 0.107306 9.24657C0.108054 9.24805 0.108972 9.24987 0.110059 9.25201C0.112234 9.2563 0.115088 9.2619 0.118619 9.26877C0.12568 9.28251 0.135452 9.30132 0.147916 9.32487C0.172837 9.37197 0.208561 9.4381 0.254934 9.52053C0.347603 9.68528 0.483245 9.91597 0.660671 10.1907C1.01428 10.7382 1.54036 11.4708 2.23069 12.2071C3.59312 13.6604 5.71413 15.2504 8.5 15.2504V13.2504ZM1.88128 9.2685C2.66065 7.81518 3.74463 6.5422 5.05647 5.5398L3.84216 3.95063C2.304 5.12596 1.03299 6.61843 0.118724 8.3233L1.88128 9.2685Z" fill="#6C6C6C"/>
</svg>
