<svg width="18" height="19" viewBox="0 0 18 19" fill="none" xmlns="http://www.w3.org/2000/svg">
<path d="M9 13.5459C9.39782 13.5459 9.77936 13.3879 10.0607 13.1066C10.342 12.8253 10.5 12.4437 10.5 12.0459C10.5 11.6481 10.342 11.2665 10.0607 10.9852C9.77936 10.7039 9.39782 10.5459 9 10.5459C8.60218 10.5459 8.22064 10.7039 7.93934 10.9852C7.65804 11.2665 7.5 11.6481 7.5 12.0459C7.5 12.4437 7.65804 12.8253 7.93934 13.1066C8.22064 13.3879 8.60218 13.5459 9 13.5459ZM13.5 6.7959C13.8978 6.7959 14.2794 6.95393 14.5607 7.23524C14.842 7.51654 15 7.89807 15 8.2959V15.7959C15 16.1937 14.842 16.5753 14.5607 16.8566C14.2794 17.1379 13.8978 17.2959 13.5 17.2959H4.5C4.10218 17.2959 3.72064 17.1379 3.43934 16.8566C3.15804 16.5753 3 16.1937 3 15.7959V8.2959C3 7.89807 3.15804 7.51654 3.43934 7.23524C3.72064 6.95393 4.10218 6.7959 4.5 6.7959H5.25V5.2959C5.25 4.30134 5.64509 3.34751 6.34835 2.64425C7.05161 1.94099 8.00544 1.5459 9 1.5459C9.49246 1.5459 9.98009 1.6429 10.4351 1.83135C10.89 2.01981 11.3034 2.29603 11.6517 2.64425C11.9999 2.99247 12.2761 3.40586 12.4645 3.86084C12.653 4.31581 12.75 4.80344 12.75 5.2959V6.7959H13.5ZM9 3.0459C8.40326 3.0459 7.83097 3.28295 7.40901 3.70491C6.98705 4.12687 6.75 4.69916 6.75 5.2959V6.7959H11.25V5.2959C11.25 4.69916 11.0129 4.12687 10.591 3.70491C10.169 3.28295 9.59674 3.0459 9 3.0459Z" fill="#6B6B6B"/>
</svg>
