<svg width="14" height="14" viewBox="0 0 14 14" fill="none" xmlns="http://www.w3.org/2000/svg">
<path fill-rule="evenodd" clip-rule="evenodd" d="M4 3.0459C4 2.25025 4.31607 1.48719 4.87868 0.924578C5.44129 0.361969 6.20435 0.0458984 7 0.0458984C7.79565 0.0458984 8.55871 0.361969 9.12132 0.924578C9.68393 1.48719 10 2.25025 10 3.0459C10 3.84155 9.68393 4.60461 9.12132 5.16722C8.55871 5.72983 7.79565 6.0459 7 6.0459C6.20435 6.0459 5.44129 5.72983 4.87868 5.16722C4.31607 4.60461 4 3.84155 4 3.0459ZM4 7.5459C3.00544 7.5459 2.05161 7.94099 1.34835 8.64425C0.645088 9.34751 0.25 10.3013 0.25 11.2959C0.25 11.8926 0.487053 12.4649 0.90901 12.8869C1.33097 13.3088 1.90326 13.5459 2.5 13.5459H11.5C12.0967 13.5459 12.669 13.3088 13.091 12.8869C13.5129 12.4649 13.75 11.8926 13.75 11.2959C13.75 10.3013 13.3549 9.34751 12.6517 8.64425C11.9484 7.94099 10.9946 7.5459 10 7.5459H4Z" fill="#6B6B6B"/>
</svg>
