<svg width="18" height="19" viewBox="0 0 18 19" fill="none" xmlns="http://www.w3.org/2000/svg">
<path d="M4.965 8.8884C6.045 11.0109 7.785 12.7434 9.9075 13.8309L11.5575 12.1809C11.76 11.9784 12.06 11.9109 12.3225 12.0009C13.1625 12.2784 14.07 12.4284 15 12.4284C15.4125 12.4284 15.75 12.7659 15.75 13.1784V15.7959C15.75 16.2084 15.4125 16.5459 15 16.5459C7.9575 16.5459 2.25 10.8384 2.25 3.7959C2.25 3.3834 2.5875 3.0459 3 3.0459H5.625C6.0375 3.0459 6.375 3.3834 6.375 3.7959C6.375 4.7334 6.525 5.6334 6.8025 6.4734C6.885 6.7359 6.825 7.0284 6.615 7.2384L4.965 8.8884Z" fill="#6B6B6B"/>
</svg>
