<svg width="582" height="572" viewBox="0 0 582 572" fill="none" xmlns="http://www.w3.org/2000/svg">
<path d="M582 384.381H358.728V255.178H582V384.381ZM360.09 383.019H580.638V256.54H360.09V383.019Z" fill="#E0E0E0"/>
<path d="M535.94 324.07H388.631V328.389H535.94V324.07Z" fill="#F0F0F0"/>
<path d="M546.089 340.173H388.631V344.886H546.089V340.173Z" fill="#F0F0F0"/>
<path d="M546.089 356.467H388.631V361.18H546.089V356.467Z" fill="#F0F0F0"/>
<path d="M440.114 300.68H388.631V311.892H440.114V300.68Z" fill="#F0F0F0"/>
<path d="M581.319 255.858H359.45V276.43H581.319V255.858Z" fill="#E0E0E0"/>
<path d="M564.249 273.351C563.963 273.078 566.824 269.632 570.625 265.654C574.425 261.676 577.763 258.665 578.036 258.924C578.308 259.183 575.461 262.643 571.66 266.634C567.859 270.626 564.521 273.623 564.249 273.351Z" fill="white"/>
<path d="M578.063 273.351C577.79 273.624 574.466 270.627 570.652 266.635C566.837 262.644 563.99 259.197 564.276 258.924C564.562 258.652 567.873 261.649 571.687 265.654C575.502 269.66 578.322 273.079 578.063 273.351Z" fill="white"/>
<path d="M307.259 0H85.3906V127.854H307.259V0Z" fill="#E6E6E6"/>
<path d="M261.894 68.2256H114.585V72.5442H261.894V68.2256Z" fill="#F0F0F0"/>
<path d="M272.043 84.3281H114.585V89.0418H272.043V84.3281Z" fill="#F0F0F0"/>
<path d="M272.043 100.621H114.585V105.335H272.043V100.621Z" fill="#F0F0F0"/>
<path d="M166.068 44.834H114.585V56.0459H166.068V44.834Z" fill="#F0F0F0"/>
<path d="M307.259 0H85.3906V20.5711H307.259V0Z" fill="#E0E0E0"/>
<path d="M289.44 17.3973C289.154 17.1385 292.015 13.6782 295.816 9.7002C299.617 5.7222 302.954 2.71146 303.227 2.98392C303.499 3.25639 300.652 6.70308 296.851 10.6811C293.05 14.6591 289.713 17.6426 289.44 17.3973Z" fill="white"/>
<path d="M303.227 17.3974C302.954 17.6699 299.63 14.6728 295.816 10.6811C292.001 6.68952 289.154 3.25646 289.44 2.98399C289.726 2.71153 293.037 5.70864 296.851 9.70026C300.666 13.6919 303.513 17.1386 303.227 17.3974Z" fill="white"/>
<path d="M223.231 237.508H0V108.291H223.231V237.508ZM1.36233 236.145H221.869V109.653H1.36233V236.145Z" fill="#E0E0E0"/>
<path d="M177.184 177.198H29.8759V181.517H177.184V177.198Z" fill="#F0F0F0"/>
<path d="M187.334 193.301H29.8759V198.014H187.334V193.301Z" fill="#F0F0F0"/>
<path d="M187.334 209.594H29.8759V214.307H187.334V209.594Z" fill="#F0F0F0"/>
<path d="M81.3582 153.807H29.8759V165.019H81.3582V153.807Z" fill="#F0F0F0"/>
<path d="M222.55 108.973H0.681152V129.544H222.55V108.973Z" fill="#E0E0E0"/>
<path d="M480.861 267.111H218.885V501.65H480.861V267.111Z" fill="#E6E6E6"/>
<path d="M232.059 193.232H26.8379V406.45H232.059V193.232Z" fill="#F0F0F0"/>
<path d="M232.059 193.232H26.8379V216.46H232.059V193.232Z" fill="#E0E0E0"/>
<path d="M43.7852 204.608C43.7479 205.45 43.464 206.263 42.9689 206.945C42.4737 207.628 41.789 208.15 40.9999 208.447C40.2107 208.743 39.3517 208.802 38.5296 208.615C37.7075 208.428 36.9584 208.004 36.3752 207.395C35.7921 206.786 35.4006 206.019 35.2494 205.189C35.0982 204.36 35.1938 203.504 35.5245 202.729C35.8552 201.953 36.4064 201.292 37.1096 200.827C37.8128 200.362 38.6372 200.113 39.4803 200.112C40.6462 200.141 41.7535 200.63 42.5601 201.472C43.3667 202.315 43.8072 203.442 43.7852 204.608Z" fill="white"/>
<path d="M61.2639 204.608C61.2292 205.454 60.9463 206.272 60.4506 206.958C59.9548 207.645 59.2681 208.171 58.4757 208.471C57.6834 208.77 56.8205 208.83 55.9945 208.643C55.1684 208.455 54.4156 208.029 53.8298 207.418C53.244 206.806 52.851 206.035 52.6998 205.202C52.5485 204.369 52.6457 203.509 52.9792 202.731C53.3127 201.952 53.8678 201.289 54.5754 200.823C55.283 200.358 56.1119 200.11 56.9589 200.112C58.1249 200.141 59.2321 200.63 60.0388 201.472C60.8454 202.315 61.2858 203.442 61.2639 204.608Z" fill="white"/>
<path d="M78.7425 204.608C78.7078 205.454 78.425 206.272 77.9292 206.958C77.4335 207.645 76.7467 208.171 75.9544 208.471C75.1621 208.77 74.2992 208.83 73.4731 208.643C72.647 208.455 71.8943 208.029 71.3085 207.418C70.7226 206.806 70.3297 206.035 70.1784 205.202C70.0272 204.369 70.1243 203.509 70.4578 202.731C70.7913 201.952 71.3464 201.289 72.0541 200.823C72.7617 200.358 73.5906 200.11 74.4376 200.112C75.6035 200.141 76.7108 200.63 77.5174 201.472C78.324 202.315 78.7645 203.442 78.7425 204.608Z" fill="white"/>
<path d="M552.696 46.6328H290.721V307.737H552.696V46.6328Z" fill="#F0F0F0"/>
<path d="M552.696 46.6328H290.721V77.2171H552.696V46.6328Z" fill="#E0E0E0"/>
<path d="M313.036 61.6185C312.988 62.7304 312.614 63.8036 311.961 64.7051C311.309 65.6065 310.406 66.2963 309.364 66.6889C308.323 67.0816 307.189 67.1597 306.104 66.9135C305.018 66.6674 304.029 66.1079 303.259 65.3046C302.489 64.5012 301.972 63.4893 301.772 62.3945C301.572 61.2997 301.697 60.1703 302.134 59.1464C302.57 58.1226 303.297 57.2494 304.226 56.6354C305.154 56.0213 306.242 55.6934 307.355 55.6924C308.893 55.7281 310.354 56.3718 311.419 57.4824C312.484 58.5931 313.065 60.0802 313.036 61.6185Z" fill="white"/>
<path d="M334.383 57.6125C335.139 58.4327 335.636 59.457 335.813 60.5577C335.99 61.6585 335.84 62.7871 335.38 63.8028C334.92 64.8186 334.172 65.6767 333.228 66.2701C332.284 66.8635 331.186 67.1661 330.072 67.1401C328.957 67.1141 327.875 66.7606 326.96 66.1238C326.044 65.487 325.337 64.595 324.925 63.5589C324.513 62.5228 324.416 61.3884 324.644 60.2971C324.872 59.2058 325.417 58.2058 326.209 57.4218C327.32 56.3652 328.804 55.792 330.336 55.8277C331.868 55.8635 333.324 56.5053 334.383 57.6125Z" fill="white"/>
<path d="M359.055 61.6185C359.007 62.7304 358.633 63.8036 357.981 64.7051C357.328 65.6065 356.425 66.2963 355.384 66.6889C354.342 67.0816 353.208 67.1597 352.123 66.9135C351.038 66.6674 350.049 66.1079 349.278 65.3046C348.508 64.5012 347.991 63.4893 347.791 62.3945C347.591 61.2997 347.717 60.1703 348.153 59.1464C348.589 58.1226 349.317 57.2494 350.245 56.6354C351.173 56.0213 352.261 55.6934 353.374 55.6924C354.912 55.7281 356.374 56.3718 357.438 57.4824C358.503 58.5931 359.084 60.0802 359.055 61.6185Z" fill="white"/>
<path d="M496.105 570.925C496.105 571.115 401.505 571.279 284.849 571.279C168.193 571.279 73.552 571.115 73.552 570.925C73.552 570.734 168.138 570.57 284.849 570.57C401.56 570.57 496.105 570.747 496.105 570.925Z" fill="#263238"/>
<path d="M403.93 404.148C382.882 389.448 378.114 362.161 378.945 337.626C379.081 333.539 378.632 329.206 380.58 325.623C382.528 322.04 387.078 319.575 390.743 321.291C393.781 322.722 395.102 326.264 396.805 329.193C399.077 333.094 402.407 336.273 406.41 338.361C409.012 339.724 412.24 340.541 414.815 339.124C418.357 337.176 418.766 332.312 418.739 328.225C418.739 320.624 418.693 313.031 418.602 305.447C418.358 301.375 418.772 297.29 419.828 293.35C421.095 289.481 423.915 285.898 427.771 284.808C431.626 283.718 436.435 285.966 437.307 289.944C437.457 291.629 437.498 293.322 437.43 295.012C437.539 296.715 438.329 298.581 439.923 299.099C441.517 299.617 443.179 298.431 444.405 297.232C448.601 293.146 451.462 287.819 454.118 282.56C456.775 277.302 459.377 271.893 463.191 267.411C467.006 262.929 472.278 259.373 478.177 259.033C484.076 258.692 490.22 262.316 491.691 268.038C493.163 273.76 489.825 279.604 486.242 284.25C480.835 291.145 474.462 297.225 467.319 302.3C465.925 303.062 464.812 304.251 464.145 305.693C463.259 308.417 465.834 311.142 468.518 312C471.556 313.008 474.853 312.695 478.054 313.076C481.256 313.458 484.662 314.847 485.874 317.844C487.536 322.013 484.049 326.373 480.629 329.234C473.763 334.955 465.966 339.457 457.579 342.544C454.581 343.633 451.434 344.601 449.009 346.699C446.585 348.797 445.14 352.461 446.598 355.336C448.056 358.21 451.802 359.123 454.949 358.537C458.096 357.951 460.889 356.262 463.886 355.131C469.485 353.02 476.706 353.401 480.234 358.238C481.327 359.904 482.019 361.8 482.255 363.779C482.492 365.757 482.266 367.764 481.596 369.64C480.233 373.375 478.134 376.798 475.425 379.708C466.502 390.368 454.909 398.469 441.83 403.181C428.847 407.676 416.818 408.903 403.916 404.175" fill="#F6B335"/>
<path d="M485.697 262.397C485.697 262.397 485.574 262.534 485.302 262.779L484.089 263.855C483.027 264.809 481.46 266.198 479.485 268.037C473.884 273.238 468.683 278.853 463.927 284.835C460.889 288.609 457.742 292.886 454.391 297.532C451.039 302.177 447.579 307.191 444.146 312.518C440.486 318.135 437.134 323.947 434.106 329.928C432.525 333.048 431.136 336.304 429.705 339.628L425.482 349.777C419.915 362.561 415.067 375.646 410.96 388.971C407.651 399.874 405.371 411.062 404.148 422.389C403.356 430.034 403.228 437.732 403.767 445.399C403.985 448.124 404.189 450.208 404.38 451.625C404.461 452.306 404.516 452.851 404.57 453.246V453.804C404.512 453.627 404.471 453.445 404.448 453.26C404.38 452.864 404.298 452.333 404.189 451.652C403.944 450.29 403.685 448.137 403.44 445.413C402.782 437.732 402.828 430.007 403.576 422.335C404.723 410.959 406.953 399.719 410.238 388.767C414.31 375.405 419.146 362.287 424.719 349.477L429.051 339.369C430.482 336.059 431.885 332.775 433.479 329.642C436.529 323.643 439.908 317.817 443.601 312.191C447.089 306.741 450.603 301.81 453.914 297.205C457.224 292.6 460.426 288.295 463.45 284.535C468.255 278.569 473.526 272.993 479.212 267.86C481.229 266.048 482.836 264.686 483.926 263.773L485.193 262.752C485.348 262.616 485.517 262.498 485.697 262.397Z" fill="#263238"/>
<path d="M433.656 329.615C433.464 329.053 433.331 328.473 433.261 327.884C433.043 326.754 432.798 325.16 432.512 323.089C431.926 319.002 431.326 313.403 430.686 307.204C430.046 301.006 429.324 295.393 428.724 291.347C428.411 289.331 428.139 287.709 427.948 286.579C427.799 286 427.721 285.405 427.716 284.808C427.951 285.353 428.12 285.925 428.22 286.511C428.52 287.628 428.861 289.235 429.242 291.265C430.019 295.352 430.782 300.91 431.422 307.123C432.062 313.335 432.607 318.784 433.029 323.021C433.234 324.928 433.411 326.549 433.547 327.844C433.653 328.428 433.689 329.022 433.656 329.615Z" fill="#263238"/>
<path d="M486.078 319.833C485.415 319.978 484.74 320.06 484.062 320.079C482.7 320.201 480.765 320.365 478.368 320.637C473.572 321.155 466.979 322.109 459.745 323.471C452.511 324.833 446.012 326.373 441.34 327.558C439.01 328.157 437.13 328.702 435.89 329.07C435.228 329.305 434.543 329.47 433.847 329.56C434.476 329.244 435.133 328.984 435.809 328.784C437.089 328.334 438.942 327.708 441.258 327.04C445.903 325.678 452.402 324.057 459.663 322.667C465.814 321.491 472.02 320.627 478.259 320.079C480.67 319.874 482.618 319.793 483.98 319.765C484.68 319.718 485.383 319.741 486.078 319.833Z" fill="#263238"/>
<path d="M410.905 387.814C410.76 387.617 410.641 387.402 410.551 387.174L409.652 385.28C408.875 383.632 407.826 381.193 406.573 378.21C404.039 372.215 400.81 363.824 397.377 354.505C393.944 345.187 390.784 336.795 388.386 330.733C387.214 327.79 386.247 325.379 385.525 323.58L384.762 321.632C384.656 321.408 384.583 321.169 384.544 320.924C384.689 321.121 384.808 321.336 384.898 321.564L385.797 323.458C386.56 325.106 387.623 327.545 388.876 330.528C391.41 336.523 394.639 344.914 398.072 354.233C401.505 363.551 404.666 371.943 407.063 378.005C408.235 380.948 409.202 383.359 409.911 385.158C410.224 385.934 410.483 386.52 410.687 387.106C410.793 387.33 410.866 387.569 410.905 387.814Z" fill="#263238"/>
<path d="M480.493 365.376C480.275 365.501 480.041 365.597 479.798 365.662L477.782 366.343L470.33 368.755C464.036 370.798 455.344 373.713 445.808 376.929C436.272 380.144 427.539 383.004 421.204 384.912C418.044 385.879 415.469 386.615 413.684 387.105L411.627 387.636C411.388 387.712 411.141 387.763 410.892 387.786C411.11 387.661 411.343 387.565 411.586 387.5L413.603 386.819L421.055 384.408C427.349 382.364 436.04 379.449 445.576 376.234C455.113 373.019 463.832 370.158 470.166 368.25C473.341 367.283 475.902 366.548 477.7 366.057L479.757 365.526C479.996 365.45 480.243 365.4 480.493 365.376Z" fill="#263238"/>
<path d="M452.102 34.9164L445.086 37.4231L442.075 28.2547C436.544 11.3482 418.916 2.37043 402.718 8.07858C386.52 13.7867 377.896 32.328 383.427 49.2345L386.438 58.403L379.395 60.9233C376.709 61.965 374.528 64.0016 373.305 66.6098C372.082 69.218 371.911 72.1971 372.828 74.928L392.35 134.584C392.756 135.936 393.428 137.193 394.329 138.28C395.229 139.366 396.339 140.261 397.592 140.91C398.845 141.56 400.216 141.951 401.623 142.06C403.03 142.169 404.445 141.994 405.783 141.546L478.49 115.539C481.212 114.499 483.423 112.444 484.661 109.807C485.898 107.17 486.064 104.155 485.125 101.398L465.589 41.7417C465.173 40.3936 464.49 39.1431 463.581 38.0648C462.671 36.9864 461.554 36.1024 460.295 35.4654C459.036 34.8284 457.662 34.4515 456.254 34.3572C454.847 34.2629 453.435 34.4531 452.102 34.9164ZM396.683 44.4527C395.191 40.0568 395.459 35.2543 397.43 31.0513C399.4 26.8484 402.921 23.5711 407.254 21.9062C409.394 21.1741 411.659 20.8806 413.915 21.043C416.17 21.2055 418.37 21.8206 420.383 22.8518C422.395 23.8829 424.18 25.3089 425.629 27.0447C427.079 28.7804 428.164 30.7904 428.82 32.9547L431.817 42.1231L399.68 53.6212L396.683 44.4527ZM437.552 97.3928L442.538 112.624C442.63 112.929 442.601 113.258 442.456 113.542C442.311 113.826 442.063 114.044 441.762 114.149L434.773 116.642C434.495 116.72 434.198 116.686 433.944 116.549C433.69 116.412 433.499 116.182 433.411 115.907L428.384 100.744C425.612 100.593 422.952 99.5989 420.761 97.8946C418.57 96.1903 416.952 93.8572 416.123 91.2078C414.938 87.7052 415.154 83.88 416.726 80.5331C418.298 77.1862 421.104 74.5772 424.556 73.2523C426.26 72.67 428.064 72.4367 429.861 72.5665C431.658 72.6963 433.41 73.1863 435.013 74.0076C436.616 74.8288 438.037 75.9644 439.192 77.3466C440.347 78.7289 441.212 80.3294 441.735 82.053C442.611 84.7443 442.684 87.6329 441.943 90.3648C441.203 93.0967 439.682 95.5533 437.566 97.4336L437.552 97.3928Z" fill="#7ECA9D"/>
<path d="M444.773 37.2597C444.773 37.4505 431.763 42.3412 415.578 48.1583C399.394 53.9755 386.193 58.6483 386.125 58.512C386.056 58.3758 399.135 53.4442 415.333 47.6134C431.531 41.7827 444.705 37.0826 444.773 37.2597Z" fill="#263238"/>
<path d="M460.222 39.7666C460.282 39.8848 460.332 40.0079 460.371 40.1344C460.48 40.4069 460.603 40.7611 460.766 41.197C461.121 42.1915 461.611 43.5675 462.224 45.284L467.455 60.5149C469.635 66.9723 472.237 74.6286 475.125 83.1295C476.488 87.3936 478.095 91.8348 479.594 96.5075C480.396 98.9155 480.742 101.452 480.616 103.987C480.5 105.305 480.125 106.588 479.512 107.76C478.857 108.929 477.983 109.961 476.937 110.798C474.833 112.335 472.496 113.526 470.017 114.327L463.001 116.847L449.718 121.602L427.226 129.612L412.036 134.952L407.949 136.315L406.859 136.669C406.743 136.721 406.618 136.753 406.491 136.764C406.491 136.764 406.6 136.764 406.832 136.601L407.895 136.179L411.982 134.639L427.09 129.081L449.541 120.907L462.796 116.111L469.812 113.578C472.222 112.809 474.49 111.654 476.529 110.158C477.502 109.381 478.316 108.423 478.926 107.338C479.503 106.253 479.851 105.062 479.948 103.837C480.073 101.394 479.741 98.9502 478.967 96.6302C477.496 91.9982 475.943 87.5162 474.54 83.2521C471.706 74.7376 469.09 67.054 467.02 60.5966C464.949 54.1392 463.205 48.9487 462.006 45.2977C461.434 43.513 460.998 42.1234 460.644 41.1153L460.317 40.0254C460.276 39.9429 460.244 39.8561 460.222 39.7666Z" fill="#263238"/>
<path d="M421.858 20.9801C421.858 20.9801 421.136 20.6258 419.801 20.0809C417.898 19.3497 415.886 18.9444 413.848 18.8821C410.828 18.7785 407.822 19.3461 405.047 20.5441C401.673 22.0358 398.788 24.4486 396.724 27.5056C394.645 30.5538 393.529 34.1561 393.522 37.8457C393.55 40.8697 394.009 43.8742 394.884 46.7689C395.593 49.2483 396.328 51.2237 396.819 52.5997C397.108 53.2986 397.345 54.0181 397.527 54.7522C397.14 54.0987 396.816 53.4099 396.56 52.695C396.001 51.3327 395.198 49.3982 394.408 46.9052C393.438 43.9801 392.91 40.9266 392.841 37.8457C392.805 34.0167 393.946 30.2692 396.11 27.1105C398.247 23.9419 401.25 21.4545 404.761 19.9447C407.622 18.7402 410.722 18.2088 413.821 18.3916C415.903 18.4977 417.948 18.9825 419.856 19.8221C420.366 20.0574 420.858 20.3307 421.327 20.6395C421.521 20.7246 421.7 20.8395 421.858 20.9801Z" fill="#263238"/>
<path d="M422.485 74.2876C422.703 74.1558 422.93 74.0419 423.166 73.947C423.848 73.6393 424.554 73.3887 425.278 73.1977C426.426 72.8588 427.611 72.6576 428.806 72.5983C430.433 72.5109 432.06 72.7566 433.588 73.3203C437.076 74.5464 440.277 78.1021 441.857 82.8566C442.615 85.4081 442.615 88.1249 441.857 90.6764C441.017 93.4457 439.511 95.9669 437.471 98.0193L437.552 97.6515C439.364 102.624 441.34 108.019 443.383 113.645L443.506 113.986L443.165 114.108L440.045 115.144L433.234 117.419L432.893 117.528L432.784 117.187C430.918 111.547 428.874 106.289 427.335 101.125L427.635 101.357C424.971 101.136 422.432 100.136 420.333 98.4825C418.433 97.0196 416.876 95.1599 415.769 93.0332C414.77 91.1472 414.273 89.0362 414.325 86.9027C414.388 84.7223 414.932 82.5827 415.919 80.6373C416.906 78.6919 418.311 76.9888 420.033 75.6499C420.742 75.0745 421.537 74.6147 422.39 74.2876C421.62 74.7442 420.874 75.2398 420.155 75.7725C418.264 77.3731 416.814 79.4323 415.946 81.7531C415.201 83.5032 414.852 85.3967 414.925 87.2975C414.998 89.1983 415.491 91.0593 416.368 92.7471C417.457 94.793 418.977 96.578 420.823 97.9785C422.826 99.5503 425.247 100.498 427.785 100.703H428.016L428.084 100.907C429.583 105.975 431.64 111.275 433.534 116.942L433.084 116.724L439.896 114.449L443.002 113.4L442.784 113.863C440.754 108.237 438.792 102.828 436.994 97.8558V97.6515L437.157 97.488C439.138 95.5207 440.615 93.1046 441.462 90.4448C442.185 88.0041 442.185 85.4063 441.462 82.9656C439.977 78.3882 436.912 74.9143 433.588 73.6882C432.117 73.1208 430.546 72.8567 428.97 72.9116C427.793 72.9386 426.623 73.0985 425.482 73.3884C423.452 73.8925 422.499 74.3557 422.485 74.2876Z" fill="#263238"/>
<path d="M380.375 467.646L244.292 467.019C236.434 466.976 228.914 463.815 223.383 458.232C217.853 452.648 214.765 445.097 214.798 437.239L216.242 96.0982C216.258 92.2048 217.041 88.3526 218.547 84.7621C220.053 81.1715 222.251 77.9128 225.017 75.1724C227.783 72.432 231.061 70.2635 234.666 68.7909C238.27 67.3183 242.129 66.5705 246.023 66.5902L382.092 67.2169C389.951 67.2565 397.472 70.4137 403.005 75.9949C408.538 81.5761 411.629 89.125 411.6 96.9837L410.156 438.111C410.14 442.005 409.357 445.859 407.851 449.451C406.346 453.043 404.148 456.303 401.383 459.046C398.617 461.789 395.339 463.96 391.734 465.435C388.13 466.911 384.27 467.662 380.375 467.646Z" fill="#455A64"/>
<path d="M381.888 78.947H355.513C354.652 78.9629 353.803 79.1482 353.014 79.4924C352.226 79.8365 351.512 80.3327 350.915 80.9526C350.318 81.5725 349.849 82.304 349.534 83.1052C349.22 83.9065 349.067 84.7618 349.083 85.6224V90.4041C349.099 91.264 348.945 92.1187 348.631 92.9192C348.316 93.7196 347.847 94.4502 347.25 95.069C346.652 95.6878 345.939 96.1827 345.15 96.5254C344.361 96.868 343.513 97.0517 342.653 97.0659L291.238 96.8343C289.499 96.7879 287.849 96.0532 286.651 94.7913C285.453 93.5295 284.805 91.8438 284.849 90.1044V85.3226C284.893 83.5856 284.247 81.9019 283.052 80.6404C281.857 79.379 280.21 78.6427 278.473 78.5927H269.196L246.104 78.4838C240.612 78.4511 235.331 80.596 231.416 84.449C227.502 88.302 225.274 93.5491 225.22 99.0413L223.858 432.021C223.845 434.746 224.369 437.447 225.4 439.969C226.432 442.491 227.949 444.785 229.867 446.721C231.785 448.656 234.065 450.195 236.578 451.249C239.09 452.303 241.786 452.853 244.511 452.865L380.307 453.492C383.034 453.504 385.736 452.98 388.26 451.948C390.784 450.916 393.079 449.397 395.016 447.478C396.953 445.559 398.493 443.277 399.548 440.763C400.603 438.249 401.152 435.552 401.165 432.825L402.527 99.8451C402.56 94.3374 400.404 89.0421 396.534 85.1233C392.663 81.2046 387.395 78.983 381.888 78.947Z" fill="white"/>
<path d="M363.619 409.066L262.643 408.63C261.594 408.63 260.749 407.486 260.763 406.096L260.872 379.68C260.872 378.318 261.73 377.146 262.779 377.146L363.755 377.61C364.336 377.71 364.856 378.031 365.207 378.506C365.557 378.981 365.71 379.572 365.635 380.157L365.54 406.545C365.54 407.949 364.668 409.079 363.619 409.066Z" fill="#7ECA9D"/>
<path d="M292.549 393.044C292.127 393.044 291.72 392.976 291.33 392.841C290.945 392.705 290.647 392.526 290.435 392.304L290.671 391.84C290.877 392.046 291.151 392.215 291.492 392.345C291.834 392.469 292.186 392.532 292.549 392.532C293.059 392.532 293.441 392.439 293.696 392.255C293.951 392.065 294.078 391.822 294.078 391.523C294.078 391.296 294.008 391.114 293.867 390.979C293.731 390.843 293.563 390.74 293.363 390.67C293.162 390.594 292.883 390.512 292.525 390.426C292.097 390.317 291.755 390.214 291.5 390.117C291.246 390.014 291.026 389.859 290.842 389.653C290.663 389.447 290.574 389.168 290.574 388.816C290.574 388.528 290.649 388.268 290.801 388.035C290.953 387.797 291.186 387.607 291.5 387.466C291.815 387.325 292.205 387.254 292.671 387.254C292.997 387.254 293.314 387.301 293.623 387.393C293.937 387.479 294.208 387.601 294.436 387.759L294.233 388.238C293.994 388.081 293.739 387.965 293.468 387.889C293.197 387.807 292.932 387.767 292.671 387.767C292.173 387.767 291.796 387.864 291.541 388.059C291.292 388.249 291.167 388.496 291.167 388.799C291.167 389.027 291.235 389.211 291.37 389.352C291.511 389.488 291.685 389.594 291.891 389.669C292.102 389.74 292.384 389.818 292.736 389.905C293.154 390.008 293.49 390.111 293.745 390.214C294.005 390.312 294.224 390.464 294.403 390.67C294.582 390.87 294.672 391.144 294.672 391.491C294.672 391.778 294.593 392.041 294.436 392.28C294.284 392.513 294.048 392.7 293.728 392.841C293.409 392.976 293.016 393.044 292.549 393.044ZM295.983 387.303H296.584V392.995H295.983V387.303ZM303.193 387.303V392.995H302.697L299.038 388.377V392.995H298.436V387.303H298.932L302.6 391.922V387.303H303.193ZM309.06 390.149H309.637V392.32C309.371 392.553 309.057 392.732 308.694 392.857C308.331 392.982 307.948 393.044 307.547 393.044C306.978 393.044 306.466 392.919 306.01 392.67C305.555 392.421 305.197 392.076 304.937 391.637C304.677 391.193 304.547 390.697 304.547 390.149C304.547 389.602 304.677 389.108 304.937 388.669C305.197 388.225 305.555 387.878 306.01 387.628C306.466 387.379 306.981 387.254 307.555 387.254C307.989 387.254 308.388 387.325 308.751 387.466C309.114 387.601 309.42 387.805 309.67 388.076L309.296 388.458C308.846 388.013 308.274 387.791 307.58 387.791C307.119 387.791 306.702 387.894 306.328 388.1C305.959 388.301 305.669 388.583 305.458 388.946C305.246 389.304 305.14 389.705 305.14 390.149C305.14 390.594 305.246 390.995 305.458 391.353C305.669 391.71 305.959 391.992 306.328 392.198C306.696 392.404 307.111 392.507 307.572 392.507C308.157 392.507 308.653 392.361 309.06 392.068V390.149ZM315.761 393.044C315.024 393.044 314.449 392.832 314.037 392.41C313.625 391.987 313.419 391.372 313.419 390.564V387.303H314.021V390.539C314.021 391.201 314.17 391.694 314.468 392.019C314.766 392.345 315.197 392.507 315.761 392.507C316.33 392.507 316.764 392.345 317.062 392.019C317.36 391.694 317.509 391.201 317.509 390.539V387.303H318.095V390.564C318.095 391.372 317.889 391.987 317.477 392.41C317.07 392.832 316.498 393.044 315.761 393.044ZM322.038 387.303C322.765 387.303 323.334 387.477 323.746 387.824C324.158 388.171 324.364 388.648 324.364 389.255C324.364 389.862 324.158 390.339 323.746 390.686C323.334 391.027 322.765 391.198 322.038 391.198H320.51V392.995H319.908V387.303H322.038ZM322.022 390.67C322.586 390.67 323.017 390.548 323.315 390.304C323.613 390.054 323.762 389.705 323.762 389.255C323.762 388.794 323.613 388.442 323.315 388.198C323.017 387.948 322.586 387.824 322.022 387.824H320.51V390.67H322.022Z" fill="#E8E8E3"/>
<path d="M282.784 176.83L247.745 176.671L247.716 183.101L282.755 183.26L282.784 176.83Z" fill="#7ECA9D"/>
<path opacity="0.1" d="M282.784 176.83L247.745 176.671L247.716 183.101L282.755 183.26L282.784 176.83Z" fill="black"/>
<path d="M385.498 216.31C385.773 216.282 386.043 216.218 386.302 216.119C386.679 215.972 387.006 215.721 387.247 215.396C387.488 215.071 387.633 214.684 387.664 214.28C387.664 212.114 387.664 208.953 387.664 204.894C387.664 202.864 387.664 200.589 387.664 198.082C387.664 197.469 387.664 196.829 387.664 196.188C387.753 195.567 387.617 194.935 387.282 194.404C387.095 194.149 386.851 193.942 386.57 193.798C386.288 193.653 385.977 193.577 385.661 193.573H383.536H363.85L249.905 193.15C249.614 193.146 249.325 193.211 249.064 193.342C248.803 193.472 248.578 193.663 248.407 193.9C248.078 194.433 247.952 195.066 248.053 195.684C248.053 197.047 248.053 198.409 248.053 199.771C248.053 202.496 248.053 205.221 248.053 207.945C248.053 209.308 248.053 210.67 248.053 212.032C247.996 212.667 247.996 213.305 248.053 213.94C248.124 214.212 248.257 214.464 248.441 214.676C248.626 214.889 248.856 215.056 249.115 215.166C249.384 215.273 249.671 215.324 249.96 215.316H256.894L287.151 215.479L338.375 215.792L372.91 216.065L382.296 216.174H384.735C385.293 216.174 385.566 216.174 385.566 216.174H384.735H382.296H372.91H338.375L287.151 216.01L256.894 215.888H249.96C249.578 215.903 249.198 215.838 248.843 215.697C248.484 215.544 248.165 215.311 247.91 215.016C247.655 214.721 247.471 214.371 247.371 213.994C247.293 213.637 247.265 213.27 247.29 212.904V211.896C247.29 210.534 247.29 209.171 247.29 207.809C247.29 205.084 247.29 202.36 247.29 199.635C247.29 198.273 247.29 196.911 247.29 195.548C247.264 195.185 247.264 194.821 247.29 194.458C247.341 194.058 247.496 193.677 247.739 193.355C247.974 193.026 248.285 192.759 248.646 192.576C249.006 192.394 249.406 192.301 249.81 192.306L363.755 192.933L383.441 193.069H385.566C385.94 193.069 386.309 193.16 386.641 193.333C386.973 193.506 387.259 193.756 387.473 194.063C387.857 194.656 388.012 195.368 387.909 196.066C387.909 196.706 387.909 197.346 387.909 197.96C387.909 200.439 387.909 202.714 387.909 204.771C387.909 208.858 387.814 211.991 387.786 214.171C387.753 214.59 387.601 214.991 387.347 215.327C387.094 215.662 386.75 215.918 386.356 216.065C386.098 216.225 385.801 216.31 385.498 216.31Z" fill="#E0E0E0"/>
<path d="M322.354 199.989H258.27V205.997H322.354V199.989Z" fill="#7ECA9D"/>
<path opacity="0.2" d="M322.354 199.989H258.27V205.997H322.354V199.989Z" fill="white"/>
<path d="M282.545 235.49L247.506 235.331L247.477 241.761L282.516 241.92L282.545 235.49Z" fill="#7ECA9D"/>
<path opacity="0.1" d="M282.545 235.49L247.506 235.331L247.477 241.761L282.516 241.92L282.545 235.49Z" fill="black"/>
<path d="M384.612 274.972C384.887 274.938 385.16 274.888 385.43 274.822C385.81 274.701 386.16 274.499 386.456 274.231C386.753 273.963 386.988 273.635 387.146 273.269C387.361 272.719 387.445 272.126 387.391 271.538C387.391 270.885 387.391 270.176 387.391 269.386C387.391 267.806 387.391 266.007 387.391 263.937V255.286C387.456 254.66 387.318 254.029 386.996 253.488C386.66 252.932 386.132 252.52 385.511 252.33C384.833 252.209 384.142 252.172 383.454 252.221H363.85L250.3 251.798C249.69 251.8 249.1 252.023 248.642 252.426C248.183 252.83 247.887 253.386 247.807 253.992C247.807 255.286 247.807 256.716 247.807 258.079C247.807 260.803 247.807 263.528 247.807 266.253C247.807 267.615 247.807 268.977 247.807 270.34C247.757 270.976 247.784 271.617 247.889 272.247C248.059 272.799 248.409 273.279 248.884 273.609C249.387 273.929 249.978 274.081 250.573 274.045H252.467H256.404L286.552 274.195L337.598 274.508L372.011 274.781L381.37 274.89H372.011H337.598L286.525 274.835L256.376 274.726H250.45C249.713 274.77 248.982 274.574 248.366 274.168C247.746 273.738 247.294 273.108 247.085 272.383C246.963 271.691 246.927 270.986 246.976 270.285C246.976 268.923 246.976 267.56 246.976 266.198C246.976 263.473 246.976 260.749 246.976 258.024C246.976 256.662 246.976 255.3 246.976 253.937C247.076 253.158 247.456 252.442 248.045 251.923C248.634 251.404 249.393 251.117 250.178 251.117L363.728 251.744L383.332 251.894C384.062 251.849 384.794 251.899 385.511 252.044C386.219 252.275 386.816 252.76 387.187 253.406C387.54 254.006 387.692 254.702 387.623 255.395C387.623 256.035 387.623 256.662 387.623 257.289C387.623 259.754 387.623 262.016 387.623 264.1C387.623 266.185 387.623 267.942 387.623 269.549C387.623 270.326 387.623 271.048 387.623 271.716C387.673 272.325 387.574 272.937 387.337 273.5C387.16 273.876 386.904 274.209 386.587 274.477C386.269 274.746 385.898 274.942 385.498 275.053C385.2 275.078 384.9 275.05 384.612 274.972Z" fill="#E0E0E0"/>
<path d="M282.281 296.698L247.242 296.539L247.213 302.969L282.252 303.128L282.281 296.698Z" fill="#7ECA9D"/>
<path opacity="0.1" d="M282.281 296.698L247.242 296.539L247.213 302.969L282.252 303.128L282.281 296.698Z" fill="black"/>
<path d="M384.34 336.154C384.615 336.121 384.888 336.071 385.157 336.004C385.536 335.883 385.885 335.684 386.181 335.418C386.477 335.153 386.713 334.828 386.874 334.464C387.087 333.914 387.171 333.322 387.119 332.734C387.119 332.067 387.119 331.372 387.119 330.568C387.119 329.001 387.119 327.189 387.119 325.119V316.468C387.184 315.842 387.045 315.211 386.724 314.67C386.38 314.125 385.854 313.719 385.239 313.525C384.561 313.399 383.87 313.358 383.182 313.403H363.578L250.028 312.98C249.417 312.982 248.828 313.205 248.369 313.608C247.911 314.012 247.614 314.568 247.535 315.174C247.535 316.536 247.535 317.898 247.535 319.261C247.535 321.985 247.535 324.71 247.535 327.435C247.535 328.797 247.535 330.159 247.535 331.522C247.484 332.154 247.512 332.79 247.617 333.415C247.78 333.971 248.131 334.453 248.611 334.778C249.111 335.104 249.705 335.257 250.3 335.213H256.226L286.375 335.377L337.421 335.69L371.834 335.963L381.193 336.072H371.834H337.421L286.375 335.922L256.226 335.799H250.3C249.563 335.849 248.83 335.653 248.216 335.241C247.596 334.811 247.144 334.181 246.935 333.456C246.813 332.764 246.777 332.059 246.826 331.358C246.826 329.996 246.826 328.633 246.826 327.271C246.826 324.546 246.826 321.822 246.826 319.097C246.826 317.735 246.826 316.373 246.826 314.942C246.923 314.164 247.3 313.448 247.887 312.929C248.474 312.41 249.23 312.123 250.014 312.122L363.564 312.749L383.168 312.899C383.898 312.854 384.631 312.904 385.348 313.048C386.056 313.28 386.653 313.765 387.024 314.411C387.376 315.011 387.529 315.707 387.46 316.4C387.46 317.04 387.46 317.68 387.46 318.293C387.46 320.759 387.46 323.021 387.46 325.105C387.46 327.189 387.46 328.947 387.46 330.554C387.46 331.331 387.46 332.053 387.46 332.72C387.512 333.33 387.414 333.943 387.173 334.505C386.997 334.881 386.741 335.214 386.423 335.482C386.106 335.75 385.734 335.947 385.334 336.058C385.015 336.168 384.674 336.2 384.34 336.154Z" fill="#E0E0E0"/>
<path d="M320.986 260.349L256.903 260.059L256.875 266.066L320.959 266.357L320.986 260.349Z" fill="#7ECA9D"/>
<path opacity="0.2" d="M320.986 260.349L256.903 260.059L256.875 266.066L320.959 266.357L320.986 260.349Z" fill="white"/>
<path d="M262.698 325.037C262.657 325.585 262.457 326.109 262.122 326.545C261.787 326.98 261.331 327.307 260.811 327.486C260.292 327.664 259.731 327.687 259.199 327.55C258.667 327.412 258.187 327.122 257.818 326.715C257.449 326.308 257.208 325.801 257.125 325.258C257.041 324.715 257.119 324.159 257.349 323.66C257.578 323.16 257.949 322.74 258.416 322.449C258.882 322.159 259.424 322.012 259.973 322.026C260.732 322.069 261.444 322.408 261.954 322.972C262.464 323.536 262.731 324.278 262.698 325.037Z" fill="#7ECA9D"/>
<path d="M271.376 325.078C271.402 325.462 271.35 325.848 271.221 326.21C271.093 326.573 270.891 326.906 270.628 327.187C270.366 327.469 270.048 327.694 269.695 327.847C269.342 328.001 268.961 328.08 268.576 328.08C268.191 328.08 267.81 328.001 267.457 327.847C267.104 327.694 266.786 327.469 266.524 327.187C266.261 326.906 266.059 326.573 265.931 326.21C265.802 325.848 265.75 325.462 265.776 325.078C265.75 324.694 265.802 324.308 265.931 323.946C266.059 323.583 266.261 323.25 266.524 322.968C266.786 322.687 267.104 322.462 267.457 322.309C267.81 322.155 268.191 322.076 268.576 322.076C268.961 322.076 269.342 322.155 269.695 322.309C270.048 322.462 270.366 322.687 270.628 322.968C270.891 323.25 271.093 323.583 271.221 323.946C271.35 324.308 271.402 324.694 271.376 325.078Z" fill="#7ECA9D"/>
<path d="M280.067 325.119C280.027 325.667 279.827 326.191 279.491 326.627C279.156 327.062 278.7 327.389 278.181 327.568C277.661 327.746 277.101 327.769 276.568 327.632C276.036 327.495 275.556 327.204 275.187 326.797C274.819 326.39 274.578 325.883 274.494 325.34C274.411 324.797 274.489 324.241 274.718 323.742C274.948 323.243 275.319 322.822 275.785 322.531C276.252 322.241 276.793 322.094 277.343 322.108C278.1 322.154 278.81 322.495 279.319 323.058C279.829 323.621 280.097 324.361 280.067 325.119Z" fill="#7ECA9D"/>
<path d="M288.745 325.16C288.705 325.708 288.505 326.232 288.17 326.668C287.834 327.103 287.378 327.43 286.859 327.609C286.339 327.787 285.779 327.81 285.247 327.673C284.714 327.536 284.234 327.245 283.866 326.838C283.497 326.431 283.256 325.924 283.173 325.381C283.089 324.838 283.167 324.282 283.396 323.783C283.626 323.284 283.997 322.863 284.463 322.572C284.93 322.282 285.471 322.135 286.021 322.149C286.778 322.195 287.488 322.536 287.997 323.099C288.507 323.662 288.775 324.402 288.745 325.16Z" fill="#7ECA9D"/>
<path d="M297.423 325.188C297.386 325.736 297.188 326.262 296.854 326.699C296.52 327.136 296.065 327.466 295.545 327.647C295.026 327.827 294.465 327.851 293.931 327.716C293.398 327.58 292.917 327.291 292.547 326.884C292.177 326.477 291.935 325.97 291.85 325.426C291.766 324.883 291.843 324.326 292.072 323.826C292.302 323.326 292.673 322.905 293.14 322.614C293.607 322.323 294.149 322.176 294.699 322.19C295.454 322.236 296.161 322.575 296.67 323.135C297.179 323.695 297.45 324.431 297.423 325.188Z" fill="#7ECA9D"/>
<path d="M306.115 325.229C306.078 325.775 305.882 326.298 305.551 326.734C305.22 327.17 304.769 327.5 304.254 327.683C303.738 327.866 303.18 327.894 302.649 327.764C302.117 327.634 301.635 327.351 301.262 326.951C300.889 326.551 300.641 326.05 300.549 325.511C300.457 324.971 300.524 324.417 300.743 323.915C300.962 323.414 301.323 322.987 301.781 322.688C302.239 322.389 302.775 322.23 303.322 322.231C304.09 322.26 304.814 322.591 305.338 323.153C305.861 323.715 306.141 324.461 306.115 325.229Z" fill="#7ECA9D"/>
<path d="M314.793 325.269C314.82 325.653 314.767 326.039 314.639 326.402C314.51 326.765 314.308 327.097 314.046 327.379C313.783 327.66 313.465 327.885 313.112 328.038C312.759 328.192 312.378 328.271 311.993 328.271C311.608 328.271 311.227 328.192 310.874 328.038C310.521 327.885 310.204 327.66 309.941 327.379C309.678 327.097 309.477 326.765 309.348 326.402C309.22 326.039 309.167 325.653 309.194 325.269C309.167 324.885 309.22 324.5 309.348 324.137C309.477 323.774 309.678 323.441 309.941 323.16C310.204 322.878 310.521 322.654 310.874 322.5C311.227 322.347 311.608 322.268 311.993 322.268C312.378 322.268 312.759 322.347 313.112 322.5C313.465 322.654 313.783 322.878 314.046 323.16C314.308 323.441 314.51 323.774 314.639 324.137C314.767 324.5 314.82 324.885 314.793 325.269Z" fill="#7ECA9D"/>
<path d="M323.471 325.31C323.434 325.856 323.238 326.379 322.907 326.815C322.576 327.251 322.125 327.581 321.61 327.764C321.094 327.947 320.536 327.975 320.004 327.845C319.473 327.715 318.991 327.432 318.618 327.032C318.245 326.632 317.997 326.131 317.905 325.592C317.813 325.052 317.88 324.498 318.099 323.996C318.318 323.495 318.679 323.068 319.137 322.769C319.595 322.47 320.131 322.311 320.678 322.313C321.446 322.341 322.17 322.672 322.694 323.234C323.217 323.796 323.497 324.542 323.471 325.31Z" fill="#7ECA9D"/>
<path d="M332.149 325.351C332.111 325.899 331.913 326.425 331.58 326.862C331.246 327.299 330.791 327.629 330.271 327.81C329.752 327.99 329.19 328.014 328.657 327.879C328.124 327.743 327.643 327.454 327.273 327.047C326.903 326.64 326.66 326.133 326.576 325.589C326.492 325.046 326.569 324.489 326.798 323.989C327.027 323.489 327.399 323.068 327.865 322.777C328.332 322.486 328.874 322.339 329.424 322.354C330.18 322.399 330.887 322.738 331.396 323.298C331.905 323.858 332.175 324.594 332.149 325.351Z" fill="#7ECA9D"/>
<g opacity="0.2">
<path d="M262.698 325.037C262.657 325.585 262.457 326.109 262.122 326.545C261.787 326.98 261.331 327.307 260.811 327.486C260.292 327.664 259.731 327.687 259.199 327.55C258.667 327.412 258.187 327.122 257.818 326.715C257.449 326.308 257.208 325.801 257.125 325.258C257.041 324.715 257.119 324.159 257.349 323.66C257.578 323.16 257.949 322.74 258.416 322.449C258.882 322.159 259.424 322.012 259.973 322.026C260.732 322.069 261.444 322.408 261.954 322.972C262.464 323.536 262.731 324.278 262.698 325.037Z" fill="white"/>
<path d="M271.376 325.078C271.402 325.462 271.35 325.848 271.221 326.21C271.093 326.573 270.891 326.906 270.628 327.187C270.366 327.469 270.048 327.694 269.695 327.847C269.342 328.001 268.961 328.08 268.576 328.08C268.191 328.08 267.81 328.001 267.457 327.847C267.104 327.694 266.786 327.469 266.524 327.187C266.261 326.906 266.059 326.573 265.931 326.21C265.802 325.848 265.75 325.462 265.776 325.078C265.75 324.694 265.802 324.308 265.931 323.946C266.059 323.583 266.261 323.25 266.524 322.968C266.786 322.687 267.104 322.462 267.457 322.309C267.81 322.155 268.191 322.076 268.576 322.076C268.961 322.076 269.342 322.155 269.695 322.309C270.048 322.462 270.366 322.687 270.628 322.968C270.891 323.25 271.093 323.583 271.221 323.946C271.35 324.308 271.402 324.694 271.376 325.078Z" fill="white"/>
<path d="M280.067 325.119C280.027 325.667 279.827 326.191 279.491 326.627C279.156 327.062 278.7 327.389 278.181 327.568C277.661 327.746 277.101 327.769 276.568 327.632C276.036 327.495 275.556 327.204 275.187 326.797C274.819 326.39 274.578 325.883 274.494 325.34C274.411 324.797 274.489 324.241 274.718 323.742C274.948 323.243 275.319 322.822 275.785 322.531C276.252 322.241 276.793 322.094 277.343 322.108C278.1 322.154 278.81 322.495 279.319 323.058C279.829 323.621 280.097 324.361 280.067 325.119Z" fill="white"/>
<path d="M288.745 325.16C288.705 325.708 288.505 326.232 288.17 326.668C287.834 327.103 287.378 327.43 286.859 327.609C286.339 327.787 285.779 327.81 285.247 327.673C284.714 327.536 284.234 327.245 283.866 326.838C283.497 326.431 283.256 325.924 283.173 325.381C283.089 324.838 283.167 324.282 283.396 323.783C283.626 323.284 283.997 322.863 284.463 322.572C284.93 322.282 285.471 322.135 286.021 322.149C286.778 322.195 287.488 322.536 287.997 323.099C288.507 323.662 288.775 324.402 288.745 325.16Z" fill="white"/>
<path d="M297.423 325.187C297.386 325.735 297.188 326.261 296.854 326.698C296.52 327.135 296.065 327.465 295.545 327.646C295.026 327.826 294.465 327.85 293.931 327.715C293.398 327.579 292.917 327.29 292.547 326.883C292.177 326.476 291.935 325.969 291.85 325.425C291.766 324.882 291.843 324.325 292.072 323.825C292.302 323.325 292.673 322.904 293.14 322.613C293.607 322.322 294.149 322.175 294.699 322.189C295.454 322.235 296.161 322.574 296.67 323.134C297.179 323.694 297.45 324.43 297.423 325.187Z" fill="white"/>
<path d="M306.115 325.228C306.078 325.774 305.882 326.297 305.551 326.733C305.22 327.169 304.769 327.499 304.254 327.682C303.738 327.865 303.18 327.893 302.649 327.763C302.117 327.633 301.635 327.35 301.262 326.95C300.889 326.55 300.641 326.049 300.549 325.51C300.457 324.97 300.524 324.416 300.743 323.914C300.962 323.413 301.323 322.986 301.781 322.687C302.239 322.388 302.775 322.229 303.322 322.23C304.09 322.259 304.814 322.59 305.338 323.152C305.861 323.714 306.141 324.46 306.115 325.228Z" fill="white"/>
<path d="M314.793 325.268C314.82 325.652 314.767 326.038 314.639 326.401C314.51 326.764 314.308 327.096 314.046 327.378C313.783 327.659 313.465 327.884 313.112 328.037C312.759 328.191 312.378 328.27 311.993 328.27C311.608 328.27 311.227 328.191 310.874 328.037C310.521 327.884 310.204 327.659 309.941 327.378C309.678 327.096 309.477 326.764 309.348 326.401C309.22 326.038 309.167 325.652 309.194 325.268C309.167 324.884 309.22 324.499 309.348 324.136C309.477 323.773 309.678 323.44 309.941 323.159C310.204 322.877 310.521 322.653 310.874 322.499C311.227 322.346 311.608 322.267 311.993 322.267C312.378 322.267 312.759 322.346 313.112 322.499C313.465 322.653 313.783 322.877 314.046 323.159C314.308 323.44 314.51 323.773 314.639 324.136C314.767 324.499 314.82 324.884 314.793 325.268Z" fill="white"/>
<path d="M323.471 325.31C323.434 325.856 323.238 326.379 322.907 326.815C322.576 327.251 322.125 327.581 321.61 327.764C321.094 327.947 320.536 327.975 320.004 327.845C319.473 327.715 318.991 327.432 318.618 327.032C318.245 326.632 317.997 326.131 317.905 325.592C317.813 325.052 317.88 324.498 318.099 323.996C318.318 323.495 318.679 323.068 319.137 322.769C319.595 322.47 320.131 322.311 320.678 322.313C321.446 322.341 322.17 322.672 322.694 323.234C323.217 323.796 323.497 324.542 323.471 325.31Z" fill="white"/>
<path d="M332.149 325.351C332.111 325.899 331.913 326.425 331.58 326.862C331.246 327.299 330.791 327.629 330.271 327.81C329.752 327.99 329.19 328.014 328.657 327.879C328.124 327.743 327.643 327.454 327.273 327.047C326.903 326.64 326.66 326.133 326.576 325.589C326.492 325.046 326.569 324.489 326.798 323.989C327.027 323.489 327.399 323.068 327.865 322.777C328.332 322.486 328.874 322.339 329.424 322.354C330.18 322.399 330.887 322.738 331.396 323.298C331.905 323.858 332.175 324.594 332.149 325.351Z" fill="white"/>
</g>
<path d="M319.82 128.685C320.766 128.268 321.569 127.582 322.129 126.712C322.688 125.843 322.98 124.828 322.967 123.794C323.002 123.122 322.9 122.449 322.667 121.818C322.434 121.186 322.075 120.609 321.612 120.121C321.149 119.632 320.591 119.244 319.972 118.978C319.354 118.712 318.688 118.575 318.015 118.575C317.342 118.575 316.676 118.712 316.057 118.978C315.439 119.244 314.881 119.632 314.418 120.121C313.954 120.609 313.595 121.186 313.362 121.818C313.129 122.449 313.028 123.122 313.063 123.794C313.042 124.838 313.331 125.865 313.894 126.745C314.456 127.626 315.267 128.319 316.223 128.739C308.594 129.884 308.935 138.166 308.935 138.166L326.972 138.248C326.972 138.248 327.394 129.815 319.82 128.685Z" fill="#7ECA9D"/>
<path opacity="0.1" d="M319.82 128.685C320.766 128.268 321.569 127.582 322.129 126.712C322.688 125.843 322.98 124.828 322.967 123.794C323.002 123.122 322.9 122.449 322.667 121.818C322.434 121.186 322.075 120.609 321.612 120.121C321.149 119.632 320.591 119.244 319.972 118.978C319.354 118.712 318.688 118.575 318.015 118.575C317.342 118.575 316.676 118.712 316.057 118.978C315.439 119.244 314.881 119.632 314.418 120.121C313.954 120.609 313.595 121.186 313.362 121.818C313.129 122.449 313.028 123.122 313.063 123.794C313.042 124.838 313.331 125.865 313.894 126.745C314.456 127.626 315.267 128.319 316.223 128.739C308.594 129.884 308.935 138.166 308.935 138.166L326.972 138.248C326.972 138.248 327.394 129.815 319.82 128.685Z" fill="black"/>
<path d="M349.13 143.591L284.842 143.299L284.807 150.982L349.095 151.274L349.13 143.591Z" fill="#7ECA9D"/>
<path opacity="0.2" d="M349.13 143.591L284.842 143.299L284.807 150.982L349.095 151.274L349.13 143.591Z" fill="white"/>
<path d="M112.787 183.41H112.147L110.294 183.546C109.291 183.607 108.294 183.739 107.311 183.942C106.673 184.031 106.041 184.154 105.417 184.309L103.305 184.895C99.7113 185.998 96.3203 187.677 93.265 189.868C89.2282 192.798 85.8575 196.549 83.3745 200.875C81.915 203.369 80.7536 206.026 79.9141 208.79C79.032 211.795 78.5241 214.898 78.402 218.027C78.3208 219.671 78.3481 221.318 78.4837 222.959C78.4837 223.79 78.7153 224.621 78.8243 225.465C78.916 226.317 79.0754 227.16 79.3011 227.986C80.5261 233.452 83.0118 238.557 86.5597 242.893C90.1077 247.228 94.6198 250.675 99.736 252.957C103.439 254.555 107.408 255.447 111.438 255.586C115.601 255.815 119.768 255.218 123.699 253.829L124.898 253.379H125.062L125.198 253.461L142.377 262.18L141.873 262.616C140.034 256.921 138.263 251.404 136.546 246.105V245.9L136.696 245.75C140.863 241.553 143.957 236.412 145.715 230.765C147.306 225.602 147.771 220.157 147.077 214.798C146.459 210.036 144.928 205.438 142.568 201.257C140.533 197.665 137.908 194.441 134.802 191.72C132.24 189.567 129.405 187.762 126.37 186.353C124.073 185.362 121.681 184.609 119.231 184.105L116.506 183.655L114.531 183.506L113.332 183.424H112.923C113.059 183.409 113.196 183.409 113.332 183.424H114.545L116.52 183.506L119.245 183.901C121.725 184.368 124.15 185.094 126.479 186.067C129.566 187.459 132.453 189.26 135.061 191.421C138.223 194.129 140.904 197.353 142.99 200.957C145.418 205.183 146.996 209.844 147.635 214.676C148.387 220.117 147.955 225.656 146.368 230.915C144.599 236.68 141.458 241.93 137.214 246.214L137.295 245.859C139.012 251.159 140.797 256.676 142.649 262.357L142.908 263.188L142.132 262.793L124.953 254.088H125.252L124.026 254.537C120.02 255.947 115.775 256.558 111.534 256.336C107.416 256.179 103.364 255.255 99.5862 253.611C92.3791 250.524 86.3828 245.16 82.5162 238.339C80.7369 235.189 79.4374 231.792 78.6608 228.258C78.4481 227.411 78.2889 226.551 78.184 225.683C78.075 224.825 77.8979 223.98 77.857 223.136C77.4883 218.288 78.0007 213.414 79.3692 208.75C80.2296 205.947 81.4234 203.257 82.9249 200.739C85.4672 196.374 88.9081 192.598 93.0197 189.663C96.1254 187.467 99.5733 185.801 103.224 184.732L105.362 184.187C105.992 184.041 106.629 183.927 107.27 183.846C108.264 183.662 109.27 183.553 110.28 183.519L112.147 183.451C112.359 183.423 112.573 183.409 112.787 183.41Z" fill="#F6B335"/>
<path d="M120.552 215.18H118.032L112.583 207.523V202.496C112.583 202.496 108.686 202.251 109.15 208.831C109.613 215.411 109.15 213.735 109.15 213.735C109.15 213.735 100.88 213.736 100.199 214.485C99.518 215.234 99.4772 223.217 99.3818 227.672C99.3296 228.746 99.6377 229.807 100.257 230.685C100.877 231.564 101.772 232.21 102.801 232.522C103.09 232.602 103.387 232.643 103.687 232.645C105.757 232.645 116.288 230.969 116.288 230.969H120.634L120.552 215.18Z" fill="#F6B335"/>
<path d="M127.759 213.831L126.206 231.051H121.901V214.185L127.759 213.831Z" fill="#F6B335"/>
<path d="M179.105 564.398V552.75L158.221 552.601L158.044 570.215L159.338 570.311C165.1 570.679 188.655 571.224 192.524 570.025C196.829 568.69 179.105 564.398 179.105 564.398Z" fill="#7ECA9D"/>
<path d="M193.015 568.935C193.015 569.126 185.195 569.289 175.563 569.289C165.931 569.289 158.112 569.126 158.112 568.935C158.112 568.745 165.931 568.581 175.563 568.581C185.195 568.581 193.015 568.745 193.015 568.935Z" fill="#263238"/>
<path d="M179.473 566.782C179.296 566.687 179.473 566.074 179.895 565.42C180.318 564.766 180.89 564.494 181.026 564.63C181.162 564.766 180.876 565.284 180.468 565.842C180.059 566.401 179.65 566.878 179.473 566.782Z" fill="#263238"/>
<path d="M180.808 567.546C180.617 567.546 180.713 566.783 181.121 566.061C181.53 565.339 182.075 564.903 182.225 565.012C182.375 565.121 182.129 565.734 181.748 566.374C181.367 567.014 180.985 567.614 180.808 567.546Z" fill="#263238"/>
<path d="M164.406 568.881C164.324 568.881 164.011 568.636 163.561 568.118C163.012 567.453 162.401 566.841 161.735 566.292C161.081 565.77 160.302 565.427 159.474 565.298C158.834 565.216 158.425 565.298 158.384 565.216C158.343 565.134 158.738 564.848 159.488 564.794C160.476 564.773 161.441 565.101 162.212 565.72C162.935 566.309 163.544 567.025 164.011 567.832C164.324 568.431 164.487 568.826 164.406 568.881Z" fill="#263238"/>
<path d="M179.541 564.589C179.636 564.753 179.282 565.162 178.683 565.38C178.083 565.598 177.552 565.516 177.525 565.38C177.498 565.243 177.92 564.957 178.438 564.766C178.955 564.576 179.432 564.426 179.541 564.589Z" fill="#263238"/>
<path d="M179.214 563.459C179.214 563.663 178.669 563.826 177.961 563.84C177.252 563.854 176.694 563.69 176.707 563.499C176.721 563.309 177.28 563.132 177.961 563.118C178.642 563.104 179.187 563.268 179.214 563.459Z" fill="#263238"/>
<path d="M230.533 564.398V552.75L209.649 552.601L209.471 570.038L210.766 570.134C216.528 570.502 240.097 571.224 243.952 570.025C248.257 568.69 230.533 564.398 230.533 564.398Z" fill="#7ECA9D"/>
<path d="M244.442 568.963C244.442 569.153 236.636 569.317 226.991 569.317C217.346 569.317 209.553 569.153 209.553 568.963C209.553 568.772 217.359 568.608 226.991 568.608C236.623 568.608 244.442 568.772 244.442 568.963Z" fill="#263238"/>
<path d="M230.901 566.782C230.737 566.687 230.901 566.074 231.323 565.42C231.745 564.766 232.318 564.494 232.454 564.63C232.59 564.766 232.304 565.284 231.895 565.842C231.487 566.401 231.078 566.878 230.901 566.782Z" fill="#263238"/>
<path d="M232.236 567.546C232.059 567.546 232.141 566.783 232.563 566.061C232.985 565.339 233.517 564.903 233.666 565.012C233.816 565.121 233.557 565.734 233.176 566.374C232.794 567.014 232.427 567.614 232.236 567.546Z" fill="#263238"/>
<path d="M215.833 568.881C215.752 568.881 215.452 568.636 214.989 568.118C214.44 567.453 213.829 566.841 213.163 566.292C212.509 565.77 211.729 565.427 210.902 565.298C210.275 565.216 209.853 565.298 209.812 565.216C209.771 565.134 210.166 564.848 210.915 564.794C211.904 564.773 212.869 565.101 213.64 565.72C214.366 566.305 214.976 567.022 215.438 567.832C215.752 568.431 215.915 568.826 215.833 568.881Z" fill="#263238"/>
<path d="M230.969 564.589C231.064 564.753 230.71 565.162 230.111 565.38C229.511 565.598 228.98 565.516 228.953 565.38C228.925 565.243 229.348 564.957 229.865 564.766C230.383 564.576 230.86 564.426 230.969 564.589Z" fill="#263238"/>
<path d="M230.669 563.459C230.669 563.663 230.124 563.826 229.416 563.84C228.707 563.854 228.163 563.69 228.176 563.499C228.19 563.309 228.735 563.132 229.416 563.118C230.097 563.104 230.669 563.268 230.669 563.459Z" fill="#263238"/>
<path d="M307.477 218.504C306.932 217.945 305.584 218.218 305.584 218.218C305.719 217.433 305.719 216.632 305.584 215.847C305.338 215.084 303.622 215.234 303.622 215.234C303.543 214.592 303.543 213.942 303.622 213.3C303.636 213.157 303.605 213.014 303.534 212.89C303.464 212.765 303.356 212.666 303.227 212.605C302.415 212.274 301.542 212.116 300.666 212.142C299.617 211.392 303.867 205.439 305.447 203.532C307.028 201.625 306.742 200.14 305.338 200.14C304.371 200.14 299.412 205.861 297.886 207.782C296.361 209.703 292.315 215.044 292.178 210.779C292.042 206.515 290.326 203.3 289.249 202.755C288.173 202.21 287.029 203.491 287.615 204.676C288.129 206.023 288.45 207.435 288.568 208.872C288.716 210.017 288.665 211.178 288.418 212.305C287.967 214.403 287.352 216.461 286.579 218.463H286.47C286.47 218.463 256.744 246.976 254.592 249.006C252.671 250.832 214.035 246.84 206.284 246.023C203.65 245.637 200.99 245.455 198.328 245.478C194.963 245.628 194.363 246.105 191.012 246.145C182.548 246.239 174.104 246.982 165.754 248.366C161.973 249.009 158.442 250.678 155.544 253.191C152.647 255.704 150.496 258.964 149.325 262.616C141.519 287.002 123.836 344.723 120.716 377.147C118.358 381.422 116.23 385.819 114.34 390.321C112.147 396.288 112.678 396.492 113.414 396.628C115.403 396.996 117.664 386.288 118.509 388.876C119.353 391.465 114.217 401.642 116.302 401.941C119.027 402.323 121.193 391.043 121.451 390.143C121.71 389.244 123.059 389.53 122.814 390.375C122.419 391.574 118.591 404.284 121.261 404.693C122.732 404.911 122.896 402.227 122.896 402.227C122.896 402.227 125.62 390.062 126.86 390.307C128.1 390.552 126.778 397.732 126.151 400.129C125.525 402.527 126.397 403.74 127.677 403.154C128.549 402.745 130.634 395.457 131.206 393.086C131.778 390.716 133.208 384.149 135.129 387.95C137.05 391.751 139.965 393.958 141.164 394.012C141.434 393.981 141.689 393.87 141.895 393.693C142.102 393.516 142.25 393.281 142.322 393.019C142.394 392.757 142.386 392.479 142.298 392.221C142.211 391.964 142.048 391.738 141.832 391.574C140.801 390.567 139.916 389.421 139.203 388.168C138.567 387.193 138.106 386.114 137.84 384.98C137.291 382.72 136.972 380.411 136.887 378.087L136.669 376.725C139.72 361.616 148.507 317.273 161.191 288.95L166.395 299.658L168.656 307.586L154.788 341.822L213.94 341.045L205.112 307.069L215.834 271.648C227.427 271.907 257.194 272.343 262.153 270.095C268.392 267.37 300.666 226.61 300.666 226.61C302.769 224.975 304.784 223.229 306.701 221.378C306.701 221.378 308.663 219.73 307.477 218.504Z" fill="#FFBE9D"/>
<path d="M152.186 316.524C153.902 310.666 162.716 281.703 162.716 281.703C162.716 281.703 167.049 305.312 165.904 308.159C164.852 310.596 163.608 312.947 162.185 315.189C152.186 330.406 153.493 338.021 153.493 338.021L213.913 336.182C214.049 327.736 209.049 308.091 208.014 304.958C206.978 301.824 210.425 291.566 210.425 291.566C210.425 291.566 217.237 284.632 216.991 281.062C216.862 277.856 216.466 274.666 215.806 271.526L252.589 272.888L251.431 247.958L198.6 242.672C196.761 247.862 180.127 245.315 180.127 245.315C162.171 245.914 161.054 249.211 153.589 255.015C146.123 260.818 133.767 310.625 133.767 310.625L152.186 316.524Z" fill="#7ECA9D"/>
<path d="M187.906 310.624C186.859 310.811 185.792 310.866 184.732 310.788C182.756 310.788 180.045 310.651 177.062 310.352C174.078 310.052 171.381 309.63 169.46 309.248C168.401 309.112 167.362 308.846 166.367 308.458C167.433 308.458 168.495 308.559 169.542 308.758C171.476 309.003 174.16 309.344 177.13 309.643C180.1 309.943 182.797 310.147 184.745 310.284C185.807 310.297 186.865 310.411 187.906 310.624Z" fill="#263238"/>
<path d="M192.047 305.488C191 306.001 189.892 306.381 188.75 306.619C183.315 308.047 177.708 308.712 172.089 308.594C170.927 308.632 169.764 308.522 168.629 308.267C169.776 308.123 170.933 308.063 172.089 308.09C174.228 308.022 177.171 307.872 180.413 307.491C183.655 307.109 186.544 306.565 188.587 306.129C189.722 305.825 190.879 305.611 192.047 305.488Z" fill="#263238"/>
<path d="M212.373 282.574C212.346 283.613 212.204 284.645 211.951 285.653C211.597 287.547 211.052 290.135 210.357 292.969C209.662 295.802 208.995 298.418 208.395 300.189C208.154 301.203 207.798 302.186 207.333 303.118C207.408 302.083 207.6 301.059 207.905 300.066C208.422 297.941 209.008 295.489 209.662 292.805C210.316 290.122 210.943 287.669 211.46 285.544C211.645 284.521 211.951 283.524 212.373 282.574Z" fill="#263238"/>
<path d="M152.826 313.049C149.674 312.563 146.564 311.839 143.521 310.883C140.412 310.156 137.361 309.2 134.394 308.022C137.544 308.517 140.654 309.241 143.698 310.189C146.808 310.913 149.859 311.869 152.826 313.049Z" fill="#263238"/>
<path d="M216.46 271.226C215.946 271.314 215.421 271.314 214.907 271.226C213.484 271.08 212.087 270.745 210.752 270.231C208.523 269.394 206.495 268.099 204.796 266.431C203.097 264.763 201.766 262.758 200.889 260.545C199.919 258.111 199.504 255.49 199.676 252.875C199.737 250.718 200.382 248.618 201.543 246.799C202.359 245.574 203.578 244.673 204.989 244.252C205.366 244.148 205.756 244.097 206.147 244.102C206.42 244.102 206.556 244.102 206.556 244.102C206.556 244.102 205.984 244.102 205.071 244.47C203.777 244.948 202.679 245.844 201.951 247.017C200.099 249.933 199.581 255.259 201.556 260.232C202.476 262.576 203.915 264.682 205.766 266.39C207.283 267.787 209.029 268.912 210.929 269.714C212.712 270.418 214.567 270.925 216.46 271.226Z" fill="#263238"/>
<path d="M248.216 272.398C247.875 268.22 247.766 264.027 247.889 259.837C247.782 255.651 247.91 251.462 248.27 247.29C248.611 251.463 248.721 255.652 248.597 259.837C248.712 264.028 248.585 268.222 248.216 272.398Z" fill="#263238"/>
<path d="M198.246 244.197C198.396 241.159 198.709 237.726 198.709 237.726C198.709 237.726 206.229 236.895 206.679 229.13C207.128 221.364 206.679 203.45 206.679 203.45L193.055 196.475L177.933 208.368L180.263 247.194L194.132 248.08C195.192 248.109 196.22 247.717 196.991 246.989C197.763 246.261 198.214 245.257 198.246 244.197Z" fill="#FFBE9D"/>
<path d="M199.595 222.985C199.595 222.985 199.595 223.135 199.472 223.312C199.371 223.441 199.239 223.543 199.09 223.609C198.94 223.676 198.777 223.705 198.614 223.694C197.742 223.694 196.897 222.686 196.597 221.514C196.455 220.946 196.455 220.352 196.597 219.784C196.625 219.536 196.715 219.299 196.858 219.095C197 218.89 197.192 218.724 197.415 218.612C197.598 218.537 197.804 218.537 197.987 218.612C198.123 218.68 198.233 218.79 198.3 218.926C198.396 219.157 198.3 219.307 198.3 219.294C198.3 219.28 198.3 219.157 198.164 219.021C198.093 218.924 197.988 218.856 197.87 218.831C197.752 218.805 197.629 218.825 197.524 218.885C197.357 218.986 197.218 219.128 197.12 219.297C197.023 219.466 196.969 219.657 196.965 219.852C196.851 220.359 196.851 220.885 196.965 221.392C197.238 222.454 197.973 223.312 198.627 223.394C198.755 223.412 198.885 223.402 199.01 223.367C199.134 223.332 199.249 223.272 199.349 223.19C199.513 223.081 199.567 222.972 199.595 222.985Z" fill="#EB996E"/>
<path d="M211.351 199.254C210.302 195.685 206.502 193.914 203.041 192.933C197.769 191.434 192.075 190.78 186.925 192.674C181.775 194.568 175.59 197.892 175.59 203.573C172.552 203.327 170.809 205.984 169.61 209.281C168.843 211.289 168.384 213.402 168.247 215.547C167.866 222.986 165.782 233.258 160.959 238.707C158.234 241.745 154.461 243.843 152.908 247.63C151.545 250.913 152.254 254.81 150.987 258.134C149.856 261.063 147.363 263.147 145.537 265.695C143.678 268.585 142.583 271.9 142.357 275.329C142.13 278.759 142.779 282.189 144.243 285.299C145.717 288.328 147.793 291.026 150.344 293.228C152.894 295.429 155.866 297.089 159.079 298.104C165.442 300.041 172.228 300.107 178.628 298.295C183.432 297.147 187.912 294.925 191.734 291.797C195.644 288.604 198.33 284.156 199.336 279.209C200.303 273.651 198.75 267.997 197.592 262.466C193.968 244.987 195.004 244.075 199.581 227.849C199.69 227.563 199.744 227.263 199.826 226.977C199.908 226.691 199.949 226.555 200.003 226.337C200.133 225.696 200.202 225.043 200.208 224.389C199.539 224.638 198.813 224.69 198.116 224.541C197.418 224.391 196.778 224.045 196.27 223.544C195.762 223.01 195.407 222.348 195.244 221.629C195.081 220.909 195.115 220.159 195.344 219.457C195.666 218.69 196.144 217.999 196.75 217.429C197.355 216.859 198.074 216.422 198.859 216.147C200.371 215.52 201.992 215.193 203.477 214.498C206.624 213 208.804 209.894 210.289 206.638C211.51 204.381 211.886 201.763 211.351 199.254Z" fill="#263238"/>
<path d="M200.139 223.354C200.427 223.779 200.665 224.236 200.848 224.716C201.257 225.574 201.801 226.787 202.401 228.19L202.51 228.449H202.224L200.861 228.571C199.921 228.571 199.131 228.748 198.205 228.735C198.124 228.717 198.05 228.678 197.988 228.624C197.926 228.569 197.879 228.499 197.851 228.421C197.81 228.297 197.81 228.164 197.851 228.04C197.882 227.856 197.923 227.674 197.973 227.495L198.219 226.528C198.342 225.882 198.534 225.252 198.791 224.648C198.765 225.305 198.669 225.959 198.505 226.596L198.314 227.563C198.246 227.89 198.123 228.394 198.314 228.353C198.995 228.353 199.962 228.203 200.861 228.149L202.224 228.026L202.047 228.326C201.461 226.964 200.97 225.683 200.684 224.798C200.433 224.345 200.25 223.859 200.139 223.354Z" fill="#7ECA9D"/>
<path d="M153.493 338.021L213.913 336.182L240.206 438.819L235.369 556.552H203.423L207.333 441.326L183.969 369.872L187.565 561.116L155.278 561.592L151.886 381.833C151.736 376.833 150.101 365.567 150.714 360.608L153.493 338.021Z" fill="#263238"/>
<path d="M192.006 371.33C191.017 371.392 190.025 371.332 189.05 371.152C187.225 370.934 184.732 370.553 181.993 370.008C179.255 369.463 176.803 368.837 175.032 368.332C174.085 368.124 173.169 367.795 172.307 367.352C172.307 367.147 176.748 368.21 182.198 369.313C187.647 370.417 192.034 371.125 192.006 371.33Z" fill="#455A64"/>
<path d="M235.042 550.094C235.042 550.285 227.808 550.449 218.885 550.449C209.962 550.449 202.714 550.285 202.714 550.094C202.714 549.904 209.948 549.74 218.885 549.74C227.822 549.74 235.042 549.89 235.042 550.094Z" fill="#455A64"/>
<path d="M187.279 556.143C187.279 556.348 180.249 556.497 171.585 556.497C162.921 556.497 155.905 556.348 155.905 556.143C155.905 555.939 162.934 555.789 171.585 555.789C180.236 555.789 187.279 555.953 187.279 556.143Z" fill="#455A64"/>
<path d="M183.11 555.652C182.92 555.652 182.075 513.87 181.217 462.333C180.358 410.796 179.854 368.986 180.032 368.986C180.209 368.986 181.08 410.755 181.925 462.319C182.77 513.883 183.315 555.652 183.11 555.652Z" fill="#455A64"/>
<path d="M230.751 550.094C230.736 549.908 230.736 549.721 230.751 549.535V547.901C230.751 546.429 230.86 544.318 230.942 541.634C231.132 536.185 231.405 528.27 231.746 518.57C232.481 499.061 233.517 472.169 234.647 442.484C234.647 442.198 234.647 441.925 234.647 441.68V441.775C227.495 413.166 221.024 387.201 216.324 368.414L210.875 346.194C210.248 343.592 209.771 341.563 209.431 340.146C209.267 339.478 209.158 338.961 209.063 338.565C209.01 338.388 208.978 338.205 208.967 338.021C209.038 338.192 209.093 338.37 209.131 338.552C209.24 338.933 209.376 339.451 209.567 340.105C209.935 341.467 210.466 343.538 211.147 346.126C212.509 351.385 214.43 358.959 216.828 368.291C221.569 387.064 228.108 412.962 235.356 441.612V441.707C235.356 441.952 235.356 442.239 235.356 442.511C234.143 472.196 233.04 499.075 232.236 518.583C231.814 528.297 231.459 536.157 231.214 541.634C231.078 544.359 230.969 546.429 230.901 547.901C230.901 548.595 230.819 549.14 230.806 549.535C230.808 549.723 230.789 549.91 230.751 550.094Z" fill="#455A64"/>
<path d="M220.329 439.282C218.034 440.037 215.671 440.561 213.272 440.849C210.33 441.353 207.823 441.707 206.692 441.762V441.489C207.06 441.598 207.251 441.666 207.251 441.721C207.251 441.775 207.019 441.721 206.638 441.721H205.82L206.638 441.476C207.7 441.162 210.207 440.645 213.15 440.113C215.51 439.601 217.914 439.323 220.329 439.282Z" fill="#455A64"/>
<path d="M219.771 443.193C217.646 443.29 215.516 443.194 213.409 442.907C211.281 442.863 209.161 442.63 207.074 442.212C211.331 441.864 215.617 442.195 219.771 443.193Z" fill="#455A64"/>
<path opacity="0.2" d="M153.234 340.187C153.95 341.106 154.851 341.863 155.879 342.41C156.908 342.957 158.04 343.281 159.201 343.361C161.635 343.649 164.096 343.604 166.517 343.225C182.116 341.495 198.641 339.901 213.913 336.182C194.145 337.285 173.261 336.917 153.493 338.021L153.289 339.71" fill="black"/>
<g opacity="0.2">
<path d="M173.601 368.047L184.745 411.287L183.969 369.872L173.601 368.047Z" fill="black"/>
</g>
</svg>
