<svg width="17" height="16" viewBox="0 0 17 16" fill="none" xmlns="http://www.w3.org/2000/svg">
<path d="M13.1583 1.33984L15.1583 3.33984L13.6337 4.86518L11.6337 2.86518L13.1583 1.33984ZM5.83301 10.6652H7.83301L12.691 5.80718L10.691 3.80718L5.83301 8.66518V10.6652Z" fill="#7ECA9D"/>
<path d="M13.1667 12.6667H5.93867C5.92133 12.6667 5.90333 12.6733 5.886 12.6733C5.864 12.6733 5.842 12.6673 5.81933 12.6667H3.83333V3.33333H8.398L9.73133 2H3.83333C3.098 2 2.5 2.59733 2.5 3.33333V12.6667C2.5 13.4027 3.098 14 3.83333 14H13.1667C13.5203 14 13.8594 13.8595 14.1095 13.6095C14.3595 13.3594 14.5 13.0203 14.5 12.6667V6.888L13.1667 8.22133V12.6667Z" fill="#7ECA9D"/>
</svg>
