<svg width="18" height="18" viewBox="0 0 18 18" fill="none" xmlns="http://www.w3.org/2000/svg">
<path d="M14.5584 8.07253V15.5245C14.5584 15.7373 14.5165 15.9479 14.4351 16.1445C14.3537 16.341 14.2343 16.5196 14.0839 16.67C13.9335 16.8205 13.7549 16.9398 13.5583 17.0212C13.3618 17.1026 13.1511 17.1445 12.9384 17.1445H3.21839C2.78874 17.1445 2.37668 16.9739 2.07288 16.67C1.76907 16.3662 1.59839 15.9542 1.59839 15.5245V5.80453C1.59839 5.37488 1.76907 4.96283 2.07288 4.65902C2.37668 4.35521 2.78874 4.18453 3.21839 4.18453H10.0013M12.6144 1.59253H17.1504V6.12853M8.07839 10.6645L16.8264 1.91653" stroke="#78C14E" strokeWidth="1.296" strokeLinecap="round" strokeLinejoin="round"/>
</svg>
